<?xml version="1.0" encoding="utf-8"?>
<!-- Generator: Adobe Illustrator 16.0.0, SVG Export Plug-In . SVG Version: 6.00 Build 0)  -->
<!DOCTYPE svg PUBLIC "-//W3C//DTD SVG 1.1//EN" "http://www.w3.org/Graphics/SVG/1.1/DTD/svg11.dtd">
<svg version="1.1" id="Layer_1" xmlns="http://www.w3.org/2000/svg" xmlns:xlink="http://www.w3.org/1999/xlink" x="0px" y="0px"
	 width="150px" height="150px" viewBox="0 0 150 150" enable-background="new 0 0 150 150" xml:space="preserve">
<g>
	<path fill="#67C19B" d="M13.829,85.178c-0.118,0.287-0.134,0.576-0.151,0.883c-0.017,0.307,0.062,0.609-0.007,0.914
		c-0.052,0.221-0.037,0.438,0.098,0.639c0.075,0.113,0.121,0.255,0.119,0.391c-0.015,0.678,0.323,1.282,0.363,1.949
		c0.025,0.404,0.206,0.773,0.319,1.156c0.116,0.39,0.342,0.722,0.56,1.048c0.167,0.249,0.332,0.485,0.389,0.78
		c0.034,0.18,0.128,0.302,0.259,0.416c0.191,0.164,0.418,0.276,0.604,0.449c0.38,0.35,0.636,0.831,1.116,1.069
		c0.019,0.008,0.03,0.028,0.046,0.043c0.377,0.37,0.688,0.817,1.193,1.039c0.101,0.045,0.196,0.134,0.259,0.228
		c0.203,0.301,0.499,0.469,0.812,0.617c0.085,0.04,0.182,0.076,0.241,0.145c0.314,0.353,0.73,0.504,1.14,0.709
		c0.579,0.293,1.095,0.719,1.703,0.975c0.02,0.007,0.033,0.025,0.052,0.035c0.298,0.15,0.547,0.398,0.85,0.52
		c0.347,0.139,0.689,0.295,1.034,0.42c0.562,0.205,1.064,0.574,1.678,0.64c0.197,0.021,0.41,0.034,0.578,0.124
		c0.38,0.199,0.792,0.285,1.188,0.428c0.626,0.225,1.269,0.389,1.892,0.616c0.165,0.062,0.331,0.138,0.504,0.168
		c0.44,0.073,0.831,0.329,1.284,0.354c0.029,0.002,0.06,0.02,0.087,0.033c0.331,0.154,0.723,0.12,1.032,0.342
		c0.021,0.016,0.062,0.012,0.091,0.008c0.454-0.078,0.835,0.117,1.216,0.322c0.09,0.051,0.171,0.12,0.288,0.098
		c0.413-0.076,0.782,0.086,1.146,0.24c0.148,0.062,0.288,0.106,0.448,0.104c0.687-0.011,1.323,0.257,1.982,0.388
		c0.491,0.098,0.941,0.385,1.469,0.348c0.08-0.006,0.163,0.03,0.243,0.057c0.201,0.061,0.405,0.102,0.615,0.109
		c0.244,0.012,0.474,0.064,0.681,0.203c0.081,0.055,0.168,0.082,0.267,0.063c0.645-0.122,1.235,0.237,1.868,0.222
		c0.069-0.002,0.139,0.047,0.21,0.063c0.253,0.062,0.504,0.155,0.759,0.174c0.604,0.044,1.205,0.079,1.778,0.298
		c0.045,0.018,0.102,0.01,0.153,0.004c0.292-0.029,0.559,0.049,0.804,0.203c0.092,0.059,0.182,0.107,0.292,0.068
		c0.501-0.174,0.971,0.039,1.436,0.156c0.343,0.09,0.688,0.189,1.036,0.193c0.532,0.005,1.059,0.045,1.583,0.119
		c0.422,0.061,0.844,0.105,1.26,0.219c0.277,0.074,0.548,0.204,0.842,0.211c0.519,0.01,1.034-0.009,1.555,0.043
		c0.773,0.073,1.547,0.209,2.33,0.139c0.049-0.004,0.102,0.016,0.154,0.02c0.636,0.064,1.242,0.294,1.909,0.223
		c0.382-0.043,0.783,0.06,1.191,0.006c0.288-0.037,0.599,0.023,0.901,0.023c0.103,0,0.211,0.02,0.304,0.061
		c0.249,0.111,0.488,0.141,0.748,0.024c0.121-0.054,0.267-0.019,0.401-0.016c0.362,0.008,0.729,0.043,1.085-0.005
		c0.347-0.047,0.659,0.087,0.984,0.097c0.326,0.01,0.65-0.144,0.989-0.077c0.133,0.026,0.269,0.04,0.401,0.069
		c0.073,0.016,0.141,0.008,0.214-0.002c0.527-0.076,1.054-0.058,1.581,0.015c0.355,0.051,0.697,0.237,1.072,0.088
		c0.236-0.095,0.489-0.105,0.741-0.084c0.485,0.047,0.97,0.12,1.462,0.085c0.733-0.052,1.468,0.161,2.201,0.007
		c0.021-0.004,0.044-0.002,0.064,0c0.438,0.078,0.867-0.039,1.301-0.053c0.442-0.011,0.89,0.037,1.332-0.013
		c0.05-0.005,0.106,0.008,0.151,0.03c0.174,0.092,0.342,0.037,0.516,0.01c0.482-0.081,0.964-0.141,1.455-0.126
		c0.197,0.004,0.389,0.071,0.587,0.041c0.503-0.074,1.013-0.056,1.519-0.097c0.388-0.031,0.77,0.039,1.151,0.062
		c0.317,0.021,0.608-0.111,0.929-0.09c0.602,0.04,1.205-0.001,1.807,0.04c0.625,0.043,1.246-0.076,1.869-0.084
		c0.229-0.003,0.457-0.029,0.68-0.093c0.152-0.043,0.314-0.047,0.467-0.012c0.436,0.1,0.857,0.059,1.293-0.033
		c0.373-0.078,0.752-0.138,1.146-0.074c0.219,0.035,0.455,0.111,0.678,0.041c0.544-0.176,1.105-0.146,1.662-0.176
		c0.324-0.019,0.646-0.031,0.957,0.094c0.064,0.024,0.121-0.019,0.178-0.043c0.379-0.164,0.773-0.153,1.169-0.098
		c0.125,0.019,0.244,0.037,0.37,0.01c0.844-0.185,1.704-0.174,2.553-0.133c0.573,0.028,1.133-0.041,1.67-0.147
		c0.764-0.153,1.52-0.25,2.293-0.222c0.133,0.006,0.27,0,0.4-0.053c0.423-0.16,0.875-0.176,1.314-0.248
		c0.264-0.043,0.527-0.134,0.799-0.113c0.32,0.026,0.619-0.056,0.918-0.15c0.17-0.055,0.343-0.125,0.517-0.109
		c0.491,0.039,0.933-0.191,1.402-0.263c0.538-0.083,1.087-0.13,1.606-0.319c0.073-0.025,0.164-0.002,0.278-0.002
		c0.162,0.053,0.342-0.002,0.517-0.078c0.203-0.091,0.416-0.129,0.64-0.132c0.094,0,0.2,0.015,0.272-0.043
		c0.329-0.261,0.741-0.278,1.117-0.379c0.32-0.085,0.629-0.231,0.961-0.256c0.479-0.035,0.943-0.142,1.411-0.229
		c0.187-0.035,0.349-0.15,0.539-0.153c0.239-0.003,0.446-0.099,0.644-0.224c0.205-0.131,0.426-0.218,0.674-0.227
		c0.07-0.003,0.146,0.006,0.211-0.038c0.398-0.271,0.894-0.254,1.32-0.452c0.271-0.127,0.523-0.303,0.83-0.359
		c0.566-0.104,1.152-0.149,1.66-0.474c0.018-0.011,0.038-0.012,0.061-0.013c0.445-0.014,0.851-0.186,1.273-0.296
		c0.401-0.107,0.784-0.244,1.167-0.394c0.117-0.045,0.235-0.098,0.356-0.111c0.262-0.028,0.474-0.157,0.672-0.314
		c0.109-0.088,0.222-0.139,0.367-0.146c0.383-0.016,0.705-0.174,0.957-0.469c0.121-0.142,0.254-0.246,0.445-0.268
		c0.482-0.051,0.855-0.305,1.168-0.668c0.096-0.113,0.188-0.238,0.334-0.277c0.266-0.07,0.521-0.18,0.754-0.301
		c0.349-0.181,0.741-0.264,1.049-0.537c0.279-0.246,0.617-0.4,0.996-0.398c0.152,0.002,0.229-0.069,0.301-0.183
		c0.129-0.196,0.271-0.391,0.488-0.481c0.357-0.147,0.668-0.383,1.015-0.553c0.247-0.123,0.501-0.261,0.694-0.467
		c0.309-0.326,0.66-0.604,0.944-0.955c0.351-0.43,0.865-0.693,1.158-1.187c0.053-0.085,0.157-0.138,0.231-0.21
		c0.412-0.408,0.799-0.809,1.043-1.381c0.258-0.604,0.547-1.18,0.711-1.827c0.102-0.402,0.269-0.792,0.33-1.209
		c0.02-0.147,0.061-0.294,0.143-0.417c0.104-0.156,0.141-0.329,0.146-0.51c0.006-0.244-0.008-0.485,0-0.729
		c0.01-0.339-0.14-0.668-0.078-1.007c0.035-0.211,0.002-0.4-0.101-0.58c-0.121-0.214-0.17-0.441-0.185-0.678h-4.809
		c0.002,0.229,0.008,0.457-0.01,0.685c-0.059,0.753-0.21,1.491-0.564,2.187c-0.205,0.398-0.467,0.772-0.612,1.203
		c-0.214,0.621-0.63,1.116-1.002,1.635c-0.236,0.33-0.413,0.705-0.736,0.976c-0.239,0.2-0.407,0.483-0.624,0.7
		c-0.402,0.402-0.807,0.829-1.367,1.023c-0.111,0.039-0.193,0.115-0.289,0.178c-0.449,0.298-0.863,0.671-1.375,0.852
		c-0.793,0.281-1.477,0.73-2.065,1.323c-0.281,0.282-0.589,0.467-0.984,0.487c-0.12,0.007-0.219,0.022-0.278,0.154
		c-0.285,0.619-0.862,0.793-1.447,0.924c-0.188,0.041-0.359,0.086-0.514,0.201c-0.293,0.221-0.615,0.353-0.988,0.32
		c-0.061-0.006-0.137-0.006-0.184,0.025c-0.347,0.229-0.781,0.291-1.084,0.609c-0.131,0.139-0.318,0.231-0.503,0.237
		c-0.323,0.013-0.601,0.132-0.87,0.293c-0.144,0.086-0.31,0.138-0.476,0.146c-0.474,0.021-0.927,0.153-1.358,0.322
		c-0.41,0.164-0.834,0.168-1.255,0.225c-0.21,0.025-0.407,0.06-0.581,0.195c-0.115,0.092-0.256,0.153-0.4,0.17
		c-0.282,0.03-0.541,0.151-0.81,0.204c-0.468,0.095-0.931,0.222-1.407,0.261c-0.219,0.02-0.436,0.051-0.649,0.086
		c-0.136,0.021-0.281,0.058-0.404,0.009c-0.325-0.13-0.626,0.008-0.942,0.043c-0.772,0.083-1.529,0.373-2.306,0.319
		c-0.528-0.035-1.002,0.146-1.506,0.181c-0.396,0.024-0.788,0.058-1.183-0.005c-0.092-0.016-0.18-0.025-0.274,0.009
		c-0.454,0.164-0.916,0.289-1.405,0.188c-0.096-0.021-0.185,0.014-0.273,0.041c-0.252,0.08-0.529,0.149-0.771,0.088
		c-0.563-0.145-1.113-0.01-1.656,0.062c-0.901,0.118-1.806,0.072-2.707,0.139c-0.041,0.002-0.088-0.013-0.123,0.004
		c-0.572,0.273-1.191,0.144-1.786,0.211c-0.292,0.033-0.584,0.008-0.862-0.108c-0.057-0.024-0.127-0.062-0.18-0.044
		c-0.389,0.115-0.788,0-1.176,0.064c-0.209,0.034-0.414,0.047-0.621-0.013c-0.049-0.014-0.104-0.038-0.15-0.028
		c-0.464,0.1-0.912-0.01-1.361-0.097c-0.086-0.017-0.164,0.004-0.244,0.032c-0.379,0.127-0.785,0.115-1.162,0.236
		c-0.049,0.016-0.106,0.026-0.155,0.016c-0.479-0.119-0.949,0.02-1.425,0.05c-0.155,0.011-0.312,0.011-0.467-0.028
		c-0.115-0.027-0.228-0.023-0.34,0.016c-0.109,0.037-0.229,0.066-0.339,0.042c-0.593-0.136-1.181,0.044-1.771,0.021
		c-0.383-0.016-0.76-0.098-1.147-0.031c-0.159,0.027-0.33,0.008-0.493,0.047c-0.145,0.035-0.297,0.037-0.435-0.012
		c-0.224-0.076-0.44-0.055-0.671-0.035c-0.338,0.029-0.678,0.002-1.008,0.127c-0.164,0.062-0.35,0.019-0.526-0.01
		c-0.317-0.055-0.638-0.095-0.962-0.047c-0.248,0.037-0.499,0.042-0.742-0.048c-0.029-0.01-0.064-0.022-0.093-0.014
		c-0.505,0.163-1.038-0.077-1.537,0.132c-0.067,0.027-0.145,0.05-0.215,0.046c-0.536-0.034-1.08,0.067-1.61-0.071
		c-0.135-0.035-0.266-0.023-0.401-0.023c-0.692-0.004-1.386,0.076-2.08-0.061c-0.334-0.066-0.675-0.068-1.007-0.191
		c-0.219-0.082-0.471,0.031-0.707,0.066c-1.153,0.176-2.303,0.375-3.47,0.143c-0.103-0.021-0.188,0.014-0.273,0.043
		c-0.286,0.1-0.57,0.089-0.862,0.02c-0.34-0.078-0.674-0.207-1.034-0.059c-0.14,0.058-0.308,0.02-0.464-0.008
		c-0.339-0.06-0.68-0.104-1.018-0.164c-0.111-0.019-0.206,0.017-0.302,0.057c-0.188,0.077-0.385,0.111-0.584,0.077
		c-0.424-0.072-0.857-0.007-1.273-0.072c-0.551-0.087-1.095,0.007-1.64-0.051c-0.124-0.013-0.25-0.009-0.375-0.004
		c-0.493,0.019-0.978-0.129-1.479-0.066c-0.204,0.024-0.428-0.03-0.645,0.005c-0.317,0.049-0.604-0.148-0.923-0.131
		c-0.167,0.01-0.332-0.013-0.497,0.033c-0.059,0.018-0.126,0.027-0.186,0.02c-0.505-0.088-1.015-0.078-1.523-0.084
		c-0.249-0.004-0.505,0.016-0.745-0.016c-0.598-0.072-1.202-0.038-1.791-0.105c-0.6-0.07-1.203-0.07-1.798-0.153
		c-0.442-0.06-0.886-0.054-1.319-0.11c-0.573-0.076-1.158-0.119-1.722-0.275c-0.068-0.019-0.147-0.025-0.217-0.01
		c-0.351,0.073-0.683,0.032-1.002-0.136c-0.129-0.067-0.27-0.024-0.401-0.021c-0.442,0.016-0.859-0.135-1.294-0.184
		c-0.431-0.047-0.862-0.15-1.279-0.26c-0.492-0.128-0.995-0.189-1.486-0.311c-0.396-0.098-0.799-0.139-1.169-0.326
		c-0.062-0.031-0.142-0.035-0.213-0.037c-0.257-0.006-0.487-0.088-0.71-0.217c-0.264-0.154-0.543-0.256-0.859-0.233
		c-0.374,0.026-0.705-0.164-1.057-0.251c-0.183-0.045-0.358-0.1-0.55-0.102c-0.341,0-0.646-0.156-0.963-0.252
		c-0.151-0.045-0.299-0.088-0.456-0.088c-0.093,0-0.191-0.011-0.275-0.045c-0.512-0.207-1.053-0.322-1.546-0.586
		c-0.262-0.138-0.564-0.216-0.864-0.242c-0.289-0.026-0.552-0.104-0.788-0.272c-0.165-0.116-0.339-0.19-0.547-0.201
		c-0.166-0.009-0.333-0.06-0.471-0.157c-0.216-0.152-0.458-0.234-0.703-0.324c-0.273-0.1-0.548-0.172-0.825-0.252
		c-0.517-0.148-0.949-0.475-1.341-0.842c-0.29-0.272-0.613-0.49-0.996-0.57c-0.403-0.086-0.698-0.315-0.96-0.609
		c-0.282-0.316-0.562-0.629-0.974-0.773c-0.027-0.012-0.065-0.029-0.075-0.054c-0.196-0.469-0.702-0.575-1.017-0.907
		c-0.055-0.058-1.254-1.436-1.304-1.502c-0.173-0.236-0.407-0.418-0.585-0.654c-0.406-0.543-0.729-1.127-0.945-1.771
		c-0.055-0.164-0.117-0.312-0.233-0.438c-0.273-0.301-0.392-0.658-0.387-1.072c0.003-0.348-0.131-0.684-0.099-1.036
		c0.028-0.315,0.011-0.616-0.167-0.907c-0.074-0.119-0.105-0.256-0.112-0.396h-4.886C13.882,84.971,13.87,85.079,13.829,85.178z"/>
	<path fill="#67C19B" d="M43.051,129.969c-0.269-0.085-0.527-0.203-0.779-0.32c-0.494-0.226-0.998-0.432-1.484-0.678
		c-0.482-0.244-0.96-0.507-1.472-0.681c-0.28-0.095-0.546-0.194-0.799-0.422c-0.091,0.231-0.266,0.364-0.347,0.563
		c-0.146,0.375-0.395,0.692-0.562,1.058c-0.122,0.263-0.359,0.442-0.629,0.546c-0.174,0.064-0.301,0.163-0.418,0.309
		c-0.351,0.432-0.795,0.676-1.366,0.624c-0.109-0.01-0.203,0.022-0.294,0.08c-0.304,0.196-0.648,0.282-0.99,0.376
		c-0.326,0.09-0.667,0.434-0.719,0.77c-0.023,0.158-0.072,0.312-0.091,0.467c-0.054,0.426-0.021,0.846,0.253,1.199
		c0.121,0.156,0.25,0.312,0.389,0.449c0.176,0.174,0.405,0.295,0.664,0.283c0.199-0.01,0.394-0.014,0.589,0.029
		c0.506,0.107,1.016,0.059,1.521,0.029c0.135-0.008,0.268-0.006,0.4-0.062c0.344-0.146,0.706-0.184,1.072-0.128
		c0.122,0.018,0.191-0.015,0.266-0.104c0.279-0.332,0.641-0.502,1.068-0.516c0.211-0.006,0.375-0.083,0.513-0.253
		c0.146-0.182,0.327-0.334,0.547-0.413c0.245-0.087,0.437-0.246,0.61-0.428c0.218-0.227,0.431-0.475,0.667-0.657
		c0.385-0.298,0.648-0.653,0.871-1.075c0.146-0.275,0.312-0.548,0.529-0.781C43.114,130.178,43.26,130.037,43.051,129.969z"/>
	<path fill="#67C19B" d="M21.216,85.562c0.015,0.035,0.025,0.074,0.038,0.111c0.137-0.136,0.295-0.246,0.494-0.306
		c0.105-0.031,0.188-0.086,0.268-0.156c0.119-0.106,0.256-0.2,0.408-0.224c0.119-0.021,0.222-0.069,0.322-0.127h-1.397
		c-0.009,0.152-0.04,0.306-0.104,0.457C21.213,85.396,21.18,85.473,21.216,85.562z"/>
	<path fill="#67C19B" d="M113.373,130.105c-0.457-0.429-0.629-0.98-0.787-1.551c-0.078-0.281-0.122-0.578-0.314-0.83
		c-0.281,0.149-0.551,0.301-0.766,0.541c-0.225,0.252-0.462,0.495-0.788,0.606c-0.268,0.092-0.505,0.228-0.749,0.368
		c-0.701,0.404-1.388,0.844-2.201,1.09c0.137,0.26,0.223,0.509,0.375,0.697c0.305,0.38,0.459,0.854,0.795,1.207
		c0.062,0.064,0.084,0.168,0.125,0.254c0.037,0.074,0.076,0.148,0.144,0.205c0.423,0.356,0.874,0.679,1.267,1.074
		c0.281,0.283,0.678,0.355,1.019,0.527c0.372,0.188,0.786,0.301,1.213,0.365c0.354,0.057,0.729,0.085,1.054,0.27
		c0.201,0.112,0.391,0.117,0.598,0.031c0.195-0.081,0.412-0.13,0.612-0.074c0.414,0.11,0.771-0.046,1.138-0.191
		c0.086-0.034,0.176-0.062,0.266-0.088c0.372-0.107,0.691-0.271,0.796-0.694c0.021-0.081,0.069-0.153,0.114-0.226
		c0.173-0.271,0.146-0.537-0.031-0.793c-0.104-0.147-0.176-0.311-0.244-0.477c-0.181-0.439-0.451-0.762-0.947-0.845
		c-0.184-0.028-0.367-0.091-0.529-0.181c-0.18-0.102-0.36-0.145-0.562-0.147c-0.383-0.007-0.703-0.157-0.979-0.429
		C113.759,130.598,113.598,130.314,113.373,130.105z"/>
	<path fill="#67C19B" d="M24.361,103.417c0.002,0.599,0.196,1.136,0.486,1.644c0.096,0.168,0.156,0.349,0.171,0.539
		c0.039,0.567,0.229,1.086,0.489,1.584c0.224,0.426,0.297,0.896,0.419,1.355c0.047,0.173,0.097,0.339,0.212,0.484
		c0.076,0.099,0.146,0.22,0.166,0.338c0.073,0.453,0.281,0.859,0.423,1.283c0.161,0.48,0.39,0.953,0.673,1.383
		c0.123,0.188,0.227,0.382,0.271,0.603c0.016,0.087,0.056,0.161,0.113,0.224c0.124,0.133,0.215,0.287,0.293,0.449
		c0.328,0.678,0.766,1.295,1.117,1.955c0.227,0.424,0.422,0.846,0.768,1.194c0.22,0.223,0.296,0.552,0.502,0.813
		c0.309,0.389,0.631,0.754,0.966,1.118c0.329,0.358,0.633,0.752,0.938,1.138c0.268,0.334,0.601,0.615,0.722,1.055
		c0.012,0.045,0.064,0.083,0.104,0.113c0.591,0.435,1.065,1.004,1.643,1.455c0.174,0.138,0.277,0.336,0.448,0.481
		c0.291,0.25,0.618,0.449,0.911,0.681c0.382,0.305,0.8,0.516,1.21,0.754c0.091,0.053,0.185,0.108,0.253,0.185
		c0.275,0.299,0.575,0.55,0.927,0.765c0.364,0.223,0.76,0.332,1.144,0.477c0.226,0.086,0.458,0.14,0.649,0.295
		c0.149,0.119,0.318,0.203,0.492,0.271c0.407,0.157,0.805,0.346,1.201,0.523c0.409,0.184,0.817,0.387,1.215,0.6
		c0.461,0.246,0.941,0.447,1.4,0.696c0.074,0.042,0.159,0.035,0.241,0.054c0.588,0.135,1.146,0.364,1.717,0.555
		c0.085,0.029,0.164,0.096,0.233,0.158c0.165,0.146,0.345,0.225,0.57,0.209c0.102-0.01,0.221-0.009,0.308,0.036
		c0.539,0.282,1.137,0.3,1.711,0.413c0.228,0.046,0.452,0.104,0.642,0.244c0.11,0.083,0.247,0.039,0.357,0.087
		c0.532,0.229,1.105,0.157,1.657,0.233c0.157,0.021,0.316,0.048,0.446,0.135c0.227,0.15,0.464,0.164,0.718,0.113
		c0.104-0.021,1.809,0.242,1.893,0.3c0.23,0.157,0.478,0.188,0.745,0.159c0.093-0.01,0.197-0.024,0.279,0.007
		c0.558,0.215,1.161,0.241,1.721,0.438c0.132,0.047,0.255,0.075,0.396,0.039c0.259-0.066,0.523-0.046,0.772,0.041
		c0.38,0.135,0.771,0.146,1.164,0.176c0.421,0.031,0.872,0.029,1.254,0.162c0.66,0.229,1.346,0.082,1.998,0.266
		c0.074,0.021,0.164-0.016,0.246-0.021c0.397-0.033,0.792-0.058,1.171,0.102c0.09,0.037,0.181,0.039,0.275,0.037
		c0.304-0.01,0.607-0.006,0.9,0.076c0.328,0.094,0.66,0.041,0.989,0.066c0.083,0.006,0.175-0.016,0.249,0.016
		c0.384,0.144,0.773,0.19,1.183,0.154c0.12-0.011,0.242,0.009,0.364-0.027c0.363-0.106,0.726,0.002,1.089,0.016
		c0.113,0.004,0.226,0.015,0.338-0.02c0.326-0.102,0.645-0.052,0.942,0.094c0.151,0.074,0.282,0.095,0.441,0.037
		c0.552-0.201,1.087-0.086,1.607,0.133c0.092,0.037,0.173,0.062,0.27,0.037c0.25-0.062,0.492,0.023,0.738,0.039
		c0.402,0.021,0.811,0.184,1.22-0.006c0.171-0.08,0.371-0.111,0.552-0.049c0.454,0.153,0.885-0.004,1.317-0.083
		c0.701-0.128,1.397-0.211,2.105-0.075c0.122,0.021,0.223,0.004,0.324-0.064c0.312-0.211,0.665-0.254,1.021-0.178
		c0.193,0.043,0.362,0.004,0.549-0.019c0.558-0.067,1.121-0.096,1.675,0.038c0.21,0.052,0.397,0.001,0.575-0.068
		c0.344-0.134,0.68-0.127,1.041-0.115c0.396,0.014,0.807,0.055,1.201-0.047c0.187-0.047,0.375-0.066,0.557-0.011
		c0.191,0.06,0.361,0.035,0.54-0.057c0.198-0.103,0.421-0.134,0.64-0.099c0.348,0.058,0.682,0.006,1.018-0.072
		c0.379-0.088,0.768-0.062,1.15-0.035c0.124,0.008,0.246,0.015,0.371-0.001c0.876-0.103,1.75-0.22,2.628-0.294
		c0.302-0.025,0.597-0.032,0.888-0.127c0.135-0.047,0.289-0.047,0.434-0.047c0.357,0.004,0.716,0.051,1.064-0.106
		c0.168-0.075,0.371-0.042,0.558,0.008c0.219,0.06,0.426,0.04,0.637-0.06c0.288-0.135,0.597-0.182,0.915-0.128
		c0.092,0.015,0.198,0.034,0.277,0.002c0.377-0.157,0.783-0.198,1.17-0.323c0.797-0.26,1.55-0.689,2.419-0.689
		c0.075,0,0.141-0.03,0.206-0.067c0.062-0.037,0.123-0.089,0.191-0.104c0.547-0.113,1.035-0.431,1.602-0.482
		c0.074-0.008,0.141-0.029,0.199-0.079c0.357-0.296,0.773-0.351,1.211-0.263c0.164,0.033,0.299,0,0.451-0.057
		c0.426-0.158,0.836-0.391,1.318-0.332c0.123,0.016,0.215-0.07,0.305-0.145c0.481-0.396,1.055-0.626,1.598-0.91
		c0.388-0.199,0.802-0.344,1.125-0.659c0.207-0.198,0.471-0.312,0.748-0.381c0.56-0.14,0.953-0.536,1.367-0.903
		c0.016-0.013,0.023-0.037,0.041-0.048c0.49-0.312,0.826-0.827,1.367-1.069c0.108-0.047,0.196-0.115,0.266-0.213
		c0.201-0.283,0.475-0.47,0.787-0.604c0.297-0.131,0.586-0.271,0.764-0.571c0.029-0.054,0.079-0.104,0.131-0.134
		c0.42-0.261,0.743-0.642,1.133-0.94c0.305-0.233,0.574-0.52,0.863-0.774c0.473-0.416,0.868-0.905,1.287-1.371
		c0.189-0.211,0.445-0.333,0.635-0.558c0.245-0.287,0.484-0.562,0.622-0.924c0.065-0.178,0.207-0.324,0.372-0.42
		c0.175-0.102,0.277-0.246,0.341-0.432c0.144-0.432,0.438-0.77,0.718-1.105c0.229-0.277,0.344-0.6,0.453-0.927
		c0.148-0.448,0.4-0.832,0.684-1.198c0.058-0.074,0.133-0.127,0.146-0.232c0.036-0.281,0.165-0.523,0.333-0.742
		c0.33-0.43,0.42-0.962,0.58-1.458c0.085-0.265,0.159-0.524,0.342-0.737c0.135-0.156,0.211-0.328,0.192-0.549
		c-0.013-0.146,0.003-0.311,0.084-0.43c0.271-0.403,0.289-0.896,0.483-1.325c0.263-0.569,0.506-1.151,0.748-1.729
		c0.068-0.164,0.109-0.34,0.164-0.512c0.039-0.119,0.062-0.251,0.125-0.357c0.264-0.441,0.334-0.941,0.461-1.43
		c0.127-0.498,0.231-1.004,0.401-1.492c0.113-0.326,0.078-0.687,0.113-1.028c0.014-0.14,0.021-0.279,0.051-0.417
		c-0.021,0.004-0.038,0.012-0.058,0.016c-0.258,0.047-0.469,0.178-0.651,0.354c-0.251,0.238-0.539,0.396-0.864,0.49
		c-0.43,0.127-0.839,0.289-1.222,0.541c-0.312,0.207-0.669,0.351-1.058,0.349c-0.125,0-0.219,0.048-0.314,0.114
		c-0.259,0.18-0.546,0.267-0.857,0.234c-0.121-0.013-0.213,0.012-0.313,0.09c-0.288,0.23-0.63,0.326-0.992,0.323
		c-0.175-0.002-0.319,0.042-0.474,0.129c-0.37,0.216-0.771,0.339-1.199,0.418c-0.35,0.064-0.703,0.142-1.047,0.275
		c-0.43,0.167-0.879,0.312-1.326,0.417c-0.305,0.07-0.604,0.119-0.891,0.265c-0.299,0.15-0.639,0.185-0.961,0.269
		c-0.293,0.074-0.586,0.132-0.854,0.279c-0.091,0.049-0.198,0.09-0.298,0.092c-0.572,0.011-1.133,0.18-1.699,0.182
		c-0.332,0.002-0.625,0.087-0.938,0.154c-0.402,0.088-0.823,0.088-1.189,0.312c-0.018,0.01-0.041,0.012-0.062,0.014
		c-0.873,0.045-1.687,0.451-2.568,0.44c-0.068-0.001-0.143,0.033-0.206,0.062c-0.233,0.106-0.479,0.146-0.731,0.142
		c-0.336-0.007-0.664,0.026-0.982,0.144c-0.277,0.102-0.577,0.081-0.864,0.115c-0.438,0.051-0.886,0.128-1.333,0.076
		c-0.16-0.02-0.312,0.023-0.46,0.068c-0.675,0.201-1.36,0.283-2.062,0.328c-0.441,0.028-0.889,0.076-1.33,0.148
		c-0.217,0.037-0.426,0.046-0.647,0.027c-0.36-0.029-0.726-0.029-1.085,0c-0.509,0.043-1.013,0.142-1.525,0.07
		c-0.097-0.012-0.183,0.029-0.272,0.055c-0.408,0.108-0.819,0.154-1.231,0.022c-0.07-0.022-0.135-0.05-0.211-0.021
		c-0.529,0.188-1.076,0.191-1.632,0.171c-0.341-0.013-0.676,0.034-1.021-0.048c-0.172-0.041-0.389,0.057-0.573,0.115
		c-0.384,0.121-0.769,0.086-1.146,0.053c-0.461-0.039-0.908-0.041-1.351,0.105c-0.128,0.043-0.269,0.047-0.403,0.024
		c-0.445-0.075-0.892-0.038-1.337-0.048c-0.395-0.008-0.79-0.043-1.186-0.014c-0.664,0.049-1.328,0.062-1.993,0.079
		c-0.115,0.003-0.232,0.021-0.344-0.015c-0.34-0.112-0.682-0.029-1.021-0.003c-0.438,0.03-0.869,0.026-1.307,0.028
		c-0.396,0.006-0.801-0.06-1.202,0.026c-0.587,0.125-1.181,0.04-1.769-0.008c-0.053-0.004-0.115-0.045-0.15-0.026
		c-0.412,0.215-0.859,0.072-1.284,0.146c-0.424,0.072-0.853,0.019-1.277-0.01c-0.126-0.01-0.244-0.031-0.371,0.002
		c-0.088,0.021-0.189,0.041-0.278,0.023c-0.704-0.135-1.408,0.042-2.113-0.006c-0.466-0.031-0.93-0.072-1.401,0.008
		c-0.302,0.051-0.62,0.012-0.922-0.111c-0.224-0.09-0.458-0.086-0.704-0.021c-0.361,0.093-0.734,0.092-1.112,0.091
		c-0.487-0.002-0.971-0.062-1.457-0.063c-0.665-0.006-1.336-0.021-2.005-0.066c-0.33-0.021-0.663-0.029-0.995-0.035
		c-0.157-0.001-0.323,0.04-0.463-0.035c-0.263-0.14-0.511-0.045-0.776-0.021c-0.566,0.053-1.141,0.086-1.687-0.142
		c-0.105-0.041-0.204-0.041-0.306-0.017c-0.25,0.065-0.5,0.05-0.738-0.034c-0.235-0.08-0.465-0.076-0.706-0.068
		c-0.527,0.018-1.049,0.067-1.582-0.074c-0.338-0.092-0.72-0.046-1.082-0.081c-0.58-0.058-1.158-0.095-1.728-0.24
		c-0.297-0.075-0.619-0.017-0.925-0.098c-0.759-0.197-1.547-0.2-2.313-0.332c-0.354-0.062-0.721-0.099-1.064-0.238
		c-0.272-0.11-0.577-0.126-0.862-0.123c-0.346,0.003-0.683-0.063-1.023-0.062c-0.215,0-0.421-0.049-0.593-0.174
		c-0.151-0.112-0.299-0.127-0.466-0.068c-0.121,0.043-0.251,0.055-0.372,0.023c-0.725-0.18-1.487-0.138-2.199-0.381
		c-0.194-0.066-0.392-0.058-0.587-0.076c-0.424-0.041-0.854-0.026-1.258-0.203c-0.061-0.028-0.145-0.012-0.216-0.002
		c-0.268,0.033-0.52-0.021-0.757-0.146c-0.17-0.09-0.337-0.145-0.536-0.083c-0.104,0.03-0.232,0.032-0.34,0.006
		c-0.375-0.097-0.77-0.116-1.132-0.217c-0.366-0.104-0.729-0.188-1.099-0.181c-0.476,0.011-0.921-0.152-1.385-0.189
		c-0.251-0.021-0.503-0.042-0.73-0.154c-0.405-0.201-0.841-0.211-1.272-0.252c-0.179-0.019-0.362-0.039-0.511-0.138
		c-0.196-0.131-0.4-0.149-0.624-0.135c-0.403,0.026-0.793-0.019-1.133-0.272c-0.033-0.025-0.076-0.055-0.11-0.051
		c-0.399,0.046-0.744-0.193-1.129-0.216c-0.011,0-0.021-0.001-0.031-0.007c-0.438-0.2-0.933-0.192-1.371-0.391
		c-0.192-0.088-0.403-0.105-0.604-0.154c-0.646-0.151-1.265-0.397-1.899-0.586c-0.401-0.121-0.794-0.266-1.204-0.369
		c-0.315-0.077-0.619-0.241-0.915-0.394c-0.201-0.103-0.396-0.177-0.616-0.192c-0.042-0.004-0.087-0.004-0.123-0.021
		c-0.144-0.061-0.291-0.111-0.439-0.162c0.02,0.268,0.054,0.532,0.161,0.786C24.336,103.165,24.361,103.29,24.361,103.417z"/>
	<path fill="#67C19B" d="M128.35,86.354c0.149-0.485,0.301-0.971,0.428-1.463c0.002-0.01,0.002-0.02,0.005-0.027h-0.98
		c0.226,0.25,0.358,0.544,0.403,0.885C128.23,85.956,128.282,86.156,128.35,86.354z"/>
	<path fill="#FFFFFF" d="M126.275,88.673c0.041-0.194,0.078-0.394,0.115-0.589c0.008-0.031,0.023-0.068,0.014-0.093
		c-0.16-0.347-0.15-0.716-0.163-1.084c-0.007-0.115-0.08-0.216-0.148-0.31c-0.161-0.227-0.284-0.471-0.319-0.75
		c-0.012-0.09-0.051-0.158-0.112-0.221c-0.036-0.036-0.085-0.07-0.104-0.118c-0.099-0.257-0.279-0.45-0.457-0.647H25.987
		c0.027,0.07,0.047,0.142,0.098,0.203c0.401,0.485,0.431,1.093,0.086,1.582c-0.336,0.479-0.933,0.662-1.503,0.416
		c-0.402-0.177-0.819-0.123-1.23-0.15c-0.134-0.01-0.224,0.097-0.29,0.213c-0.092,0.169-0.212,0.316-0.372,0.422
		c-0.107,0.07-0.136,0.182-0.179,0.287c-0.047,0.116-0.117,0.225-0.2,0.325c0.301,0.375,0.605,0.748,0.82,1.187
		c0.069,0.139,0.242,0.182,0.307,0.312c0.207,0.431,0.603,0.683,0.909,1.018c0.051,0.055,0.09,0.139,0.151,0.158
		c0.662,0.223,1.005,0.859,1.561,1.232c0.497,0.336,0.991,0.676,1.489,1.011c0.515,0.345,1.06,0.618,1.594,0.911
		c0.3,0.164,0.652,0.316,1.022,0.345c0.242,0.019,0.472,0.094,0.671,0.24c0.157,0.114,0.327,0.172,0.521,0.182
		c0.222,0.013,0.437,0.076,0.618,0.206c0.393,0.277,0.832,0.396,1.294,0.505c0.522,0.122,1.067,0.197,1.541,0.488
		c0.119,0.073,0.261,0.081,0.392,0.103c0.539,0.086,0.999,0.414,1.538,0.502c0.329,0.051,0.642,0.139,0.939,0.317
		c0.188,0.114,0.438,0.119,0.671,0.11c0.094-0.004,0.2-0.03,0.279,0.004c0.503,0.22,1.062,0.193,1.569,0.387
		c0.213,0.082,0.446,0.109,0.66,0.178c0.438,0.141,0.903,0.113,1.339,0.256c0.067,0.023,0.144,0.023,0.215,0.029
		c0.705,0.059,1.41,0.104,2.091,0.319c0.011,0.003,0.021,0.01,0.03,0.009c0.698-0.109,1.33,0.262,2.022,0.286
		c0.524,0.019,1.088-0.029,1.591,0.231c0.026,0.015,0.062,0.024,0.091,0.021c0.564-0.112,1.09,0.126,1.634,0.192
		c0.187,0.022,0.372,0.05,0.559,0.037c0.265-0.018,0.52,0.01,0.766,0.117c0.066,0.029,0.146,0.075,0.206,0.061
		c0.477-0.115,0.953-0.014,1.428-0.01c0.457,0.002,0.913,0.029,1.37,0.062c0.311,0.023,0.621,0.062,0.921,0.154
		c0.068,0.021,0.149,0.029,0.218,0.015c0.463-0.106,0.93,0.015,1.393-0.022c0.011-0.002,0.021-0.004,0.032-0.002
		c0.764,0.104,1.53-0.051,2.292,0.018c0.837,0.076,1.675,0.04,2.511,0.042c0.104,0.001,0.224-0.013,0.309,0.034
		c0.49,0.257,0.998,0.111,1.497,0.078c0.266-0.02,0.521-0.021,0.766,0.09c0.241,0.104,0.476,0.007,0.703-0.033
		c0.315-0.057,0.619-0.076,0.925,0.033c0.077,0.027,0.153,0.058,0.24,0.017c0.154-0.073,0.323-0.067,0.488-0.085
		c0.466-0.045,0.93-0.094,1.393-0.152c0.241-0.031,0.477-0.05,0.711,0.028c0.081,0.028,0.165,0.024,0.248,0.013
		c0.259-0.041,0.525-0.041,0.778,0.002c0.363,0.063,0.708,0.021,1.069-0.01c0.646-0.052,1.299-0.109,1.959-0.013
		c0.399,0.058,0.815,0.069,1.236,0.026c0.594-0.059,1.205-0.113,1.795,0.071c0.123,0.039,0.248,0.06,0.369,0.035
		c0.28-0.056,0.557-0.08,0.834,0.015c0.028,0.01,0.063,0.01,0.094,0c0.666-0.217,1.375,0.049,2.041-0.176
		c0.059-0.02,0.131-0.021,0.188-0.004c0.4,0.12,0.809,0.124,1.223,0.137c0.178,0.006,0.346,0.031,0.515-0.039
		c0.106-0.043,0.226-0.063,0.339-0.041c0.34,0.069,0.686-0.004,1.025,0.056c0.06,0.011,0.127,0.016,0.185-0.002
		c0.462-0.142,0.933-0.067,1.399-0.072c0.771-0.01,1.539-0.04,2.309-0.094c0.396-0.028,0.792-0.048,1.188-0.036
		c0.532,0.014,1.062,0.021,1.586-0.083c0.198-0.039,0.406-0.026,0.592,0.005c0.574,0.104,1.158,0.016,1.728,0.126
		c0.097,0.019,0.187,0.015,0.277-0.005c0.134-0.025,0.272-0.04,0.403,0c0.232,0.072,0.447,0.042,0.668-0.057
		c0.192-0.084,0.41-0.067,0.615-0.082c0.375-0.026,0.752,0.006,1.125-0.062c0.051-0.01,0.107-0.015,0.154,0
		c0.592,0.165,1.175,0.026,1.764-0.025c0.559-0.047,1.119-0.099,1.68-0.047c0.33,0.031,0.668-0.072,0.994,0.055
		c0.069,0.027,0.142-0.022,0.207-0.055c0.145-0.067,0.301-0.125,0.453-0.104c0.773,0.113,1.557-0.146,2.323,0.066
		c0.069,0.02,0.118-0.017,0.177-0.035c0.616-0.201,1.245-0.34,1.896-0.346c0.116-0.002,0.229-0.016,0.337-0.062
		c0.395-0.178,0.816-0.245,1.242-0.276c0.263-0.019,0.518-0.073,0.767-0.146c0.466-0.135,0.947-0.113,1.416-0.19
		c0.778-0.128,1.556-0.284,2.334-0.399c0.485-0.071,0.96-0.278,1.474-0.184c0.235,0.043,0.465-0.119,0.674-0.226
		c0.381-0.192,0.791-0.267,1.195-0.347c0.291-0.058,0.562-0.153,0.824-0.283c0.01-0.004,0.018-0.01,0.027-0.016
		c0.324-0.219,0.744-0.115,1.064-0.305c0.33-0.193,0.668-0.232,1.035-0.281c0.396-0.049,0.824-0.105,1.135-0.447
		c0.223-0.246,0.541-0.306,0.852-0.362c0.128-0.022,0.229-0.076,0.33-0.156c0.408-0.313,0.824-0.623,1.379-0.588
		c0.104,0.008,0.148-0.047,0.188-0.129c0.16-0.33,0.426-0.528,0.752-0.683c0.293-0.136,0.557-0.33,0.814-0.526
		c0.061-0.044,0.111-0.099,0.176-0.132c0.325-0.17,0.607-0.387,0.877-0.645c0.254-0.242,0.609-0.354,0.928-0.512
		c0.35-0.174,0.686-0.364,0.97-0.652c0.301-0.304,0.616-0.596,0.956-0.854c0.168-0.13,0.309-0.275,0.455-0.425
		c0.048-0.049,0.086-0.103,0.133-0.152C126.273,89.354,126.202,89.029,126.275,88.673z"/>
	<path fill="#280D09" d="M21.637,100.605c-0.483-0.328-0.991-0.603-1.513-0.858c-0.131-0.063-0.241-0.172-0.318-0.298
		c-0.116-0.189-0.28-0.316-0.485-0.379c-0.406-0.122-0.711-0.389-0.982-0.7c-0.155-0.179-0.329-0.32-0.543-0.42
		c-0.123-0.056-0.257-0.122-0.338-0.224c-0.524-0.662-1.319-0.985-1.898-1.576c-0.022-0.021-0.046-0.049-0.071-0.062
		c-0.545-0.255-0.822-0.756-1.133-1.231c-0.438-0.666-0.89-1.323-1.335-1.982c-0.095-0.141-0.188-0.279-0.238-0.445
		c-0.232-0.767-0.408-1.557-0.715-2.293c-0.251-0.602-0.197-1.25-0.43-1.842c-0.061-0.156,0.023-0.312,0.035-0.467
		c0.034-0.491-0.112-0.964-0.106-1.454c0.007-0.38,0.155-0.747,0.097-1.13c-0.021-0.131-0.015-0.258-0.004-0.383h-0.437
		c0.002,0.115,0,0.231,0.03,0.35c0.021,0.083,0.042,0.161,0.019,0.249c-0.154,0.569-0.14,1.144-0.055,1.72
		c0.039,0.271,0.097,0.535,0.001,0.812c-0.054,0.158-0.045,0.343,0.013,0.501c0.154,0.413,0.179,0.845,0.24,1.272
		c0.016,0.104,0.041,0.209,0.081,0.305c0.315,0.74,0.497,1.521,0.729,2.285c0.146,0.479,0.37,0.897,0.656,1.285
		c0.394,0.53,0.722,1.105,1.102,1.646c0.31,0.437,0.57,0.914,1.082,1.157c0.073,0.033,0.131,0.104,0.195,0.156
		c0.373,0.303,0.727,0.637,1.149,0.869c0.133,0.072,0.242,0.156,0.332,0.277c0.204,0.273,0.452,0.494,0.769,0.633
		c0.146,0.062,0.265,0.163,0.371,0.285c0.312,0.359,0.655,0.676,1.126,0.816c0.13,0.039,0.247,0.104,0.326,0.23
		c0.176,0.277,0.434,0.449,0.726,0.583c0.386,0.179,0.762,0.368,1.106,0.636c0.135,0.104,0.286,0.188,0.44,0.268
		c0-0.029,0.002-0.061,0.001-0.09C21.66,101.038,21.648,100.82,21.637,100.605z"/>
	<path fill="#280D09" d="M138.846,86.75c-0.004-0.072-0.168-1.323-0.109-1.646c0.015-0.084,0-0.16,0.003-0.24h-0.412
		c0.009,0.072,0.022,0.142,0.021,0.218c-0.008,0.397-0.015,0.793,0.098,1.192c0.089,0.317,0.023,0.672-0.018,1.01
		c-0.064,0.555-0.181,1.104-0.146,1.67c0.014,0.247-0.098,0.496-0.165,0.734c-0.128,0.438-0.125,0.899-0.287,1.326
		c-0.041,0.107-0.04,0.242-0.104,0.33c-0.252,0.346-0.365,0.749-0.507,1.146c-0.046,0.126-0.12,0.255-0.217,0.345
		c-0.501,0.473-0.844,1.07-1.282,1.596c-0.496,0.592-1.021,1.156-1.52,1.744c-0.055,0.062-0.106,0.143-0.178,0.178
		c-0.431,0.224-0.705,0.653-1.147,0.864c-0.222,0.106-0.381,0.324-0.569,0.487c-0.309,0.27-0.656,0.482-0.959,0.753
		c-0.228,0.201-0.486,0.332-0.785,0.364c-0.24,0.025-0.414,0.119-0.555,0.341c-0.23,0.368-0.611,0.528-1.017,0.624
		c-0.134,0.029-0.255,0.064-0.375,0.141c-0.035,0.021-0.046,0.053-0.072,0.075c0.084,0.131,0.146,0.272,0.179,0.427
		c0.119-0.061,0.237-0.126,0.35-0.205c0.054-0.037,0.142-0.027,0.213-0.043c0.469-0.117,0.881-0.33,1.146-0.76
		c0.075-0.122,0.168-0.166,0.301-0.188c0.248-0.037,0.514-0.062,0.707-0.23c0.322-0.283,0.696-0.494,1.018-0.784
		c0.252-0.229,0.504-0.478,0.796-0.653c0.44-0.267,0.804-0.627,1.202-0.943c0.507-0.403,0.8-1.023,1.324-1.419
		c0.024-0.019,0.045-0.045,0.06-0.072c0.185-0.349,0.485-0.606,0.705-0.925c0.253-0.364,0.519-0.715,0.825-1.033
		c0.185-0.191,0.285-0.438,0.351-0.697c0.028-0.123,0.037-0.271,0.113-0.355c0.274-0.317,0.351-0.713,0.464-1.098
		c0.068-0.225,0.061-0.461,0.107-0.687c0.125-0.591,0.424-1.155,0.261-1.79c-0.009-0.025,0.017-0.061,0.021-0.091
		C138.773,87.889,138.87,87.325,138.846,86.75z"/>
	<path fill="#280D09" d="M136.217,85.54c0.104,0.181,0.135,0.369,0.1,0.58c-0.061,0.339,0.088,0.668,0.078,1.007
		c-0.006,0.244,0.006,0.486,0,0.729c-0.006,0.182-0.043,0.354-0.146,0.511c-0.082,0.123-0.123,0.27-0.144,0.417
		c-0.062,0.417-0.229,0.807-0.33,1.209c-0.162,0.646-0.452,1.225-0.711,1.828c-0.244,0.572-0.629,0.972-1.043,1.38
		c-0.073,0.073-0.179,0.125-0.23,0.21c-0.293,0.492-0.809,0.757-1.158,1.188c-0.283,0.352-0.637,0.629-0.943,0.954
		c-0.194,0.206-0.448,0.345-0.695,0.468c-0.346,0.17-0.656,0.403-1.016,0.553c-0.215,0.091-0.358,0.285-0.487,0.48
		c-0.071,0.112-0.147,0.186-0.3,0.184c-0.381-0.002-0.719,0.152-0.996,0.397c-0.309,0.273-0.701,0.356-1.049,0.537
		c-0.234,0.121-0.49,0.229-0.756,0.302c-0.146,0.039-0.238,0.164-0.334,0.276c-0.312,0.362-0.685,0.617-1.168,0.668
		c-0.189,0.021-0.324,0.126-0.445,0.267c-0.25,0.295-0.573,0.455-0.957,0.471c-0.146,0.007-0.258,0.058-0.366,0.146
		c-0.198,0.157-0.41,0.286-0.671,0.314c-0.122,0.015-0.24,0.065-0.357,0.112c-0.383,0.147-0.766,0.285-1.167,0.393
		c-0.424,0.111-0.827,0.281-1.272,0.296c-0.022,0.001-0.045,0.002-0.062,0.013c-0.508,0.323-1.094,0.37-1.661,0.475
		c-0.306,0.057-0.558,0.231-0.828,0.359c-0.429,0.197-0.922,0.18-1.32,0.451c-0.065,0.044-0.141,0.035-0.213,0.038
		c-0.248,0.009-0.467,0.095-0.674,0.228c-0.195,0.125-0.402,0.22-0.643,0.223c-0.189,0.003-0.354,0.119-0.539,0.154
		c-0.468,0.088-0.934,0.193-1.411,0.229c-0.332,0.023-0.641,0.171-0.961,0.256c-0.376,0.1-0.788,0.118-1.116,0.379
		c-0.074,0.059-0.181,0.043-0.273,0.043c-0.223,0.002-0.436,0.041-0.639,0.131c-0.176,0.078-0.354,0.133-0.518,0.078
		c-0.113,0-0.205-0.022-0.279,0.004c-0.52,0.188-1.068,0.235-1.605,0.318c-0.471,0.07-0.911,0.303-1.402,0.262
		c-0.174-0.015-0.347,0.057-0.517,0.11c-0.298,0.096-0.597,0.178-0.919,0.151c-0.271-0.021-0.534,0.069-0.797,0.113
		c-0.44,0.071-0.894,0.086-1.315,0.247c-0.132,0.052-0.269,0.06-0.399,0.054c-0.774-0.029-1.529,0.066-2.293,0.221
		c-0.539,0.107-1.098,0.177-1.67,0.148c-0.85-0.041-1.709-0.053-2.554,0.133c-0.126,0.026-0.245,0.008-0.37-0.01
		c-0.396-0.058-0.79-0.068-1.169,0.098c-0.058,0.023-0.112,0.066-0.178,0.041c-0.312-0.123-0.634-0.11-0.957-0.092
		c-0.558,0.027-1.118,0-1.662,0.176c-0.224,0.07-0.459-0.008-0.677-0.043c-0.396-0.062-0.774-0.004-1.147,0.076
		c-0.437,0.09-0.856,0.131-1.293,0.032c-0.151-0.034-0.313-0.032-0.467,0.011c-0.224,0.063-0.449,0.09-0.679,0.094
		c-0.625,0.008-1.245,0.127-1.87,0.084c-0.603-0.041-1.205,0-1.808-0.04c-0.317-0.021-0.608,0.11-0.928,0.09
		c-0.383-0.024-0.765-0.095-1.152-0.063c-0.504,0.041-1.015,0.022-1.518,0.098c-0.197,0.031-0.391-0.037-0.587-0.041
		c-0.491-0.016-0.974,0.045-1.455,0.126c-0.174,0.028-0.342,0.082-0.517-0.009c-0.043-0.023-0.102-0.036-0.15-0.031
		c-0.443,0.05-0.891,0.002-1.332,0.013c-0.434,0.013-0.863,0.132-1.301,0.054c-0.021-0.004-0.043-0.006-0.064-0.002
		c-0.733,0.155-1.468-0.058-2.201-0.006c-0.492,0.035-0.977-0.039-1.462-0.085c-0.252-0.022-0.505-0.011-0.741,0.084
		c-0.375,0.149-0.717-0.038-1.072-0.088c-0.527-0.071-1.054-0.091-1.581-0.015c-0.073,0.01-0.141,0.018-0.214,0.002
		c-0.133-0.029-0.269-0.043-0.401-0.069c-0.339-0.065-0.663,0.087-0.989,0.077c-0.325-0.01-0.638-0.143-0.984-0.096
		c-0.355,0.047-0.723,0.012-1.085,0.004c-0.135-0.003-0.28-0.038-0.401,0.016c-0.26,0.115-0.499,0.088-0.748-0.023
		c-0.093-0.043-0.201-0.062-0.304-0.062c-0.303,0-0.613-0.062-0.901-0.024c-0.408,0.055-0.81-0.047-1.191-0.006
		c-0.667,0.072-1.273-0.156-1.909-0.222c-0.053-0.004-0.105-0.022-0.154-0.019c-0.783,0.07-1.557-0.065-2.33-0.141
		c-0.521-0.051-1.036-0.033-1.555-0.041c-0.294-0.008-0.564-0.138-0.842-0.212c-0.416-0.112-0.838-0.157-1.26-0.219
		c-0.524-0.074-1.051-0.114-1.583-0.119c-0.348-0.004-0.693-0.104-1.036-0.192c-0.465-0.119-0.935-0.332-1.436-0.158
		c-0.11,0.039-0.2-0.01-0.292-0.067c-0.245-0.155-0.512-0.233-0.804-0.203c-0.052,0.007-0.108,0.015-0.153-0.004
		c-0.573-0.219-1.175-0.254-1.778-0.298c-0.255-0.018-0.506-0.111-0.759-0.174c-0.071-0.018-0.141-0.065-0.21-0.062
		c-0.633,0.016-1.224-0.345-1.868-0.223c-0.099,0.02-0.186-0.01-0.267-0.062c-0.207-0.14-0.437-0.192-0.681-0.203
		c-0.21-0.01-0.414-0.051-0.615-0.11c-0.08-0.024-0.163-0.062-0.243-0.056c-0.527,0.035-0.978-0.252-1.469-0.349
		c-0.659-0.131-1.296-0.397-1.982-0.388c-0.16,0.002-0.3-0.043-0.448-0.105c-0.364-0.154-0.733-0.315-1.146-0.238
		c-0.117,0.021-0.198-0.049-0.288-0.098c-0.381-0.205-0.762-0.402-1.216-0.324c-0.029,0.006-0.069,0.009-0.091-0.008
		c-0.31-0.221-0.701-0.187-1.032-0.341c-0.027-0.015-0.058-0.032-0.087-0.032c-0.453-0.026-0.844-0.281-1.284-0.355
		c-0.173-0.03-0.339-0.105-0.504-0.168c-0.623-0.229-1.266-0.393-1.892-0.616c-0.396-0.144-0.808-0.229-1.188-0.428
		c-0.168-0.089-0.381-0.104-0.578-0.124c-0.613-0.064-1.116-0.436-1.678-0.639c-0.345-0.127-0.688-0.281-1.034-0.42
		c-0.303-0.121-0.552-0.369-0.85-0.521c-0.019-0.011-0.032-0.028-0.052-0.035c-0.608-0.256-1.124-0.683-1.703-0.976
		c-0.409-0.204-0.825-0.355-1.14-0.709c-0.06-0.066-0.156-0.104-0.241-0.144c-0.313-0.147-0.609-0.315-0.812-0.618
		c-0.062-0.093-0.158-0.182-0.259-0.227c-0.506-0.223-0.816-0.669-1.193-1.039c-0.016-0.016-0.027-0.035-0.046-0.043
		c-0.48-0.238-0.736-0.721-1.116-1.068c-0.186-0.174-0.412-0.285-0.604-0.451c-0.131-0.113-0.225-0.235-0.259-0.414
		c-0.057-0.295-0.222-0.532-0.389-0.781c-0.218-0.326-0.443-0.658-0.56-1.047c-0.113-0.385-0.294-0.752-0.319-1.157
		c-0.04-0.667-0.378-1.272-0.363-1.949c0.002-0.136-0.044-0.276-0.119-0.391c-0.135-0.2-0.149-0.419-0.098-0.64
		c0.069-0.304-0.01-0.606,0.007-0.914c0.018-0.306,0.033-0.595,0.151-0.881c0.041-0.1,0.053-0.207,0.052-0.315h-2.223
		c-0.011,0.125-0.017,0.251,0.004,0.382c0.059,0.383-0.09,0.75-0.097,1.13c-0.006,0.49,0.141,0.963,0.106,1.454
		c-0.012,0.154-0.096,0.311-0.035,0.467c0.232,0.592,0.179,1.24,0.43,1.842c0.307,0.736,0.482,1.526,0.715,2.293
		c0.05,0.166,0.144,0.305,0.238,0.445c0.445,0.659,0.897,1.316,1.335,1.982c0.311,0.477,0.588,0.978,1.133,1.231
		c0.025,0.013,0.049,0.039,0.071,0.062c0.579,0.591,1.374,0.914,1.898,1.576c0.081,0.102,0.215,0.168,0.338,0.224
		c0.214,0.1,0.388,0.241,0.543,0.42c0.271,0.312,0.576,0.578,0.982,0.701c0.205,0.062,0.369,0.188,0.485,0.378
		c0.077,0.126,0.188,0.234,0.318,0.298c0.522,0.257,1.03,0.53,1.513,0.858c-0.013-0.24-0.024-0.477-0.018-0.496
		c0.127-0.387,0.378-0.646,0.757-0.776c0.042-0.015,0.741,0.013,0.811,0.052c0.406,0.213,0.653,0.54,0.651,1.004
		c-0.001,0.326,0.071,0.627,0.174,0.926c0.065,0.192,0.082,0.389,0.088,0.593c0.004,0.118,0.016,0.235,0.024,0.354
		c0.148,0.049,0.296,0.102,0.439,0.161c0.036,0.017,0.081,0.017,0.123,0.021c0.22,0.018,0.415,0.092,0.616,0.193
		c0.296,0.151,0.6,0.315,0.915,0.395c0.41,0.104,0.803,0.248,1.204,0.367c0.635,0.188,1.253,0.436,1.899,0.588
		c0.201,0.048,0.412,0.066,0.604,0.152c0.438,0.198,0.934,0.19,1.371,0.392c0.01,0.006,0.021,0.007,0.031,0.007
		c0.385,0.021,0.729,0.262,1.129,0.216c0.034-0.004,0.077,0.025,0.11,0.052c0.34,0.254,0.729,0.299,1.133,0.271
		c0.224-0.016,0.428,0.004,0.624,0.135c0.148,0.1,0.332,0.119,0.511,0.137c0.432,0.041,0.867,0.051,1.272,0.252
		c0.228,0.113,0.479,0.135,0.73,0.155c0.464,0.037,0.909,0.2,1.385,0.188c0.369-0.008,0.732,0.078,1.099,0.182
		c0.362,0.102,0.757,0.12,1.132,0.217c0.107,0.026,0.235,0.024,0.34-0.006c0.199-0.061,0.366-0.007,0.536,0.083
		c0.237,0.125,0.489,0.181,0.757,0.146c0.071-0.01,0.155-0.025,0.216,0.002c0.404,0.178,0.834,0.164,1.258,0.205
		c0.195,0.019,0.393,0.01,0.587,0.076c0.712,0.242,1.475,0.2,2.199,0.381c0.121,0.029,0.251,0.019,0.372-0.024
		c0.167-0.058,0.314-0.044,0.466,0.067c0.172,0.127,0.378,0.175,0.593,0.175c0.341-0.002,0.678,0.065,1.023,0.062
		c0.285-0.003,0.59,0.012,0.862,0.123c0.344,0.141,0.71,0.176,1.064,0.238c0.767,0.132,1.555,0.135,2.313,0.332
		c0.306,0.081,0.628,0.021,0.925,0.098c0.569,0.146,1.147,0.184,1.728,0.24c0.362,0.035,0.744-0.01,1.082,0.081
		c0.533,0.144,1.055,0.092,1.582,0.075c0.241-0.008,0.471-0.012,0.706,0.068c0.238,0.082,0.488,0.1,0.738,0.033
		c0.102-0.025,0.2-0.025,0.306,0.018c0.546,0.227,1.12,0.192,1.687,0.141c0.266-0.023,0.514-0.118,0.776,0.021
		c0.14,0.074,0.306,0.033,0.463,0.035c0.332,0.004,0.665,0.012,0.995,0.034c0.669,0.048,1.34,0.062,2.005,0.066
		c0.486,0.003,0.97,0.062,1.457,0.063c0.378,0.002,0.751,0.002,1.112-0.091c0.246-0.063,0.48-0.067,0.704,0.022
		c0.302,0.121,0.62,0.162,0.922,0.111c0.472-0.08,0.936-0.039,1.401-0.009c0.705,0.048,1.409-0.129,2.113,0.006
		c0.089,0.017,0.19-0.003,0.278-0.024c0.127-0.032,0.245-0.01,0.371-0.002c0.425,0.029,0.854,0.082,1.277,0.011
		c0.424-0.074,0.872,0.067,1.284-0.146c0.034-0.02,0.099,0.021,0.149,0.025c0.59,0.048,1.182,0.133,1.77,0.008
		c0.4-0.086,0.806-0.021,1.201-0.025c0.438-0.002,0.871,0.002,1.308-0.029c0.339-0.026,0.681-0.109,1.021,0.003
		c0.11,0.035,0.229,0.019,0.345,0.015c0.665-0.019,1.329-0.031,1.993-0.08c0.396-0.029,0.791,0.008,1.186,0.016
		c0.445,0.009,0.893-0.028,1.337,0.047c0.136,0.021,0.275,0.02,0.403-0.023c0.441-0.147,0.89-0.146,1.35-0.106
		c0.379,0.032,0.764,0.067,1.146-0.054c0.185-0.059,0.4-0.156,0.572-0.113c0.347,0.08,0.682,0.033,1.021,0.047
		c0.555,0.021,1.102,0.02,1.631-0.171c0.077-0.029,0.141-0.003,0.211,0.021c0.413,0.133,0.824,0.086,1.232-0.023
		c0.091-0.023,0.177-0.064,0.273-0.053c0.512,0.069,1.017-0.028,1.524-0.072c0.358-0.028,0.726-0.028,1.085,0
		c0.223,0.02,0.432,0.011,0.648-0.026c0.44-0.071,0.888-0.12,1.33-0.149c0.698-0.045,1.385-0.125,2.061-0.328
		c0.146-0.043,0.3-0.088,0.46-0.067c0.446,0.052,0.896-0.024,1.333-0.076c0.287-0.034,0.587-0.015,0.863-0.116
		c0.318-0.115,0.647-0.147,0.982-0.143c0.254,0.004,0.499-0.034,0.732-0.141c0.062-0.029,0.138-0.063,0.206-0.062
		c0.883,0.012,1.696-0.396,2.569-0.439c0.021-0.002,0.043-0.004,0.062-0.015c0.366-0.225,0.787-0.226,1.188-0.313
		c0.312-0.066,0.605-0.151,0.938-0.153c0.567-0.002,1.127-0.171,1.699-0.183c0.1-0.002,0.206-0.043,0.298-0.09
		c0.27-0.148,0.562-0.205,0.855-0.279c0.32-0.084,0.662-0.118,0.959-0.27c0.287-0.146,0.586-0.193,0.892-0.265
		c0.448-0.104,0.896-0.25,1.325-0.417c0.345-0.135,0.699-0.211,1.048-0.275c0.43-0.078,0.829-0.201,1.2-0.418
		c0.151-0.087,0.297-0.131,0.473-0.129c0.361,0.003,0.704-0.093,0.992-0.322c0.101-0.08,0.191-0.104,0.314-0.091
		c0.312,0.031,0.598-0.056,0.856-0.233c0.096-0.067,0.19-0.115,0.315-0.115c0.387,0.002,0.746-0.141,1.057-0.348
		c0.383-0.252,0.792-0.414,1.222-0.541c0.325-0.097,0.613-0.254,0.864-0.49c0.183-0.176,0.395-0.307,0.65-0.354
		c0.021-0.005,0.039-0.013,0.059-0.017c0.006-0.028,0.007-0.058,0.015-0.084c0.104-0.343,0.191-0.688,0.239-1.047
		c0.062-0.478,0.367-0.802,0.781-1.005c0.365-0.176,0.717-0.105,1.022,0.154c0.13,0.11,0.229,0.234,0.314,0.365
		c0.026-0.023,0.036-0.054,0.071-0.074c0.121-0.076,0.242-0.111,0.375-0.142c0.405-0.095,0.785-0.256,1.018-0.624
		c0.141-0.223,0.312-0.314,0.555-0.341c0.299-0.032,0.559-0.163,0.784-0.364c0.304-0.271,0.651-0.484,0.959-0.753
		c0.188-0.163,0.349-0.381,0.57-0.487c0.442-0.211,0.718-0.642,1.147-0.863c0.07-0.037,0.122-0.114,0.178-0.178
		c0.498-0.589,1.022-1.152,1.52-1.746c0.438-0.522,0.781-1.123,1.282-1.595c0.097-0.09,0.171-0.219,0.217-0.345
		c0.142-0.396,0.255-0.799,0.507-1.145c0.064-0.089,0.062-0.224,0.104-0.33c0.162-0.428,0.16-0.891,0.287-1.328
		c0.068-0.237,0.18-0.486,0.166-0.733c-0.033-0.565,0.082-1.115,0.146-1.67c0.041-0.338,0.105-0.69,0.018-1.011
		c-0.111-0.398-0.104-0.793-0.098-1.191c0.001-0.076-0.013-0.146-0.021-0.218h-2.293C136.047,85.098,136.096,85.326,136.217,85.54z"
		/>
	<path fill="#280D09" d="M128.775,84.891c-0.127,0.492-0.276,0.978-0.428,1.463c0.045,0.131,0.092,0.262,0.157,0.387
		c0.153,0.289,0.179,0.604,0.093,0.925c-0.021,0.071-0.062,0.147-0.027,0.215c0.193,0.375,0.104,0.767,0.074,1.154
		c-0.041,0.539-0.324,0.897-0.816,1.096c-0.064,0.026-0.172-0.014-0.191,0.104c-0.146,0-0.291,0-0.438,0
		c0-0.125-0.114-0.094-0.176-0.118c-0.082-0.035-0.146-0.091-0.215-0.136c-0.061,0.259-0.246,0.441-0.482,0.621
		c-0.358,0.268-0.694,0.569-1.006,0.892c-0.275,0.282-0.607,0.459-0.943,0.636c-0.322,0.169-0.691,0.271-0.953,0.525
		c-0.268,0.26-0.556,0.471-0.877,0.646c-0.062,0.034-0.115,0.089-0.175,0.132c-0.279,0.203-0.562,0.401-0.873,0.551
		c-0.293,0.142-0.533,0.332-0.679,0.631c-0.045,0.093-0.088,0.156-0.207,0.15c-0.553-0.035-0.965,0.276-1.373,0.59
		c-0.067,0.051-0.122,0.117-0.211,0.129c-0.445,0.062-0.852,0.205-1.154,0.564c-0.02,0.023-0.053,0.041-0.08,0.046
		c-0.376,0.073-0.723,0.283-1.124,0.242c-0.08-0.009-0.18-0.015-0.245,0.022c-0.459,0.262-0.975,0.332-1.468,0.479
		c-0.067,0.021-0.129,0.067-0.196,0.099c-0.236,0.105-0.475,0.194-0.734,0.248c-0.414,0.086-0.84,0.146-1.226,0.354
		c-0.353,0.19-0.731,0.298-1.142,0.248c-0.104-0.013-0.211-0.009-0.309,0.043c-0.162,0.087-0.338,0.094-0.517,0.087
		c-0.104-0.004-0.208,0.004-0.31,0.037c-0.465,0.161-0.961,0.156-1.438,0.275c-0.729,0.18-1.488,0.141-2.219,0.318
		c-0.305,0.074-0.611,0.117-0.924,0.15c-0.316,0.035-0.646,0.076-0.94,0.211c-0.178,0.08-0.356,0.105-0.546,0.111
		c-0.396,0.015-0.784,0.073-1.17,0.176c-0.491,0.128-0.979,0.273-1.499,0.228c-0.194-0.017-0.377-0.121-0.582-0.069
		c-0.37,0.092-0.747,0.049-1.122,0.039c-0.091-0.002-0.188-0.035-0.275,0.008c-0.389,0.189-0.804,0.121-1.199,0.086
		c-0.729-0.064-1.452-0.029-2.178,0.051c-0.592,0.064-1.186,0.109-1.776,0.066c-0.574-0.043-1.142-0.086-1.694,0.127
		c-0.059,0.021-0.123,0.033-0.186,0.031c-0.582-0.006-1.166-0.023-1.75-0.023c-0.674,0-1.338-0.166-2.014-0.086
		c-0.904,0.105-1.812,0.035-2.718,0.09c-1.358,0.085-2.724,0.078-4.085,0.143c-0.25,0.014-0.51-0.05-0.748,0
		c-0.447,0.094-0.893,0.039-1.338,0.053c-0.343,0.008-0.68-0.074-1.016-0.078c-0.414-0.004-0.832,0.021-1.25,0.023
		c-0.062,0-0.123,0.008-0.188,0.018c-0.756,0.117-1.516,0.017-2.273,0.012c-0.021,0-0.039-0.01-0.06-0.018
		c-0.355-0.127-0.725-0.104-1.084-0.058c-0.656,0.087-1.312,0.026-1.961-0.037c-0.421-0.041-0.841-0.028-1.238,0.039
		c-0.523,0.089-1.028,0.091-1.546,0.013c-0.485-0.074-0.979-0.041-1.464-0.041c-0.301,0.002-0.614,0.08-0.924,0.102
		c-0.445,0.029-0.879,0.186-1.331,0.127c-0.362-0.046-0.721-0.031-1.085,0.008c-0.266,0.03-0.553,0.066-0.808-0.021
		c-0.281-0.096-0.554-0.073-0.834-0.061c-0.482,0.027-0.972,0.129-1.437-0.113c-0.077-0.039-0.162-0.031-0.246-0.028
		c-0.448,0.013-0.895-0.013-1.344,0.013c-0.382,0.021-0.765,0.016-1.152-0.054c-0.3-0.054-0.615-0.021-0.929,0.022
		c-0.431,0.062-0.87,0.002-1.307-0.027c-0.807-0.055-1.619,0.043-2.427-0.137c-0.58-0.129-1.183-0.068-1.775-0.095
		c-0.638-0.026-1.293,0.111-1.91-0.164c-0.037-0.015-0.083-0.014-0.123-0.012c-0.514,0.013-1.018-0.052-1.517-0.169
		c-0.524-0.123-1.084-0.012-1.592-0.245c-0.044-0.021-0.104-0.013-0.155-0.011c-0.46,0.02-0.908-0.104-1.367-0.119
		c-0.151-0.006-0.318,0.023-0.459-0.062c-0.256-0.154-0.535-0.158-0.818-0.147c-0.094,0.002-0.193,0.014-0.28-0.015
		c-0.731-0.229-1.489-0.271-2.244-0.353c-0.318-0.034-0.639-0.073-0.952-0.134c-0.691-0.137-1.349-0.43-2.057-0.492
		c-0.091-0.009-0.183-0.046-0.268-0.087c-0.191-0.095-0.393-0.134-0.605-0.12c-0.167,0.008-0.332-0.012-0.497-0.046
		c-0.427-0.087-0.787-0.365-1.235-0.407c-0.533-0.047-0.981-0.398-1.51-0.48c-0.141-0.022-0.294-0.035-0.421-0.113
		c-0.454-0.282-0.98-0.35-1.48-0.471c-0.469-0.113-0.926-0.219-1.327-0.508c-0.181-0.129-0.391-0.205-0.615-0.209
		c-0.207-0.007-0.385-0.078-0.551-0.197c-0.2-0.145-0.434-0.202-0.672-0.234c-0.073-0.009-0.152,0.004-0.216-0.023
		c-0.582-0.244-1.164-0.484-1.711-0.808c-0.438-0.257-0.824-0.61-1.32-0.765c-0.121-0.036-0.222-0.123-0.307-0.215
		c-0.248-0.273-0.533-0.496-0.85-0.688c-0.186-0.113-0.349-0.256-0.472-0.45c-0.121-0.188-0.306-0.323-0.513-0.403
		c-0.163-0.063-0.287-0.162-0.4-0.291c-0.305-0.338-0.708-0.584-0.906-1.023c-0.06-0.132-0.243-0.161-0.304-0.311
		c-0.108-0.266-0.306-0.478-0.454-0.717c-0.078-0.125-0.154-0.307-0.363-0.281c0-0.088,0-0.174,0-0.262
		c-0.214,0.129-0.452,0.217-0.683,0.219c-0.324,0.002-0.588-0.129-0.786-0.385c-0.456-0.592-0.373-1.463,0.191-1.945
		c0.125-0.105,0.21-0.232,0.282-0.373c0.073-0.139,0.167-0.252,0.271-0.354c-0.013-0.037-0.023-0.076-0.038-0.111
		c-0.036-0.09-0.003-0.166,0.028-0.242c0.064-0.152,0.095-0.305,0.104-0.457h-2.581c0.006,0.14,0.038,0.275,0.112,0.396
		c0.178,0.29,0.195,0.59,0.167,0.906c-0.032,0.354,0.102,0.689,0.099,1.036c-0.005,0.414,0.113,0.771,0.387,1.073
		c0.116,0.127,0.179,0.273,0.233,0.438c0.216,0.643,0.539,1.229,0.945,1.77c0.178,0.238,0.412,0.418,0.585,0.654
		c0.05,0.067,1.249,1.445,1.304,1.504c0.314,0.33,0.82,0.438,1.017,0.906c0.01,0.023,0.048,0.042,0.075,0.053
		c0.411,0.146,0.691,0.459,0.974,0.774c0.262,0.294,0.557,0.522,0.96,0.608c0.383,0.082,0.706,0.299,0.996,0.57
		c0.392,0.368,0.824,0.693,1.341,0.842c0.277,0.082,0.552,0.153,0.825,0.252c0.245,0.092,0.487,0.172,0.703,0.326
		c0.138,0.098,0.305,0.147,0.471,0.156c0.208,0.01,0.382,0.085,0.547,0.201c0.236,0.169,0.499,0.246,0.788,0.271
		c0.3,0.027,0.603,0.105,0.864,0.244c0.493,0.264,1.034,0.379,1.546,0.586c0.084,0.033,0.183,0.045,0.275,0.045
		c0.157,0,0.305,0.041,0.456,0.086c0.317,0.097,0.622,0.252,0.963,0.254c0.191,0.002,0.367,0.056,0.55,0.101
		c0.352,0.087,0.683,0.276,1.057,0.251c0.316-0.021,0.596,0.079,0.859,0.232c0.223,0.13,0.453,0.211,0.71,0.218
		c0.071,0.002,0.151,0.006,0.213,0.037c0.37,0.188,0.773,0.229,1.169,0.327c0.491,0.119,0.994,0.182,1.486,0.31
		c0.417,0.108,0.849,0.213,1.279,0.261c0.435,0.047,0.852,0.197,1.294,0.184c0.132-0.006,0.272-0.049,0.401,0.02
		c0.319,0.168,0.651,0.209,1.002,0.135c0.069-0.016,0.148-0.008,0.217,0.012c0.563,0.156,1.148,0.199,1.722,0.275
		c0.434,0.057,0.877,0.051,1.319,0.109c0.595,0.083,1.198,0.083,1.798,0.152c0.589,0.068,1.193,0.033,1.791,0.106
		c0.24,0.03,0.496,0.013,0.745,0.017c0.509,0.006,1.019-0.004,1.523,0.082c0.06,0.011,0.127-0.002,0.186-0.019
		c0.165-0.046,0.33-0.022,0.497-0.032c0.319-0.02,0.605,0.18,0.923,0.129c0.217-0.035,0.44,0.021,0.645-0.004
		c0.501-0.062,0.985,0.084,1.479,0.066c0.125-0.005,0.251-0.01,0.375,0.004c0.545,0.059,1.089-0.036,1.64,0.051
		c0.416,0.065,0.85,0,1.273,0.072c0.199,0.034,0.396,0,0.584-0.077c0.096-0.04,0.19-0.073,0.302-0.056
		c0.338,0.06,0.679,0.104,1.018,0.164c0.156,0.025,0.324,0.063,0.464,0.007c0.36-0.147,0.694-0.021,1.034,0.06
		c0.292,0.068,0.576,0.079,0.862-0.021c0.086-0.029,0.171-0.062,0.273-0.043c1.167,0.231,2.316,0.034,3.47-0.144
		c0.236-0.035,0.488-0.147,0.707-0.065c0.332,0.124,0.673,0.126,1.007,0.192c0.694,0.137,1.388,0.055,2.08,0.06
		c0.136,0,0.267-0.013,0.401,0.022c0.53,0.142,1.074,0.038,1.61,0.072c0.07,0.004,0.147-0.02,0.215-0.046
		c0.499-0.209,1.032,0.03,1.536-0.132c0.027-0.01,0.063,0.004,0.094,0.014c0.243,0.09,0.494,0.085,0.742,0.049
		c0.324-0.049,0.645-0.009,0.962,0.045c0.178,0.028,0.362,0.072,0.526,0.01c0.33-0.123,0.67-0.096,1.008-0.125
		c0.229-0.021,0.447-0.041,0.671,0.035c0.138,0.049,0.29,0.045,0.434,0.01c0.164-0.038,0.334-0.019,0.494-0.045
		c0.388-0.066,0.765,0.016,1.147,0.031c0.591,0.022,1.179-0.156,1.771-0.021c0.108,0.023,0.229-0.004,0.339-0.042
		c0.112-0.039,0.225-0.043,0.34-0.015c0.153,0.037,0.312,0.039,0.467,0.027c0.476-0.031,0.944-0.169,1.425-0.05
		c0.049,0.012,0.106,0,0.155-0.017c0.377-0.121,0.783-0.108,1.162-0.235c0.08-0.028,0.158-0.05,0.244-0.032
		c0.449,0.087,0.897,0.195,1.361,0.098c0.047-0.011,0.102,0.015,0.15,0.027c0.207,0.061,0.412,0.047,0.621,0.014
		c0.387-0.065,0.787,0.049,1.176-0.065c0.053-0.017,0.123,0.021,0.18,0.044c0.277,0.117,0.57,0.143,0.861,0.109
		c0.596-0.068,1.215,0.062,1.787-0.211c0.035-0.018,0.082-0.002,0.123-0.004c0.901-0.066,1.806-0.021,2.707-0.14
		c0.543-0.071,1.092-0.207,1.656-0.062c0.242,0.062,0.52-0.008,0.771-0.09c0.09-0.026,0.179-0.061,0.273-0.041
		c0.489,0.102,0.951-0.023,1.405-0.188c0.095-0.034,0.185-0.023,0.274-0.009c0.395,0.062,0.787,0.03,1.183,0.005
		c0.504-0.033,0.978-0.215,1.506-0.18c0.774,0.053,1.532-0.237,2.306-0.32c0.316-0.035,0.616-0.174,0.942-0.043
		c0.123,0.049,0.269,0.012,0.404-0.01c0.215-0.034,0.432-0.065,0.649-0.084c0.478-0.039,0.939-0.168,1.407-0.262
		c0.269-0.053,0.526-0.174,0.81-0.203c0.146-0.018,0.285-0.08,0.399-0.17c0.175-0.138,0.372-0.171,0.582-0.197
		c0.421-0.055,0.845-0.06,1.254-0.224c0.433-0.169,0.886-0.302,1.359-0.323c0.166-0.006,0.332-0.059,0.476-0.145
		c0.27-0.161,0.547-0.279,0.87-0.293c0.185-0.006,0.372-0.1,0.503-0.236c0.303-0.318,0.737-0.382,1.084-0.611
		c0.047-0.03,0.122-0.03,0.184-0.024c0.373,0.031,0.695-0.101,0.988-0.319c0.153-0.117,0.324-0.162,0.514-0.203
		c0.584-0.129,1.162-0.304,1.447-0.924c0.061-0.131,0.157-0.146,0.278-0.152c0.396-0.021,0.703-0.205,0.983-0.488
		c0.591-0.594,1.272-1.042,2.066-1.323c0.512-0.181,0.926-0.554,1.375-0.852c0.096-0.062,0.178-0.14,0.288-0.177
		c0.562-0.195,0.966-0.621,1.368-1.024c0.217-0.216,0.384-0.5,0.624-0.7c0.323-0.27,0.5-0.645,0.735-0.975
		c0.373-0.52,0.789-1.016,1.002-1.637c0.146-0.43,0.408-0.804,0.613-1.203c0.354-0.693,0.508-1.433,0.564-2.186
		c0.018-0.227,0.012-0.456,0.009-0.686h-2.442C128.777,84.871,128.777,84.881,128.775,84.891z"/>
	<path fill="#280D09" d="M126.447,89.622c-0.047,0.051-0.086,0.104-0.133,0.153c-0.146,0.147-0.287,0.293-0.455,0.424
		c-0.34,0.26-0.655,0.552-0.957,0.855c-0.283,0.287-0.619,0.479-0.969,0.651c-0.317,0.158-0.674,0.269-0.928,0.512
		c-0.27,0.257-0.552,0.474-0.877,0.644c-0.062,0.035-0.115,0.089-0.176,0.133c-0.26,0.197-0.521,0.393-0.814,0.527
		c-0.326,0.152-0.592,0.352-0.752,0.682c-0.039,0.082-0.084,0.137-0.188,0.129c-0.555-0.035-0.971,0.273-1.379,0.588
		c-0.104,0.08-0.202,0.135-0.33,0.156c-0.311,0.058-0.629,0.115-0.852,0.361c-0.311,0.344-0.738,0.399-1.135,0.448
		c-0.367,0.048-0.705,0.087-1.036,0.281c-0.319,0.188-0.739,0.086-1.063,0.306c-0.012,0.006-0.02,0.01-0.027,0.016
		c-0.264,0.129-0.533,0.226-0.824,0.281c-0.404,0.08-0.814,0.154-1.195,0.348c-0.209,0.105-0.438,0.269-0.674,0.226
		c-0.514-0.096-0.988,0.111-1.474,0.183c-0.778,0.115-1.556,0.272-2.334,0.4c-0.469,0.077-0.951,0.057-1.416,0.19
		c-0.249,0.071-0.504,0.127-0.767,0.146c-0.426,0.031-0.848,0.1-1.242,0.276c-0.105,0.047-0.221,0.06-0.338,0.062
		c-0.648,0.006-1.277,0.146-1.895,0.346c-0.059,0.021-0.107,0.056-0.177,0.035c-0.769-0.213-1.55,0.047-2.323-0.065
		c-0.152-0.021-0.31,0.035-0.453,0.104c-0.065,0.03-0.138,0.08-0.207,0.054c-0.326-0.126-0.664-0.022-0.994-0.054
		c-0.561-0.053-1.121,0-1.681,0.047c-0.588,0.052-1.171,0.189-1.763,0.024c-0.047-0.015-0.104-0.01-0.155,0
		c-0.372,0.067-0.749,0.035-1.124,0.062c-0.206,0.016-0.423-0.002-0.615,0.084c-0.221,0.098-0.436,0.127-0.668,0.056
		c-0.132-0.04-0.271-0.026-0.404,0c-0.092,0.019-0.182,0.022-0.276,0.005c-0.569-0.109-1.153-0.023-1.728-0.126
		c-0.186-0.03-0.394-0.044-0.592-0.005c-0.523,0.104-1.054,0.098-1.586,0.083c-0.396-0.011-0.791,0.008-1.188,0.036
		c-0.77,0.054-1.538,0.084-2.309,0.094c-0.468,0.005-0.938-0.068-1.399,0.072c-0.058,0.018-0.125,0.013-0.185,0.002
		c-0.341-0.059-0.687,0.015-1.025-0.057c-0.113-0.021-0.231-0.002-0.34,0.043c-0.168,0.069-0.336,0.045-0.514,0.039
		c-0.414-0.014-0.822-0.018-1.223-0.138c-0.057-0.018-0.129-0.016-0.188,0.005c-0.666,0.223-1.375-0.041-2.041,0.176
		c-0.029,0.01-0.064,0.008-0.094-0.002c-0.277-0.094-0.554-0.068-0.834-0.014c-0.121,0.023-0.246,0.004-0.369-0.035
		c-0.591-0.186-1.202-0.13-1.795-0.07c-0.421,0.041-0.837,0.029-1.236-0.027c-0.66-0.098-1.312-0.039-1.959,0.013
		c-0.361,0.029-0.706,0.073-1.069,0.011c-0.253-0.045-0.52-0.045-0.778-0.002c-0.083,0.013-0.167,0.016-0.248-0.014
		c-0.234-0.078-0.47-0.061-0.711-0.027c-0.463,0.059-0.927,0.106-1.393,0.151c-0.165,0.017-0.334,0.013-0.488,0.085
		c-0.087,0.041-0.163,0.012-0.24-0.017c-0.306-0.109-0.609-0.089-0.925-0.033c-0.228,0.04-0.462,0.14-0.703,0.033
		c-0.245-0.109-0.5-0.108-0.766-0.091c-0.499,0.035-1.007,0.18-1.497-0.078c-0.085-0.045-0.204-0.032-0.309-0.033
		c-0.836-0.002-1.674,0.033-2.511-0.042c-0.762-0.067-1.528,0.087-2.292-0.019c-0.011,0-0.021,0.002-0.032,0.004
		c-0.463,0.037-0.93-0.084-1.393,0.021c-0.068,0.016-0.149,0.008-0.218-0.014c-0.3-0.094-0.61-0.133-0.921-0.155
		c-0.457-0.033-0.913-0.062-1.37-0.063c-0.475-0.002-0.951-0.104-1.428,0.011c-0.06,0.016-0.14-0.03-0.206-0.06
		c-0.246-0.109-0.501-0.136-0.766-0.119c-0.187,0.014-0.372-0.014-0.559-0.037c-0.544-0.065-1.069-0.305-1.634-0.191
		c-0.028,0.005-0.064-0.006-0.091-0.021c-0.503-0.261-1.066-0.213-1.591-0.23c-0.692-0.023-1.324-0.396-2.022-0.286
		c-0.01,0.001-0.02-0.006-0.03-0.009c-0.681-0.215-1.386-0.262-2.091-0.319c-0.071-0.006-0.147-0.006-0.215-0.028
		c-0.436-0.144-0.9-0.115-1.339-0.256c-0.214-0.068-0.447-0.097-0.66-0.179c-0.508-0.192-1.066-0.167-1.569-0.387
		c-0.079-0.034-0.186-0.009-0.279-0.005c-0.233,0.01-0.483,0.005-0.671-0.109c-0.298-0.18-0.61-0.268-0.939-0.318
		c-0.539-0.086-0.999-0.414-1.538-0.502c-0.131-0.021-0.272-0.027-0.392-0.102c-0.474-0.291-1.019-0.366-1.541-0.488
		c-0.462-0.107-0.901-0.227-1.294-0.505c-0.182-0.13-0.396-0.192-0.618-0.206c-0.194-0.01-0.364-0.066-0.521-0.182
		c-0.199-0.146-0.429-0.223-0.671-0.24c-0.37-0.027-0.723-0.18-1.022-0.344c-0.534-0.293-1.079-0.567-1.594-0.912
		c-0.498-0.335-0.992-0.674-1.489-1.01c-0.556-0.375-0.898-1.012-1.561-1.233c-0.062-0.021-0.101-0.104-0.151-0.158
		c-0.307-0.335-0.702-0.587-0.909-1.018c-0.064-0.13-0.237-0.175-0.307-0.312c-0.214-0.438-0.519-0.812-0.82-1.188
		c-0.115,0.142-0.26,0.257-0.418,0.354c0,0.086,0,0.174,0,0.26c0.209-0.023,0.285,0.156,0.363,0.281
		c0.148,0.24,0.346,0.452,0.454,0.719c0.061,0.147,0.244,0.178,0.304,0.31c0.198,0.438,0.602,0.687,0.906,1.024
		c0.113,0.127,0.237,0.227,0.4,0.291c0.207,0.078,0.392,0.215,0.513,0.402c0.123,0.194,0.286,0.338,0.472,0.45
		c0.316,0.192,0.602,0.414,0.85,0.688c0.085,0.091,0.186,0.178,0.307,0.215c0.496,0.152,0.882,0.507,1.32,0.764
		c0.547,0.322,1.129,0.562,1.711,0.809c0.063,0.026,0.143,0.015,0.216,0.022c0.238,0.032,0.472,0.091,0.672,0.235
		c0.166,0.117,0.344,0.189,0.551,0.195c0.225,0.006,0.435,0.082,0.615,0.211c0.401,0.289,0.858,0.394,1.327,0.506
		c0.5,0.121,1.026,0.188,1.48,0.472c0.127,0.077,0.28,0.091,0.421,0.112c0.528,0.084,0.977,0.436,1.51,0.481
		c0.448,0.042,0.809,0.32,1.235,0.407c0.165,0.033,0.33,0.054,0.497,0.046c0.213-0.013,0.414,0.026,0.605,0.12
		c0.085,0.041,0.177,0.078,0.268,0.087c0.708,0.063,1.365,0.354,2.057,0.492c0.313,0.061,0.634,0.1,0.952,0.134
		c0.755,0.081,1.513,0.122,2.244,0.352c0.087,0.028,0.187,0.018,0.28,0.016c0.283-0.01,0.562-0.006,0.818,0.148
		c0.141,0.086,0.308,0.057,0.459,0.062c0.459,0.015,0.907,0.139,1.367,0.12c0.052-0.002,0.111-0.012,0.155,0.01
		c0.508,0.234,1.067,0.122,1.592,0.245c0.499,0.116,1.003,0.182,1.517,0.169c0.04-0.002,0.086-0.003,0.123,0.012
		c0.617,0.275,1.272,0.137,1.91,0.164c0.593,0.025,1.195-0.035,1.775,0.096c0.808,0.18,1.62,0.08,2.427,0.135
		c0.437,0.029,0.876,0.091,1.307,0.027c0.313-0.044,0.629-0.076,0.929-0.021c0.388,0.068,0.771,0.076,1.152,0.054
		c0.449-0.024,0.896,0,1.344-0.013c0.084-0.004,0.169-0.012,0.246,0.029c0.465,0.241,0.954,0.141,1.437,0.112
		c0.28-0.014,0.553-0.036,0.834,0.062c0.255,0.086,0.542,0.051,0.808,0.021c0.364-0.039,0.723-0.054,1.085-0.008
		c0.452,0.058,0.886-0.097,1.331-0.127c0.31-0.021,0.623-0.099,0.924-0.101c0.485,0,0.979-0.033,1.464,0.039
		c0.518,0.078,1.022,0.077,1.546-0.012c0.397-0.068,0.817-0.08,1.238-0.039c0.649,0.062,1.305,0.124,1.961,0.037
		c0.359-0.047,0.729-0.07,1.084,0.057c0.021,0.008,0.039,0.019,0.06,0.019c0.758,0.005,1.518,0.106,2.273-0.013
		c0.063-0.008,0.126-0.017,0.188-0.017c0.416-0.004,0.834-0.028,1.248-0.024c0.338,0.004,0.674,0.088,1.017,0.078
		c0.444-0.013,0.89,0.041,1.338-0.052c0.238-0.05,0.498,0.013,0.748,0c1.36-0.063,2.728-0.058,4.085-0.143
		c0.905-0.056,1.812,0.017,2.717-0.089c0.676-0.082,1.342,0.084,2.016,0.084c0.582,0,1.168,0.02,1.75,0.025
		c0.062,0,0.127-0.012,0.185-0.031c0.554-0.213,1.12-0.172,1.694-0.129c0.592,0.045,1.186,0,1.775-0.065
		c0.727-0.08,1.448-0.115,2.18-0.05c0.396,0.035,0.811,0.104,1.199-0.088c0.088-0.043,0.185-0.01,0.274-0.008
		c0.375,0.012,0.752,0.055,1.122-0.039c0.205-0.051,0.389,0.055,0.582,0.07c0.521,0.047,1.008-0.1,1.499-0.229
		c0.386-0.102,0.774-0.16,1.17-0.174c0.188-0.006,0.368-0.033,0.546-0.112c0.296-0.136,0.624-0.177,0.941-0.212
		c0.312-0.032,0.617-0.075,0.923-0.149c0.729-0.179,1.491-0.14,2.219-0.319c0.478-0.117,0.974-0.113,1.438-0.274
		c0.101-0.033,0.203-0.041,0.309-0.037c0.18,0.007,0.354,0,0.518-0.087c0.097-0.053,0.205-0.057,0.308-0.043
		c0.409,0.05,0.789-0.059,1.142-0.248c0.387-0.207,0.811-0.27,1.227-0.354c0.26-0.055,0.498-0.144,0.734-0.248
		c0.066-0.03,0.127-0.078,0.195-0.1c0.493-0.146,1.009-0.219,1.468-0.48c0.065-0.037,0.165-0.03,0.245-0.021
		c0.4,0.041,0.748-0.169,1.124-0.242c0.026-0.005,0.062-0.021,0.08-0.046c0.304-0.36,0.709-0.504,1.155-0.565
		c0.088-0.01,0.143-0.076,0.209-0.127c0.41-0.313,0.822-0.625,1.375-0.592c0.117,0.008,0.162-0.058,0.207-0.15
		c0.145-0.297,0.385-0.488,0.678-0.631c0.311-0.147,0.594-0.347,0.873-0.551c0.059-0.043,0.111-0.097,0.175-0.131
		c0.321-0.176,0.608-0.387,0.877-0.646c0.261-0.254,0.632-0.355,0.953-0.524c0.336-0.177,0.668-0.353,0.942-0.636
		c0.312-0.321,0.647-0.624,1.007-0.893c0.237-0.179,0.423-0.361,0.481-0.621C126.66,89.88,126.537,89.764,126.447,89.622z"/>
	<path fill="#280D09" d="M128.314,101.749c-0.039,0.394-0.186,0.776-0.291,1.161c-0.023,0.092-0.082,0.17-0.072,0.271
		c0.021,0.301-0.082,0.58-0.137,0.869c-0.133,0.688-0.455,1.322-0.586,1.995c-0.107,0.558-0.395,1.047-0.455,1.604
		c-0.002,0.011-0.002,0.022-0.008,0.031c-0.271,0.543-0.287,1.164-0.496,1.726c-0.14,0.372-0.319,0.729-0.375,1.132
		c-0.02,0.145-0.1,0.287-0.205,0.387c-0.205,0.189-0.252,0.424-0.262,0.688c-0.011,0.248-0.092,0.478-0.23,0.682
		c-0.088,0.132-0.146,0.279-0.227,0.414c-0.299,0.509-0.509,1.061-0.77,1.584c-0.186,0.37-0.383,0.734-0.52,1.127
		c-0.182,0.51-0.537,0.898-0.832,1.331c-0.156,0.229-0.252,0.506-0.367,0.765c-0.16,0.36-0.363,0.688-0.65,0.961
		c-0.141,0.131-0.227,0.287-0.271,0.483c-0.076,0.333-0.277,0.591-0.562,0.772c-0.157,0.102-0.271,0.228-0.351,0.393
		c-0.084,0.173-0.193,0.325-0.342,0.451c-0.047,0.039-0.099,0.084-0.127,0.138c-0.312,0.588-0.787,1.026-1.277,1.456
		c-0.196,0.172-0.348,0.391-0.521,0.585c-0.337,0.371-0.722,0.677-1.124,0.951c-0.504,0.344-0.925,0.813-1.522,1.032
		c-0.217,0.078-0.375,0.298-0.528,0.482c-0.228,0.273-0.495,0.483-0.836,0.588c-0.224,0.067-0.31,0.207-0.294,0.448
		c0.014,0.233-0.006,0.459,0.174,0.647c0.093,0.099,0.141,0.24,0.157,0.377c0.058,0.496,0.295,0.925,0.543,1.339
		c0.227,0.376,0.569,0.618,1.007,0.715c0.477,0.104,0.912,0.298,1.251,0.669c0.116,0.125,0.235,0.23,0.405,0.282
		c0.215,0.063,0.392,0.196,0.52,0.388c0.076,0.115,0.174,0.208,0.279,0.299c0.477,0.411,0.837,0.883,0.801,1.567
		c-0.004,0.062,0.002,0.133,0.028,0.187c0.241,0.494,0.13,1.019,0.114,1.527c-0.01,0.424-0.234,0.764-0.574,1.01
		c-0.143,0.104-0.236,0.223-0.297,0.391c-0.129,0.361-0.392,0.596-0.748,0.716c-0.098,0.032-0.197,0.062-0.274,0.141
		c-0.399,0.414-0.911,0.541-1.454,0.556c-0.326,0.009-0.645,0.006-0.949,0.144c-0.143,0.063-0.285,0.035-0.425-0.028
		c-0.329-0.146-0.674-0.219-1.034-0.195c-0.601,0.039-1.15-0.163-1.69-0.387c-0.394-0.164-0.81-0.248-1.205-0.399
		c-0.125-0.048-0.267-0.062-0.382-0.136c-0.5-0.326-1.045-0.566-1.543-0.889c-0.317-0.205-0.547-0.519-0.805-0.793
		c-0.115-0.121-0.183-0.305-0.313-0.392c-0.461-0.302-0.744-0.753-1.05-1.189c-0.103-0.146-0.239-0.276-0.293-0.444
		c-0.123-0.388-0.385-0.703-0.521-1.08c-0.06-0.162-0.157-0.224-0.33-0.221c-0.345,0.004-0.68,0.038-1.021,0.111
		c-0.334,0.073-0.649,0.221-0.973,0.284c-0.533,0.106-1.065,0.235-1.604,0.323c-0.321,0.052-0.637,0.086-0.93,0.238
		c-0.225,0.116-0.461,0.187-0.713,0.225c-0.637,0.095-1.267,0.22-1.897,0.345c-0.42,0.083-0.836,0.142-1.231,0.317
		c-0.213,0.096-0.455,0.025-0.684,0.027c-0.264,0.001-0.518,0.02-0.753,0.159c-0.07,0.041-0.16,0.077-0.236,0.07
		c-0.432-0.042-0.851-0.011-1.263,0.135c-0.059,0.019-0.125,0.028-0.186,0.021c-0.621-0.086-1.221,0.1-1.83,0.146
		c-0.092,0.006-0.187,0.006-0.279,0.009c-0.777,0.026-1.555,0.062-2.322,0.214c-0.242,0.049-0.492,0.075-0.742,0.071
		c-0.419-0.004-0.83,0.021-1.244,0.095c-0.233,0.041-0.488-0.076-0.736-0.041c-0.514,0.073-1.027,0.125-1.543,0.15
		c-0.45,0.023-0.896,0.125-1.354,0.021c-0.416-0.094-0.848-0.105-1.267,0.039c-0.223,0.076-0.457,0.051-0.684,0.047
		c-0.617-0.013-1.22,0.121-1.83,0.149c-0.573,0.028-1.135,0.144-1.699,0.205c-0.484,0.053-0.979,0.022-1.471,0.026
		c-0.342,0.005-0.686-0.058-1.024,0.045c-0.036,0.01-0.083,0.002-0.12-0.014c-0.614-0.233-1.236-0.037-1.854-0.035
		c-0.092,0-0.184,0.021-0.274-0.004c-0.39-0.104-0.779-0.119-1.165,0.01c-0.085,0.027-0.164,0.023-0.244-0.01
		c-0.411-0.174-0.834-0.143-1.262-0.08c-0.195,0.028-0.383-0.062-0.583-0.057c-0.348,0.014-0.709,0.094-1.028-0.137
		c-0.63,0.011-1.253-0.194-1.892-0.021c-0.254,0.065-0.532-0.035-0.801-0.045c-0.635-0.021-1.268-0.066-1.9-0.127
		c-0.507-0.047-1.011-0.134-1.523-0.115c-0.243,0.008-0.463-0.119-0.7-0.158c-0.486-0.08-0.977-0.082-1.466-0.071
		c-0.359,0.007-0.703-0.062-1.046-0.155c-0.342-0.092-0.688-0.162-1.043-0.154c-0.222,0.004-0.447-0.002-0.642-0.111
		c-0.239-0.137-0.49-0.162-0.753-0.145c-0.254,0.015-0.495-0.021-0.732-0.119c-0.153-0.065-0.324-0.135-0.482-0.125
		c-0.59,0.025-1.142-0.234-1.729-0.194c-0.17,0.012-0.334-0.009-0.485-0.095c-0.122-0.066-0.252-0.094-0.391-0.094
		c-0.145,0-0.298-0.005-0.429-0.072c-0.346-0.178-0.726-0.176-1.094-0.229c-0.176-0.026-0.355-0.035-0.521-0.103
		c-0.551-0.228-1.129-0.351-1.704-0.48c-0.105-0.025-0.207-0.031-0.31-0.025c-0.266,0.018-0.529-0.014-0.767-0.119
		c-0.326-0.146-0.667-0.262-1.002-0.34c-0.437-0.101-0.841-0.287-1.265-0.396c-0.423-0.108-0.89-0.045-1.338-0.058
		c-0.094-0.002-0.171,0.035-0.197,0.125c-0.078,0.265-0.254,0.479-0.347,0.742c-0.161,0.457-0.479,0.817-0.837,1.125
		c-0.197,0.168-0.368,0.338-0.471,0.573c-0.114,0.267-0.297,0.472-0.493,0.681c-0.258,0.274-0.496,0.564-0.805,0.785
		c-0.278,0.202-0.56,0.399-0.816,0.633c-0.196,0.181-0.461,0.256-0.721,0.285c-0.248,0.029-0.43,0.147-0.58,0.33
		c-0.297,0.356-0.671,0.534-1.129,0.498c-0.253-0.02-0.463,0.049-0.663,0.211c-0.327,0.262-0.705,0.375-1.131,0.383
		c-0.707,0.015-1.417,0.033-2.119,0.121c-0.348,0.043-0.667-0.021-0.95-0.229c-0.125-0.092-0.257-0.132-0.406-0.143
		c-0.3-0.021-0.569-0.131-0.8-0.324c-0.105-0.092-0.221-0.157-0.348-0.204c-0.686-0.261-1.055-0.829-1.383-1.441
		c-0.257-0.478-0.365-1.006-0.465-1.532c-0.036-0.192-0.006-0.397-0.006-0.6c-0.03-0.374-0.022-0.756,0.159-1.081
		c0.24-0.427,0.467-0.858,0.685-1.299c0.178-0.354,0.574-0.476,0.902-0.651c0.193-0.103,0.375-0.215,0.552-0.346
		c0.396-0.291,0.856-0.436,1.345-0.46c0.18-0.011,0.348-0.021,0.489-0.153c0.053-0.048,0.124-0.091,0.191-0.104
		c0.488-0.096,0.694-0.492,0.923-0.868c0.055-0.091,0.105-0.185,0.172-0.265c0.277-0.334,0.295-0.729,0.275-1.139
		c-0.007-0.099-0.074-0.145-0.14-0.193c-0.246-0.18-0.487-0.363-0.682-0.604c-0.032-0.041-0.074-0.082-0.12-0.099
		c-0.347-0.118-0.638-0.311-0.844-0.623c-0.022-0.033-0.06-0.068-0.095-0.078c-0.427-0.119-0.711-0.471-1.083-0.682
		c-0.312-0.178-0.565-0.469-0.806-0.736c-0.321-0.354-0.677-0.691-0.898-1.132c-0.089-0.173-0.228-0.296-0.398-0.39
		c-0.206-0.11-0.375-0.267-0.494-0.473c-0.106-0.188-0.244-0.352-0.396-0.49c-0.297-0.269-0.47-0.646-0.792-0.894
		c-0.148-0.114-0.224-0.304-0.284-0.485c-0.055-0.17-0.146-0.297-0.305-0.383c-0.26-0.143-0.427-0.37-0.522-0.648
		c-0.047-0.138-0.117-0.244-0.234-0.324c-0.294-0.201-0.452-0.5-0.527-0.836c-0.04-0.178-0.112-0.309-0.253-0.416
		c-0.082-0.062-0.168-0.139-0.213-0.229c-0.23-0.459-0.586-0.848-0.74-1.349c-0.024-0.082-0.071-0.15-0.127-0.216
		c-0.31-0.365-0.53-0.78-0.665-1.243c-0.015-0.05-0.027-0.107-0.061-0.146c-0.353-0.398-0.431-0.929-0.649-1.39
		c-0.186-0.39-0.311-0.804-0.467-1.197c-0.212-0.538-0.538-1.044-0.554-1.667c-0.008-0.269-0.178-0.535-0.293-0.795
		c-0.104-0.232-0.205-0.473-0.231-0.721c-0.046-0.446-0.195-0.861-0.294-1.293c-0.014-0.061-0.012-0.139-0.046-0.184
		c-0.382-0.506-0.305-1.127-0.427-1.697c-0.068-0.314-0.099-0.646-0.263-0.935c-0.046-0.083-0.092-0.179-0.094-0.268
		c-0.011-0.373-0.118-0.726-0.191-1.084c-0.03-0.146-0.052-0.287-0.117-0.423c-0.094-0.188-0.099-0.391-0.095-0.592
		c-0.129-0.049-0.254-0.099-0.376-0.16c-0.002,0.422-0.064,0.852,0.17,1.244c0.024,0.041,0.024,0.102,0.028,0.152
		c0.033,0.389,0.213,0.748,0.193,1.146c-0.004,0.078,0.039,0.164,0.073,0.24c0.253,0.555,0.346,1.143,0.374,1.744
		c0.01,0.193,0.038,0.387,0.138,0.549c0.164,0.265,0.236,0.559,0.321,0.852c0.088,0.306,0.162,0.607,0.205,0.923
		c0.041,0.271,0.123,0.532,0.237,0.785c0.127,0.276,0.298,0.563,0.312,0.854c0.027,0.619,0.346,1.127,0.558,1.666
		c0.155,0.396,0.277,0.809,0.465,1.196c0.217,0.449,0.288,0.972,0.639,1.36c0.045,0.05,0.054,0.111,0.068,0.174
		c0.043,0.188,0.136,0.354,0.213,0.525c0.144,0.321,0.437,0.562,0.548,0.879c0.165,0.467,0.454,0.854,0.702,1.261
		c0.236,0.385,0.579,0.7,0.685,1.17c0.016,0.067,0.065,0.14,0.118,0.185c0.287,0.25,0.438,0.608,0.674,0.885
		c0.338,0.392,0.646,0.797,0.953,1.211c0.227,0.302,0.468,0.615,0.758,0.875c0.154,0.14,0.278,0.316,0.394,0.49
		c0.149,0.227,0.328,0.414,0.562,0.543c0.149,0.084,0.271,0.188,0.353,0.344c0.229,0.449,0.589,0.797,0.921,1.154
		c0.259,0.278,0.518,0.592,0.852,0.777c0.365,0.202,0.64,0.551,1.057,0.661c0.026,0.008,0.057,0.03,0.073,0.056
		c0.213,0.321,0.504,0.527,0.865,0.646c0.046,0.015,0.09,0.056,0.12,0.097c0.174,0.229,0.403,0.397,0.632,0.563
		c0.108,0.082,0.136,0.132,0.083,0.274c-0.095,0.255-0.272,0.447-0.401,0.677c-0.194,0.349-0.39,0.695-0.829,0.787
		c-0.088,0.019-0.178,0.071-0.244,0.135c-0.13,0.115-0.272,0.132-0.434,0.132c-0.449-0.001-0.885,0.124-1.239,0.378
		c-0.377,0.271-0.79,0.463-1.182,0.699c-0.347,0.211-0.579,0.509-0.685,0.908c-0.025,0.1-0.025,0.215-0.108,0.291
		c-0.354,0.313-0.486,0.75-0.535,1.187c-0.055,0.509-0.072,1.034-0.002,1.537c0.081,0.567,0.203,1.143,0.484,1.659
		c0.346,0.638,0.732,1.231,1.444,1.51c0.126,0.05,0.242,0.111,0.349,0.205c0.22,0.188,0.476,0.3,0.765,0.324
		c0.18,0.017,0.34,0.067,0.491,0.177c0.247,0.176,0.534,0.239,0.833,0.226c0.695-0.033,1.39-0.07,2.085-0.109
		c0.124-0.008,0.251-0.055,0.372-0.037c0.602,0.08,1.137-0.074,1.605-0.459c0.121-0.101,0.247-0.142,0.405-0.125
		c0.539,0.061,0.979-0.127,1.326-0.553c0.131-0.158,0.293-0.254,0.506-0.281c0.269-0.032,0.543-0.104,0.749-0.289
		c0.259-0.229,0.542-0.424,0.815-0.633c0.298-0.229,0.559-0.492,0.808-0.78c0.222-0.257,0.446-0.49,0.583-0.81
		c0.059-0.139,0.142-0.271,0.275-0.373c0.484-0.367,0.847-0.832,1.064-1.412c0.078-0.217,0.166-0.445,0.313-0.609
		c0.105-0.117,0.313,0.023,0.478-0.001c0.021-0.002,0.043,0,0.063-0.004c0.229-0.048,0.428,0.019,0.617,0.151
		c0.148,0.104,0.319,0.188,0.494,0.181c0.393-0.017,0.725,0.18,1.075,0.292c0.419,0.137,0.821,0.304,1.272,0.248
		c0.053-0.006,0.101,0.013,0.149,0.025c0.578,0.127,1.156,0.248,1.707,0.475c0.185,0.076,0.383,0.098,0.581,0.113
		c0.229,0.019,0.485-0.006,0.677,0.092c0.448,0.232,0.945,0.244,1.414,0.356c0.502,0.122,1.04,0.146,1.563,0.203
		c0.235,0.026,0.47,0.037,0.704,0.095c0.312,0.077,0.604,0.254,0.939,0.207c0.285-0.037,0.555,0,0.813,0.137
		c0.168,0.088,0.362,0.115,0.548,0.105c0.422-0.021,0.823,0.073,1.229,0.176c0.372,0.096,0.746,0.15,1.141,0.129
		c0.473-0.027,0.964-0.027,1.425,0.11c0.368,0.112,0.737,0.133,1.112,0.118c0.104-0.004,0.208-0.002,0.31,0.023
		c0.243,0.066,0.491,0.088,0.744,0.09c0.499,0.007,0.994,0.082,1.493,0.1c0.401,0.014,0.809,0.029,1.205,0.137
		c0.171,0.045,0.352-0.017,0.52-0.08c0.11-0.043,0.225-0.072,0.338-0.043c0.418,0.106,0.878-0.002,1.273,0.238
		c0.053,0.032,1.722,0.07,1.781,0.046c0.208-0.087,0.408-0.056,0.606,0.026c0.356,0.15,0.711,0.15,1.065,0.003
		c0.09-0.038,0.183-0.062,0.272-0.021c0.592,0.262,1.19,0.002,1.784,0.015c0.146,0.002,0.28-0.019,0.42,0.048
		c0.213,0.1,0.447,0.146,0.672,0.081c0.442-0.129,0.887-0.022,1.325-0.06c0.364-0.027,0.728,0.043,1.087-0.006
		c0.596-0.08,1.182-0.226,1.788-0.229c0.603-0.004,1.188-0.17,1.798-0.155c0.285,0.006,0.594,0.044,0.867-0.065
		c0.307-0.119,0.592-0.076,0.885,0.019c0.297,0.096,0.588,0.067,0.893,0.011c0.414-0.078,0.841-0.105,1.265-0.096
		c0.231,0.005,0.459,0.005,0.675-0.088c0.133-0.061,0.254-0.064,0.389-0.014c0.285,0.104,0.576,0.096,0.861-0.006
		c0.219-0.078,0.461-0.102,0.676-0.074c0.502,0.067,0.973-0.045,1.451-0.146c0.203-0.042,0.411-0.069,0.618-0.042
		c0.127,0.018,0.257,0.037,0.373-0.006c0.334-0.122,0.679-0.094,1.019-0.096c0.188-0.002,0.375-0.031,0.562-0.041
		c0.322-0.019,0.638-0.147,0.953-0.11c0.427,0.052,0.83,0,1.229-0.13c0.104-0.033,0.198-0.055,0.305-0.026
		c0.328,0.091,0.642,0.034,0.939-0.12c0.191-0.103,0.389-0.127,0.604-0.094c0.281,0.044,0.583,0.061,0.828-0.082
		c0.49-0.283,1.049-0.27,1.568-0.385c0.521-0.116,1.055-0.232,1.596-0.275c0.11-0.008,0.23-0.029,0.33-0.082
		c0.442-0.234,0.908-0.367,1.408-0.369c0.061,0,0.127-0.02,0.18-0.049c0.266-0.143,0.543-0.197,0.845-0.17
		c0.153,0.016,0.323-0.015,0.452-0.104c0.387-0.274,0.861-0.204,1.277-0.359c0.145-0.053,0.228,0.002,0.28,0.153
		c0.138,0.376,0.394,0.692,0.521,1.077c0.062,0.179,0.191,0.324,0.322,0.465c0.077,0.085,0.151,0.17,0.197,0.281
		c0.127,0.302,0.346,0.526,0.609,0.705c0.133,0.088,0.24,0.196,0.336,0.326c0.302,0.405,0.632,0.795,1.046,1.079
		c0.497,0.343,1.062,0.575,1.567,0.905c0.113,0.074,0.252,0.094,0.385,0.128c0.34,0.089,0.664,0.228,1.005,0.317
		c0.224,0.062,0.437,0.199,0.665,0.262c0.471,0.126,0.926,0.294,1.438,0.22c0.338-0.05,2.205,0.086,2.486,0.089
		c0.646,0.004,1.271-0.087,1.766-0.574c0.078-0.078,0.174-0.106,0.271-0.142c0.388-0.137,0.669-0.394,0.814-0.78
		c0.059-0.158,0.151-0.264,0.279-0.363c0.383-0.299,0.572-0.692,0.622-1.191c0.04-0.422,0.058-0.855,0.017-1.258
		c-0.061-0.594-0.108-1.217-0.375-1.77c-0.262-0.547-0.777-0.871-1.158-1.315c-0.076-0.089-0.209-0.146-0.325-0.181
		c-0.147-0.045-0.259-0.127-0.358-0.237c-0.386-0.421-0.869-0.646-1.421-0.729c-0.052-0.007-0.11-0.006-0.149-0.033
		c-0.342-0.254-0.688-0.492-0.854-0.928c-0.133-0.345-0.311-0.667-0.359-1.042c-0.021-0.155-0.095-0.306-0.201-0.425
		c-0.149-0.169-0.088-0.249,0.095-0.303c0.375-0.113,0.651-0.36,0.907-0.649c0.199-0.228,0.406-0.448,0.718-0.53
		c0.149-0.043,0.28-0.146,0.394-0.256c0.361-0.354,0.799-0.604,1.198-0.904c0.407-0.306,0.765-0.659,1.101-1.025
		c0.317-0.348,0.668-0.662,0.986-1.006c0.383-0.409,0.651-0.898,1.01-1.321c0.135-0.157,0.241-0.33,0.416-0.454
		c0.271-0.193,0.471-0.453,0.545-0.787c0.043-0.185,0.119-0.332,0.254-0.457c0.447-0.41,0.67-0.961,0.901-1.506
		c0.046-0.109,0.107-0.197,0.171-0.294c0.191-0.291,0.446-0.532,0.604-0.846c0.261-0.521,0.358-1.118,0.741-1.58
		c0.052-0.062,0.068-0.154,0.09-0.235c0.158-0.613,0.554-1.104,0.83-1.656c0.142-0.277,0.272-0.545,0.277-0.862
		c0.004-0.195,0.055-0.366,0.197-0.515c0.213-0.221,0.312-0.498,0.346-0.801c0.012-0.131,0.039-0.248,0.112-0.355
		c0.103-0.15,0.147-0.325,0.205-0.496c0.179-0.537,0.205-1.118,0.461-1.637c0.009-0.019,0.015-0.039,0.017-0.061
		c0.061-0.561,0.354-1.045,0.455-1.604c0.125-0.661,0.452-1.284,0.576-1.965c0.059-0.311,0.178-0.606,0.145-0.931
		c-0.008-0.067,0.033-0.121,0.053-0.181c0.163-0.532,0.354-1.062,0.331-1.633c-0.011-0.254,0-0.506,0.032-0.76
		c0.022-0.168,0.008-0.32-0.023-0.468c-0.119,0.062-0.24,0.113-0.363,0.162C128.352,100.977,128.352,101.366,128.314,101.749z"/>
	<path fill="#280D09" d="M126.535,101.439c-0.098,0.098-0.232,0.145-0.367,0.176c-0.029,0.138-0.037,0.277-0.051,0.417
		c-0.035,0.343,0,0.702-0.113,1.028c-0.17,0.488-0.273,0.994-0.402,1.491c-0.125,0.488-0.195,0.988-0.461,1.431
		c-0.062,0.106-0.084,0.238-0.123,0.357c-0.056,0.171-0.097,0.348-0.166,0.512c-0.242,0.578-0.484,1.16-0.746,1.729
		c-0.195,0.431-0.215,0.922-0.484,1.325c-0.081,0.119-0.098,0.283-0.084,0.43c0.018,0.221-0.059,0.393-0.191,0.549
		c-0.184,0.213-0.258,0.473-0.343,0.737c-0.16,0.496-0.25,1.028-0.58,1.458c-0.168,0.219-0.297,0.461-0.333,0.742
		c-0.014,0.104-0.089,0.158-0.146,0.232c-0.281,0.366-0.533,0.75-0.682,1.198c-0.109,0.327-0.226,0.647-0.455,0.927
		c-0.277,0.338-0.572,0.674-0.717,1.105c-0.062,0.186-0.166,0.33-0.341,0.432c-0.165,0.096-0.306,0.242-0.372,0.42
		c-0.137,0.361-0.377,0.637-0.622,0.924c-0.188,0.225-0.444,0.347-0.635,0.558c-0.419,0.466-0.813,0.955-1.287,1.371
		c-0.289,0.256-0.56,0.541-0.862,0.774c-0.391,0.299-0.714,0.68-1.134,0.94c-0.052,0.03-0.101,0.08-0.131,0.134
		c-0.177,0.301-0.468,0.439-0.765,0.571c-0.312,0.136-0.586,0.321-0.785,0.604c-0.069,0.098-0.157,0.166-0.266,0.213
		c-0.543,0.242-0.877,0.76-1.369,1.069c-0.017,0.011-0.024,0.035-0.039,0.048c-0.414,0.367-0.81,0.766-1.369,0.903
		c-0.276,0.069-0.541,0.183-0.746,0.381c-0.324,0.315-0.738,0.46-1.125,0.659c-0.543,0.283-1.116,0.515-1.6,0.91
		c-0.088,0.072-0.181,0.16-0.304,0.145c-0.481-0.059-0.894,0.174-1.319,0.332c-0.151,0.057-0.285,0.09-0.449,0.057
		c-0.438-0.088-0.854-0.033-1.213,0.263c-0.059,0.05-0.123,0.071-0.198,0.079c-0.565,0.053-1.054,0.369-1.601,0.482
		c-0.068,0.016-0.131,0.066-0.192,0.104c-0.065,0.037-0.132,0.067-0.206,0.067c-0.869,0-1.622,0.431-2.419,0.689
		c-0.388,0.125-0.792,0.166-1.169,0.323c-0.08,0.032-0.188,0.013-0.278-0.003c-0.319-0.053-0.627-0.006-0.915,0.129
		c-0.211,0.1-0.418,0.117-0.637,0.06c-0.186-0.05-0.391-0.083-0.557-0.008c-0.351,0.157-0.707,0.11-1.065,0.106
		c-0.146,0-0.298,0-0.435,0.047c-0.291,0.095-0.586,0.102-0.887,0.127c-0.878,0.074-1.752,0.191-2.628,0.294
		c-0.125,0.016-0.247,0.009-0.371,0.001c-0.384-0.026-0.772-0.053-1.149,0.035c-0.338,0.078-0.67,0.13-1.019,0.072
		c-0.219-0.035-0.44-0.004-0.64,0.099c-0.178,0.092-0.348,0.116-0.54,0.057c-0.183-0.057-0.37-0.036-0.558,0.011
		c-0.395,0.102-0.806,0.061-1.201,0.047c-0.36-0.013-0.696-0.019-1.039,0.115c-0.178,0.069-0.366,0.12-0.576,0.068
		c-0.553-0.134-1.117-0.105-1.676-0.038c-0.186,0.021-0.354,0.062-0.549,0.019c-0.355-0.076-0.707-0.033-1.021,0.178
		c-0.103,0.068-0.202,0.087-0.324,0.064c-0.708-0.136-1.405-0.053-2.104,0.075c-0.435,0.079-0.864,0.236-1.318,0.083
		c-0.18-0.062-0.381-0.031-0.552,0.049c-0.409,0.188-0.817,0.027-1.22,0.006c-0.246-0.016-0.488-0.103-0.738-0.039
		c-0.097,0.023-0.178,0-0.27-0.037c-0.521-0.219-1.056-0.334-1.607-0.133c-0.159,0.058-0.29,0.036-0.441-0.037
		c-0.298-0.146-0.616-0.194-0.942-0.094c-0.112,0.033-0.225,0.022-0.338,0.02c-0.363-0.014-0.726-0.122-1.089-0.016
		c-0.122,0.036-0.244,0.018-0.364,0.027c-0.409,0.036-0.799-0.012-1.183-0.155c-0.074-0.028-0.166-0.009-0.249-0.015
		c-0.329-0.025-0.661,0.025-0.989-0.066c-0.293-0.082-0.597-0.087-0.9-0.076c-0.095,0.002-0.186,0-0.275-0.037
		c-0.379-0.158-0.773-0.135-1.171-0.102c-0.082,0.006-0.172,0.043-0.246,0.021c-0.652-0.184-1.338-0.036-1.998-0.266
		c-0.382-0.133-0.833-0.131-1.254-0.162c-0.394-0.029-0.784-0.041-1.164-0.176c-0.249-0.087-0.514-0.107-0.772-0.041
		c-0.141,0.036-0.264,0.008-0.396-0.04c-0.56-0.194-1.163-0.223-1.721-0.438c-0.082-0.031-0.187-0.017-0.279-0.007
		c-0.268,0.029-0.515-0.002-0.745-0.159c-0.084-0.058-1.789-0.32-1.893-0.3c-0.254,0.051-0.491,0.037-0.718-0.113
		c-0.13-0.087-0.289-0.114-0.446-0.135c-0.552-0.076-1.125-0.004-1.657-0.233c-0.11-0.048-0.247-0.004-0.357-0.087
		c-0.189-0.141-0.414-0.198-0.642-0.244c-0.574-0.113-1.172-0.131-1.711-0.413c-0.087-0.045-0.206-0.046-0.308-0.037
		c-0.226,0.017-0.405-0.062-0.57-0.209c-0.069-0.062-0.148-0.128-0.233-0.157c-0.571-0.189-1.129-0.42-1.717-0.555
		c-0.082-0.02-0.167-0.012-0.241-0.054c-0.459-0.249-0.939-0.45-1.4-0.696c-0.397-0.213-0.806-0.416-1.215-0.6
		c-0.396-0.178-0.794-0.366-1.201-0.523c-0.174-0.068-0.343-0.152-0.492-0.271c-0.191-0.155-0.424-0.209-0.649-0.295
		c-0.384-0.145-0.779-0.254-1.144-0.477c-0.352-0.215-0.651-0.466-0.927-0.765c-0.068-0.075-0.162-0.132-0.253-0.185
		c-0.41-0.238-0.828-0.449-1.21-0.754c-0.293-0.23-0.62-0.431-0.911-0.681c-0.171-0.146-0.274-0.345-0.448-0.481
		c-0.577-0.451-1.052-1.021-1.643-1.455c-0.04-0.03-0.093-0.068-0.104-0.113c-0.121-0.438-0.454-0.721-0.722-1.055
		c-0.306-0.386-0.609-0.778-0.938-1.138c-0.335-0.364-0.657-0.729-0.966-1.118c-0.206-0.263-0.282-0.592-0.502-0.813
		c-0.346-0.349-0.541-0.771-0.768-1.194c-0.352-0.661-0.789-1.277-1.117-1.955c-0.078-0.162-0.169-0.316-0.293-0.449
		c-0.058-0.062-0.098-0.137-0.113-0.224c-0.044-0.221-0.147-0.415-0.271-0.603c-0.283-0.43-0.512-0.901-0.673-1.383
		c-0.142-0.424-0.35-0.83-0.423-1.283c-0.021-0.118-0.09-0.239-0.166-0.338c-0.115-0.146-0.165-0.312-0.212-0.484
		c-0.122-0.46-0.195-0.932-0.419-1.355c-0.26-0.498-0.45-1.017-0.489-1.584c-0.015-0.19-0.075-0.371-0.171-0.539
		c-0.29-0.508-0.484-1.045-0.486-1.644c0-0.127-0.025-0.252-0.076-0.37c-0.107-0.254-0.142-0.52-0.161-0.786
		c-0.442-0.146-0.893-0.271-1.278-0.552c-0.164-0.119-0.343-0.189-0.534-0.248c-0.094-0.027-0.183-0.068-0.275-0.104
		c-0.004,0.201,0,0.403,0.095,0.593c0.065,0.135,0.087,0.276,0.117,0.422c0.073,0.358,0.181,0.711,0.191,1.084
		c0.002,0.089,0.048,0.185,0.094,0.269c0.164,0.288,0.194,0.618,0.263,0.935c0.122,0.569,0.045,1.19,0.427,1.696
		c0.034,0.045,0.032,0.123,0.046,0.184c0.099,0.432,0.248,0.847,0.294,1.293c0.026,0.248,0.128,0.488,0.231,0.721
		c0.115,0.26,0.285,0.526,0.293,0.795c0.016,0.623,0.342,1.129,0.554,1.668c0.156,0.395,0.281,0.809,0.467,1.196
		c0.219,0.461,0.297,0.99,0.649,1.39c0.033,0.037,0.046,0.096,0.061,0.146c0.135,0.463,0.355,0.878,0.665,1.243
		c0.056,0.064,0.103,0.134,0.127,0.216c0.154,0.501,0.51,0.89,0.74,1.349c0.045,0.092,0.131,0.167,0.213,0.229
		c0.141,0.106,0.213,0.237,0.253,0.415c0.075,0.337,0.233,0.635,0.527,0.836c0.117,0.08,0.188,0.188,0.234,0.324
		c0.096,0.278,0.263,0.506,0.522,0.648c0.158,0.086,0.25,0.213,0.305,0.383c0.061,0.182,0.136,0.371,0.284,0.485
		c0.322,0.248,0.495,0.625,0.792,0.894c0.152,0.14,0.29,0.305,0.396,0.49c0.119,0.206,0.288,0.361,0.494,0.473
		c0.171,0.094,0.31,0.217,0.398,0.39c0.222,0.44,0.577,0.776,0.898,1.132c0.24,0.268,0.494,0.561,0.806,0.736
		c0.372,0.211,0.656,0.562,1.083,0.682c0.035,0.01,0.072,0.045,0.095,0.078c0.206,0.312,0.497,0.505,0.844,0.623
		c0.046,0.018,0.088,0.058,0.12,0.099c0.194,0.24,0.436,0.425,0.682,0.604c0.065,0.05,0.133,0.096,0.14,0.193
		c0.02,0.408,0.002,0.805-0.275,1.139c-0.066,0.08-0.117,0.174-0.172,0.265c-0.229,0.376-0.435,0.772-0.923,0.868
		c-0.067,0.013-0.139,0.056-0.191,0.104c-0.142,0.133-0.31,0.144-0.489,0.153c-0.488,0.024-0.948,0.169-1.345,0.46
		c-0.177,0.131-0.358,0.243-0.552,0.346c-0.328,0.176-0.725,0.297-0.902,0.651c-0.218,0.438-0.444,0.872-0.685,1.299
		c-0.182,0.325-0.189,0.707-0.159,1.081c0,0.201-0.03,0.406,0.006,0.6c0.1,0.526,0.208,1.056,0.465,1.533
		c0.328,0.611,0.697,1.18,1.383,1.44c0.127,0.047,0.242,0.112,0.348,0.204c0.23,0.193,0.5,0.305,0.8,0.324
		c0.149,0.011,0.281,0.051,0.406,0.143c0.283,0.208,0.603,0.271,0.95,0.229c0.702-0.088,1.412-0.106,2.119-0.121
		c0.426-0.008,0.804-0.121,1.131-0.383c0.2-0.162,0.41-0.229,0.663-0.211c0.458,0.036,0.832-0.142,1.129-0.498
		c0.15-0.183,0.332-0.301,0.58-0.33c0.26-0.029,0.524-0.104,0.721-0.285c0.257-0.232,0.538-0.43,0.816-0.633
		c0.309-0.221,0.547-0.511,0.805-0.785c0.196-0.209,0.379-0.414,0.493-0.681c0.103-0.235,0.273-0.405,0.471-0.573
		c0.357-0.308,0.676-0.668,0.837-1.125c0.093-0.264,0.269-0.479,0.347-0.742c0.026-0.09,0.104-0.127,0.197-0.125
		c0.448,0.013,0.915-0.053,1.338,0.058c0.424,0.108,0.828,0.295,1.265,0.396c0.335,0.078,0.676,0.194,1.002,0.341
		c0.237,0.104,0.501,0.136,0.767,0.118c0.103-0.006,0.204,0,0.31,0.025c0.575,0.131,1.153,0.254,1.704,0.48
		c0.165,0.066,0.345,0.076,0.521,0.103c0.368,0.054,0.748,0.052,1.094,0.229c0.131,0.068,0.284,0.072,0.429,0.072
		c0.139,0,0.269,0.026,0.391,0.094c0.151,0.086,0.315,0.105,0.485,0.095c0.587-0.04,1.139,0.221,1.729,0.194
		c0.158-0.01,0.329,0.06,0.482,0.125c0.237,0.1,0.479,0.134,0.732,0.119c0.263-0.019,0.514,0.008,0.753,0.145
		c0.194,0.109,0.42,0.115,0.642,0.111c0.355-0.008,0.701,0.062,1.043,0.154c0.343,0.094,0.687,0.162,1.046,0.155
		c0.489-0.011,0.979-0.009,1.466,0.072c0.237,0.038,0.457,0.165,0.7,0.157c0.513-0.019,1.017,0.068,1.523,0.115
		c0.633,0.061,1.266,0.106,1.9,0.127c0.269,0.01,0.547,0.11,0.801,0.045c0.639-0.172,1.262,0.032,1.892,0.021
		c0.319,0.229,0.681,0.15,1.028,0.137c0.2-0.007,0.388,0.086,0.583,0.057c0.428-0.062,0.851-0.094,1.262,0.08
		c0.08,0.033,0.159,0.037,0.244,0.01c0.386-0.129,0.775-0.113,1.165-0.01c0.091,0.024,0.183,0.004,0.274,0.004
		c0.617-0.002,1.239-0.198,1.854,0.035c0.037,0.016,0.084,0.022,0.12,0.014c0.34-0.102,0.684-0.04,1.025-0.045
		c0.49-0.004,0.984,0.025,1.47-0.026c0.565-0.062,1.126-0.177,1.7-0.205c0.609-0.028,1.213-0.162,1.828-0.149
		c0.228,0.004,0.463,0.029,0.685-0.047c0.419-0.146,0.851-0.133,1.267-0.039c0.459,0.104,0.903,0.002,1.354-0.021
		c0.517-0.025,1.03-0.077,1.543-0.15c0.248-0.035,0.503,0.082,0.737,0.041c0.412-0.074,0.824-0.099,1.242-0.095
		c0.252,0.004,0.502-0.022,0.744-0.071c0.768-0.151,1.545-0.188,2.321-0.214c0.094-0.003,0.188-0.003,0.28-0.009
		c0.609-0.048,1.207-0.232,1.828-0.146c0.062,0.01,0.127-0.002,0.187-0.021c0.412-0.146,0.831-0.177,1.263-0.135
		c0.076,0.007,0.166-0.029,0.236-0.07c0.234-0.14,0.489-0.157,0.753-0.159c0.228-0.002,0.472,0.067,0.685-0.027
		c0.396-0.178,0.812-0.234,1.23-0.317c0.632-0.125,1.262-0.25,1.896-0.345c0.252-0.038,0.49-0.107,0.715-0.225
		c0.292-0.151,0.607-0.188,0.929-0.238c0.538-0.088,1.071-0.217,1.604-0.323c0.322-0.063,0.638-0.211,0.972-0.284
		c0.342-0.072,0.677-0.107,1.021-0.111c0.174-0.002,0.271,0.059,0.33,0.221c0.135,0.378,0.396,0.693,0.521,1.08
		c0.054,0.168,0.19,0.3,0.293,0.445c0.306,0.438,0.589,0.887,1.05,1.188c0.132,0.087,0.199,0.271,0.312,0.392
		c0.26,0.274,0.487,0.588,0.806,0.793c0.498,0.321,1.043,0.562,1.543,0.889c0.114,0.074,0.257,0.088,0.382,0.136
		c0.396,0.151,0.812,0.235,1.205,0.399c0.54,0.224,1.091,0.426,1.691,0.388c0.359-0.023,0.705,0.048,1.033,0.194
		c0.141,0.063,0.282,0.092,0.426,0.028c0.305-0.138,0.623-0.135,0.949-0.144c0.543-0.014,1.055-0.142,1.453-0.555
		c0.077-0.08,0.178-0.107,0.275-0.142c0.355-0.12,0.617-0.354,0.747-0.715c0.061-0.168,0.153-0.288,0.297-0.392
		c0.34-0.246,0.563-0.586,0.575-1.01c0.015-0.51,0.125-1.033-0.115-1.527c-0.025-0.054-0.032-0.123-0.027-0.187
		c0.035-0.685-0.326-1.155-0.802-1.567c-0.106-0.091-0.203-0.184-0.278-0.299c-0.129-0.191-0.306-0.324-0.521-0.388
		c-0.17-0.052-0.289-0.157-0.405-0.282c-0.339-0.371-0.773-0.562-1.251-0.669c-0.437-0.097-0.78-0.339-1.007-0.715
		c-0.248-0.414-0.484-0.842-0.543-1.339c-0.018-0.137-0.064-0.278-0.157-0.376c-0.18-0.189-0.159-0.415-0.174-0.648
		c-0.015-0.241,0.069-0.381,0.294-0.448c0.341-0.104,0.607-0.313,0.836-0.588c0.153-0.186,0.312-0.404,0.528-0.482
		c0.599-0.219,1.02-0.688,1.522-1.032c0.402-0.274,0.787-0.58,1.125-0.951c0.174-0.194,0.324-0.413,0.521-0.585
		c0.488-0.43,0.964-0.867,1.275-1.456c0.029-0.054,0.082-0.099,0.129-0.138c0.146-0.126,0.256-0.278,0.342-0.451
		c0.08-0.165,0.191-0.291,0.35-0.393c0.283-0.182,0.485-0.439,0.562-0.772c0.043-0.196,0.131-0.353,0.271-0.483
		c0.287-0.271,0.49-0.601,0.651-0.961c0.115-0.259,0.21-0.533,0.365-0.765c0.297-0.432,0.651-0.821,0.834-1.331
		c0.137-0.392,0.332-0.757,0.519-1.127c0.261-0.523,0.472-1.074,0.771-1.584c0.08-0.135,0.138-0.281,0.227-0.414
		c0.139-0.204,0.22-0.434,0.23-0.682c0.01-0.264,0.056-0.497,0.26-0.688c0.106-0.1,0.188-0.242,0.205-0.387
		c0.057-0.402,0.236-0.759,0.375-1.132c0.211-0.562,0.226-1.183,0.496-1.726c0.006-0.009,0.008-0.021,0.008-0.031
		c0.062-0.559,0.349-1.049,0.457-1.604c0.131-0.673,0.453-1.307,0.584-1.995c0.056-0.289,0.16-0.568,0.138-0.869
		c-0.009-0.103,0.049-0.181,0.073-0.271c0.104-0.385,0.252-0.77,0.289-1.161c0.037-0.383,0.037-0.772,0.041-1.16
		c-0.321,0.126-0.651,0.231-0.965,0.374C127.089,101.102,126.777,101.193,126.535,101.439z M43.062,130.234
		c-0.218,0.234-0.383,0.507-0.529,0.783c-0.223,0.42-0.486,0.776-0.871,1.074c-0.236,0.184-0.449,0.432-0.667,0.657
		c-0.174,0.181-0.365,0.341-0.61,0.428c-0.22,0.079-0.401,0.231-0.547,0.413c-0.138,0.17-0.302,0.247-0.513,0.253
		c-0.428,0.013-0.789,0.183-1.068,0.515c-0.074,0.09-0.144,0.121-0.266,0.104c-0.366-0.056-0.729-0.017-1.072,0.128
		c-0.133,0.057-0.266,0.055-0.4,0.062c-0.506,0.027-1.016,0.076-1.521-0.03c-0.195-0.043-0.39-0.039-0.589-0.029
		c-0.259,0.013-0.488-0.108-0.664-0.282c-0.139-0.138-0.268-0.293-0.389-0.451c-0.273-0.354-0.307-0.772-0.253-1.198
		c0.019-0.154,0.067-0.31,0.091-0.466c0.052-0.336,0.393-0.68,0.719-0.771c0.342-0.094,0.687-0.18,0.99-0.376
		c0.091-0.058,0.185-0.09,0.294-0.08c0.571,0.053,1.016-0.191,1.366-0.624c0.117-0.146,0.244-0.243,0.418-0.309
		c0.27-0.104,0.507-0.283,0.629-0.546c0.167-0.364,0.416-0.684,0.562-1.057c0.081-0.201,0.256-0.334,0.347-0.564
		c0.253,0.229,0.519,0.326,0.799,0.422c0.512,0.174,0.989,0.438,1.472,0.682c0.486,0.245,0.99,0.451,1.484,0.678
		c0.252,0.115,0.511,0.234,0.779,0.319C43.26,130.037,43.114,130.178,43.062,130.234z M114.964,131.247
		c0.201,0.004,0.382,0.047,0.562,0.147c0.162,0.09,0.348,0.151,0.531,0.181c0.495,0.083,0.766,0.405,0.946,0.845
		c0.067,0.166,0.142,0.328,0.244,0.477c0.177,0.256,0.204,0.521,0.03,0.793c-0.043,0.071-0.094,0.145-0.113,0.226
		c-0.104,0.425-0.424,0.587-0.796,0.694c-0.091,0.025-0.181,0.054-0.267,0.088c-0.367,0.146-0.723,0.303-1.137,0.191
		c-0.201-0.056-0.417-0.007-0.613,0.074c-0.207,0.086-0.396,0.081-0.597-0.031c-0.323-0.185-0.698-0.213-1.054-0.27
		c-0.426-0.064-0.842-0.178-1.213-0.365c-0.34-0.172-0.736-0.244-1.018-0.527c-0.394-0.396-0.845-0.718-1.268-1.074
		c-0.066-0.057-0.105-0.131-0.145-0.205c-0.039-0.086-0.062-0.188-0.125-0.254c-0.336-0.354-0.49-0.827-0.793-1.207
		c-0.154-0.188-0.24-0.438-0.375-0.697c0.812-0.246,1.498-0.686,2.2-1.09c0.244-0.141,0.481-0.276,0.749-0.368
		c0.326-0.11,0.562-0.354,0.788-0.606c0.214-0.24,0.483-0.392,0.767-0.541c0.191,0.252,0.235,0.549,0.313,0.83
		c0.158,0.569,0.33,1.123,0.787,1.551c0.224,0.209,0.386,0.492,0.61,0.713C114.26,131.09,114.581,131.24,114.964,131.247z"/>
	<path fill="#280D09" d="M22.04,101.105c-0.002-0.209-0.102-0.297-0.262-0.412c-0.046-0.031-0.095-0.058-0.141-0.088
		c0.011,0.215,0.023,0.433,0.024,0.502c0,0.029-0.001,0.061-0.001,0.09c0.122,0.062,0.248,0.111,0.376,0.16
		C22.038,101.273,22.041,101.188,22.04,101.105z"/>
	<path fill="#280D09" d="M128.355,100.417c0,0.058,0,0.114-0.002,0.172c0.125-0.049,0.246-0.103,0.364-0.162
		c-0.032-0.153-0.094-0.296-0.178-0.427C128.42,100.107,128.357,100.23,128.355,100.417z"/>
	<path fill="#280D09" d="M127.204,99.48c-0.415,0.203-0.72,0.526-0.782,1.004c-0.048,0.357-0.135,0.703-0.238,1.047
		c-0.009,0.027-0.01,0.056-0.016,0.084c0.135-0.031,0.271-0.078,0.367-0.176c0.242-0.246,0.554-0.338,0.854-0.478
		c0.313-0.144,0.645-0.248,0.965-0.374c0.002-0.059,0.002-0.115,0.002-0.172c0.002-0.186,0.063-0.311,0.186-0.417
		c-0.085-0.131-0.186-0.255-0.314-0.365C127.92,99.374,127.568,99.305,127.204,99.48z"/>
	<path fill="#280D09" d="M22.846,101.709c0.386,0.281,0.836,0.406,1.278,0.552c-0.009-0.118-0.021-0.235-0.024-0.354
		c-0.006-0.204-0.022-0.399-0.088-0.593c-0.103-0.299-0.175-0.6-0.174-0.926c0.002-0.464-0.245-0.791-0.651-1.005
		c-0.069-0.038-0.769-0.065-0.811-0.051c-0.379,0.131-0.63,0.39-0.757,0.776c-0.006,0.021,0.005,0.256,0.018,0.496
		c0.046,0.03,0.095,0.057,0.141,0.088c0.16,0.115,0.26,0.203,0.262,0.412c0,0.082-0.002,0.168-0.004,0.252
		c0.092,0.033,0.182,0.076,0.275,0.104C22.503,101.52,22.682,101.59,22.846,101.709z"/>
	<path fill="#280D09" d="M22.016,85.212c-0.079,0.07-0.162,0.125-0.268,0.156c-0.199,0.06-0.357,0.17-0.494,0.306
		c0.107,0.299,0.18,0.611,0.363,0.878c0.134,0.196,0.214,0.419,0.22,0.653c0.003,0.169,0.07,0.293,0.158,0.422
		c0.136,0.012,0.119-0.129,0.169-0.197c0.055-0.074,0.053-0.179,0.115-0.258c0.57-0.701,0.569-0.702,1.493-0.691
		c0.198,0.004,0.396,0.017,0.593,0.01c0.203-0.008,0.407,0.016,0.582,0.098c0.208,0.1,0.352,0.035,0.513-0.081
		c0.12-0.088,0.221-0.19,0.305-0.315c0.173-0.262,0.187-0.306-0.012-0.56c-0.152-0.196-0.217-0.415-0.276-0.651
		c-0.01-0.039-0.009-0.078-0.017-0.117h-2.714c-0.1,0.058-0.203,0.107-0.322,0.127C22.271,85.012,22.135,85.104,22.016,85.212z"/>
	<path fill="#280D09" d="M126.152,85.293c0.027,0.021,0.035,0.076,0.039,0.118c0.029,0.282,0.16,0.522,0.32,0.748
		c0.127,0.179,0.18,0.374,0.17,0.596c-0.009,0.167-0.021,0.341,0.041,0.502c0.172,0.453,0.107,0.912,0.059,1.373
		c-0.014,0.113-0.053,0.243-0.02,0.343c0.027,0.079,0.028,0.159,0.033,0.238c0.396-0.52,0.73-1.088,1.102-1.626
		c0.162-0.235,0.244-0.535,0.33-0.815c0.045-0.138,0.08-0.277,0.121-0.416c-0.065-0.196-0.117-0.396-0.145-0.605
		c-0.045-0.341-0.178-0.635-0.403-0.885h-1.948C125.938,85.018,126.021,85.173,126.152,85.293z"/>
	<path fill="#280D09" d="M125.557,85.51c0.02,0.047,0.067,0.082,0.104,0.118c0.062,0.062,0.103,0.131,0.112,0.222
		c0.035,0.278,0.158,0.522,0.319,0.748c0.068,0.096,0.144,0.194,0.148,0.311c0.013,0.367,0.003,0.738,0.163,1.084
		c0.011,0.023-0.006,0.062-0.014,0.093c-0.037,0.196-0.074,0.394-0.115,0.589c-0.073,0.355-0.002,0.682,0.172,0.949
		c0.121-0.133,0.238-0.27,0.349-0.411c-0.005-0.079-0.006-0.159-0.032-0.237c-0.033-0.101,0.004-0.229,0.019-0.344
		c0.05-0.461,0.112-0.92-0.058-1.373c-0.062-0.16-0.051-0.335-0.043-0.502c0.01-0.222-0.043-0.417-0.17-0.596
		c-0.16-0.227-0.291-0.465-0.32-0.748c-0.004-0.042-0.012-0.096-0.037-0.118c-0.133-0.12-0.217-0.276-0.303-0.431H125.1
		C125.275,85.061,125.458,85.253,125.557,85.51z"/>
	<path fill="#280D09" d="M22.397,88.159c0.083-0.101,0.153-0.209,0.2-0.325c0.043-0.105,0.071-0.217,0.179-0.287
		c0.16-0.105,0.28-0.253,0.372-0.422c0.066-0.116,0.156-0.223,0.29-0.213c0.411,0.027,0.828-0.025,1.23,0.15
		c0.57,0.246,1.167,0.063,1.503-0.416c0.345-0.489,0.315-1.097-0.086-1.582c-0.051-0.062-0.071-0.133-0.098-0.203H25.46
		c0.008,0.039,0.007,0.078,0.017,0.117c0.06,0.236,0.124,0.455,0.276,0.651c0.198,0.254,0.185,0.297,0.012,0.56
		c-0.084,0.125-0.185,0.229-0.305,0.315c-0.161,0.116-0.305,0.181-0.513,0.081c-0.175-0.082-0.379-0.105-0.582-0.098
		c-0.196,0.007-0.395-0.006-0.593-0.01c-0.924-0.011-0.923-0.01-1.493,0.691c-0.062,0.079-0.061,0.184-0.115,0.257
		c-0.05,0.069-0.033,0.21-0.169,0.198c0.013,0.02,0.021,0.038,0.035,0.059C22.147,87.848,22.271,88.003,22.397,88.159z"/>
	<path fill="#280D09" d="M127.896,87.585c-0.371,0.538-0.703,1.106-1.102,1.626c0.01,0.152,0.006,0.305,0.025,0.453
		c0.017,0.117,0.009,0.22-0.014,0.314c0.07,0.045,0.133,0.101,0.217,0.136c0.061,0.024,0.175-0.007,0.175,0.118
		c0.146,0,0.292,0,0.438,0c0.02-0.117,0.127-0.078,0.19-0.104c0.493-0.198,0.776-0.558,0.817-1.096
		c0.027-0.388,0.119-0.779-0.074-1.154c-0.036-0.067,0.007-0.144,0.025-0.215c0.088-0.32,0.062-0.636-0.092-0.925
		c-0.066-0.125-0.111-0.256-0.156-0.387c-0.043,0.139-0.078,0.278-0.121,0.416C128.141,87.05,128.059,87.35,127.896,87.585z"/>
	<path fill="#280D09" d="M21.995,87.627c-0.088-0.129-0.154-0.253-0.158-0.422c-0.006-0.234-0.086-0.457-0.22-0.653
		c-0.183-0.267-0.256-0.579-0.363-0.878c-0.103,0.102-0.198,0.215-0.271,0.354c-0.072,0.141-0.157,0.268-0.282,0.373
		c-0.564,0.482-0.647,1.354-0.191,1.945c0.198,0.256,0.462,0.387,0.786,0.385c0.231-0.002,0.468-0.09,0.683-0.219
		c0-0.295,0-0.589,0-0.883C21.986,87.63,21.988,87.627,21.995,87.627z"/>
	<path fill="#280D09" d="M126.796,89.211c-0.108,0.143-0.228,0.278-0.349,0.411c0.09,0.142,0.213,0.258,0.361,0.356
		c0.021-0.096,0.028-0.197,0.014-0.314C126.802,89.516,126.807,89.363,126.796,89.211z"/>
	<path fill="#280D09" d="M22.397,88.159c-0.125-0.156-0.25-0.312-0.368-0.476c-0.014-0.02-0.022-0.037-0.035-0.058
		c-0.006,0-0.009,0.003-0.016,0.002c0,0.294,0,0.588,0,0.883C22.137,88.416,22.282,88.301,22.397,88.159z"/>
	<g>
		<path fill="#280D09" d="M46.901,81.916c0.321-0.012,0.62,0.08,0.929,0.127c0.061,0.008,0.13,0.016,0.179,0.049
			c0.324,0.221,0.704,0.324,1.062,0.434c0.542,0.168,0.941,0.461,1.268,0.912c0.086,0.117,0.259,0.172,0.388,0.261
			c0.074,0.055,0.132,0.018,0.199-0.019c0.13-0.065,0.278-0.104,0.392-0.193c0.335-0.26,0.739-0.377,1.112-0.553
			c0.5-0.233,1.002-0.502,1.603-0.424c0.258,0.033,0.538-0.018,0.784-0.15c0.141-0.075,0.289-0.147,0.445-0.135
			c0.414,0.039,0.828-0.024,1.24,0.029c0.083,0.01,0.167,0.02,0.249,0.014c0.562-0.037,1.071,0.146,1.544,0.422
			c0.402,0.24,0.827,0.455,1.124,0.843c0.062,0.077,0.151,0.108,0.239,0.146c0.347,0.143,0.589,0.393,0.721,0.748
			c0.015,0.039,0.026,0.08,0.047,0.117c0.124,0.238,0.193,0.256,0.381,0.061c0.429-0.449,0.913-0.815,1.522-0.944
			c0.546-0.115,1.035-0.466,1.623-0.398c0.415-0.271,0.862-0.211,1.325-0.182c0.291,0.021,0.576-0.006,0.852,0.123
			c0.063,0.03,0.143,0.032,0.214,0.03c0.317-0.012,0.607,0.074,0.842,0.285c0.385,0.344,0.854,0.558,1.264,0.861
			c0.261,0.193,0.529,0.373,0.76,0.637c0.156-0.131,0.308-0.252,0.454-0.379c0.312-0.268,0.631-0.51,1.025-0.654
			c0.34-0.125,0.662-0.303,0.986-0.473c0.411-0.215,0.85-0.281,1.302-0.246c0.144,0.01,0.261-0.014,0.385-0.082
			c0.288-0.16,0.598-0.19,0.908-0.08c0.171,0.06,0.339,0.088,0.521,0.076c0.198-0.016,0.399,0.008,0.583,0.084
			c0.37,0.152,0.768,0.191,1.15,0.277c0.297,0.068,0.558,0.186,0.756,0.416c0.144,0.168,0.312,0.277,0.521,0.324
			c0.252,0.057,0.457,0.191,0.645,0.369c0.197,0.188,0.396,0.373,0.648,0.487c0.121,0.058,0.178,0.035,0.256-0.069
			c0.359-0.496,0.978-0.916,1.564-1.076c0.062-0.018,0.115-0.043,0.166-0.084c0.457-0.348,0.961-0.574,1.549-0.58
			c0.184-0.002,0.369-0.039,0.547-0.117c0.373-0.168,0.76-0.07,1.141-0.033c0.084,0.008,0.16,0.043,0.248,0.027
			c0.638-0.115,1.242-0.039,1.795,0.33c0.109,0.074,0.234,0.078,0.359,0.072c0.26-0.01,0.5,0.049,0.715,0.19
			c0.205,0.136,0.478,0.125,0.654,0.293c0.365,0.341,0.857,0.47,1.229,0.812c0.164-0.183,0.334-0.334,0.541-0.443
			c0.064-0.035,0.119-0.084,0.15-0.154c0.232-0.484,0.668-0.68,1.139-0.813c0.144-0.044,0.267-0.097,0.375-0.205
			c0.177-0.175,0.388-0.289,0.633-0.33c0.216-0.035,0.427-0.095,0.634-0.162c0.271-0.088,0.539-0.16,0.828-0.135
			c0.062,0.004,0.127-0.003,0.184-0.025c0.531-0.209,1.084-0.172,1.636-0.182c0.146-0.002,0.291-0.017,0.436-0.035
			c0.334-0.043,0.645,0.037,0.916,0.242c0.092,0.069,0.178,0.122,0.305,0.131c0.781,0.026,1.434,0.33,1.914,0.971
			c0.076,0.104,0.141,0.146,0.248,0.054c0.359-0.31,0.775-0.527,1.184-0.754c0.459-0.254,0.949-0.455,1.429-0.662
			c0.428-0.189,0.92-0.287,1.397-0.287c0.373-0.002,0.738,0.01,1.105-0.078c0.131-0.029,0.27,0.006,0.4,0.043
			c0.576,0.162,1.18,0.207,1.729,0.506c0.306,0.164,0.653,0.256,0.951,0.457c0.573,0.393,0.786,1.15,0.479,1.73
			c-0.3,0.561-1.027,0.797-1.66,0.534c-0.222-0.092-0.431-0.213-0.646-0.317c-0.303-0.15-0.633-0.265-0.965-0.344
			c-0.281-0.07-0.566-0.142-0.85-0.191c-0.33-0.057-0.681,0.045-1.006,0.16c-0.068,0.022-0.132,0.076-0.199,0.084
			c-0.658,0.07-1.123,0.512-1.629,0.865c-0.271,0.188-0.414,0.5-0.609,0.758c-0.205,0.27-0.428,0.521-0.662,0.758
			c-0.646,0.645-1.705,0.441-2.125-0.424c-0.164-0.34-0.367-0.66-0.508-1.017c-0.119-0.301-0.432-0.473-0.676-0.686
			c-0.013-0.013-0.039-0.019-0.06-0.011c-0.353,0.092-0.678-0.094-1.012-0.106c-0.802-0.039-1.578,0.058-2.328,0.418
			c-0.438,0.211-0.854,0.428-1.259,0.698c-0.254,0.173-0.553,0.269-0.752,0.525c-0.051,0.066-0.12,0.113-0.12,0.211
			c0.002,0.338-0.15,0.635-0.259,0.941c-0.203,0.576-0.713,0.928-1.295,0.918c-0.58-0.012-1.062-0.391-1.262-0.971
			c-0.109-0.32-0.293-0.588-0.525-0.844c-0.35-0.388-0.807-0.57-1.231-0.824c-0.315-0.188-0.617-0.283-0.979-0.297
			c-0.285-0.013-0.582-0.06-0.854-0.183c-0.138-0.062-0.269,0.005-0.399,0.015c-0.093,0.006-0.189,0.057-0.277,0.041
			c-0.613-0.115-1.113,0.274-1.68,0.375c-0.074,0.012-0.125,0.059-0.185,0.108c-0.324,0.279-0.647,0.558-1.013,0.785
			c-0.034,0.022-0.086,0.039-0.102,0.071c-0.154,0.318-0.467,0.474-0.701,0.709c-0.604,0.605-1.387,0.539-2.016,0.076
			c-0.346-0.252-0.695-0.506-0.855-0.938c-0.053-0.142-0.237-0.17-0.334-0.278c-0.246-0.283-0.521-0.496-0.916-0.507
			c-0.057,0-0.121-0.034-0.17-0.073c-0.386-0.314-0.859-0.349-1.318-0.437c-0.096-0.021-0.186,0.006-0.276,0.032
			c-0.173,0.05-0.359,0.074-0.524,0.015c-0.223-0.082-0.409-0.024-0.593,0.082c-0.32,0.185-0.71,0.17-1.024,0.365
			c-0.772,0.481-1.529,0.969-2.066,1.747c-0.536,0.779-1.732,0.646-2.102-0.229c-0.107-0.252-0.242-0.457-0.439-0.635
			c-0.281-0.252-0.449-0.608-0.756-0.842c-0.111-0.085-0.216-0.146-0.358-0.169c-0.227-0.034-0.446-0.1-0.645-0.229
			c-0.171-0.114-0.384-0.112-0.571-0.131c-0.749-0.069-1.49-0.053-2.13,0.449c-0.206,0.159-0.435,0.284-0.683,0.379
			c-0.238,0.088-0.442,0.223-0.524,0.496c-0.026,0.086-0.091,0.168-0.158,0.231c-0.204,0.195-0.403,0.398-0.611,0.586
			c-0.361,0.326-0.888,0.334-1.309,0.053c-0.165-0.108-0.325-0.229-0.486-0.342c-0.277-0.198-0.446-0.473-0.526-0.803
			c-0.057-0.244-0.154-0.453-0.364-0.604c-0.12-0.088-0.225-0.207-0.267-0.348c-0.097-0.326-0.355-0.478-0.628-0.564
			c-0.463-0.154-0.92-0.33-1.41-0.391c-0.124-0.019-0.24-0.031-0.366,0.002c-0.204,0.057-0.416,0.053-0.62-0.008
			c-0.174-0.056-0.358-0.023-0.477,0.073c-0.348,0.289-0.782,0.347-1.178,0.494c-0.309,0.114-0.585,0.28-0.847,0.455
			c-0.329,0.219-0.613,0.506-0.911,0.772c-0.246,0.222-0.528,0.377-0.84,0.474c-0.557,0.17-1.212-0.136-1.479-0.722
			c-0.157-0.348-0.418-0.631-0.545-0.994c-0.012-0.026-0.031-0.061-0.056-0.073c-0.464-0.216-0.778-0.688-1.36-0.722
			c-0.418-0.024-0.832-0.145-1.254-0.207c-0.541-0.08-1.049-0.1-1.594-0.002c-0.359,0.064-0.703,0.133-1.036,0.279
			c-0.258,0.113-0.514,0.225-0.784,0.311c-0.306,0.099-0.538,0.354-0.793,0.55c-0.443,0.342-0.907,0.375-1.277,0.041
			c-0.398-0.356-0.31-0.897-0.131-1.3c0.307-0.688,0.934-1.008,1.438-1.467c0.237-0.215,0.584-0.283,0.899-0.338
			c0.304-0.053,0.61-0.152,0.929-0.092c0.019,0.004,0.046,0.008,0.062-0.002c0.458-0.281,0.956-0.094,1.438-0.125
			C45.518,81.91,46.709,81.924,46.901,81.916z"/>
	</g>
</g>
</svg>
