<?xml version="1.0" encoding="utf-8"?>
<!-- Generator: Adobe Illustrator 16.0.0, SVG Export Plug-In . SVG Version: 6.00 Build 0)  -->
<!DOCTYPE svg PUBLIC "-//W3C//DTD SVG 1.1//EN" "http://www.w3.org/Graphics/SVG/1.1/DTD/svg11.dtd">
<svg version="1.1" id="Layer_1" xmlns="http://www.w3.org/2000/svg" xmlns:xlink="http://www.w3.org/1999/xlink" x="0px" y="0px"
	 width="150px" height="150px" viewBox="0 0 150 150" enable-background="new 0 0 150 150" xml:space="preserve">
<g>
	<path fill="#67C19B" d="M18.81,85.484c0.134-0.492,0.163-0.988,0.178-1.498c0.014-0.514,0.096-1.03,0.245-1.529
		c0.003-0.009,0.003-0.021,0.009-0.028c0.286-0.361,0.306-0.846,0.558-1.225c0.117-0.176,0.106-0.415,0.249-0.576
		c0.304-0.34,0.526-0.73,0.74-1.129c0.147-0.277,0.464-0.396,0.655-0.618c0.189-0.224,0.26-0.546,0.49-0.763
		c0.329-0.309,0.659-0.627,1.034-0.866c0.718-0.459,1.403-0.975,2.183-1.33c0.254-0.117,0.508-0.243,0.723-0.434
		c0.143-0.129,0.318-0.219,0.508-0.232c0.355-0.026,0.655-0.191,0.952-0.363c0.398-0.229,0.806-0.434,1.237-0.596
		c0.154-0.06,0.303-0.139,0.453-0.211c0.037-0.017,0.069-0.054,0.108-0.062c0.528-0.131,1.009-0.429,1.586-0.404
		c0.301,0.013,0.6,0.02,0.898,0.06c0.411,0.057,0.684,0.329,0.712,0.717c0.028,0.37-0.196,0.684-0.574,0.806
		c-0.259,0.083-0.496,0.22-0.744,0.32c-0.403,0.163-0.777,0.399-1.202,0.507c-0.388,0.099-0.716,0.337-1.092,0.464
		c-0.146,0.049-0.285,0.126-0.428,0.189c-0.315,0.142-0.624,0.288-0.854,0.564c-0.124,0.149-0.29,0.245-0.471,0.302
		c-0.606,0.19-1.11,0.569-1.641,0.901c-0.651,0.405-1.154,0.988-1.734,1.479c-0.321,0.273-0.627,0.525-0.778,0.935
		c-0.033,0.093-0.124,0.168-0.196,0.244c-0.095,0.1-0.2,0.202-0.239,0.329c-0.146,0.481-0.442,0.88-0.664,1.319
		c-0.08,0.156-0.043,0.334-0.11,0.491c-0.18,0.418-0.263,0.865-0.371,1.303c-0.056,0.226-0.047,0.468,0.03,0.688
		c0.073,0.211,0.102,0.418,0.088,0.624h1.397c0.181-0.103,0.344-0.237,0.536-0.315c0.129-0.055,0.082-0.182,0.086-0.279
		c0.039-0.968,0.318-1.869,0.802-2.692c0.333-0.568,0.816-1.01,1.406-1.314c0.063-0.033,0.126-0.068,0.18-0.123
		c0.397-0.403,0.905-0.631,1.401-0.874c0.168-0.083,0.36-0.135,0.547-0.105c0.317,0.051,0.623-0.022,0.932-0.061
		c0.344-0.043,0.685-0.063,1.025,0.02c0.304,0.072,0.619,0.071,0.926,0.163c0.135-0.333,0.157-0.687,0.277-1.016
		c0.135-0.367,0.31-0.715,0.473-1.066c0.068-0.145,0.163-0.28,0.298-0.361c0.201-0.124,0.31-0.299,0.378-0.521
		c0.097-0.317,0.301-0.552,0.6-0.695c0.153-0.073,0.255-0.202,0.373-0.32c0.393-0.396,0.729-0.876,1.345-0.966
		c0.206-0.03,0.381-0.164,0.533-0.315c0.326-0.322,0.716-0.498,1.168-0.54c0.272-0.022,0.536-0.075,0.783-0.2
		c0.33-0.167,0.688-0.157,1.043-0.134c0.289,0.021,0.578,0.057,0.866,0.104c0.102,0.017,0.184-0.014,0.271-0.041
		c0.173-0.052,0.362-0.093,0.522-0.024c0.405,0.169,0.846,0.204,1.249,0.37c0.27,0.111,0.423,0.065,0.417-0.218
		c-0.012-0.511,0.317-0.913,0.359-1.399c0.009-0.101,0.058-0.209,0.117-0.292c0.262-0.354,0.499-0.737,0.815-1.034
		c0.334-0.313,0.587-0.715,0.986-0.957c0.079-0.049,0.138-0.132,0.218-0.18c0.345-0.211,0.711-0.382,1.024-0.648
		c0.16-0.137,0.387-0.166,0.597-0.147c0.165,0.015,0.276-0.039,0.379-0.163c0.067-0.078,0.154-0.142,0.241-0.2
		c0.127-0.087,1.237-0.405,1.395-0.41c0.051,0,0.117,0.021,0.154-0.003c0.463-0.316,1.014-0.195,1.517-0.278
		c0.482-0.078,1.005-0.119,1.507,0.052c0.234,0.081,0.492,0.066,0.742,0.073c0.247,0.006,0.475,0.063,0.679,0.206
		c0.221,0.155,0.477,0.216,0.734,0.235c0.36,0.025,0.668,0.155,0.938,0.385c0.304,0.26,0.621,0.492,0.991,0.653
		c0.238,0.103,0.443,0.277,0.621,0.475c0.1,0.113,0.158,0.134,0.295,0.019c0.279-0.236,0.555-0.464,0.756-0.784
		c0.187-0.293,0.525-0.407,0.814-0.573c0.146-0.083,0.289-0.163,0.406-0.285c0.052-0.054,0.108-0.111,0.173-0.134
		c0.593-0.219,1.094-0.666,1.75-0.724c0.791-0.068,1.522-0.406,2.298-0.551c0.043-0.007,0.94,0.007,1.173,0.073
		c0.249,0.07,0.506,0.094,0.77,0.014c0.202-0.062,0.416-0.021,0.612,0.063c0.099,0.042,0.194,0.07,0.301,0.069
		c0.353-0.002,0.674,0.109,0.99,0.254c0.38,0.172,0.763,0.346,1.157,0.469c0.322,0.101,0.595,0.251,0.812,0.508
		c0.067,0.08,0.137,0.169,0.24,0.19c0.411,0.086,0.727,0.324,1.057,0.576c0.323,0.248,0.564,0.52,0.705,0.897
		c0.026,0.072,0.027,0.191,0.135,0.188c0.075-0.004,0.104-0.095,0.136-0.163c0.209-0.445,0.634-0.714,0.904-1.112
		c0.05-0.072,0.148-0.117,0.231-0.156c0.352-0.162,0.671-0.385,0.986-0.601c0.431-0.293,0.893-0.444,1.396-0.498
		c0.13-0.013,0.244-0.045,0.344-0.128c0.269-0.22,0.589-0.299,0.916-0.381c0.487-0.122,0.989-0.122,1.48-0.208
		c0.313-0.057,0.62-0.068,0.921,0.057c0.07,0.029,0.141,0.037,0.214,0.02c0.439-0.102,0.869,0.002,1.3,0.054
		c0.344,0.039,0.642,0.252,0.991,0.271c0.225,0.014,0.416,0.113,0.615,0.21c0.542,0.267,1.107,0.49,1.521,0.966
		c0.006,0.008,0.019,0.011,0.027,0.015c0.578,0.308,1.137,0.641,1.578,1.183c0.225-0.554,0.764-0.759,1.099-1.173
		c0.037-0.045,0.108-0.062,0.157-0.101c0.409-0.321,0.911-0.457,1.366-0.683c0.359-0.176,0.772-0.255,1.17-0.315
		c0.208-0.032,0.402-0.055,0.589-0.16c0.185-0.105,0.394-0.178,0.601-0.133c0.404,0.092,0.786-0.05,1.168-0.107
		c0.542-0.079,1.079-0.012,1.617-0.042c0.23-0.014,0.442,0.144,0.672,0.11c0.361-0.052,0.676,0.062,0.989,0.22
		c0.372,0.186,0.773,0.3,1.171,0.407c0.284,0.076,0.557,0.167,0.812,0.312c0.1,0.059,0.203,0.102,0.31,0.145
		c0.643,0.253,1.207,0.621,1.612,1.2c0.086,0.122,0.184,0.229,0.286,0.335c0.099,0.103,0.167,0.092,0.251-0.017
		c0.157-0.207,0.369-0.335,0.61-0.422c0.107-0.039,0.211-0.097,0.303-0.164c0.32-0.235,0.681-0.374,1.068-0.417
		c0.227-0.026,0.412-0.1,0.582-0.255c0.142-0.128,0.328-0.178,0.514-0.218c0.508-0.108,1.033-0.006,1.54-0.13
		c0.077-0.02,0.165,0.01,0.248,0.023c0.492,0.076,0.983,0.165,1.486,0.098c0.157-0.021,0.328-0.009,0.455,0.08
		c0.348,0.242,0.808,0.228,1.126,0.525c0.491,0.039,0.897,0.287,1.307,0.535c0.151,0.091,0.312,0.163,0.461,0.263
		c0.305,0.207,0.545,0.489,0.838,0.706c0.333,0.248,0.61,0.569,0.989,0.758c0.101,0.05,0.163,0.161,0.225,0.261
		c0.051,0.078,0.109,0.149,0.177,0.219c0.473,0.499,1.03,0.92,1.326,1.578c0.067,0.147,0.18,0.283,0.317,0.387
		c0.188,0.143,0.334,0.326,0.397,0.556c0.045,0.162,0.115,0.146,0.248,0.109c0.222-0.061,0.433-0.127,0.625-0.265
		c0.251-0.178,0.569-0.105,0.842-0.192c0.709-0.222,1.383-0.028,2.059,0.128c0.56,0.129,1.106,0.296,1.586,0.64
		c0.056,0.041,0.141,0.038,0.205,0.07c0.446,0.225,0.926,0.403,1.233,0.833c0.151,0.213,0.351,0.345,0.568,0.478
		c0.585,0.357,1.065,0.819,1.188,1.547c0.021,0.132,0.1,0.199,0.182,0.278c0.307,0.3,0.449,0.681,0.385,1.094
		c-0.048,0.31,0.04,0.559,0.153,0.817c0.055,0.126,0.124,0.25,0.135,0.387c0.019,0.221,0.148,0.272,0.337,0.272
		c0.409,0,0.814,0.039,1.19,0.215c0.175,0.083,0.353,0.149,0.536,0.155c0.574,0.022,1.054,0.312,1.538,0.566
		c0.607,0.319,1.169,0.718,1.728,1.119c0.086,0.062,1.113,1.205,1.166,1.3c0.017,0.027,0.033,0.054,0.046,0.083
		c0.181,0.423,0.614,0.697,0.677,1.188c0.003,0.025,0.041,0.045,0.065,0.066c0.029,0.027,0.041,0.063,0.066,0.093h0.98
		c0.088-0.345,0.116-0.698,0.091-1.064c-0.029-0.403-0.108-0.794-0.173-1.186c-0.056-0.34-0.088-0.704-0.347-0.993
		c-0.226-0.252-0.25-0.621-0.443-0.902c-0.23-0.333-0.37-0.724-0.673-1.017c-0.214-0.207-0.253-0.548-0.481-0.77
		c-0.084-0.08-0.155-0.161-0.271-0.196c-0.238-0.07-0.401-0.246-0.588-0.4c-0.43-0.353-0.797-0.767-1.208-1.134
		c-0.16-0.145-0.418-0.178-0.632-0.256c-0.238-0.087-0.455-0.204-0.642-0.383c-0.145-0.141-0.312-0.235-0.521-0.265
		c-0.256-0.035-0.471-0.166-0.641-0.366c-0.067-0.078-0.124-0.161-0.25-0.163c-0.39-0.006-0.717-0.207-1.048-0.381
		c-0.14-0.074-0.27-0.155-0.432-0.163c-0.052-0.003-0.106-0.017-0.151-0.041c-0.275-0.156-0.578-0.207-0.878-0.288
		c-0.57-0.156-0.861-0.818-0.644-1.378c0.222-0.575,0.88-0.841,1.424-0.559c0.171,0.09,0.334,0.161,0.528,0.157
		c0.07-0.002,0.152,0.015,0.212,0.05c0.418,0.25,0.919,0.279,1.336,0.515c0.351,0.196,0.678,0.415,1.1,0.426
		c0.143,0.002,0.272,0.106,0.379,0.21c0.155,0.152,0.349,0.247,0.55,0.28c0.464,0.074,0.81,0.361,1.104,0.678
		c0.301,0.322,0.689,0.461,1.043,0.672c0.216,0.131,0.439,0.24,0.604,0.438c0.076,0.093,0.171,0.153,0.271,0.21
		c0.197,0.111,0.362,0.266,0.445,0.476c0.155,0.389,0.503,0.577,0.801,0.806c0.221,0.169,0.438,0.319,0.563,0.576
		c0.031,0.066,0.062,0.133,0.126,0.177c0.234,0.164,0.408,0.394,0.571,0.625c0.219,0.309,0.421,0.629,0.628,0.944
		c0.018,0.025,0.036,0.055,0.044,0.084c0.134,0.494,0.254,0.99,0.429,1.473c0.056,0.154,0.054,0.332,0.113,0.491
		c0.08,0.212,0.089,0.435,0.079,0.683c-0.019,0.134-0.008,0.289,0.031,0.446c0.022,0.091,0.028,0.19,0.021,0.283
		c-0.042,0.401-0.034,0.804-0.03,1.205h4.81c-0.006-0.089-0.022-0.176-0.013-0.269c0.02-0.184-0.021-0.35-0.127-0.508
		c-0.125-0.183-0.198-0.394-0.245-0.612c-0.098-0.443-0.201-0.885-0.295-1.33c-0.02-0.087-0.071-0.148-0.107-0.223
		c-0.222-0.464-0.534-0.879-0.654-1.394c-0.048-0.21-0.131-0.433-0.291-0.585c-0.282-0.271-0.459-0.6-0.569-0.97
		c-0.076-0.259-0.188-0.521-0.391-0.675c-0.523-0.396-0.756-1.064-1.316-1.421c-0.084-0.054-0.139-0.156-0.2-0.241
		c-0.062-0.087-0.128-0.163-0.226-0.214c-0.237-0.123-0.411-0.313-0.568-0.53c-0.14-0.194-0.248-0.437-0.465-0.544
		c-0.522-0.258-0.834-0.749-1.256-1.116c-0.15-0.134-0.283-0.271-0.479-0.329c-0.344-0.101-0.652-0.272-0.943-0.481
		c-0.261-0.189-0.511-0.396-0.852-0.438c-0.096-0.012-0.199-0.073-0.275-0.141c-0.179-0.153-0.389-0.241-0.601-0.33
		c-0.345-0.145-0.715-0.243-0.968-0.553c-0.024-0.031-0.071-0.045-0.11-0.059c-0.591-0.203-1.183-0.401-1.679-0.81
		c-0.039-0.031-0.098-0.033-0.143-0.06c-0.281-0.176-0.63-0.149-0.914-0.298c-0.28-0.146-0.571-0.246-0.873-0.329
		c-0.069-0.02-0.145-0.043-0.2-0.087c-0.306-0.245-0.651-0.376-1.023-0.482c-0.286-0.082-0.549-0.234-0.856-0.276
		c-0.258-0.037-0.489-0.176-0.686-0.359c-0.061-0.058-0.113-0.124-0.205-0.133c-0.312-0.026-0.602-0.172-0.92-0.169
		c-0.191,0.002-0.367-0.076-0.533-0.169c-0.081-0.045-0.157-0.098-0.257-0.104c-0.214-0.012-0.403-0.102-0.576-0.225
		c-0.153-0.107-0.308-0.149-0.499-0.107c-0.264,0.06-0.524,0.012-0.753-0.131c-0.124-0.076-0.246-0.095-0.386-0.094
		c-0.366,0.002-0.669-0.142-0.885-0.449c-0.042-0.059-0.068-0.144-0.156-0.138c-0.311,0.019-0.59-0.13-0.881-0.162
		c-0.375-0.04-0.729-0.155-1.095-0.21c-0.627-0.093-1.243-0.202-1.846-0.417c-0.483-0.172-1.022-0.104-1.501-0.286
		c-0.635-0.241-1.328-0.107-1.955-0.365c-0.026-0.011-0.061,0.002-0.093,0c-0.453-0.013-0.891-0.18-1.35-0.133
		c-0.021,0.002-0.043-0.005-0.061-0.015c-0.241-0.115-0.507-0.111-0.763-0.154c-0.152-0.027-0.317-0.003-0.467-0.044
		c-0.537-0.15-1.094-0.068-1.641-0.151c-0.425-0.065-0.865-0.082-1.297-0.11c-0.817-0.053-1.625-0.229-2.448-0.23
		c-0.225-0.002-0.425-0.129-0.641-0.122c-0.448,0.017-0.886-0.139-1.337-0.072c-0.077,0.011-0.172-0.007-0.243-0.043
		c-0.391-0.205-0.815-0.143-1.226-0.153c-0.386-0.01-0.743-0.08-1.083-0.253c-0.096-0.049-0.186-0.103-0.294-0.045
		c-0.273,0.145-0.566,0.122-0.858,0.105c-0.665-0.038-1.32-0.182-1.986-0.21c-0.304-0.013-0.596-0.137-0.894-0.14
		c-0.471-0.002-0.911-0.217-1.385-0.176c-0.069,0.007-0.143-0.028-0.212-0.054c-0.082-0.027-0.162-0.026-0.247-0.021
		c-0.677,0.037-1.349,0.018-1.994-0.232c-0.06-0.023-0.122-0.033-0.183-0.019c-0.682,0.174-1.368-0.109-2.05,0.017
		c-0.029,0.006-0.062-0.009-0.093-0.009c-0.371,0-0.748,0.076-1.106-0.092c-0.032-0.016-0.081,0.003-0.123,0.007
		c-0.642,0.059-1.283,0.101-1.927-0.006c-0.195-0.031-0.387-0.012-0.586,0.019c-0.461,0.069-0.929,0.118-1.395,0.136
		c-0.942,0.035-1.886-0.16-2.827,0.025c-0.051,0.01-0.104,0.004-0.155,0.007c-0.446,0.019-0.887,0.099-1.334,0.124
		c-0.416,0.022-0.83,0.097-1.242-0.013c-0.086-0.022-0.163-0.017-0.243,0.015c-0.149,0.056-0.307,0.053-0.462,0.069
		c-0.313,0.033-0.651-0.092-0.93,0.008c-0.391,0.142-0.78,0.112-1.171,0.144c-0.259,0.023-0.514,0.108-0.772,0.092
		c-0.404-0.027-0.805-0.04-1.205,0.041c-0.161,0.032-0.321-0.052-0.494,0.004c-0.238,0.079-0.491,0.062-0.741,0.07
		c-0.394,0.013-0.787,0.044-1.18,0.044c-0.408-0.002-0.809,0.138-1.212,0.076c-0.736-0.112-1.475-0.019-2.21-0.06
		c-0.052-0.003-0.104,0.017-0.153,0.028c-0.378,0.096-0.754,0.171-1.142,0.068c-0.076-0.02-0.141,0.003-0.211,0.029
		c-0.362,0.136-0.737,0.141-1.112,0.093c-0.22-0.027-0.434-0.027-0.648,0.037c-0.119,0.035-0.247,0.062-0.369,0.056
		c-0.522-0.026-1.034,0.134-1.557,0.091c-0.071-0.006-0.147,0.005-0.217,0.023c-0.553,0.142-1.132,0.068-1.687,0.219
		c-0.354,0.096-0.715,0.083-1.085,0.05c-0.239-0.021-0.5-0.024-0.743,0.024c-0.668,0.14-1.317,0.401-2.021,0.302
		c-0.049-0.006-0.105,0.007-0.151,0.029c-0.628,0.309-1.338,0.135-1.982,0.348c-0.064,0.022-0.151,0.017-0.217-0.008
		c-0.265-0.094-0.511-0.012-0.764,0.057c-0.523,0.141-1.053,0.249-1.601,0.251c-0.319,0-0.647,0.026-0.955,0.107
		c-0.337,0.089-0.668,0.158-1.013,0.174c-0.414,0.021-0.834,0.004-1.218,0.213c-0.119,0.066-0.264,0.05-0.398,0.066
		c-0.35,0.041-0.7,0.078-1.044,0.146c-0.375,0.074-0.741,0.196-1.111,0.28c-0.833,0.186-1.678,0.304-2.527,0.386
		c-0.051,0.004-0.109,0.006-0.149,0.032c-0.475,0.319-1.045,0.254-1.565,0.379c-0.509,0.121-1.046,0.123-1.533,0.355
		c-0.073,0.035-0.161,0.047-0.244,0.051c-0.383,0.019-0.725,0.273-1.123,0.21c-0.033-0.004-0.074,0.036-0.108,0.058
		c-0.207,0.134-0.439,0.188-0.674,0.242c-0.404,0.093-0.826,0.113-1.209,0.302c-0.091,0.043-0.205,0.06-0.306,0.054
		c-0.502-0.027-0.926,0.246-1.357,0.422c-0.439,0.18-0.903,0.288-1.337,0.494c-0.238,0.112-0.499,0.19-0.72,0.348
		c-0.254,0.181-0.523,0.304-0.841,0.292c-0.132-0.004-0.253,0.038-0.344,0.131c-0.359,0.364-0.822,0.528-1.288,0.685
		c-0.208,0.07-0.434,0.122-0.6,0.259c-0.451,0.372-0.954,0.638-1.5,0.823c-0.073,0.024-0.116,0.087-0.173,0.132
		c-0.398,0.312-0.851,0.546-1.232,0.881c-0.016,0.014-0.038,0.019-0.059,0.025c-0.323,0.091-0.558,0.316-0.796,0.537
		c-0.093,0.085-0.183,0.181-0.292,0.236c-0.369,0.189-0.645,0.496-0.942,0.771c-0.405,0.374-0.842,0.716-1.21,1.131
		c-0.076,0.085-0.179,0.149-0.277,0.206c-0.214,0.122-0.384,0.299-0.518,0.495c-0.448,0.663-0.974,1.265-1.431,1.921
		c-0.067,0.095-0.175,0.163-0.221,0.265c-0.264,0.572-0.546,1.137-0.864,1.679c-0.198,0.338-0.308,0.713-0.509,1.048
		c-0.304,0.504-0.565,1.027-0.631,1.632c-0.015,0.132-0.075,0.263-0.131,0.387c-0.096,0.216-0.167,0.428-0.118,0.672
		c0.01,0.051,0.007,0.103,0.007,0.154h4.886C18.762,85.736,18.776,85.607,18.81,85.484z"/>
	<path fill="#FFFFFF" d="M124.779,85.455c-0.025-0.043-0.055-0.099-0.097-0.119c-0.31-0.15-0.526-0.418-0.764-0.647
		c-0.454-0.438-1.017-0.636-1.579-0.848c-0.019-0.009-0.04-0.012-0.059-0.021c-0.785-0.438-1.553-0.18-2.313,0.075
		c-0.397,0.132-0.781,0.292-1.213,0.157c-0.45-0.141-0.747-0.424-0.916-0.876c-0.185-0.498-0.162-1.004-0.058-1.5
		c0.088-0.409,0.041-0.85,0.263-1.23c0.047-0.08-0.007-0.138-0.053-0.196c-0.16-0.202-0.264-0.432-0.291-0.69
		c-0.008-0.079-0.037-0.137-0.097-0.188c-0.356-0.304-0.622-0.68-0.847-1.088c-0.049-0.09-0.111-0.154-0.204-0.182
		c-0.401-0.119-0.698-0.414-1.036-0.638c-0.115-0.076-0.224-0.155-0.356-0.185c-0.355-0.073-0.667-0.308-1.045-0.296
		c-0.403,0.013-0.812-0.039-1.201,0.104c-0.159,0.06-0.336,0.025-0.485,0.112c-0.214,0.126-0.411,0.254-0.572,0.467
		c-0.347,0.46-0.834,0.628-1.392,0.494c-0.557-0.135-0.905-0.5-1.041-1.066c-0.033-0.144-0.033-0.297-0.08-0.436
		c-0.079-0.234-0.124-0.493-0.335-0.664c-0.04-0.031-0.074-0.084-0.084-0.131c-0.12-0.61-0.627-0.951-0.954-1.415
		c-0.22-0.313-0.46-0.628-0.798-0.835c-0.052-0.033-0.103-0.078-0.135-0.132c-0.334-0.555-0.903-0.817-1.4-1.171
		c-0.407-0.289-0.874-0.469-1.275-0.776c-0.213-0.164-0.536-0.209-0.826-0.22c-0.235-0.009-0.456-0.048-0.659-0.166
		c-0.221-0.13-0.458-0.146-0.697-0.095c-0.246,0.051-0.489,0.11-0.742,0.077c-0.04-0.006-0.087-0.003-0.123,0.014
		c-0.403,0.188-0.817,0.312-1.269,0.258c-0.03-0.003-0.068,0.007-0.089,0.025c-0.326,0.303-0.765,0.422-1.095,0.724
		c-0.229,0.211-0.453,0.435-0.691,0.627c-0.558,0.446-1.463,0.8-2.179,0.381c-0.223-0.131-0.422-0.279-0.539-0.514
		c-0.23-0.458-0.527-0.854-0.94-1.161c-0.157-0.118-0.29-0.274-0.418-0.428c-0.291-0.348-0.696-0.534-1.072-0.748
		c-0.214-0.121-0.484-0.195-0.749-0.177c-0.304,0.021-0.604,0.035-0.892-0.095c-0.045-0.021-0.102-0.02-0.153-0.02
		c-0.611-0.003-1.222-0.023-1.834-0.041c-0.289-0.008-0.604-0.037-0.881,0.137c-0.075,0.048-0.183,0.076-0.271,0.066
		c-0.53-0.059-0.941,0.243-1.401,0.423c-0.513,0.199-0.924,0.546-1.309,0.896c-0.312,0.288-0.66,0.567-0.865,0.982
		c-0.171,0.348-0.486,0.604-0.767,0.866c-0.379,0.354-0.986,0.327-1.381-0.016c-0.135-0.115-0.262-0.247-0.365-0.391
		c-0.469-0.648-1.063-1.178-1.604-1.756c-0.105-0.112-0.223-0.185-0.364-0.233c-0.138-0.047-0.271-0.108-0.399-0.179
		c-0.75-0.41-1.558-0.625-2.393-0.753c-0.643-0.099-1.272,0.007-1.907,0.088c-0.422,0.054-0.828,0.225-1.265,0.171
		c-0.092-0.01-0.16,0.031-0.229,0.082c-0.318,0.238-0.646,0.46-1.021,0.603c-0.124,0.046-0.242,0.128-0.339,0.222
		c-0.408,0.39-0.89,0.684-1.31,1.059c-0.1,0.091-0.104,0.227-0.12,0.353c-0.036,0.309-0.132,0.598-0.281,0.867
		c-0.286,0.519-0.724,0.787-1.313,0.735c-0.562-0.049-0.935-0.368-1.147-0.896c-0.146-0.361-0.423-0.651-0.532-1.032
		c-0.009-0.026-0.037-0.054-0.063-0.068c-0.505-0.283-0.858-0.722-1.193-1.181c-0.035-0.049-0.082-0.062-0.132-0.068
		c-0.319-0.043-0.58-0.206-0.855-0.361c-0.269-0.153-0.568-0.263-0.882-0.309c-0.237-0.035-0.472-0.091-0.688-0.2
		c-0.098-0.05-0.196-0.068-0.303-0.066c-0.179,0.006-0.359-0.024-0.508-0.128c-0.18-0.124-0.367-0.124-0.567-0.1
		c-0.465,0.059-0.927,0.104-1.4,0.055c-0.458-0.05-0.911,0.026-1.304,0.313c-0.204,0.149-0.441,0.238-0.659,0.36
		c-0.424,0.235-0.866,0.453-1.175,0.855c-0.143,0.186-0.308,0.344-0.516,0.453c-0.046,0.022-0.11,0.048-0.126,0.088
		c-0.137,0.333-0.437,0.578-0.51,0.938c-0.182,0.882-1.327,1.584-2.358,0.665c-0.574-0.514-1.142-1.047-1.657-1.629
		c-0.13-0.147-0.304-0.221-0.485-0.273c-0.285-0.083-0.543-0.21-0.754-0.428c-0.116-0.12-0.26-0.174-0.426-0.163
		c-0.201,0.014-0.393-0.025-0.579-0.102c-0.205-0.083-0.417-0.116-0.644-0.077c-0.274,0.048-0.563,0.009-0.835-0.01
		c-0.458-0.03-0.883,0.115-1.323,0.155c-0.29,0.024-0.608,0.126-0.886,0.264c-0.242,0.12-0.502,0.12-0.747,0.188
		c-0.234,0.064-0.345,0.369-0.591,0.487c-0.676,0.324-1.219,0.818-1.662,1.428c-0.138,0.188-0.138,0.442-0.282,0.632
		c-0.095,0.122-0.182,0.245-0.236,0.402c-0.096,0.273-0.163,0.539-0.1,0.829c0.015,0.068-0.005,0.148-0.018,0.22
		c-0.069,0.372-0.168,0.741-0.097,1.126c0.006,0.029-0.002,0.062-0.007,0.094c-0.104,0.802-1.088,1.383-1.819,1.073
		c-0.124-0.053-0.265-0.098-0.359-0.187c-0.513-0.481-1.187-0.645-1.79-0.94c-0.276-0.137-0.615-0.161-0.895-0.337
		c-0.088-0.056-0.221-0.021-0.335,0.011c-0.331,0.095-0.661,0.192-1.013,0.156c-0.108-0.01-0.206,0.039-0.291,0.101
		c-0.338,0.243-0.708,0.4-1.121,0.449c-0.104,0.013-0.212,0.042-0.27,0.139c-0.255,0.424-0.715,0.566-1.091,0.824
		c-0.105,0.073-0.203,0.136-0.259,0.257c-0.057,0.128-0.133,0.249-0.246,0.325c-0.654,0.432-0.737,1.122-0.787,1.814
		c-0.041,0.575,0.01,1.152,0.12,1.723c0.017,0.091,0.023,0.192,0.007,0.283c-0.102,0.569-0.425,1.014-0.854,1.358
		c-0.36,0.291-0.934,0.173-1.305-0.223c-0.665-0.714-1.519-1.001-2.439-1.144c-0.061-0.009-0.142-0.02-0.185,0.01
		c-0.365,0.269-0.829,0.263-1.222,0.468c-0.202,0.105-0.37,0.233-0.503,0.408c-0.268,0.352-0.515,0.719-0.785,1.068
		c-0.205,0.265-0.155,0.554-0.111,0.846c0.031,0.207,0.092,0.411,0.127,0.62c0.007,0.04,0.035,0.066,0.048,0.101h99.112
		C124.982,85.734,124.867,85.604,124.779,85.455z"/>
	<path fill="#280D09" d="M11.803,85.327c0.038-0.072,0.055-0.163,0.056-0.246c0.003-0.577,0.208-1.098,0.457-1.596
		c0.24-0.483,0.31-1.023,0.552-1.504c0.166-0.329,0.379-0.628,0.54-0.961c0.234-0.483,0.54-0.925,0.846-1.363
		c0.456-0.652,0.755-1.405,1.294-2.005c0.22-0.241,0.424-0.497,0.673-0.705c0.331-0.274,0.655-0.554,0.904-0.911
		c0.048-0.068,0.107-0.135,0.176-0.181c0.479-0.317,0.888-0.725,1.353-1.061c0.345-0.249,0.709-0.471,1.011-0.787
		c0.19-0.201,0.456-0.329,0.692-0.484c0.096-0.062,0.198-0.123,0.268-0.217c0.205-0.281,0.531-0.391,0.788-0.587
		c0.374-0.287,0.813-0.447,1.177-0.734c0.382-0.302,0.804-0.543,1.268-0.668c0.33-0.09,0.617-0.239,0.905-0.406
		c0.426-0.246,0.846-0.505,1.357-0.525c0.104-0.004,0.21-0.052,0.278-0.134c0.276-0.341,0.661-0.462,1.062-0.553
		c0.185-0.04,0.34-0.146,0.507-0.226c0.427-0.207,0.868-0.391,1.316-0.546c0.487-0.171,0.984-0.329,1.488-0.437
		c0.455-0.098,0.883-0.32,1.359-0.313c0.1,0.001,0.182-0.04,0.268-0.073c0.245-0.094,0.491-0.174,0.755-0.182
		c0.062-0.002,0.134-0.002,0.183-0.033c0.385-0.234,0.852-0.187,1.248-0.382c0.054-0.026,0.121-0.038,0.183-0.038
		c0.508,0.006,0.976-0.161,1.44-0.339c0.108-0.041,0.219-0.075,0.334-0.076c0.191-0.005,0.371-0.044,0.546-0.122
		c0.094-0.042,0.202-0.088,0.3-0.081c0.661,0.048,1.263-0.229,1.893-0.352c0.602-0.118,1.189-0.283,1.806-0.348
		c0.572-0.059,1.131-0.249,1.695-0.381c0.102-0.024,0.205-0.073,0.305-0.065c0.513,0.05,0.98-0.133,1.46-0.272
		c0.05-0.015,0.102-0.033,0.152-0.035c0.868-0.027,1.699-0.294,2.554-0.405c0.249-0.032,0.499-0.048,0.749-0.044
		c0.303,0.004,0.604,0.021,0.878-0.152c0.086-0.057,0.196-0.062,0.304-0.059c0.303,0.009,0.604,0.015,0.892-0.113
		c0.104-0.046,0.225-0.025,0.339-0.02c0.251,0.011,0.526,0.073,0.746-0.009c0.667-0.249,1.357-0.163,2.035-0.229
		c0.296-0.026,0.599-0.092,0.877-0.196c0.363-0.137,0.729-0.153,1.105-0.149c0.311,0.003,0.626,0.055,0.926-0.084
		c0.036-0.017,0.081-0.021,0.122-0.021c0.989,0.012,1.97-0.189,2.961-0.147c0.062,0.003,0.13,0.012,0.187-0.01
		c0.401-0.16,0.816-0.102,1.229-0.091c0.188,0.006,0.376,0.008,0.554-0.068c0.047-0.021,0.105-0.037,0.153-0.028
		c0.615,0.117,1.225-0.021,1.837-0.039c0.419-0.012,0.822-0.134,1.232-0.195c0.156-0.023,0.309-0.041,0.466-0.044
		c0.427-0.008,0.854-0.028,1.279-0.041c0.685-0.019,1.372,0.025,2.058,0.068c0.277,0.019,0.559-0.002,0.841-0.019
		c0.517-0.033,1.038-0.046,1.558-0.013c0.354,0.021,0.707,0.052,1.057-0.05c0.16-0.045,0.326-0.049,0.496-0.037
		c0.237,0.019,0.501,0.068,0.713-0.01c0.544-0.201,1.096-0.157,1.642-0.129c1.095,0.057,2.184,0.042,3.272-0.091
		c0.268-0.033,0.539,0.007,0.809,0.02c0.723,0.039,1.442,0.204,2.177,0.058c0.268-0.054,0.561-0.015,0.838,0.019
		c0.488,0.058,0.974,0.072,1.462,0.012c0.274-0.032,0.535,0.081,0.806,0.076c0.611-0.01,1.22-0.045,1.831,0.08
		c0.46,0.095,0.933-0.104,1.396-0.064c0.631,0.051,1.267,0.051,1.896,0.136c0.144,0.019,0.291,0.011,0.437,0.013
		c0.218,0,0.44-0.024,0.632,0.121c0.053,0.04,0.118,0.036,0.182,0.032c0.627-0.046,1.242,0.063,1.86,0.145
		c0.401,0.054,0.798,0.076,1.168,0.305c0.202,0.124,0.505,0.097,0.732,0.013c0.425-0.156,0.821-0.018,1.227,0.04
		C95.37,64,95.531,64.05,95.7,64.033c0.582-0.057,1.149,0.12,1.724,0.122c0.546,0.001,1.078,0.096,1.616,0.137
		c0.67,0.054,1.349,0.006,2.013,0.182c0.285,0.074,0.598,0.039,0.9,0.065c0.322,0.029,0.637,0.091,0.954,0.135
		c0.628,0.085,1.255,0.19,1.889,0.209c0.022,0,0.045-0.006,0.064,0c0.423,0.146,0.867,0.185,1.303,0.265
		c0.062,0.011,0.117,0.048,0.179,0.058c1.22,0.202,2.434,0.431,3.634,0.726c0.011,0.003,0.021,0.009,0.031,0.007
		c0.802-0.115,1.469,0.444,2.246,0.459c0.438,0.249,0.967,0.231,1.408,0.476c0.121,0.066,0.255,0.089,0.394,0.087
		c0.379-0.01,0.741,0.101,1.114,0.151c0.11,0.015,0.227,0.059,0.32,0.119c0.157,0.104,0.327,0.103,0.503,0.125
		c0.445,0.056,0.884,0.15,1.229,0.478c0.038,0.035,0.079,0.082,0.125,0.089c0.536,0.084,0.977,0.408,1.472,0.596
		c0.155,0.06,0.31,0.036,0.463,0.031c0.227-0.007,0.445,0.034,0.627,0.157c0.25,0.168,0.536,0.225,0.801,0.345
		c0.368,0.166,0.755,0.252,1.129,0.378c0.532,0.18,1.08,0.358,1.569,0.679c0.241,0.156,0.52,0.308,0.834,0.328
		c0.18,0.013,0.342,0.093,0.492,0.19c0.343,0.219,0.747,0.331,1.048,0.622c0.02,0.02,0.057,0.033,0.085,0.034
		c0.405,0.021,0.721,0.262,1.054,0.454c0.182,0.104,0.36,0.206,0.57,0.248c0.109,0.022,0.232,0.07,0.308,0.147
		c0.261,0.268,0.609,0.353,0.935,0.485c0.369,0.151,0.708,0.353,0.992,0.645c0.19,0.194,0.398,0.364,0.67,0.442
		c0.202,0.061,0.375,0.183,0.514,0.348c0.068,0.082,0.141,0.161,0.236,0.205c0.318,0.148,0.534,0.389,0.688,0.707
		c0.122,0.256,0.397,0.363,0.604,0.537c0.171,0.143,0.303,0.317,0.455,0.472c0.381,0.383,0.716,0.814,1.145,1.147
		c0.27,0.209,0.51,0.44,0.665,0.744c0.208,0.41,0.475,0.773,0.807,1.082c0.308,0.288,0.502,0.636,0.633,1.037
		c0.097,0.298,0.28,0.562,0.45,0.823c0.081,0.124,0.191,0.235,0.224,0.379c0.089,0.413,0.339,0.774,0.361,1.209
		c0.002,0.05,0.023,0.105,0.052,0.146c0.251,0.383,0.396,0.813,0.576,1.23c0.145,0.335,0.247,0.674,0.219,1.042
		c-0.017,0.205,0.071,0.371,0.159,0.537c0.084,0.165,0.124,0.336,0.145,0.513h0.412c0.009-0.28-0.035-0.55-0.168-0.802
		c-0.121-0.23-0.19-0.461-0.171-0.726c0.017-0.236-0.048-0.461-0.135-0.681c-0.1-0.254-0.178-0.522-0.312-0.759
		c-0.346-0.608-0.502-1.286-0.727-1.941c-0.126-0.372-0.41-0.655-0.576-1.009c-0.054-0.111-0.125-0.211-0.157-0.337
		c-0.095-0.367-0.284-0.677-0.561-0.936c-0.354-0.332-0.645-0.712-0.866-1.153c-0.152-0.306-0.386-0.559-0.668-0.743
		c-0.182-0.12-0.327-0.257-0.446-0.433c-0.019-0.024-0.032-0.056-0.057-0.074c-0.528-0.426-0.884-1.038-1.465-1.404
		c-0.131-0.082-0.218-0.188-0.281-0.327c-0.033-0.077-0.08-0.148-0.13-0.217c-0.128-0.177-1.125-0.948-1.336-1.011
		c-0.229-0.068-0.417-0.198-0.573-0.368c-0.412-0.448-0.944-0.682-1.499-0.878c-0.049-0.017-0.115-0.017-0.148-0.05
		c-0.438-0.453-1.098-0.491-1.579-0.866c-0.175-0.137-0.382-0.216-0.605-0.234c-0.062-0.005-0.13-0.004-0.179-0.051
		c-0.309-0.298-0.728-0.406-1.074-0.639c-0.113-0.075-0.239-0.135-0.374-0.156c-0.429-0.067-0.781-0.322-1.171-0.479
		c-0.601-0.238-1.15-0.653-1.84-0.629c-0.053,0.002-0.105-0.009-0.146-0.046c-0.235-0.213-0.53-0.285-0.824-0.359
		c-0.126-0.031-0.226-0.105-0.332-0.172c-0.303-0.188-0.631-0.28-0.985-0.237c-0.11,0.014-0.202-0.003-0.298-0.053
		c-0.304-0.16-0.644-0.243-0.932-0.437c-0.034-0.023-0.077-0.035-0.117-0.043c-0.236-0.045-0.431-0.157-0.634-0.295
		c-0.336-0.228-0.731-0.352-1.147-0.36c-0.082-0.002-0.167,0.031-0.246-0.017c-0.481-0.3-1.029-0.315-1.567-0.366
		c-0.2-0.019-0.389-0.05-0.565-0.151c-0.009-0.005-0.018-0.012-0.027-0.015c-0.495-0.146-0.986-0.317-1.488-0.425
		c-0.275-0.06-0.548-0.109-0.806-0.229c-0.21-0.099-0.426-0.18-0.658-0.18c-0.569,0.003-1.109-0.153-1.656-0.288
		c-0.16-0.039-0.324-0.082-0.488-0.101c-0.529-0.062-1.039-0.205-1.558-0.311c-0.429-0.087-0.863-0.242-1.316-0.189
		c-0.011,0.001-0.022,0.004-0.032-0.001c-0.781-0.298-1.621-0.196-2.419-0.368c-0.512-0.111-1.028-0.186-1.541-0.217
		c-0.598-0.037-1.189-0.134-1.788-0.167c-0.482-0.028-0.975-0.021-1.459-0.11c-0.506-0.091-1.029-0.075-1.547-0.101
		c-0.062-0.003-0.122-0.002-0.182-0.027c-0.34-0.134-0.682-0.126-1.043-0.088c-0.289,0.03-0.598-0.036-0.887-0.108
		c-0.388-0.097-0.765-0.085-1.141,0.024c-0.141,0.042-0.255,0.046-0.38-0.047c-0.162-0.121-0.357-0.163-0.558-0.188
		c-0.526-0.062-1.058-0.101-1.576-0.222c-0.07-0.016-0.146-0.019-0.218-0.017c-0.368,0.01-0.741,0.063-1.088-0.138
		c-0.058-0.034-0.146-0.043-0.214-0.03c-0.49,0.091-0.972-0.059-1.46-0.033c-0.437,0.021-0.862-0.117-1.3-0.104
		c-0.155,0.006-0.315-0.045-0.465,0.013c-0.413,0.159-0.821,0.068-1.232-0.001c-0.371-0.063-0.746-0.082-1.117-0.003
		c-0.072,0.016-0.146,0.039-0.216,0.014c-0.332-0.119-0.686-0.037-1.02-0.127c-0.02-0.005-0.042-0.007-0.062-0.003
		c-0.745,0.135-1.488-0.006-2.231-0.012c-0.093-0.001-0.188,0.017-0.279,0.037c-0.258,0.058-0.511,0.079-0.771-0.007
		c-0.27-0.091-0.562,0.04-0.835-0.061c-0.04-0.016-1.349-0.02-1.349-0.02c-0.568,0.091-1.139,0.122-1.709,0.12
		c-0.185,0-0.372-0.033-0.561-0.033c-0.446,0-0.894,0.004-1.341-0.006c-0.418-0.009-0.835-0.018-1.233,0.139
		c-0.073,0.028-0.139,0.026-0.212,0.014c-0.377-0.064-0.748-0.021-1.118,0.058c-0.091,0.019-0.194,0.068-0.273,0.044
		c-0.361-0.112-0.724-0.068-1.082-0.025c-0.315,0.037-0.63-0.078-0.935-0.021c-0.549,0.104-1.095-0.024-1.643,0.021
		c-0.245,0.021-0.496-0.031-0.745-0.043c-0.428-0.019-0.852,0.021-1.276,0.044c-0.322,0.018-0.648-0.04-0.965,0.015
		c-0.635,0.109-1.266,0.233-1.912,0.268c-0.27,0.015-0.53,0.058-0.806,0.015c-0.308-0.045-0.625-0.05-0.927,0.072
		c-0.08,0.033-0.159,0.035-0.243,0.013c-0.374-0.105-0.748-0.06-1.111,0.039c-0.219,0.06-0.43,0.066-0.649,0.054
		c-0.552-0.026-1.105,0.029-1.646,0.107c-0.524,0.075-1.064-0.045-1.576,0.155c-0.078,0.031-0.184-0.023-0.277-0.021
		c-0.427,0.015-0.862-0.028-1.268,0.133c-0.645,0.254-1.321,0.262-1.991,0.28c-0.33,0.009-0.639,0.041-0.944,0.155
		c-0.076,0.029-0.151,0.077-0.239,0.055c-0.684-0.172-1.332,0.193-2.009,0.136c-0.06-0.006-0.132,0.011-0.181,0.044
		c-0.29,0.196-0.617,0.154-0.938,0.156c-0.219,0.003-0.437,0.015-0.654,0.036c-0.797,0.079-1.561,0.373-2.369,0.382
		c-0.186,0.002-0.364,0.084-0.546,0.122c-0.313,0.064-0.605,0.246-0.937,0.213c-0.471-0.045-0.907,0.116-1.342,0.242
		c-0.341,0.099-0.692,0.172-1.033,0.204c-0.532,0.052-1.041,0.194-1.561,0.296c-0.647,0.126-1.273,0.333-1.942,0.396
		c-0.512,0.047-1.042,0.165-1.531,0.381c-0.067,0.03-0.133,0.057-0.207,0.067c-0.38,0.05-0.736,0.228-1.131,0.196
		c-0.059-0.004-0.124,0.021-0.181,0.048c-0.391,0.176-0.84,0.149-1.217,0.372c-0.042,0.024-0.102,0.023-0.153,0.024
		c-0.266,0.002-0.51,0.091-0.755,0.182c-0.077,0.027-0.148,0.079-0.237,0.073c-0.47-0.033-0.884,0.203-1.331,0.291
		c-0.524,0.104-1.037,0.277-1.545,0.453c-0.438,0.152-0.875,0.321-1.285,0.536c-0.216,0.113-0.423,0.217-0.655,0.271
		c-0.353,0.08-0.678,0.206-0.917,0.502c-0.074,0.093-0.189,0.146-0.303,0.152c-0.523,0.021-0.95,0.29-1.384,0.546
		c-0.207,0.123-0.407,0.269-0.64,0.323c-0.613,0.143-1.149,0.426-1.619,0.844c-0.058,0.051-0.121,0.077-0.192,0.097
		c-0.16,0.044-1.422,0.814-1.519,0.945c-0.207,0.278-0.496,0.446-0.775,0.629c-0.114,0.074-0.242,0.138-0.331,0.235
		c-0.331,0.357-0.752,0.596-1.13,0.888c-0.42,0.326-0.836,0.654-1.251,0.987c-0.096,0.079-0.188,0.174-0.254,0.278
		c-0.167,0.262-0.397,0.47-0.633,0.653c-0.646,0.508-1.112,1.161-1.561,1.839c-0.224,0.341-0.369,0.723-0.611,1.059
		c-0.214,0.294-0.471,0.57-0.614,0.914c-0.135,0.322-0.325,0.614-0.498,0.91c-0.284,0.485-0.542,0.971-0.623,1.538
		c-0.007,0.039-0.021,0.084-0.044,0.115c-0.21,0.285-0.267,0.641-0.432,0.947c-0.112,0.213-0.155,0.457-0.166,0.705
		c-0.011,0.265-0.063,0.521-0.178,0.764c-0.097,0.207-0.124,0.423-0.121,0.642h0.437C11.674,85.68,11.713,85.5,11.803,85.327z"/>
	<path fill="#280D09" d="M138.022,84.812c0.028-0.368-0.074-0.707-0.219-1.042c-0.181-0.417-0.325-0.848-0.576-1.23
		c-0.028-0.041-0.05-0.097-0.052-0.146c-0.022-0.435-0.272-0.796-0.361-1.209c-0.032-0.144-0.143-0.255-0.224-0.379
		c-0.17-0.262-0.354-0.525-0.45-0.823c-0.131-0.401-0.325-0.749-0.633-1.037c-0.332-0.309-0.599-0.672-0.807-1.082
		c-0.155-0.304-0.396-0.535-0.665-0.744c-0.429-0.333-0.764-0.765-1.145-1.147c-0.152-0.154-0.284-0.329-0.455-0.472
		c-0.207-0.174-0.482-0.281-0.604-0.537c-0.153-0.318-0.369-0.559-0.688-0.707c-0.096-0.044-0.168-0.123-0.236-0.205
		c-0.139-0.165-0.312-0.287-0.514-0.348c-0.271-0.078-0.479-0.248-0.67-0.442c-0.284-0.292-0.623-0.493-0.992-0.645
		c-0.325-0.133-0.674-0.218-0.935-0.485c-0.075-0.077-0.198-0.125-0.308-0.147c-0.21-0.042-0.389-0.144-0.57-0.248
		c-0.333-0.192-0.648-0.434-1.054-0.454c-0.028-0.001-0.065-0.015-0.085-0.034c-0.301-0.291-0.705-0.403-1.048-0.622
		c-0.15-0.098-0.312-0.178-0.492-0.19c-0.314-0.021-0.593-0.172-0.834-0.328c-0.489-0.32-1.037-0.499-1.569-0.679
		c-0.374-0.126-0.761-0.212-1.129-0.378c-0.265-0.12-0.551-0.177-0.801-0.345c-0.182-0.123-0.4-0.164-0.627-0.157
		c-0.153,0.005-0.308,0.028-0.463-0.031c-0.495-0.188-0.936-0.512-1.472-0.596c-0.046-0.007-0.087-0.054-0.125-0.089
		c-0.346-0.327-0.784-0.422-1.229-0.478c-0.176-0.022-0.346-0.021-0.503-0.125c-0.094-0.061-0.21-0.104-0.32-0.119
		c-0.373-0.051-0.735-0.161-1.114-0.151c-0.139,0.002-0.272-0.021-0.394-0.087c-0.441-0.244-0.97-0.227-1.408-0.476
		c-0.777-0.015-1.444-0.574-2.246-0.459c-0.011,0.002-0.021-0.004-0.031-0.007c-1.2-0.295-2.414-0.523-3.634-0.726
		c-0.062-0.01-0.117-0.047-0.179-0.058c-0.436-0.08-0.88-0.118-1.303-0.265c-0.02-0.006-0.042,0-0.064,0
		c-0.634-0.019-1.261-0.124-1.889-0.209c-0.317-0.044-0.632-0.105-0.954-0.135c-0.303-0.026-0.615,0.009-0.9-0.065
		c-0.664-0.176-1.343-0.128-2.013-0.182c-0.538-0.041-1.07-0.136-1.616-0.137c-0.574-0.002-1.142-0.179-1.724-0.122
		c-0.169,0.017-0.33-0.033-0.493-0.056c-0.405-0.058-0.802-0.196-1.227-0.04c-0.228,0.084-0.53,0.111-0.732-0.013
		c-0.37-0.229-0.767-0.251-1.168-0.305c-0.618-0.081-1.233-0.19-1.86-0.145c-0.063,0.004-0.129,0.008-0.182-0.032
		c-0.191-0.146-0.414-0.121-0.632-0.121c-0.146-0.002-0.293,0.006-0.437-0.013c-0.629-0.085-1.265-0.085-1.896-0.136
		c-0.463-0.039-0.936,0.159-1.396,0.064c-0.611-0.125-1.22-0.09-1.831-0.08c-0.271,0.005-0.531-0.108-0.806-0.076
		c-0.488,0.061-0.974,0.046-1.462-0.012c-0.277-0.033-0.57-0.072-0.838-0.019c-0.734,0.146-1.454-0.019-2.177-0.058
		c-0.27-0.013-0.541-0.053-0.809-0.02c-1.089,0.133-2.178,0.147-3.272,0.091c-0.546-0.028-1.098-0.072-1.642,0.129
		c-0.212,0.078-0.476,0.028-0.713,0.01c-0.17-0.012-0.336-0.008-0.496,0.037c-0.35,0.102-0.703,0.07-1.057,0.05
		c-0.52-0.033-1.041-0.021-1.558,0.013c-0.282,0.017-0.563,0.037-0.841,0.019c-0.686-0.043-1.373-0.087-2.058-0.068
		c-0.426,0.013-0.853,0.033-1.279,0.041c-0.157,0.003-0.31,0.021-0.466,0.044c-0.41,0.062-0.813,0.184-1.232,0.195
		c-0.612,0.018-1.222,0.156-1.837,0.039c-0.048-0.009-0.106,0.008-0.153,0.028c-0.178,0.076-0.365,0.074-0.554,0.068
		c-0.413-0.011-0.828-0.069-1.229,0.091c-0.057,0.021-0.125,0.013-0.187,0.01c-0.991-0.042-1.972,0.159-2.961,0.147
		c-0.041,0-0.086,0.004-0.122,0.021c-0.3,0.139-0.615,0.087-0.926,0.084c-0.376-0.004-0.742,0.013-1.105,0.149
		c-0.278,0.104-0.581,0.17-0.877,0.196c-0.678,0.065-1.368-0.021-2.035,0.229c-0.22,0.082-0.495,0.02-0.746,0.009
		c-0.114-0.006-0.234-0.026-0.339,0.02c-0.288,0.128-0.589,0.122-0.892,0.113c-0.107-0.003-0.218,0.002-0.304,0.059
		c-0.274,0.174-0.575,0.156-0.878,0.152c-0.25-0.004-0.5,0.012-0.749,0.044c-0.854,0.111-1.686,0.378-2.554,0.405
		c-0.051,0.002-0.103,0.021-0.152,0.035c-0.479,0.14-0.947,0.322-1.46,0.272c-0.1-0.008-0.203,0.041-0.305,0.065
		c-0.564,0.132-1.123,0.322-1.695,0.381c-0.616,0.064-1.204,0.229-1.806,0.348c-0.63,0.122-1.231,0.399-1.893,0.352
		c-0.098-0.007-0.206,0.039-0.3,0.081c-0.175,0.078-0.354,0.117-0.546,0.122c-0.115,0.001-0.226,0.035-0.334,0.076
		c-0.465,0.178-0.933,0.345-1.44,0.339c-0.062,0-0.129,0.012-0.183,0.038c-0.396,0.195-0.863,0.147-1.248,0.382
		c-0.049,0.031-0.12,0.031-0.183,0.033c-0.264,0.008-0.51,0.088-0.755,0.182c-0.086,0.033-0.168,0.074-0.268,0.073
		c-0.477-0.007-0.904,0.216-1.359,0.313c-0.504,0.107-1.001,0.266-1.488,0.437c-0.448,0.155-0.89,0.339-1.316,0.546
		c-0.167,0.08-0.322,0.186-0.507,0.226c-0.401,0.091-0.786,0.212-1.062,0.553c-0.068,0.082-0.175,0.13-0.278,0.134
		c-0.512,0.021-0.932,0.279-1.357,0.525c-0.288,0.167-0.575,0.316-0.905,0.406c-0.464,0.125-0.886,0.366-1.268,0.668
		c-0.363,0.287-0.803,0.447-1.177,0.734c-0.257,0.196-0.583,0.306-0.788,0.587c-0.069,0.094-0.172,0.155-0.268,0.217
		c-0.236,0.155-0.502,0.283-0.692,0.484c-0.302,0.316-0.666,0.538-1.011,0.787c-0.465,0.336-0.874,0.743-1.353,1.061
		c-0.068,0.046-0.128,0.112-0.176,0.181c-0.249,0.357-0.573,0.637-0.904,0.911c-0.249,0.208-0.453,0.464-0.673,0.705
		c-0.539,0.6-0.838,1.353-1.294,2.005c-0.306,0.438-0.611,0.88-0.846,1.363c-0.161,0.333-0.374,0.632-0.54,0.961
		c-0.242,0.48-0.312,1.021-0.552,1.504c-0.249,0.498-0.454,1.019-0.457,1.596c-0.001,0.083-0.018,0.174-0.056,0.246
		c-0.09,0.173-0.129,0.353-0.145,0.535h2.223c0-0.052,0.002-0.104-0.007-0.154c-0.049-0.244,0.022-0.456,0.118-0.672
		c0.056-0.124,0.116-0.255,0.131-0.387c0.065-0.604,0.327-1.128,0.631-1.632c0.201-0.335,0.311-0.71,0.509-1.048
		c0.318-0.542,0.601-1.106,0.864-1.679c0.046-0.102,0.153-0.17,0.221-0.265c0.457-0.656,0.982-1.258,1.431-1.921
		c0.134-0.196,0.304-0.373,0.518-0.495c0.099-0.057,0.201-0.121,0.277-0.206c0.368-0.415,0.805-0.757,1.21-1.131
		c0.298-0.274,0.573-0.581,0.942-0.771c0.109-0.056,0.199-0.151,0.292-0.236c0.238-0.221,0.473-0.446,0.796-0.537
		c0.021-0.007,0.043-0.012,0.059-0.025c0.382-0.335,0.834-0.568,1.232-0.881c0.057-0.045,0.1-0.107,0.173-0.132
		c0.546-0.186,1.049-0.451,1.5-0.823c0.166-0.137,0.392-0.188,0.6-0.259c0.466-0.156,0.929-0.32,1.288-0.685
		c0.091-0.093,0.212-0.135,0.344-0.131c0.317,0.012,0.587-0.111,0.841-0.292c0.221-0.157,0.481-0.235,0.72-0.348
		c0.434-0.206,0.897-0.314,1.337-0.494c0.432-0.176,0.855-0.449,1.357-0.422c0.101,0.006,0.215-0.011,0.306-0.054
		c0.383-0.188,0.805-0.209,1.209-0.302c0.234-0.054,0.467-0.108,0.674-0.242c0.034-0.021,0.075-0.062,0.108-0.058
		c0.398,0.063,0.74-0.191,1.123-0.21c0.083-0.004,0.171-0.016,0.244-0.051c0.487-0.232,1.024-0.234,1.533-0.355
		c0.521-0.125,1.091-0.06,1.565-0.379c0.04-0.026,0.099-0.028,0.149-0.032c0.85-0.082,1.694-0.2,2.527-0.386
		c0.37-0.084,0.736-0.206,1.111-0.28c0.344-0.068,0.694-0.105,1.044-0.146c0.135-0.017,0.279,0,0.398-0.066
		c0.384-0.209,0.804-0.192,1.218-0.213c0.345-0.016,0.676-0.085,1.013-0.174c0.308-0.081,0.636-0.107,0.955-0.107
		c0.548-0.002,1.077-0.11,1.601-0.251c0.253-0.068,0.499-0.15,0.764-0.057c0.065,0.024,0.152,0.03,0.217,0.008
		c0.645-0.213,1.354-0.039,1.982-0.348c0.046-0.022,0.103-0.035,0.151-0.029c0.704,0.1,1.354-0.162,2.021-0.302
		c0.243-0.049,0.504-0.045,0.743-0.024c0.37,0.033,0.731,0.046,1.085-0.05c0.555-0.15,1.134-0.077,1.687-0.219
		c0.069-0.019,0.146-0.029,0.217-0.023c0.522,0.043,1.034-0.117,1.557-0.091c0.122,0.007,0.25-0.021,0.369-0.056
		c0.215-0.064,0.429-0.064,0.648-0.037c0.375,0.048,0.75,0.043,1.112-0.093c0.07-0.026,0.135-0.049,0.211-0.029
		c0.388,0.103,0.764,0.027,1.142-0.068c0.05-0.012,0.102-0.031,0.153-0.028c0.735,0.041,1.474-0.053,2.21,0.06
		c0.403,0.062,0.804-0.078,1.212-0.076c0.393,0,0.786-0.031,1.18-0.044c0.25-0.008,0.503,0.009,0.741-0.07
		c0.173-0.056,0.333,0.028,0.494-0.004c0.4-0.081,0.801-0.068,1.205-0.041c0.259,0.017,0.514-0.068,0.772-0.092
		c0.391-0.031,0.78-0.002,1.171-0.144c0.278-0.1,0.616,0.025,0.93-0.008c0.155-0.017,0.312-0.014,0.462-0.069
		c0.08-0.031,0.157-0.037,0.243-0.015c0.412,0.109,0.826,0.035,1.242,0.013c0.447-0.025,0.888-0.105,1.334-0.124
		c0.052-0.003,0.104,0.003,0.155-0.007c0.941-0.186,1.885,0.01,2.827-0.025c0.466-0.018,0.934-0.066,1.395-0.136
		c0.199-0.03,0.391-0.05,0.586-0.019c0.644,0.106,1.285,0.064,1.927,0.006c0.042-0.004,0.091-0.022,0.123-0.007
		c0.358,0.168,0.735,0.092,1.106,0.092c0.031,0,0.063,0.015,0.093,0.009c0.682-0.126,1.368,0.157,2.05-0.017
		c0.061-0.015,0.123-0.005,0.183,0.019c0.646,0.25,1.317,0.27,1.994,0.232c0.085-0.005,0.165-0.006,0.247,0.021
		c0.069,0.025,0.143,0.061,0.212,0.054c0.474-0.041,0.914,0.174,1.385,0.176c0.298,0.003,0.59,0.127,0.894,0.14
		c0.666,0.028,1.321,0.172,1.986,0.21c0.292,0.017,0.585,0.039,0.858-0.105c0.108-0.058,0.198-0.004,0.294,0.045
		c0.34,0.173,0.697,0.243,1.083,0.253c0.41,0.011,0.835-0.052,1.226,0.153c0.071,0.036,0.166,0.054,0.243,0.043
		c0.451-0.066,0.889,0.089,1.337,0.072c0.216-0.007,0.416,0.12,0.641,0.122c0.823,0.002,1.631,0.178,2.448,0.23
		c0.432,0.028,0.872,0.045,1.297,0.11c0.547,0.083,1.104,0.001,1.641,0.151c0.149,0.041,0.314,0.017,0.467,0.044
		c0.256,0.043,0.521,0.039,0.763,0.154c0.018,0.01,0.04,0.017,0.061,0.015c0.459-0.047,0.896,0.12,1.35,0.133
		c0.032,0.002,0.066-0.011,0.093,0c0.627,0.258,1.32,0.124,1.955,0.365c0.479,0.183,1.018,0.114,1.501,0.286
		c0.603,0.215,1.219,0.324,1.846,0.417c0.365,0.055,0.72,0.17,1.095,0.21c0.291,0.032,0.57,0.181,0.881,0.162
		c0.088-0.006,0.114,0.079,0.156,0.138c0.216,0.308,0.519,0.451,0.885,0.449c0.14-0.001,0.262,0.018,0.386,0.094
		c0.229,0.143,0.489,0.19,0.753,0.131c0.191-0.042,0.346,0,0.499,0.107c0.173,0.123,0.362,0.213,0.576,0.225
		c0.1,0.007,0.176,0.06,0.257,0.104c0.166,0.093,0.342,0.171,0.533,0.169c0.318-0.003,0.608,0.143,0.92,0.169
		c0.092,0.009,0.145,0.075,0.205,0.133c0.196,0.184,0.428,0.322,0.686,0.359c0.308,0.042,0.57,0.194,0.856,0.276
		c0.372,0.106,0.718,0.237,1.023,0.482c0.056,0.044,0.131,0.067,0.2,0.087c0.302,0.083,0.593,0.183,0.873,0.329
		c0.284,0.148,0.633,0.122,0.914,0.298c0.045,0.026,0.104,0.028,0.143,0.06c0.496,0.408,1.088,0.606,1.679,0.81
		c0.039,0.014,0.086,0.027,0.11,0.059c0.253,0.31,0.623,0.408,0.968,0.553c0.212,0.089,0.422,0.177,0.601,0.33
		c0.076,0.067,0.18,0.129,0.275,0.141c0.341,0.042,0.591,0.249,0.852,0.438c0.291,0.209,0.6,0.381,0.943,0.481
		c0.195,0.059,0.328,0.195,0.479,0.329c0.422,0.367,0.733,0.858,1.256,1.116c0.217,0.107,0.325,0.35,0.465,0.544
		c0.157,0.217,0.331,0.407,0.568,0.53c0.098,0.051,0.163,0.127,0.226,0.214c0.062,0.085,0.116,0.188,0.2,0.241
		c0.561,0.356,0.793,1.024,1.316,1.421c0.203,0.153,0.314,0.416,0.391,0.675c0.11,0.37,0.287,0.698,0.569,0.97
		c0.16,0.152,0.243,0.375,0.291,0.585c0.12,0.515,0.433,0.93,0.654,1.394c0.036,0.074,0.088,0.136,0.107,0.223
		c0.094,0.445,0.197,0.887,0.295,1.33c0.047,0.219,0.12,0.43,0.245,0.612c0.106,0.158,0.146,0.324,0.127,0.508
		c-0.01,0.093,0.007,0.18,0.013,0.269h2.293c-0.021-0.177-0.061-0.348-0.145-0.513C138.094,85.184,138.006,85.018,138.022,84.812z"
		/>
	<path fill="#280D09" d="M131.233,84.374c-0.039-0.157-0.05-0.312-0.031-0.446c0.01-0.248,0.001-0.471-0.079-0.683
		c-0.06-0.159-0.058-0.337-0.113-0.491c-0.175-0.482-0.295-0.979-0.429-1.473c-0.008-0.029-0.026-0.059-0.044-0.084
		c-0.207-0.315-0.409-0.636-0.628-0.944c-0.163-0.231-0.337-0.461-0.571-0.625c-0.063-0.044-0.095-0.11-0.126-0.177
		c-0.126-0.257-0.343-0.407-0.563-0.576c-0.298-0.229-0.646-0.417-0.801-0.806c-0.083-0.21-0.248-0.364-0.445-0.476
		c-0.101-0.057-0.195-0.117-0.271-0.21c-0.164-0.198-0.388-0.308-0.604-0.438c-0.354-0.211-0.742-0.35-1.043-0.672
		c-0.295-0.316-0.641-0.604-1.104-0.678c-0.201-0.033-0.395-0.128-0.55-0.28c-0.106-0.104-0.236-0.208-0.379-0.21
		c-0.422-0.011-0.749-0.229-1.1-0.426c-0.417-0.235-0.918-0.265-1.336-0.515c-0.06-0.035-0.142-0.052-0.212-0.05
		c-0.194,0.004-0.357-0.067-0.528-0.157c-0.544-0.282-1.202-0.017-1.424,0.559c-0.218,0.56,0.073,1.222,0.644,1.378
		c0.3,0.081,0.603,0.132,0.878,0.288c0.045,0.024,0.1,0.038,0.151,0.041c0.162,0.008,0.292,0.089,0.432,0.163
		c0.331,0.174,0.658,0.375,1.048,0.381c0.126,0.002,0.183,0.085,0.25,0.163c0.17,0.2,0.385,0.331,0.641,0.366
		c0.209,0.029,0.376,0.124,0.521,0.265c0.187,0.179,0.403,0.296,0.642,0.383c0.214,0.078,0.472,0.111,0.632,0.256
		c0.411,0.367,0.778,0.781,1.208,1.134c0.187,0.154,0.35,0.33,0.588,0.4c0.115,0.035,0.187,0.116,0.271,0.196
		c0.229,0.222,0.268,0.562,0.481,0.77c0.303,0.293,0.442,0.684,0.673,1.017c0.193,0.281,0.218,0.65,0.443,0.902
		c0.259,0.289,0.291,0.653,0.347,0.993c0.064,0.392,0.144,0.782,0.173,1.186c0.025,0.366-0.003,0.72-0.091,1.064h2.442
		c-0.004-0.401-0.012-0.804,0.03-1.205C131.262,84.564,131.256,84.465,131.233,84.374z"/>
	<path fill="#280D09" d="M21.26,85.238c-0.077-0.221-0.086-0.463-0.03-0.688c0.108-0.438,0.191-0.885,0.371-1.303
		c0.067-0.157,0.03-0.335,0.11-0.491c0.222-0.439,0.519-0.838,0.664-1.319c0.039-0.127,0.145-0.229,0.239-0.329
		c0.072-0.076,0.163-0.151,0.196-0.244c0.151-0.409,0.457-0.661,0.778-0.935c0.58-0.49,1.083-1.073,1.734-1.479
		c0.53-0.332,1.034-0.711,1.641-0.901c0.181-0.057,0.347-0.152,0.471-0.302c0.229-0.276,0.538-0.423,0.854-0.564
		c0.143-0.063,0.281-0.141,0.428-0.189c0.376-0.127,0.704-0.365,1.092-0.464c0.425-0.107,0.799-0.344,1.202-0.507
		c0.248-0.101,0.485-0.237,0.744-0.32c0.378-0.122,0.603-0.436,0.574-0.806c-0.028-0.388-0.301-0.66-0.712-0.717
		c-0.299-0.04-0.598-0.047-0.898-0.06c-0.577-0.024-1.058,0.273-1.586,0.404c-0.039,0.008-0.071,0.045-0.108,0.062
		c-0.15,0.072-0.299,0.151-0.453,0.211c-0.432,0.162-0.839,0.366-1.237,0.596c-0.297,0.172-0.597,0.337-0.952,0.363
		c-0.189,0.014-0.365,0.104-0.508,0.232c-0.215,0.19-0.469,0.316-0.723,0.434c-0.779,0.355-1.465,0.871-2.183,1.33
		c-0.375,0.239-0.705,0.558-1.034,0.866c-0.23,0.217-0.301,0.539-0.49,0.763c-0.191,0.223-0.508,0.341-0.655,0.618
		c-0.214,0.398-0.437,0.789-0.74,1.129c-0.143,0.161-0.132,0.4-0.249,0.576c-0.252,0.379-0.271,0.863-0.558,1.225
		c-0.006,0.007-0.006,0.02-0.009,0.028c-0.149,0.499-0.231,1.016-0.245,1.529c-0.015,0.51-0.044,1.006-0.178,1.498
		c-0.034,0.123-0.048,0.252-0.042,0.378h2.581C21.361,85.656,21.333,85.449,21.26,85.238z"/>
	<path fill="#280D09" d="M25.338,84.405c-0.002-0.201,0.046-0.373,0.162-0.531c0.273-0.373,0.543-0.749,0.818-1.119
		c0.113-0.151,0.263-0.254,0.435-0.347c0.271-0.146,0.594-0.149,0.85-0.298c0.351-0.203,0.71-0.207,1.086-0.196
		c1.066,0.03,2.019,0.348,2.786,1.138c0.079,0.082,0.181,0.142,0.274,0.208c0.053,0.037,0.112,0.048,0.178,0.029
		c0.217-0.066,0.78-0.896,0.773-1.14c-0.001-0.011-0.004-0.021-0.005-0.031c-0.011-0.738-0.122-1.472-0.034-2.212
		c0.083-0.69,0.146-1.384,0.798-1.813c0.035-0.021,0.069-0.054,0.086-0.09c0.143-0.298,0.39-0.481,0.658-0.644
		c0.152-0.092,0.348-0.147,0.451-0.277c0.331-0.42,0.811-0.516,1.266-0.706c0.44-0.186,0.863-0.345,1.345-0.423
		c0.497-0.08,0.986-0.13,1.485-0.124c0.071,0.002,0.161-0.012,0.214,0.024c0.417,0.296,0.953,0.286,1.378,0.554
		c0.362,0.227,0.789,0.307,1.126,0.596c0.462,0.396,0.532,0.377,1.01,0.005c0.287-0.224,0.466-0.505,0.443-0.894
		c-0.033-0.57,0.163-1.129,0.098-1.701c-0.003-0.03,0.005-0.064,0.014-0.094c0.164-0.512,0.456-0.961,0.691-1.438
		c0.076-0.155,0.164-0.322,0.312-0.432c0.452-0.327,0.804-0.794,1.354-0.992c0.198-0.07,0.3-0.293,0.461-0.412
		c0.167-0.123,0.432-0.016,0.628-0.127c0.183-0.104,0.384-0.146,0.58-0.21c0.318-0.106,0.65-0.121,0.965-0.204
		c0.3-0.08,0.592-0.087,0.893-0.101c0.572-0.025,1.146,0.002,1.72-0.007c0.19-0.004,0.375,0.021,0.551,0.089
		c0.197,0.079,0.396,0.124,0.609,0.108c0.153-0.011,0.294,0.037,0.4,0.146c0.236,0.238,0.523,0.377,0.838,0.47
		c0.185,0.056,0.354,0.137,0.467,0.3c0.139,0.202,0.317,0.359,0.507,0.512c0.211,0.171,0.405,0.355,0.588,0.563
		c0.266,0.306,0.541,0.613,0.93,0.779c0.137,0.06,0.253,0.062,0.384-0.014c0.32-0.185,0.582-0.437,0.669-0.801
		c0.095-0.396,0.391-0.672,0.531-1.035c0.016-0.042,0.069-0.081,0.113-0.1c0.27-0.12,0.446-0.346,0.632-0.559
		c0.302-0.344,0.691-0.564,1.084-0.771c0.212-0.11,0.444-0.19,0.636-0.335c0.353-0.264,0.75-0.34,1.172-0.342
		c0.364-0.002,0.73,0.008,1.095,0.001c0.235-0.004,2.065,0.144,2.21,0.158c0.283,0.029,0.546,0.113,0.812,0.205
		c0.146,0.052,0.306,0.063,0.456,0.101c0.304,0.077,0.609,0.164,0.872,0.333c0.224,0.145,0.45,0.265,0.711,0.308
		c0.094,0.016,0.163,0.042,0.231,0.129c0.325,0.426,0.665,0.839,1.134,1.112c0.069,0.04,0.106,0.104,0.129,0.174
		c0.128,0.429,0.454,0.753,0.603,1.173c0.06,0.167,0.2,0.293,0.347,0.4c0.354,0.259,0.486,0.25,0.816-0.05
		c0.387-0.352,0.553-0.81,0.631-1.311c0.02-0.125,0.021-0.257,0.126-0.35c0.409-0.367,0.89-0.645,1.285-1.033
		c0.283-0.279,0.699-0.323,1.001-0.573c0.279-0.229,0.582-0.396,0.966-0.341c0.087,0.012,0.186-0.021,0.274-0.048
		c0.746-0.217,1.522-0.196,2.283-0.285c0.402-0.047,0.806,0.015,1.208,0.091c0.778,0.147,1.537,0.342,2.241,0.72
		c0.156,0.084,0.321,0.15,0.484,0.219c0.118,0.049,0.223,0.107,0.316,0.198c0.356,0.34,0.62,0.773,1.048,1.038
		c0.031,0.021,0.052,0.066,0.072,0.103c0.208,0.358,0.49,0.656,0.772,0.951c0.288,0.302,0.454,0.31,0.719-0.014
		c0.283-0.347,0.656-0.622,0.834-1.059c0.022-0.056,0.069-0.107,0.118-0.145c0.354-0.275,0.638-0.626,0.99-0.907
		c0.375-0.3,0.801-0.485,1.212-0.7c0.196-0.103,0.42-0.262,0.629-0.247c0.522,0.035,0.988-0.229,1.501-0.219
		c0.676,0.015,1.353-0.008,2.031,0.026c0.486,0.024,0.972,0.137,1.452,0.116c0.701-0.031,1.32,0.206,1.809,0.64
		c0.633,0.562,1.338,1.08,1.717,1.896c0.142,0.307,0.432,0.476,0.741,0.601c0.223,0.092,0.371-0.085,0.551-0.146
		c0.1-0.031,0.195-0.074,0.29-0.117c0.185-0.084,0.329-0.219,0.458-0.376c0.24-0.294,0.552-0.505,0.863-0.706
		c0.193-0.124,0.405-0.219,0.582-0.368c0.129-0.109,0.266-0.152,0.432-0.138c0.342,0.028,0.661-0.062,0.968-0.205
		c0.066-0.031,0.133-0.063,0.207-0.062c0.584,0.006,1.157-0.146,1.744-0.099c0.23,0.019,0.454,0.028,0.66,0.155
		c0.163,0.099,0.35,0.124,0.542,0.126c0.313,0.006,0.656,0.062,0.887,0.235c0.387,0.292,0.832,0.465,1.224,0.742
		c0.397,0.282,0.875,0.48,1.179,0.86c0.31,0.39,0.737,0.653,1.009,1.066c0.347,0.529,0.924,0.894,1.083,1.558
		c0.017,0.067,0.067,0.134,0.115,0.188c0.259,0.283,0.354,0.631,0.398,1.003c0.024,0.213,0.088,0.422,0.22,0.588
		c0.592,0.738,0.857,0.717,1.433,0.074c0.035-0.04,0.058-0.089,0.087-0.133c0.035-0.053,0.087-0.086,0.138-0.123
		c0.316-0.229,0.697-0.317,1.057-0.346c0.938-0.075,1.894-0.188,2.796,0.237c0.141,0.066,0.279,0.124,0.413,0.213
		c0.328,0.219,0.62,0.503,1.009,0.623c0.09,0.028,0.159,0.08,0.208,0.174c0.229,0.418,0.5,0.805,0.867,1.11
		c0.065,0.055,0.075,0.121,0.082,0.195c0.019,0.229,0.117,0.433,0.249,0.607c0.085,0.11,0.094,0.221,0.108,0.348
		c0.083,0.657-0.197,1.262-0.271,1.898c-0.069,0.589,0.143,1.189,0.649,1.488c0.161,0.094,0.319,0.137,0.498,0.048
		c0.573-0.285,1.192-0.36,1.818-0.37c0.376-0.006,0.779-0.102,1.119,0.033c0.441,0.175,0.908,0.31,1.313,0.57
		c0.178,0.112,0.399,0.125,0.55,0.294c0.422,0.476,0.98,0.809,1.343,1.348c0.005,0.01,0.013,0.017,0.021,0.022
		c0.149,0.111,0.24,0.267,0.329,0.424h1.949c-0.025-0.029-0.037-0.065-0.066-0.093c-0.024-0.021-0.062-0.041-0.065-0.066
		c-0.062-0.491-0.496-0.766-0.677-1.188c-0.013-0.029-0.029-0.056-0.046-0.083c-0.053-0.095-1.08-1.238-1.166-1.3
		c-0.559-0.401-1.12-0.8-1.728-1.119c-0.484-0.254-0.964-0.544-1.538-0.566c-0.184-0.006-0.361-0.072-0.536-0.155
		c-0.376-0.176-0.781-0.215-1.19-0.215c-0.188,0-0.318-0.052-0.337-0.272c-0.011-0.137-0.08-0.261-0.135-0.387
		c-0.113-0.259-0.201-0.508-0.153-0.817c0.064-0.413-0.078-0.794-0.385-1.094c-0.082-0.079-0.16-0.146-0.182-0.278
		c-0.122-0.728-0.603-1.189-1.188-1.547c-0.218-0.133-0.417-0.265-0.568-0.478c-0.308-0.43-0.787-0.608-1.233-0.833
		c-0.064-0.032-0.149-0.029-0.205-0.07c-0.479-0.344-1.026-0.511-1.586-0.64c-0.676-0.156-1.35-0.35-2.059-0.128
		c-0.272,0.087-0.591,0.015-0.842,0.192c-0.192,0.138-0.403,0.204-0.625,0.265c-0.133,0.036-0.203,0.053-0.248-0.109
		c-0.063-0.229-0.209-0.413-0.397-0.556c-0.138-0.104-0.25-0.239-0.317-0.387c-0.296-0.658-0.854-1.079-1.326-1.578
		c-0.067-0.069-0.126-0.141-0.177-0.219c-0.062-0.1-0.124-0.211-0.225-0.261c-0.379-0.188-0.656-0.51-0.989-0.758
		c-0.293-0.217-0.533-0.499-0.838-0.706c-0.149-0.1-0.31-0.172-0.461-0.263c-0.409-0.248-0.815-0.496-1.307-0.535
		c-0.318-0.298-0.778-0.283-1.126-0.525c-0.127-0.089-0.298-0.102-0.455-0.08c-0.503,0.067-0.994-0.021-1.486-0.098
		c-0.083-0.014-0.171-0.043-0.248-0.023c-0.507,0.124-1.032,0.021-1.54,0.13c-0.186,0.04-0.372,0.09-0.514,0.218
		c-0.17,0.155-0.355,0.229-0.582,0.255c-0.388,0.043-0.748,0.182-1.068,0.417c-0.092,0.067-0.195,0.125-0.303,0.164
		c-0.241,0.087-0.453,0.215-0.61,0.422c-0.084,0.108-0.152,0.119-0.251,0.017c-0.103-0.105-0.2-0.213-0.286-0.335
		c-0.405-0.579-0.97-0.947-1.612-1.2c-0.106-0.043-0.21-0.086-0.31-0.145c-0.255-0.145-0.527-0.235-0.812-0.312
		c-0.397-0.107-0.799-0.222-1.171-0.407c-0.313-0.157-0.628-0.271-0.989-0.22c-0.229,0.033-0.441-0.124-0.672-0.11
		c-0.538,0.03-1.075-0.037-1.617,0.042c-0.382,0.058-0.764,0.199-1.168,0.107c-0.207-0.045-0.416,0.027-0.601,0.133
		c-0.187,0.105-0.381,0.128-0.589,0.16c-0.397,0.061-0.811,0.14-1.17,0.315c-0.455,0.226-0.957,0.361-1.366,0.683
		c-0.049,0.039-0.12,0.056-0.157,0.101c-0.335,0.414-0.874,0.619-1.099,1.173c-0.441-0.542-1-0.875-1.578-1.183
		c-0.009-0.004-0.021-0.007-0.027-0.015c-0.414-0.476-0.979-0.699-1.521-0.966c-0.199-0.097-0.391-0.196-0.615-0.21
		c-0.35-0.02-0.647-0.232-0.991-0.271c-0.431-0.052-0.86-0.155-1.3-0.054c-0.073,0.018-0.144,0.01-0.214-0.02
		c-0.301-0.125-0.607-0.113-0.921-0.057c-0.491,0.086-0.993,0.086-1.48,0.208c-0.327,0.082-0.647,0.161-0.916,0.381
		c-0.1,0.083-0.214,0.115-0.344,0.128c-0.504,0.054-0.966,0.205-1.396,0.498c-0.315,0.216-0.635,0.438-0.986,0.601
		c-0.083,0.039-0.182,0.084-0.231,0.156c-0.271,0.398-0.695,0.667-0.904,1.112c-0.031,0.068-0.061,0.159-0.136,0.163
		c-0.107,0.004-0.108-0.115-0.135-0.188c-0.141-0.378-0.382-0.649-0.705-0.897c-0.33-0.252-0.646-0.49-1.057-0.576
		c-0.104-0.021-0.173-0.11-0.24-0.19c-0.217-0.257-0.489-0.407-0.812-0.508c-0.395-0.123-0.777-0.297-1.157-0.469
		c-0.316-0.145-0.638-0.256-0.99-0.254c-0.106,0.001-0.202-0.027-0.301-0.069c-0.196-0.084-0.41-0.125-0.612-0.063
		c-0.264,0.08-0.521,0.057-0.77-0.014c-0.232-0.066-1.13-0.08-1.173-0.073c-0.775,0.145-1.507,0.482-2.298,0.551
		c-0.656,0.058-1.157,0.505-1.75,0.724c-0.064,0.022-0.121,0.08-0.173,0.134c-0.117,0.122-0.261,0.202-0.406,0.285
		c-0.289,0.166-0.628,0.28-0.814,0.573c-0.201,0.32-0.477,0.548-0.756,0.784c-0.137,0.115-0.195,0.095-0.295-0.019
		c-0.178-0.197-0.383-0.372-0.621-0.475c-0.37-0.161-0.688-0.394-0.991-0.653c-0.271-0.229-0.578-0.359-0.938-0.385
		c-0.258-0.02-0.514-0.08-0.734-0.235c-0.204-0.143-0.432-0.2-0.679-0.206c-0.25-0.007-0.508,0.008-0.742-0.073
		c-0.502-0.171-1.024-0.13-1.507-0.052c-0.503,0.083-1.054-0.038-1.517,0.278c-0.037,0.024-0.104,0.003-0.154,0.003
		c-0.157,0.005-1.268,0.323-1.395,0.41c-0.087,0.059-0.174,0.122-0.241,0.2c-0.103,0.124-0.214,0.178-0.379,0.163
		c-0.21-0.019-0.437,0.011-0.597,0.147c-0.313,0.267-0.68,0.438-1.024,0.648c-0.08,0.048-0.139,0.131-0.218,0.18
		c-0.399,0.242-0.652,0.644-0.986,0.957c-0.316,0.297-0.554,0.681-0.815,1.034c-0.06,0.083-0.108,0.191-0.117,0.292
		c-0.042,0.486-0.371,0.889-0.359,1.399c0.006,0.283-0.147,0.329-0.417,0.218c-0.403-0.166-0.844-0.201-1.249-0.37
		c-0.16-0.068-0.35-0.027-0.522,0.024c-0.088,0.027-0.17,0.058-0.271,0.041c-0.288-0.048-0.577-0.084-0.866-0.104
		c-0.354-0.023-0.713-0.033-1.043,0.134c-0.247,0.125-0.511,0.178-0.783,0.2c-0.452,0.042-0.842,0.218-1.168,0.54
		c-0.152,0.151-0.327,0.285-0.533,0.315c-0.615,0.09-0.952,0.569-1.345,0.966c-0.118,0.118-0.22,0.247-0.373,0.32
		c-0.299,0.144-0.503,0.378-0.6,0.695c-0.068,0.223-0.177,0.397-0.378,0.521c-0.135,0.081-0.229,0.217-0.298,0.361
		c-0.163,0.352-0.338,0.699-0.473,1.066c-0.12,0.329-0.143,0.683-0.277,1.016c-0.307-0.092-0.622-0.091-0.926-0.163
		c-0.341-0.083-0.682-0.062-1.025-0.02c-0.309,0.038-0.614,0.111-0.932,0.061c-0.187-0.029-0.379,0.022-0.547,0.105
		c-0.496,0.243-1.004,0.471-1.401,0.874c-0.054,0.055-0.116,0.09-0.18,0.123c-0.59,0.305-1.073,0.746-1.406,1.314
		c-0.483,0.823-0.763,1.725-0.802,2.692c-0.004,0.098,0.043,0.225-0.086,0.279c-0.191,0.078-0.355,0.213-0.536,0.315h2.714
		C25.355,85.381,25.342,84.896,25.338,84.405z"/>
	<path fill="#280D09" d="M25.938,85.762c-0.035-0.209-0.096-0.413-0.127-0.62c-0.044-0.292-0.094-0.581,0.111-0.846
		c0.271-0.35,0.518-0.717,0.785-1.068c0.133-0.175,0.301-0.303,0.503-0.408c0.393-0.205,0.856-0.199,1.222-0.468
		c0.043-0.029,0.124-0.019,0.185-0.01c0.921,0.143,1.774,0.43,2.439,1.144c0.371,0.396,0.944,0.514,1.305,0.223
		c0.429-0.345,0.752-0.789,0.854-1.358c0.017-0.091,0.01-0.192-0.007-0.283c-0.11-0.57-0.161-1.147-0.12-1.723
		c0.05-0.692,0.133-1.383,0.787-1.814c0.113-0.076,0.189-0.197,0.246-0.325c0.056-0.121,0.153-0.184,0.259-0.257
		c0.376-0.258,0.836-0.4,1.091-0.824c0.058-0.097,0.165-0.126,0.27-0.139c0.413-0.049,0.783-0.206,1.121-0.449
		c0.085-0.062,0.183-0.11,0.291-0.101c0.352,0.036,0.682-0.062,1.013-0.156c0.114-0.031,0.247-0.066,0.335-0.011
		c0.279,0.176,0.618,0.2,0.895,0.337c0.604,0.296,1.277,0.459,1.79,0.94c0.095,0.089,0.235,0.134,0.359,0.187
		c0.731,0.31,1.715-0.271,1.819-1.073c0.005-0.031,0.013-0.064,0.007-0.094c-0.071-0.385,0.027-0.754,0.097-1.126
		c0.013-0.071,0.032-0.151,0.018-0.22c-0.063-0.29,0.004-0.556,0.1-0.829c0.055-0.157,0.142-0.28,0.236-0.402
		c0.145-0.189,0.145-0.443,0.282-0.632c0.443-0.609,0.986-1.104,1.662-1.428c0.246-0.118,0.356-0.423,0.591-0.487
		c0.245-0.067,0.505-0.067,0.747-0.188c0.277-0.138,0.596-0.239,0.886-0.264c0.44-0.04,0.865-0.186,1.323-0.155
		c0.271,0.019,0.561,0.058,0.835,0.01c0.227-0.039,0.438-0.006,0.644,0.077c0.187,0.076,0.378,0.115,0.579,0.102
		c0.166-0.011,0.31,0.043,0.426,0.163c0.211,0.218,0.469,0.345,0.754,0.428c0.182,0.053,0.355,0.126,0.485,0.273
		c0.516,0.582,1.083,1.115,1.657,1.629c1.031,0.919,2.177,0.217,2.358-0.665c0.073-0.36,0.373-0.605,0.51-0.938
		c0.016-0.04,0.08-0.065,0.126-0.088c0.208-0.109,0.373-0.268,0.516-0.453c0.309-0.402,0.751-0.62,1.175-0.855
		c0.218-0.122,0.455-0.211,0.659-0.36c0.393-0.287,0.846-0.363,1.304-0.313c0.474,0.05,0.936,0.004,1.4-0.055
		c0.2-0.024,0.388-0.024,0.567,0.1c0.148,0.104,0.329,0.134,0.508,0.128c0.106-0.002,0.205,0.017,0.303,0.066
		c0.216,0.109,0.45,0.165,0.688,0.2c0.313,0.046,0.613,0.155,0.882,0.309c0.275,0.155,0.536,0.318,0.855,0.361
		c0.05,0.007,0.097,0.02,0.132,0.068c0.335,0.459,0.688,0.897,1.193,1.181c0.026,0.015,0.055,0.042,0.063,0.068
		c0.109,0.381,0.387,0.671,0.532,1.032c0.213,0.528,0.586,0.848,1.147,0.896c0.59,0.052,1.027-0.217,1.313-0.735
		c0.149-0.27,0.245-0.559,0.281-0.867c0.016-0.126,0.021-0.262,0.12-0.353c0.42-0.375,0.901-0.669,1.31-1.059
		c0.097-0.094,0.215-0.176,0.339-0.222c0.376-0.143,0.703-0.364,1.021-0.603c0.068-0.051,0.137-0.092,0.229-0.082
		c0.437,0.054,0.843-0.117,1.265-0.171c0.635-0.081,1.265-0.187,1.907-0.088c0.835,0.128,1.643,0.343,2.393,0.753
		c0.128,0.07,0.262,0.132,0.399,0.179c0.142,0.049,0.259,0.121,0.364,0.233c0.54,0.578,1.135,1.107,1.604,1.756
		c0.104,0.144,0.23,0.275,0.365,0.391c0.395,0.343,1.002,0.369,1.381,0.016c0.28-0.262,0.596-0.519,0.767-0.866
		c0.205-0.415,0.554-0.694,0.865-0.982c0.385-0.35,0.796-0.696,1.309-0.896c0.46-0.18,0.871-0.481,1.401-0.423
		c0.088,0.01,0.195-0.019,0.271-0.066c0.277-0.174,0.592-0.145,0.881-0.137c0.612,0.018,1.223,0.038,1.834,0.041
		c0.052,0,0.108-0.002,0.153,0.02c0.288,0.13,0.588,0.116,0.892,0.095c0.265-0.019,0.535,0.056,0.749,0.177
		c0.376,0.214,0.781,0.4,1.072,0.748c0.128,0.153,0.261,0.31,0.418,0.428c0.413,0.308,0.71,0.703,0.94,1.161
		c0.117,0.234,0.316,0.383,0.539,0.514c0.716,0.419,1.621,0.065,2.179-0.381c0.238-0.192,0.463-0.416,0.691-0.627
		c0.33-0.302,0.769-0.421,1.095-0.724c0.021-0.019,0.059-0.028,0.089-0.025c0.451,0.055,0.865-0.07,1.269-0.258
		c0.036-0.017,0.083-0.02,0.123-0.014c0.253,0.033,0.496-0.026,0.742-0.077c0.239-0.051,0.477-0.035,0.697,0.095
		c0.203,0.118,0.424,0.157,0.659,0.166c0.29,0.011,0.613,0.056,0.826,0.22c0.401,0.308,0.868,0.487,1.275,0.776
		c0.497,0.354,1.066,0.616,1.4,1.171c0.032,0.054,0.083,0.099,0.135,0.132c0.338,0.207,0.578,0.521,0.798,0.835
		c0.327,0.464,0.834,0.805,0.954,1.415c0.01,0.047,0.044,0.1,0.084,0.131c0.211,0.171,0.256,0.43,0.335,0.664
		c0.047,0.139,0.047,0.292,0.08,0.436c0.136,0.566,0.484,0.932,1.041,1.066c0.558,0.134,1.045-0.034,1.392-0.494
		c0.161-0.213,0.358-0.341,0.572-0.467c0.149-0.087,0.326-0.053,0.485-0.112c0.39-0.143,0.798-0.091,1.201-0.104
		c0.378-0.012,0.689,0.223,1.045,0.296c0.133,0.029,0.241,0.108,0.356,0.185c0.338,0.224,0.635,0.519,1.036,0.638
		c0.093,0.027,0.155,0.092,0.204,0.182c0.225,0.408,0.49,0.784,0.847,1.088c0.06,0.052,0.089,0.109,0.097,0.188
		c0.027,0.259,0.131,0.488,0.291,0.69c0.046,0.059,0.1,0.116,0.053,0.196c-0.222,0.381-0.175,0.821-0.263,1.23
		c-0.104,0.496-0.127,1.002,0.058,1.5c0.169,0.452,0.466,0.735,0.916,0.876c0.432,0.135,0.815-0.025,1.213-0.157
		c0.761-0.255,1.528-0.514,2.313-0.075c0.019,0.01,0.04,0.013,0.059,0.021c0.562,0.212,1.125,0.409,1.579,0.848
		c0.237,0.229,0.454,0.497,0.764,0.647c0.042,0.021,0.071,0.076,0.097,0.119c0.088,0.149,0.203,0.279,0.319,0.407h0.753
		c-0.089-0.157-0.18-0.312-0.329-0.424c-0.009-0.006-0.017-0.013-0.021-0.022c-0.362-0.539-0.921-0.872-1.343-1.348
		c-0.15-0.169-0.372-0.182-0.55-0.294c-0.405-0.261-0.872-0.396-1.313-0.57c-0.34-0.135-0.743-0.039-1.119-0.033
		c-0.626,0.01-1.245,0.085-1.818,0.37c-0.179,0.089-0.337,0.046-0.498-0.048c-0.507-0.299-0.719-0.899-0.649-1.488
		c0.073-0.637,0.354-1.241,0.271-1.898c-0.015-0.127-0.023-0.237-0.108-0.348c-0.132-0.175-0.23-0.378-0.249-0.607
		c-0.007-0.074-0.017-0.141-0.082-0.195c-0.367-0.306-0.639-0.692-0.867-1.11c-0.049-0.094-0.118-0.146-0.208-0.174
		c-0.389-0.12-0.681-0.404-1.009-0.623c-0.134-0.089-0.272-0.146-0.413-0.213c-0.902-0.425-1.857-0.312-2.796-0.237
		c-0.359,0.028-0.74,0.116-1.057,0.346c-0.051,0.037-0.103,0.07-0.138,0.123c-0.029,0.044-0.052,0.093-0.087,0.133
		c-0.575,0.643-0.841,0.664-1.433-0.074c-0.132-0.166-0.195-0.375-0.22-0.588c-0.045-0.372-0.14-0.72-0.398-1.003
		c-0.048-0.054-0.099-0.12-0.115-0.188c-0.159-0.664-0.736-1.028-1.083-1.558c-0.271-0.413-0.699-0.677-1.009-1.066
		c-0.304-0.38-0.781-0.578-1.179-0.86c-0.392-0.277-0.837-0.45-1.224-0.742c-0.23-0.174-0.573-0.229-0.887-0.235
		c-0.192-0.002-0.379-0.027-0.542-0.126c-0.206-0.127-0.43-0.137-0.66-0.155c-0.587-0.048-1.16,0.104-1.744,0.099
		c-0.074-0.001-0.141,0.031-0.207,0.062c-0.307,0.143-0.626,0.233-0.968,0.205c-0.166-0.015-0.303,0.028-0.432,0.138
		c-0.177,0.149-0.389,0.244-0.582,0.368c-0.312,0.201-0.623,0.412-0.863,0.706c-0.129,0.157-0.273,0.292-0.458,0.376
		c-0.095,0.043-0.19,0.086-0.29,0.117c-0.18,0.061-0.328,0.237-0.551,0.146c-0.31-0.125-0.6-0.294-0.741-0.601
		c-0.379-0.816-1.084-1.335-1.717-1.896c-0.488-0.434-1.107-0.671-1.809-0.64c-0.48,0.021-0.966-0.092-1.452-0.116
		c-0.679-0.034-1.355-0.012-2.031-0.026c-0.513-0.011-0.979,0.254-1.501,0.219c-0.209-0.015-0.433,0.145-0.629,0.247
		c-0.411,0.215-0.837,0.4-1.212,0.7c-0.353,0.281-0.636,0.632-0.99,0.907c-0.049,0.037-0.096,0.089-0.118,0.145
		c-0.178,0.437-0.551,0.712-0.834,1.059c-0.265,0.323-0.431,0.315-0.719,0.014c-0.282-0.295-0.564-0.593-0.772-0.951
		c-0.021-0.036-0.041-0.081-0.072-0.103c-0.428-0.265-0.691-0.698-1.048-1.038c-0.094-0.091-0.198-0.149-0.316-0.198
		c-0.163-0.068-0.328-0.135-0.484-0.219c-0.704-0.378-1.463-0.572-2.241-0.72c-0.402-0.076-0.806-0.138-1.208-0.091
		c-0.761,0.089-1.537,0.068-2.283,0.285c-0.089,0.026-0.188,0.06-0.274,0.048c-0.384-0.056-0.687,0.111-0.966,0.341
		c-0.302,0.25-0.718,0.294-1.001,0.573c-0.396,0.389-0.876,0.666-1.285,1.033c-0.104,0.093-0.106,0.225-0.126,0.35
		c-0.078,0.501-0.244,0.959-0.631,1.311c-0.33,0.3-0.462,0.309-0.816,0.05c-0.146-0.107-0.287-0.233-0.347-0.4
		c-0.148-0.42-0.475-0.744-0.603-1.173c-0.022-0.07-0.06-0.134-0.129-0.174c-0.469-0.273-0.809-0.687-1.134-1.112
		c-0.068-0.087-0.138-0.113-0.231-0.129c-0.261-0.043-0.487-0.163-0.711-0.308c-0.263-0.169-0.568-0.256-0.872-0.333
		c-0.15-0.037-0.31-0.049-0.456-0.101c-0.266-0.092-0.528-0.176-0.812-0.205c-0.145-0.015-1.975-0.162-2.21-0.158
		c-0.364,0.007-0.73-0.003-1.095-0.001c-0.422,0.002-0.819,0.078-1.172,0.342c-0.191,0.145-0.424,0.225-0.636,0.335
		c-0.393,0.206-0.782,0.427-1.084,0.771c-0.186,0.213-0.362,0.438-0.632,0.559c-0.044,0.019-0.098,0.058-0.113,0.1
		c-0.141,0.363-0.437,0.64-0.531,1.035c-0.087,0.364-0.349,0.616-0.669,0.801c-0.131,0.076-0.247,0.073-0.384,0.014
		c-0.389-0.166-0.664-0.474-0.93-0.779c-0.183-0.208-0.377-0.393-0.588-0.563c-0.189-0.152-0.368-0.31-0.507-0.512
		c-0.113-0.163-0.282-0.244-0.467-0.3c-0.314-0.093-0.602-0.231-0.838-0.47c-0.106-0.108-0.247-0.156-0.4-0.146
		c-0.213,0.016-0.412-0.029-0.609-0.108c-0.176-0.068-0.36-0.093-0.551-0.089c-0.574,0.009-1.147-0.019-1.72,0.007
		c-0.301,0.014-0.593,0.021-0.893,0.101c-0.314,0.083-0.646,0.098-0.965,0.204c-0.196,0.064-0.397,0.105-0.58,0.21
		c-0.196,0.111-0.461,0.004-0.628,0.127c-0.161,0.119-0.263,0.342-0.461,0.412c-0.55,0.198-0.901,0.665-1.354,0.992
		c-0.148,0.109-0.236,0.276-0.312,0.432c-0.235,0.477-0.527,0.926-0.691,1.438c-0.009,0.029-0.017,0.063-0.014,0.094
		c0.065,0.572-0.131,1.131-0.098,1.701c0.022,0.389-0.156,0.67-0.443,0.894c-0.478,0.372-0.548,0.391-1.01-0.005
		c-0.337-0.289-0.764-0.369-1.126-0.596c-0.425-0.268-0.961-0.258-1.378-0.554c-0.053-0.036-0.143-0.022-0.214-0.024
		c-0.499-0.006-0.988,0.044-1.485,0.124c-0.481,0.078-0.904,0.237-1.345,0.423c-0.455,0.19-0.935,0.286-1.266,0.706
		c-0.104,0.13-0.299,0.186-0.451,0.277c-0.269,0.162-0.516,0.346-0.658,0.644c-0.017,0.036-0.051,0.068-0.086,0.09
		c-0.651,0.43-0.715,1.123-0.798,1.813c-0.088,0.74,0.023,1.474,0.034,2.212c0.001,0.011,0.004,0.021,0.005,0.031
		c0.007,0.244-0.557,1.073-0.773,1.14c-0.065,0.019-0.125,0.008-0.178-0.029c-0.094-0.066-0.195-0.126-0.274-0.208
		c-0.768-0.79-1.72-1.107-2.786-1.138c-0.376-0.011-0.735-0.007-1.086,0.196c-0.256,0.148-0.578,0.151-0.85,0.298
		c-0.172,0.093-0.321,0.195-0.435,0.347c-0.275,0.37-0.545,0.746-0.818,1.119c-0.116,0.158-0.164,0.33-0.162,0.531
		c0.004,0.49,0.018,0.976,0.122,1.457h0.527C25.974,85.828,25.945,85.802,25.938,85.762z"/>
</g>
</svg>
