<?xml version="1.0" encoding="utf-8"?>
<!-- Generator: Adobe Illustrator 16.0.0, SVG Export Plug-In . SVG Version: 6.00 Build 0)  -->
<!DOCTYPE svg PUBLIC "-//W3C//DTD SVG 1.1//EN" "http://www.w3.org/Graphics/SVG/1.1/DTD/svg11.dtd">
<svg version="1.1" id="Layer_1" xmlns="http://www.w3.org/2000/svg" xmlns:xlink="http://www.w3.org/1999/xlink" x="0px" y="0px"
	 width="150px" height="150px" viewBox="0 0 150 150" enable-background="new 0 0 150 150" xml:space="preserve">
<g>
	<path fill="#FAA7BD" d="M111.188,60.398c-0.002-0.275-0.008-0.551,0.004-0.826c0.016-0.373-0.023-0.729-0.17-1.08
		c-0.119-0.281-0.135-0.596-0.141-0.902c-0.006-0.221,0.074-0.494-0.023-0.658c-0.307-0.508-0.146-1.123-0.434-1.633
		c-0.123-0.219-0.121-0.508-0.174-0.764c-0.006-0.031,0.006-0.066-0.004-0.096c-0.184-0.499-0.258-1.033-0.473-1.524
		c-0.135-0.307-0.25-0.621-0.383-0.929c-0.17-0.392-0.393-0.744-0.629-1.09c-0.109-0.157-0.213-0.311-0.26-0.5
		c-0.021-0.091-0.031-0.205-0.092-0.267c-0.389-0.401-0.543-0.97-0.941-1.359c-0.186-0.184-0.254-0.434-0.402-0.64
		c-0.15-0.218-0.291-0.438-0.516-0.586c-0.035-0.022-0.08-0.049-0.09-0.084c-0.18-0.523-0.686-0.823-0.887-1.332
		c-0.045-0.111-0.125-0.207-0.223-0.26c-0.273-0.144-0.445-0.372-0.59-0.634c-0.035-0.063-0.076-0.135-0.133-0.173
		c-0.635-0.426-1.094-1.061-1.725-1.488c-0.555-0.373-1.062-0.803-1.502-1.306c-0.299-0.342-0.604-0.67-0.986-0.913
		c-0.016-0.013-0.027-0.034-0.047-0.042c-0.447-0.182-0.793-0.531-1.215-0.755c-0.254-0.134-0.457-0.337-0.656-0.53
		c-0.529-0.514-1.166-0.809-1.854-0.995c-0.279-0.076-0.516-0.159-0.713-0.385c-0.18-0.2-0.436-0.292-0.703-0.306
		c-0.174-0.009-0.311-0.076-0.459-0.159c-0.43-0.241-0.879-0.416-1.387-0.36c-0.307,0.033-0.607-0.006-0.865-0.196
		c-0.445-0.326-0.949-0.503-1.48-0.624c-0.316-0.072-0.365-0.156-0.379-0.478c-0.012-0.37,0.096-0.733,0.068-1.104
		c-0.01-0.126,0.09-0.213,0.152-0.306c0.191-0.277,0.297-0.575,0.281-0.919c-0.018-0.364,0.059-0.713,0.205-1.046
		c0.057-0.126,0.113-0.255,0.1-0.396c-0.027-0.343,0.027-0.675,0.141-0.995c0.154-0.435,0.107-0.896,0.174-1.344
		c0.078-0.509,0.129-1.021,0.178-1.535c0.021-0.23,0.025-0.465,0.014-0.696c-0.027-0.624-0.029-1.257,0.08-1.863
		c0.08-0.434,0.041-0.885,0.195-1.305c0.014-0.039,0.033-0.084,0.025-0.123c-0.084-0.516-0.088-1.024,0.066-1.532
		c0.047-0.155,0.018-0.335-0.016-0.503c-0.057-0.283-0.049-0.566-0.004-0.851c0.014-0.095,0.021-0.188,0.029-0.282
		c0.051-0.633-0.139-1.229-0.293-1.826c-0.045-0.176-0.09-0.345-0.082-0.527c0.031-0.732-0.088-1.431-0.475-2.065
		c-0.049-0.079-0.08-0.168-0.088-0.268c-0.043-0.549-0.285-1.008-0.639-1.41c-0.107-0.123-0.174-0.255-0.23-0.404
		c-0.156-0.415-0.332-0.839-0.664-1.133c-0.354-0.31-0.701-0.624-1.057-0.935c-0.314-0.274-0.742-0.309-1.133-0.412
		c-0.193-0.051-0.377-0.103-0.545-0.221c-0.295-0.209-0.613-0.319-0.969-0.143c-0.117,0.061-0.244,0.042-0.369,0.043
		c-0.209,0-0.422-0.009-0.617,0.067c-0.734,0.285-1.508,0.483-2.062,1.122c-0.398,0.458-0.932,0.763-1.359,1.191
		c-0.158,0.156-0.314,0.315-0.416,0.513c-0.211,0.412-0.582,0.719-0.713,1.183c-0.166,0.587-0.367,1.163-0.648,1.707
		c-0.051,0.098-0.035,0.207-0.037,0.312c-0.002,0.096,0.008,0.193-0.045,0.277c-0.154,0.242-0.188,0.498-0.148,0.781
		c0.031,0.242,0.002,0.474-0.148,0.695c-0.096,0.141-0.146,0.327-0.15,0.51c-0.01,0.338-0.008,0.67-0.115,1.002
		c-0.07,0.229,0.07,0.475,0.047,0.721c-0.014,0.158-0.014,0.312-0.088,0.461c-0.08,0.161-0.109,0.338-0.104,0.523
		c0.023,0.515-0.018,1.027,0.104,1.543c0.07,0.293,0.084,0.631-0.068,0.933c-0.045,0.087-0.027,0.188-0.027,0.282
		c-0.002,0.435,0.014,0.868-0.01,1.302c-0.023,0.485-0.055,0.967-0.057,1.452c-0.002,0.298,0.072,0.586,0.064,0.883
		c-0.006,0.288-0.033,0.571-0.09,0.848c-0.037,0.186-0.041,0.354,0.027,0.525c0.047,0.12,0.062,0.243,0.061,0.372
		c-0.002,0.52,0.002,1.038-0.002,1.558c-0.004,0.378-0.074,0.465-0.434,0.446c-0.506-0.027-1.012,0.004-1.518,0.002
		c-0.104-0.001-0.205-0.004-0.311-0.029c-0.236-0.058-0.475-0.051-0.711,0.013c-0.477,0.126-0.943,0.11-1.407-0.07
		c-0.21-0.082-0.44-0.062-0.65-0.024c-0.271,0.047-0.538,0.041-0.809,0.044c-0.373,0.005-0.734,0.014-1.103,0.148
		c-0.371,0.133-0.787,0.086-1.174,0.012c-0.163-0.033-0.406,0.067-0.483-0.132c-0.092-0.233-0.09-0.514-0.008-0.749
		c0.148-0.43,0.114-0.874,0.171-1.311c0.079-0.631-0.017-1.266,0.1-1.894c0.043-0.233,0.011-0.482-0.019-0.726
		c-0.046-0.385-0.091-0.773,0.065-1.154c0.08-0.193,0.103-0.405,0.096-0.622c-0.024-0.718,0.06-1.429,0.112-2.145
		c0.024-0.343,0.045-0.694-0.03-1.042c-0.043-0.197-0.068-0.417-0.003-0.598c0.155-0.43,0.06-0.883,0.161-1.314
		c0.039-0.17,0.023-0.355-0.044-0.531c-0.118-0.316-0.072-0.642-0.045-0.969c0.034-0.438,0.128-0.884-0.112-1.3
		c-0.062-0.106-0.055-0.228-0.045-0.341c0.035-0.415,0.021-0.854-0.094-1.225c-0.227-0.737-0.218-1.522-0.51-2.241
		c-0.075-0.186-0.154-0.363-0.278-0.524c-0.187-0.24-0.405-0.455-0.522-0.747c-0.028-0.074-0.096-0.151-0.165-0.185
		c-0.346-0.163-0.533-0.494-0.792-0.75c-0.106-0.105-0.216-0.204-0.365-0.235c-0.473-0.101-0.89-0.35-1.34-0.513
		c-0.294-0.107-0.598-0.07-0.893-0.108c-0.797-0.103-1.562,0.067-2.173,0.615c-0.464,0.415-0.968,0.751-1.502,1.05
		c-0.297,0.166-0.459,0.435-0.531,0.749c-0.049,0.204-0.143,0.339-0.319,0.434c-0.225,0.12-0.369,0.314-0.432,0.559
		c-0.113,0.445-0.433,0.761-0.68,1.116c-0.165,0.238-0.327,0.472-0.385,0.751c-0.047,0.235-0.154,0.432-0.271,0.629
		c-0.17,0.287-0.285,0.589-0.268,0.929c0.009,0.144-0.021,0.264-0.128,0.373c-0.186,0.188-0.267,0.42-0.251,0.691
		c0.021,0.308-0.005,0.598-0.181,0.877c-0.133,0.21-0.178,0.471-0.195,0.727c-0.005,0.073-0.008,0.151-0.033,0.219
		c-0.171,0.457-0.157,0.934-0.148,1.407c0.006,0.352-0.028,0.698-0.129,1.031c-0.076,0.257-0.073,0.525-0.098,0.782
		c-0.086,0.943-0.318,1.881-0.205,2.833c0.071,0.603,0.035,1.202,0.062,1.804c0.012,0.282,0.063,0.564,0.053,0.85
		c-0.008,0.19,0.008,0.379-0.051,0.566c-0.037,0.12-0.039,0.261,0.01,0.376c0.127,0.294,0.12,0.602,0.101,0.905
		c-0.031,0.447,0.098,0.882,0.071,1.326c-0.011,0.189,0.008,0.379-0.053,0.565c-0.035,0.11-0.039,0.24,0.016,0.343
		c0.135,0.25,0.082,0.517,0.098,0.777c0.013,0.194-0.093,0.295-0.251,0.355c-0.517,0.194-1.01,0.432-1.438,0.793
		c-0.068,0.058-0.141,0.138-0.245,0.13c-0.383-0.024-0.729,0.163-1.1,0.203c-0.072,0.007-0.146,0.028-0.21,0.061
		c-0.568,0.287-1.194,0.444-1.746,0.743c-0.424,0.229-0.895,0.404-1.242,0.769c-0.092,0.095-0.216,0.115-0.339,0.148
		c-0.539,0.144-1.037,0.371-1.442,0.775c-0.029,0.029-0.06,0.07-0.097,0.079c-0.482,0.107-0.825,0.471-1.244,0.694
		c-0.232,0.123-0.472,0.246-0.647,0.436c-0.473,0.505-1.058,0.851-1.622,1.227c-0.174,0.117-0.354,0.224-0.456,0.42
		c-0.019,0.037-0.049,0.074-0.084,0.093c-0.387,0.213-0.694,0.522-0.994,0.841c-0.065,0.068-0.148,0.117-0.212,0.187
		c-0.57,0.64-1.196,1.227-1.737,1.895c-0.085,0.105-0.188,0.196-0.304,0.272c-0.142,0.091-0.251,0.22-0.355,0.352
		c-0.494,0.627-0.955,1.274-1.516,1.849c-0.345,0.353-0.692,0.719-0.861,1.227c-0.095,0.289-0.386,0.485-0.552,0.759
		c-0.119,0.197-0.212,0.409-0.33,0.604c-0.258,0.426-0.5,0.854-0.706,1.312c-0.118,0.261-0.312,0.489-0.369,0.787
		c-0.024,0.127-0.087,0.238-0.16,0.341c-0.082,0.114-0.142,0.237-0.17,0.371c-0.128,0.61-0.391,1.176-0.594,1.758
		c-0.221,0.641-0.404,1.281-0.534,1.941c-0.085,0.43-0.113,0.873-0.164,1.312c-0.006,0.043,0.009,0.094-0.01,0.125
		c-0.209,0.365-0.107,0.76-0.114,1.145c-0.004,0.201-0.013,0.398-0.061,0.596c-0.126,0.49-0.067,0.988-0.042,1.482
		c0.021,0.355,0.113,0.709,0.095,1.068c-0.015,0.297,0.067,0.561,0.217,0.811c0.056,0.09,0.116,0.18,0.105,0.293
		c-0.043,0.434,0.149,0.826,0.203,1.244c0.018,0.131,0.056,0.283,0.16,0.373c0.19,0.164,0.214,0.371,0.203,0.6
		c-0.023,0.424,0.125,0.791,0.403,1.098c0.105,0.119,0.169,0.236,0.158,0.396c-0.01,0.119,0.025,0.24,0.08,0.336
		c0.209,0.354,0.317,0.754,0.533,1.105c0.055,0.088,0.096,0.188,0.13,0.287c0.097,0.277,0.259,0.504,0.495,0.676
		c0.217,0.156,0.399,0.344,0.491,0.602c0.155,0.436,0.511,0.74,0.716,1.145c0.069,0.135,0.204,0.236,0.347,0.314
		c0.384,0.211,0.701,0.49,0.888,0.904c0.025,0.057,0.06,0.115,0.106,0.154c0.469,0.396,0.856,0.896,1.434,1.156
		c0.056,0.027,0.122,0.051,0.159,0.098c0.598,0.707,1.435,1.062,2.188,1.535c0.143,0.09,0.282,0.182,0.425,0.27
		c0.269,0.164,0.544,0.291,0.87,0.318c0.267,0.023,0.527,0.109,0.743,0.297c0.271,0.236,0.583,0.35,0.949,0.334
		c0.435-0.021,0.784,0.25,1.172,0.391c0.073,0.025,0.105,0.102,0.104,0.18c-0.008,0.264,0.015,0.527-0.023,0.791
		c-0.044,0.291-0.082,0.586-0.098,0.879c-0.018,0.336-0.034,0.66-0.118,0.996c-0.124,0.494-0.143,1.018-0.198,1.529
		c-0.017,0.135-0.002,0.275-0.002,0.412c-0.004,0.654-0.28,0.852-0.891,0.611c-0.365-0.143-0.749-0.154-1.125-0.223
		c-0.729-0.137-1.452-0.008-2.164,0.045c-0.677,0.049-1.39,0.057-2.034,0.363c-0.122,0.059-0.257,0.1-0.352,0.203
		c-0.211,0.223-0.458,0.404-0.709,0.568c-0.365,0.234-0.467,0.637-0.656,0.979c-0.09,0.168,0.048,0.326,0.187,0.432
		c0.141,0.107,0.308,0.164,0.456,0.02c0.234-0.229,0.548-0.342,0.779-0.578c0.143-0.146,0.371-0.119,0.552-0.201
		c0.265-0.123,0.538-0.229,0.801-0.357c0.203-0.1,0.414-0.117,0.635-0.125c0.403-0.008,0.79-0.17,1.204-0.129
		c0.217,0.02,0.435,0.031,0.647,0.086c0.07,0.018,0.144,0.053,0.212,0.047c0.471-0.053,0.899,0.135,1.346,0.221
		c0.279,0.051,0.551,0.096,0.791,0.258c0.561,0.377,0.96,0.889,1.237,1.506c0.139,0.311,0.355,0.541,0.661,0.688
		c0.099,0.049,0.192,0.076,0.298,0.025c0.271-0.135,0.543-0.262,0.774-0.469c0.427-0.385,0.844-0.793,1.363-1.045
		c0.298-0.145,0.605-0.277,0.931-0.357c0.13-0.031,0.265-0.061,0.372-0.15c0.241-0.199,0.518-0.25,0.82-0.234
		c0.56,0.029,1.129-0.068,1.683,0.066c0.553,0.133,1.118,0.24,1.609,0.562c0.044,0.029,0.11,0.053,0.122,0.094
		c0.174,0.555,0.813,0.824,0.868,1.463c0.015,0.18,0.157,0.35,0.305,0.467c0.229,0.182,0.467,0.354,0.716,0.506
		c0.19,0.115,0.405,0.061,0.603-0.176c0.258-0.311,0.624-0.521,0.771-0.938c0.058-0.162,0.259-0.25,0.424-0.307
		c0.332-0.113,0.611-0.316,0.898-0.504c0.433-0.285,0.907-0.4,1.415-0.404c0.539-0.006,1.09-0.049,1.607,0.133
		c0.678,0.242,1.397,0.438,1.78,1.154c0.015,0.029,0.029,0.062,0.052,0.08c0.297,0.229,0.486,0.529,0.625,0.881
		c0.065,0.164,0.222,0.281,0.367,0.383c0.272,0.191,0.606,0.111,0.882-0.215c0.175-0.207,0.327-0.43,0.52-0.627
		c0.184-0.186,0.351-0.389,0.568-0.535c0.354-0.238,0.688-0.537,1.074-0.695c0.666-0.27,1.327-0.588,2.095-0.508
		c0.472,0.049,0.953-0.002,1.431,0.072c0.275,0.043,0.518,0.16,0.746,0.305c0.172,0.111,0.35,0.201,0.551,0.199
		c0.176-0.002,0.293,0.066,0.406,0.191c0.141,0.154,0.283,0.309,0.465,0.422c0.117,0.072,0.184,0.195,0.25,0.318
		c0.285,0.529,0.748,0.842,1.297,1.018c0.223,0.068,0.434-0.053,0.596-0.205c0.172-0.158,0.34-0.314,0.539-0.432
		c0.018-0.01,0.039-0.023,0.047-0.041c0.188-0.359,0.547-0.529,0.834-0.781c0.221-0.191,0.494-0.316,0.682-0.549
		c0.041-0.053,0.111-0.049,0.172-0.062c0.307-0.07,0.604-0.162,0.887-0.303c0.074-0.037,0.146-0.082,0.234-0.076
		c0.521,0.041,1.039-0.094,1.559-0.059c0.33,0.021,0.639,0.178,0.971,0.207c0.02,0.004,0.041,0.021,0.059,0.02
		c0.746-0.076,1.291,0.404,1.857,0.752c0.453,0.279,0.828,0.711,0.996,1.262c0.072,0.227,0.186,0.428,0.363,0.582
		c0.459,0.4,0.795,0.367,1.227-0.139c0.287-0.342,0.375-0.797,0.457-1.232c0.021-0.121,0.055-0.217,0.143-0.303
		c0.227-0.223,0.395-0.52,0.762-0.547c0.082-0.008,0.18-0.082,0.234-0.152c0.23-0.305,0.566-0.389,0.9-0.51
		c0.32-0.115,0.635-0.252,0.955-0.369c0.295-0.105,0.582-0.129,0.885-0.152c0.752-0.057,1.49,0.098,2.238,0.129
		c0.131,0.004,0.203,0.092,0.291,0.162c0.281,0.232,0.543,0.461,0.676,0.838c0.125,0.354,0.354,0.668,0.537,1
		c0.051,0.094,0.123,0.166,0.211,0.229c0.43,0.312,0.832,0.252,1.168-0.164c0.338-0.416,0.68-0.824,0.98-1.27
		c0.139-0.207,0.365-0.324,0.564-0.441c0.355-0.215,0.658-0.559,1.125-0.555c0.178,0.002,0.32-0.139,0.496-0.186
		c0.682-0.176,1.348-0.127,2.031,0.02c0.672,0.145,1.27,0.447,1.887,0.715c0.309,0.133,0.666,0.006,0.893-0.301
		c0.238-0.326,0.232-0.6-0.027-0.918c-0.227-0.277-0.527-0.453-0.852-0.572c-0.244-0.094-0.484-0.189-0.717-0.311
		c-0.178-0.094-0.371-0.139-0.568-0.152c-0.043-0.002-0.088,0.008-0.125-0.008c-0.711-0.283-1.438-0.135-2.148-0.043
		c-0.479,0.061-1.006,0.09-1.377,0.502c-0.021,0.021-0.053,0.043-0.082,0.047c-0.711,0.123-1.271,0.553-1.84,0.953
		c-0.293,0.207-0.598,0.127-0.902,0.133c-0.064,0-0.117-0.057-0.146-0.111c-0.18-0.32-0.486-0.488-0.783-0.662
		c-0.146-0.084-0.211-0.18-0.203-0.35c0.012-0.242-0.016-0.484,0.109-0.711c0.064-0.119,0.061-0.254,0.029-0.398
		c-0.082-0.371-0.094-0.754-0.078-1.135c0.008-0.186-0.014-0.369-0.111-0.52c-0.131-0.199-0.135-0.408-0.143-0.631
		c-0.023-0.615,0.092-1.223,0.066-1.836c-0.008-0.203,0.16-0.396,0.391-0.424c0.459-0.061,0.873-0.273,1.314-0.389
		c0.08-0.021,0.17-0.047,0.229-0.1c0.342-0.305,0.76-0.471,1.166-0.637c0.416-0.172,0.805-0.391,1.217-0.568
		c0.566-0.246,1.107-0.537,1.543-0.99c0.045-0.047,0.082-0.113,0.137-0.131c0.395-0.146,0.602-0.508,0.881-0.785
		c0.021-0.021,0.041-0.053,0.066-0.064c0.523-0.232,0.91-0.66,1.369-0.979c0.193-0.133,0.391-0.26,0.486-0.479
		c0.117-0.262,0.305-0.479,0.439-0.727c0.08-0.148,0.188-0.271,0.332-0.371c0.227-0.156,0.402-0.373,0.518-0.625
		c0.146-0.314,0.357-0.596,0.465-0.932c0.025-0.082,0.08-0.146,0.141-0.207c0.375-0.371,0.59-0.824,0.717-1.344
		c0.074-0.299,0.166-0.609,0.336-0.881c0.16-0.254,0.227-0.543,0.27-0.836c0.035-0.229,0.049-0.461,0.182-0.662
		c0.01-0.018,0.016-0.039,0.018-0.061c0.09-0.701,0.48-1.316,0.568-2.02c0.021-0.158,0.01-0.322,0.051-0.469
		c0.166-0.572-0.008-1.139-0.006-1.705c0.002-0.371,0.113-0.721,0.191-1.076c0-0.041,0-0.086,0-0.127
		C111.16,60.613,111.189,60.502,111.188,60.398z"/>
	<g>
		<path fill-rule="evenodd" clip-rule="evenodd" fill="#280D09" d="M92.748,22.923c-0.043-0.261-0.053-0.521-0.031-0.788
			c0.025-0.304,0.025-0.61,0.066-0.914c0.029-0.189-0.014-0.377-0.068-0.562c-0.199-0.663-0.371-1.333-0.377-2.034
			c-0.002-0.551-0.123-1.069-0.414-1.539c-0.055-0.089-0.109-0.179-0.117-0.29c-0.049-0.581-0.295-1.071-0.666-1.506
			c-0.062-0.07-0.146-0.143-0.164-0.228c-0.059-0.287-0.219-0.521-0.354-0.771c-0.398-0.741-1.125-1.131-1.721-1.661
			c-0.08-0.071-0.209-0.097-0.32-0.119c-0.277-0.053-0.57-0.079-0.814-0.215c-0.797-0.436-1.963-0.252-2.123-0.263
			c-0.754-0.054-1.387,0.331-2.061,0.571c-0.113,0.039-0.227,0.12-0.309,0.209c-0.318,0.335-0.693,0.602-1.018,0.932
			c-0.244,0.248-0.564,0.424-0.816,0.681c-0.102,0.104-0.215,0.202-0.293,0.328c-0.316,0.504-0.734,0.945-0.932,1.526
			c-0.1,0.298-0.17,0.605-0.289,0.901c-0.068,0.166-0.172,0.316-0.221,0.484c-0.146,0.502-0.33,1.005-0.385,1.519
			c-0.035,0.342-0.016,0.677-0.18,0.994c-0.045,0.089-0.047,0.205-0.055,0.31c-0.021,0.326-0.008,0.655-0.125,0.97
			c-0.012,0.028-0.018,0.062-0.014,0.093c0.086,0.82-0.219,1.621-0.129,2.441c0.008,0.072,0.002,0.149-0.014,0.22
			c-0.061,0.276-0.049,0.547,0.045,0.812c0.07,0.206,0.096,0.411,0.008,0.619c-0.02,0.048-0.033,0.104-0.031,0.154
			c0.027,0.518-0.059,1.031-0.039,1.547c0.006,0.148,0.018,0.289-0.029,0.434c-0.059,0.184-0.076,0.38-0.029,0.564
			c0.066,0.254,0.049,0.5,0.002,0.753c-0.018,0.092-0.031,0.196-0.006,0.283c0.135,0.456,0.023,0.903-0.043,1.35
			c-0.027,0.203-0.051,0.408,0.021,0.596c0.209,0.554,0.008,1.129,0.105,1.689c0.035,0.197-0.096,0.272-0.297,0.204
			c-0.289-0.097-0.574-0.106-0.861-0.008c-0.145,0.051-0.293,0.047-0.43,0.001c-0.426-0.144-0.848-0.071-1.262,0.023
			c-0.277,0.062-0.535,0.054-0.795-0.056c-0.186-0.078-0.381-0.076-0.583-0.081c-0.55-0.008-1.096,0.092-1.646,0.042
			c-0.244-0.021-0.482-0.008-0.703,0.104c-0.313,0.158-0.629,0.204-0.966,0.077c-0.093-0.035-0.201-0.037-0.304-0.054
			c0.244-0.953,0.204-1.923,0.215-2.887c0-0.042-0.009-0.089,0.004-0.126c0.199-0.595,0.063-1.192,0.014-1.788
			c-0.01-0.124,0.039-0.229,0.08-0.335c0.142-0.362,0.188-0.734,0.132-1.121c-0.028-0.198-0.028-0.396,0.03-0.594
			c0.029-0.099,0.033-0.21,0.026-0.314c-0.021-0.297-0.028-0.587,0.072-0.876c0.04-0.115,0.053-0.256,0.03-0.376
			c-0.069-0.366-0.014-0.738-0.075-1.103c-0.01-0.062-0.03-0.126-0.004-0.188c0.188-0.43,0.09-0.896,0.166-1.342
			c0.064-0.372,0.062-0.761-0.105-1.123c-0.017-0.037-0.042-0.088-0.029-0.12c0.128-0.324,0.015-0.671,0.087-1.003
			c0.07-0.328,0.021-0.653-0.137-0.955c-0.043-0.085-0.107-0.166-0.096-0.265c0.055-0.425-0.067-0.839-0.065-1.26
			c0-0.173-0.014-0.345-0.084-0.497c-0.148-0.325-0.162-0.672-0.218-1.016c-0.094-0.6-0.31-1.134-0.689-1.633
			c-0.325-0.427-0.682-0.801-1.051-1.181c-0.312-0.318-0.609-0.594-1.06-0.675c-0.147-0.024-0.285-0.119-0.426-0.188
			c-0.439-0.209-0.906-0.294-1.389-0.326c-0.114-0.007-1.386,0.082-1.558,0.078c-0.52-0.011-0.934,0.233-1.289,0.563
			c-0.435,0.401-0.924,0.712-1.431,0.997c-0.349,0.196-0.581,0.488-0.661,0.881c-0.034,0.163-0.104,0.258-0.239,0.337
			c-0.253,0.147-0.454,0.364-0.52,0.649c-0.103,0.435-0.412,0.728-0.652,1.062c-0.189,0.263-0.353,0.524-0.409,0.841
			c-0.029,0.151-0.088,0.277-0.163,0.404c-0.222,0.374-0.428,0.755-0.38,1.215c0.01,0.096-0.042,0.158-0.095,0.224
			c-0.271,0.329-0.367,0.707-0.298,1.127c0.017,0.104-0.007,0.183-0.056,0.269c-0.195,0.346-0.256,0.729-0.334,1.114
			c-0.083,0.403-0.107,0.812-0.159,1.217c-0.032,0.257,0.049,0.508-0.01,0.754c-0.179,0.751-0.181,1.526-0.316,2.283
			c-0.05,0.277-0.119,0.558-0.114,0.847c0.014,0.674-0.016,1.347,0.073,2.022c0.032,0.248,0.076,0.523,0.002,0.785
			c-0.066,0.229-0.058,0.458-0.009,0.689c0.045,0.218,0.077,0.44,0.022,0.66c-0.101,0.402-0.083,0.795,0.055,1.186
			c0.039,0.108,0.067,0.22,0.038,0.341c-0.057,0.23-0.023,0.46-0.002,0.693c0.034,0.372,0.125,0.736,0.031,1.126
			c-0.073,0.301-0.067,0.64,0.06,0.938c0.091,0.215,0.034,0.284-0.17,0.35c-0.686,0.219-1.349,0.5-1.986,0.835
			c-0.463,0.242-0.97,0.364-1.442,0.589c-0.589,0.277-1.238,0.419-1.775,0.82c-0.041,0.031-0.089,0.055-0.137,0.077
			c-0.51,0.243-0.979,0.559-1.526,0.746c-0.582,0.199-1.008,0.728-1.609,0.923c-0.093,0.03-0.168,0.124-0.243,0.196
			c-0.061,0.059-0.116,0.118-0.2,0.147c-0.354,0.122-0.649,0.348-0.906,0.606c-0.456,0.46-1.018,0.764-1.53,1.143
			c-0.405,0.3-0.741,0.69-1.167,0.971c-0.112,0.073-0.138,0.24-0.26,0.311c-0.408,0.233-0.611,0.691-1.003,0.943
			c-0.048,0.031-0.084,0.095-0.11,0.15c-0.094,0.197-0.251,0.34-0.409,0.475c-0.388,0.334-0.65,0.798-1.091,1.075
			c-0.033,0.022-0.058,0.062-0.079,0.097c-0.286,0.458-0.661,0.844-0.982,1.272c-0.106,0.143-0.208,0.286-0.341,0.411
			c-0.446,0.424-0.892,0.854-1.093,1.467c-0.024,0.075-0.064,0.133-0.12,0.183c-0.265,0.232-0.443,0.54-0.609,0.837
			c-0.177,0.318-0.372,0.623-0.545,0.937c-0.22,0.397-0.393,0.825-0.62,1.224c-0.075,0.132-0.054,0.329-0.141,0.447
			c-0.296,0.403-0.314,0.914-0.539,1.342c-0.167,0.317-0.188,0.693-0.333,1.015c-0.192,0.428-0.3,0.875-0.413,1.324
			c-0.144,0.574-0.194,1.164-0.255,1.75c-0.034,0.342-0.239,0.645-0.209,0.986c0.042,0.51,0.048,1.008-0.112,1.498
			C35.995,60.504,36,60.6,36.019,60.68c0.115,0.49,0.014,0.99,0.074,1.484c0.029,0.238,0.088,0.477,0.066,0.725
			c-0.034,0.389,0.065,0.756,0.269,1.088c0.05,0.082,0.108,0.158,0.096,0.262c-0.051,0.422,0.125,0.811,0.183,1.217
			c0.037,0.273,0.284,0.447,0.358,0.691c0.078,0.256-0.067,0.576,0.084,0.809c0.338,0.521,0.493,1.117,0.745,1.674
			c0.156,0.344,0.337,0.676,0.48,1.023c0.111,0.271,0.252,0.508,0.482,0.689c0.167,0.129,0.347,0.262,0.435,0.449
			c0.175,0.375,0.4,0.709,0.628,1.051c0.188,0.277,0.381,0.523,0.675,0.688c0.309,0.17,0.542,0.418,0.702,0.742
			c0.099,0.199,0.245,0.365,0.431,0.492c0.096,0.064,0.189,0.131,0.262,0.225c0.178,0.229,0.406,0.391,0.651,0.537
			c0.159,0.096,0.361,0.146,0.472,0.303c0.329,0.465,0.852,0.662,1.287,0.977c0.415,0.299,0.899,0.484,1.313,0.791
			c0.238,0.178,0.511,0.277,0.811,0.305c0.305,0.029,0.588,0.129,0.83,0.332c0.294,0.248,0.638,0.352,1.017,0.322
			c0.085-0.006,0.166-0.016,0.242,0.031c0.171,0.105,0.364,0.154,0.553,0.215c0.319,0.102,0.315,0.109,0.262,0.459
			c-0.016,0.084-0.006,0.172-0.022,0.252c-0.113,0.533,0.056,1.104-0.208,1.617c-0.022,0.043-0.025,0.104-0.023,0.154
			c0.026,0.633-0.196,1.236-0.161,1.885c0.034,0.629-0.117,1.273-0.208,1.908c-0.102,0.727,0.367,1.379,1.089,1.482
			c0.66,0.094,1.318-0.402,1.384-1.08c0.029-0.334,0.064-0.674,0.063-1.008c-0.004-0.488,0.02-0.967,0.155-1.438
			c0.03-0.1,0.037-0.209,0.033-0.314c-0.033-0.59,0.204-1.168,0.068-1.76c-0.007-0.029,0.01-0.062,0.019-0.094
			c0.214-0.672,0.278-1.361,0.232-2.062c-0.005-0.096,0.01-0.188,0.03-0.283c0.085-0.406-0.016-0.768-0.243-1.109
			c-0.37-0.557-0.866-0.898-1.521-1.012c-0.374-0.064-0.719-0.219-1.03-0.441c-0.264-0.188-0.557-0.291-0.879-0.271
			c-0.237,0.016-0.425-0.064-0.584-0.24c-0.156-0.176-0.356-0.299-0.574-0.373c-0.914-0.307-1.589-1.029-2.442-1.438
			c-0.297-0.359-0.655-0.645-1.011-0.938c-0.188-0.154-0.359-0.318-0.587-0.412c-0.2-0.08-0.386-0.201-0.469-0.4
			c-0.237-0.57-0.728-0.91-1.14-1.322c-0.164-0.162-0.284-0.328-0.323-0.555c-0.03-0.191-0.078-0.385-0.2-0.527
			c-0.435-0.512-0.563-1.201-1.002-1.707c-0.069-0.078-0.04-0.182-0.042-0.273c-0.011-0.344-0.123-0.652-0.362-0.889
			c-0.159-0.156-0.217-0.314-0.196-0.531c0.016-0.148-0.026-0.293-0.078-0.434c-0.18-0.51-0.404-1.008-0.302-1.578
			c0.029-0.164-0.015-0.338-0.074-0.498c-0.04-0.109-0.059-0.223-0.064-0.34c-0.021-0.566-0.142-1.129-0.059-1.703
			c0.021-0.146-0.027-0.293-0.074-0.434c-0.061-0.176-0.077-0.352-0.006-0.527c0.102-0.25,0.12-0.514,0.093-0.779
			c-0.026-0.238,0.015-0.463,0.066-0.691c0.142-0.605,0.36-1.188,0.528-1.787c0.076-0.271,0.086-0.564,0.21-0.82
			c0.257-0.533,0.38-1.113,0.636-1.647c0.258-0.541,0.438-1.116,0.72-1.653c0.193-0.366,0.362-0.747,0.579-1.101
			c0.229-0.372,0.344-0.816,0.714-1.094c0.047-0.036,0.087-0.096,0.109-0.153c0.154-0.394,0.495-0.682,0.605-1.102
			c0.021-0.077,0.091-0.141,0.134-0.213c0.403-0.681,1.054-1.168,1.428-1.874c0.021-0.045,0.066-0.083,0.106-0.111
			c0.181-0.117,0.312-0.278,0.441-0.446c0.091-0.115,0.191-0.224,0.313-0.308c0.43-0.292,0.811-0.65,1.223-0.964
			c0.299-0.228,0.626-0.411,0.848-0.728c0.021-0.029,0.073-0.035,0.111-0.05c0.212-0.078,0.376-0.222,0.54-0.37
			c0.313-0.277,0.567-0.637,0.941-0.827c0.609-0.308,1.116-0.766,1.682-1.137c0.352-0.229,0.672-0.508,1.062-0.683
			c0.546-0.244,0.922-0.777,1.548-0.905c0.198-0.04,0.385-0.201,0.598-0.255c0.216-0.054,0.401-0.167,0.595-0.273
			c0.301-0.165,0.604-0.337,0.927-0.439c0.477-0.151,0.921-0.389,1.406-0.509c0.068-0.017,0.138-0.056,0.192-0.104
			c0.23-0.208,0.515-0.315,0.789-0.442c0.501-0.233,0.994-0.486,1.469-0.775c0.268-0.161,0.497-0.35,0.587-0.668
			c0.029-0.098,0.103-0.157,0.169-0.223c0.268-0.255,0.39-0.569,0.373-0.939c-0.004-0.095-0.008-0.193,0.013-0.285
			c0.094-0.426,0.038-0.842-0.09-1.249c-0.023-0.072-0.043-0.136-0.031-0.214c0.068-0.462,0.108-0.923-0.016-1.382
			c-0.027-0.104-0.012-0.213,0.021-0.314c0.051-0.153,0.071-0.316,0.055-0.469c-0.065-0.586-0.128-1.164-0.094-1.758
			c0.013-0.24-0.043-0.496-0.049-0.75c-0.006-0.216,0.051-0.418,0.06-0.629c0.061-1.402,0.073-2.806,0.201-4.204
			c0.011-0.126,0.021-0.256,0.059-0.376c0.231-0.726,0.296-1.482,0.431-2.227c0.021-0.124,0.028-0.255,0.019-0.381
			c-0.013-0.126,0.026-0.217,0.104-0.313c0.214-0.265,0.31-0.575,0.287-0.916c-0.008-0.114,0.017-0.201,0.092-0.288
			c0.176-0.202,0.261-0.448,0.33-0.708c0.054-0.199,0.05-0.418,0.202-0.59c0.184-0.209,0.259-0.474,0.343-0.738
			c0.104-0.322,0.171-0.672,0.469-0.904c0.168-0.131,0.258-0.332,0.313-0.54c0.025-0.094,0.055-0.174,0.158-0.214
			c0.34-0.131,0.559-0.389,0.731-0.703c0.139-0.25,0.355-0.404,0.646-0.448c0.267-0.043,0.527-0.109,0.782-0.207
			c0.253-0.096,0.546-0.136,0.795-0.064c0.432,0.124,0.917,0.126,1.271,0.474c0.028,0.027,0.073,0.039,0.111,0.052
			c0.286,0.093,0.435,0.327,0.528,0.583c0.134,0.364,0.224,0.744,0.387,1.1c0.065,0.14,0.127,0.295,0.12,0.457
			c-0.023,0.513,0.161,0.993,0.241,1.489c0.027,0.16,0.053,0.306-0.001,0.463c-0.084,0.256-0.1,0.516-0.034,0.781
			c0.116,0.488,0.256,0.977,0.085,1.482c-0.026,0.077-0.019,0.17-0.012,0.253c0.053,0.565-0.025,1.139,0.115,1.699
			c0.018,0.068,0.017,0.152-0.005,0.219c-0.104,0.335-0.035,0.695-0.155,1.03c-0.041,0.113-0.022,0.253-0.008,0.378
			c0.063,0.623-0.002,1.24-0.105,1.851c-0.058,0.341-0.08,0.67,0.004,1.003c0.042,0.168,0.018,0.329-0.009,0.5
			c-0.069,0.447-0.257,0.873-0.219,1.34c0.01,0.125,0.074,0.245,0.044,0.374c-0.152,0.642-0.115,1.304-0.21,1.952
			c-0.033,0.229-0.058,0.472,0.007,0.694c0.061,0.209,0.031,0.394-0.033,0.587c-0.043,0.129-0.086,0.26-0.121,0.393
			c-0.118,0.433-0.051,0.838,0.194,1.213c0.324,0.496,0.823,0.729,1.352,0.911c0.164,0.056,1.67-0.152,1.833-0.231
			c0.011-0.004,0.021-0.008,0.028-0.015c0.229-0.153,0.465-0.15,0.718-0.062c0.219,0.076,0.453,0.112,0.679,0.05
			c0.531-0.15,1.075-0.043,1.611-0.098c0.208-0.021,0.417-0.013,0.612-0.097c0.229-0.1,0.451-0.114,0.699-0.054
			c0.393,0.095,0.787,0.213,1.201,0.087c0.105-0.033,0.232-0.028,0.338,0.026c0.488,0.254,1.023,0.128,1.535,0.196
			c0.135,0.018,0.256,0.025,0.379,0.093c0.625,0.34,1.357,0.116,1.629-0.543c0.225-0.544,0.238-1.144,0.314-1.725
			c0.008-0.06-0.008-0.13-0.033-0.186c-0.168-0.36-0.078-0.747-0.111-1.121c-0.016-0.186-0.086-0.385-0.014-0.565
			c0.182-0.456,0.125-0.913,0.041-1.374c-0.043-0.231-0.057-0.46,0.016-0.69c0.062-0.194,0.062-0.396,0.02-0.596
			c-0.023-0.105-0.047-0.215-0.02-0.314c0.178-0.634,0.061-1.277,0.059-1.914c0-0.437,0.121-0.887-0.061-1.317
			c-0.014-0.033,0-0.087,0.014-0.124c0.164-0.389,0.131-0.806,0.189-1.207c0.105-0.727-0.084-1.472,0.172-2.182
			c0.041-0.117,0.027-0.251,0.012-0.379c-0.01-0.073-0.021-0.147,0.006-0.22c0.219-0.576,0.008-1.244,0.363-1.792
			c0.021-0.032,0.023-0.081,0.027-0.124c0.033-0.476,0.199-0.932,0.359-1.36c0.283-0.763,0.691-1.479,1.207-2.125
			c0.225-0.281,0.48-0.521,0.799-0.632c0.459-0.162,0.873-0.436,1.359-0.535c0.197-0.041,0.383-0.103,0.578-0.051
			c0.252,0.065,0.516-0.057,0.74,0.006c0.225,0.064,0.342,0.356,0.578,0.465c0.055,0.025,0.107,0.062,0.164,0.089
			c0.096,0.047,0.174,0.114,0.23,0.207c0.133,0.222,0.318,0.387,0.514,0.548c0.24,0.2,0.461,0.403,0.52,0.754
			c0.047,0.276,0.184,0.539,0.344,0.775c0.086,0.127,0.141,0.26,0.143,0.411c0.006,0.423,0.164,0.804,0.32,1.184
			c0.123,0.302,0.24,0.599,0.209,0.945c-0.025,0.261-0.01,0.525-0.08,0.783c-0.043,0.155-0.039,0.316-0.006,0.474
			c0.109,0.533,0.123,1.066-0.012,1.6c-0.051,0.205-0.072,0.423-0.01,0.63c0.1,0.327,0.072,0.639-0.049,0.955
			c-0.08,0.211-0.061,0.438-0.025,0.659c0.01,0.072,0.047,0.148,0.033,0.217c-0.096,0.592-0.008,1.195-0.109,1.787
			c-0.02,0.114-0.043,0.228-0.082,0.337c-0.15,0.433-0.184,0.889-0.223,1.34c-0.059,0.62-0.055,1.245-0.105,1.867
			c-0.025,0.313-0.111,0.623-0.094,0.942c0.018,0.283,0.037,0.562-0.107,0.83c-0.066,0.125-0.07,0.286-0.061,0.436
			c0.023,0.285-0.047,0.541-0.207,0.777c-0.189,0.279-0.281,0.595-0.24,0.932c0.023,0.192-0.021,0.348-0.121,0.504
			c-0.146,0.23-0.281,0.471-0.363,0.733c-0.232,0.745,0.113,1.518,0.811,1.812c0.697,0.297,1.48,0.007,1.842-0.685
			c0.18-0.344,0.266-0.711,0.254-1.1c-0.006-0.186,0.041-0.345,0.158-0.498c0.234-0.303,0.328-0.656,0.285-1.042
			c-0.012-0.107,0.014-0.209,0.025-0.312c0.033-0.354,0.287-0.653,0.271-1c-0.014-0.412,0.092-0.789,0.189-1.175
			c0.061-0.235,0.084-0.475,0.082-0.722c-0.002-0.229,0.039-0.461,0.068-0.691c0.121-0.941,0.27-1.881,0.162-2.836
			c-0.014-0.137-0.006-0.272,0.016-0.41c0.064-0.383,0.027-0.778,0.172-1.15c0.035-0.094,0.018-0.211,0.008-0.314
			c-0.012-0.121,0.008-0.229,0.051-0.339c0.123-0.307,0.133-0.622,0.047-0.935c-0.057-0.205-0.045-0.394,0.027-0.589
			C92.777,23.599,92.803,23.266,92.748,22.923z"/>
		<path fill-rule="evenodd" clip-rule="evenodd" fill="#280D09" d="M96.297,82.42c0.055-0.463,0.066-0.928-0.006-1.393
			c-0.018-0.109-0.02-0.246,0.027-0.342c0.211-0.443,0.064-0.859-0.062-1.281c-0.025-0.088-0.164-1.699-0.15-1.789
			c0.082-0.502,0.381-0.893,0.691-1.256c0.346-0.404,0.775-0.67,1.34-0.736c0.35-0.041,0.686-0.24,1.02-0.383
			c0.154-0.064,0.309-0.156,0.473-0.154c0.699,0.006,1.23-0.428,1.791-0.738c0.355-0.193,0.67-0.502,1.023-0.717
			c0.49-0.295,0.924-0.684,1.467-0.881c0.111-0.041,0.193-0.119,0.254-0.225c0.139-0.24,0.338-0.426,0.564-0.582
			c0.059-0.043,0.143-0.074,0.174-0.135c0.24-0.482,0.711-0.695,1.109-0.99c0.064-0.049,0.148-0.09,0.174-0.176
			c0.152-0.523,0.564-0.883,0.824-1.338c0.041-0.072,0.098-0.135,0.104-0.225c0.037-0.465,0.221-0.871,0.457-1.266
			c0.131-0.211,0.223-0.455,0.262-0.707c0.037-0.254,0.115-0.492,0.232-0.719c0.127-0.252,0.189-0.535,0.293-0.787
			c0.191-0.471,0.193-0.965,0.309-1.441c0.07-0.285,0.098-0.584,0.238-0.85c0.041-0.082,0.027-0.164,0.016-0.248
			c-0.049-0.352,0.031-0.676,0.227-0.965c0.09-0.133,0.111-0.254,0.088-0.414c-0.062-0.459-0.133-0.918-0.055-1.387
			c0.035-0.209-0.037-0.42-0.076-0.627c-0.072-0.385-0.119-0.77-0.031-1.164c0.076-0.34-0.008-0.672-0.111-0.994
			c-0.096-0.293-0.18-0.586-0.096-0.9c0.012-0.049,0.025-0.121,0.002-0.154c-0.266-0.357-0.168-0.82-0.352-1.201
			c-0.211-0.432-0.324-0.908-0.586-1.319c-0.15-0.238-0.221-0.522-0.332-0.782c-0.16-0.378-0.371-0.731-0.49-1.131
			c-0.094-0.316-0.189-0.651-0.477-0.868c-0.006-0.006-0.014-0.017-0.018-0.025c-0.154-0.481-0.479-0.872-0.688-1.324
			c-0.064-0.139-0.141-0.255-0.244-0.362c-0.227-0.235-0.43-0.49-0.557-0.798c-0.016-0.039-0.025-0.094-0.057-0.112
			c-0.396-0.233-0.611-0.653-0.945-0.958c-0.416-0.382-0.801-0.813-1.17-1.248c-0.201-0.235-0.365-0.502-0.621-0.69
			c-0.189-0.139-0.299-0.354-0.432-0.537c-0.281-0.396-0.66-0.695-0.963-1.067c-0.201-0.25-0.5-0.376-0.766-0.537
			c-0.477-0.291-0.889-0.646-1.303-1.021c-0.377-0.341-0.787-0.694-1.291-0.858c-0.336-0.109-0.633-0.292-0.9-0.499
			c-0.279-0.215-0.605-0.38-0.822-0.671c-0.07-0.091-0.152-0.092-0.25-0.092c-0.367,0.001-0.695-0.111-0.977-0.36
			c-0.078-0.071-0.158-0.133-0.273-0.131c-0.271,0.004-0.504-0.111-0.729-0.255c-0.148-0.095-0.307-0.178-0.465-0.26
			c-0.506-0.27-0.721-0.858-0.496-1.377c0.217-0.509,0.777-0.766,1.303-0.575c0.236,0.087,0.502,0.089,0.717,0.204
			c0.396,0.21,0.799,0.383,1.242,0.455c0.029,0.005,0.055,0.031,0.086,0.04c0.328,0.089,0.416,0.546,0.84,0.529
			c0.346-0.015,0.65,0.213,0.961,0.347c0.367,0.159,0.707,0.385,1.008,0.679c0.23,0.229,0.463,0.487,0.791,0.601
			c0.039,0.014,0.08,0.034,0.109,0.062c0.361,0.358,0.857,0.507,1.248,0.82c0.363,0.29,0.662,0.644,0.969,0.989
			c0.146,0.164,0.285,0.337,0.49,0.43c0.039,0.018,0.076,0.042,0.104,0.072c0.412,0.453,0.969,0.724,1.402,1.14
			c0.316,0.301,0.648,0.585,0.955,0.888c0.355,0.346,0.721,0.711,0.996,1.111c0.303,0.437,0.73,0.791,0.91,1.315
			c0.008,0.029,0.031,0.058,0.055,0.074c0.402,0.267,0.625,0.672,0.832,1.09c0.053,0.105,0.143,0.18,0.213,0.271
			c0.346,0.44,0.643,0.918,0.92,1.4c0.146,0.254,0.25,0.541,0.42,0.796c0.361,0.531,0.59,1.131,0.857,1.714
			c0.209,0.456,0.221,0.963,0.461,1.399c0.104,0.188,0.061,0.414,0.119,0.619c0.09,0.312,0.23,0.625,0.271,0.932
			c0.064,0.461,0.197,0.891,0.322,1.332c0.098,0.354,0.002,0.736,0.062,1.104c0.025,0.158,0.035,0.314,0.1,0.463
			c0.189,0.43,0.207,0.875,0.156,1.336c-0.027,0.262-0.029,0.523,0.014,0.789c0.076,0.477,0.002,0.951-0.117,1.414
			c-0.043,0.172-0.057,0.32,0.016,0.488c0.168,0.389,0.172,0.781-0.006,1.168c-0.047,0.102-0.059,0.199-0.057,0.307
			c0.002,0.656-0.121,1.281-0.439,1.857c-0.01,0.02-0.033,0.037-0.033,0.055c0.016,0.424-0.207,0.785-0.287,1.182
			c-0.084,0.416-0.154,0.818-0.363,1.203c-0.145,0.27-0.252,0.574-0.322,0.885c-0.104,0.463-0.309,0.875-0.656,1.199
			c-0.088,0.084-0.146,0.172-0.189,0.283c-0.178,0.428-0.393,0.84-0.652,1.225c-0.053,0.076-0.109,0.162-0.186,0.211
			c-0.414,0.283-0.637,0.711-0.865,1.137c-0.141,0.258-0.338,0.457-0.598,0.588c-0.133,0.066-0.248,0.152-0.348,0.262
			c-0.234,0.262-0.496,0.484-0.832,0.598c-0.17,0.059-0.27,0.197-0.369,0.334c-0.176,0.24-0.373,0.455-0.654,0.572
			c-0.045,0.02-0.09,0.055-0.125,0.092c-0.492,0.541-1.127,0.844-1.771,1.145c-0.385,0.178-0.762,0.377-1.152,0.553
			c-0.133,0.059-0.26,0.137-0.402,0.164c-0.119,0.021-0.225,0.062-0.305,0.148c-0.354,0.395-0.865,0.441-1.316,0.617
			c-0.184,0.072-0.383,0.102-0.576,0.143c-0.334,0.074-0.428,0.189-0.359,0.52c0.084,0.406-0.09,0.793-0.07,1.197
			c0.008,0.137-0.008,0.262,0.074,0.387c0.127,0.199,0.182,0.428,0.168,0.664c-0.023,0.363,0.014,0.721,0.074,1.074
			c0.078,0.48,0.088,0.951-0.168,1.387c-0.059,0.102-0.031,0.207-0.041,0.309c-0.051,0.551-0.473,0.969-1.004,0.994
			c-0.545,0.027-1.027-0.365-1.096-0.922c-0.029-0.223-0.074-0.43-0.162-0.637C96.303,82.953,96.273,82.688,96.297,82.42z"/>
	</g>
	<g>
		<path fill-rule="evenodd" clip-rule="evenodd" fill="#F98EA8" d="M52.787,55.107c0.044,0.1,0.151,0.102,0.216,0.1
			c0.404-0.018,0.8,0.078,1.198,0.117c0.52,0.049,1.058,0.121,1.493,0.475c0.108,0.088,0.232,0.141,0.354,0.201
			c0.574,0.277,1.146,0.568,1.599,1.027c0.3,0.301,0.598,0.627,0.699,1.066c0.026,0.115,0.105,0.178,0.177,0.256
			c0.108,0.113,0.259,0.209,0.291,0.365c0.093,0.473,0.412,0.855,0.52,1.314c0.177,0.762,0.515,1.494,0.47,2.299
			c-0.019,0.346-0.058,0.688,0.049,1.029c0.021,0.064,0.012,0.15-0.012,0.219c-0.194,0.547-0.195,1.137-0.353,1.695
			c-0.084,0.301-0.192,0.578-0.429,0.789c-0.096,0.086-0.173,0.186-0.203,0.314c-0.022,0.098-0.078,0.193-0.141,0.24
			c-0.458,0.348-0.66,0.916-1.156,1.254c-0.436,0.297-0.906,0.555-1.307,0.912c-0.202,0.18-0.453,0.291-0.733,0.322
			c-0.132,0.016-0.266,0.064-0.384,0.129c-0.813,0.441-1.719,0.518-2.603,0.676c-0.245,0.043-0.491,0.113-0.737,0.113
			c-0.434-0.002-0.868-0.055-1.304-0.076c-0.369-0.018-0.731-0.137-1.107-0.045c-0.215,0.053-0.434-0.027-0.649-0.053
			c-0.912-0.121-1.774-0.393-2.603-0.801c-0.84-0.414-1.478-1.076-2.149-1.697c-0.022-0.021-0.046-0.047-0.06-0.074
			c-0.182-0.365-0.441-0.701-0.592-1.061c-0.33-0.783-0.746-1.562-0.625-2.477c0.037-0.279-0.098-0.557-0.061-0.848
			c0.07-0.559,0.008-1.145,0.347-1.646c0.036-0.055,0.026-0.143,0.036-0.215c0.047-0.309,0.133-0.598,0.372-0.816
			c0.161-0.146,0.243-0.346,0.302-0.547c0.132-0.459,0.447-0.764,0.771-1.084c0.359-0.352,0.774-0.629,1.109-1.01
			c0.295-0.334,0.645-0.629,1.076-0.789c0.117-0.043,0.217-0.121,0.325-0.186c0.329-0.191,0.617-0.467,1.025-0.508
			c0.105-0.01,0.206-0.098,0.302-0.16c0.152-0.1,0.317-0.182,0.492-0.176c0.251,0.008,0.466-0.1,0.697-0.148
			c0.674-0.143,1.318-0.447,2.036-0.381c0.209,0.02,0.429-0.01,0.626-0.117C52.371,55.107,52.58,55.107,52.787,55.107z"/>
		<path fill-rule="evenodd" clip-rule="evenodd" fill="#F98EA8" d="M107.553,63.287c-0.018,0.41,0.076,0.836,0.006,1.27
			c-0.041,0.252-0.059,0.498-0.213,0.715c-0.113,0.168-0.164,0.354-0.17,0.564c-0.014,0.543-0.156,1.041-0.594,1.406
			c-0.133,0.111-0.186,0.252-0.232,0.426c-0.164,0.598-0.389,1.164-1.014,1.439c-0.203,0.088-0.357,0.248-0.471,0.447
			c-0.271,0.471-0.678,0.789-1.152,1.029c-0.166,0.086-0.34,0.162-0.5,0.258c-0.441,0.258-0.922,0.373-1.414,0.463
			c-0.094,0.018-0.176,0.062-0.262,0.1c-0.395,0.174-0.797,0.311-1.234,0.283c-0.053-0.004-0.109-0.016-0.154,0.004
			c-0.43,0.172-0.854,0.086-1.287,0.004c-0.211-0.041-0.436-0.016-0.654-0.01c-0.604,0.012-1.193-0.037-1.779-0.229
			c-0.258-0.084-0.547-0.109-0.822-0.156c-0.266-0.049-0.529-0.121-0.754-0.279c-0.164-0.119-0.355-0.109-0.535-0.15
			c-0.293-0.068-0.559-0.186-0.756-0.412c-0.197-0.229-0.449-0.344-0.721-0.414c-0.326-0.082-0.613-0.23-0.809-0.502
			c-0.143-0.199-0.326-0.32-0.523-0.438c-0.514-0.311-0.828-0.779-1.059-1.324c-0.232-0.553-0.475-1.102-0.717-1.65
			c-0.096-0.215-0.158-0.436-0.145-0.674c0.004-0.072,0.01-0.156-0.02-0.219c-0.209-0.422-0.148-0.889-0.213-1.334
			c-0.061-0.404,0.055-0.814,0.08-1.225c0.023-0.324,0.084-0.646,0.258-0.934c0.051-0.082,0.016-0.188,0.02-0.283
			c0.008-0.156-0.018-0.316,0.047-0.469c0.248-0.59,0.477-1.207,0.893-1.686c0.287-0.328,0.539-0.688,0.834-1.008
			c0.186-0.201,0.367-0.406,0.633-0.502c0.01-0.004,0.021-0.008,0.027-0.016c0.406-0.438,0.92-0.678,1.473-0.852
			c0.055-0.018,0.096-0.08,0.145-0.117c0.082-0.064,0.158-0.156,0.252-0.184c0.416-0.119,0.814-0.291,1.223-0.438
			c0.713-0.254,1.475-0.182,2.207-0.307c0.203-0.035,0.412,0.004,0.619,0.031c0.404,0.053,0.809,0.117,1.225,0.037
			c0.383-0.072,0.771,0.021,1.139,0.127c0.439,0.127,0.9,0.146,1.334,0.295c0.068,0.023,0.15,0.02,0.211,0.055
			c0.518,0.309,1.104,0.477,1.6,0.83c0.227,0.158,0.477,0.299,0.721,0.424c0.562,0.285,1.039,0.637,1.383,1.184
			c0.146,0.236,0.375,0.42,0.555,0.641c0.297,0.367,0.473,0.789,0.65,1.215c0.244,0.582,0.398,1.195,0.609,1.791
			C107.578,62.76,107.551,63.016,107.553,63.287z"/>
	</g>
	<g>
		<path fill-rule="evenodd" clip-rule="evenodd" fill="#FFFFFF" d="M84.172,65.014c-0.027,0.15-0.02,0.328,0.045,0.502
			c0.018,0.049,0.035,0.102,0.033,0.152c-0.027,0.641,0.023,1.293-0.146,1.912c-0.221,0.822-0.5,1.627-0.82,2.418
			c-0.057,0.139-0.109,0.279-0.203,0.391c-0.363,0.436-0.73,0.865-1.098,1.299c-0.043,0.047-0.086,0.098-0.141,0.125
			c-0.584,0.281-0.955,0.885-1.594,1.088c-0.084,0.027-0.152,0.107-0.229,0.164c-0.287,0.209-0.609,0.334-0.963,0.326
			c-0.268-0.006-0.52,0.053-0.758,0.162c-0.277,0.123-0.562,0.16-0.855,0.098c-0.172-0.035-0.316-0.021-0.467,0.086
			c-0.234,0.166-0.512,0.232-0.799,0.24c-0.082,0-0.17-0.006-0.246,0.021c-0.822,0.301-1.668,0.182-2.51,0.158
			c-0.122-0.002-0.245-0.049-0.363-0.09c-0.111-0.041-0.224-0.061-0.336-0.027c-0.546,0.164-1.053-0.01-1.555-0.186
			c-0.278-0.1-0.546-0.195-0.85-0.154c-0.197,0.025-0.401-0.023-0.57-0.133c-0.226-0.145-0.471-0.223-0.722-0.295
			c-0.193-0.055-0.371-0.139-0.535-0.256c-0.067-0.047-0.139-0.104-0.217-0.119c-0.504-0.109-0.866-0.447-1.229-0.779
			c-0.071-0.064-0.143-0.123-0.229-0.166c-0.091-0.047-0.2-0.086-0.265-0.162c-0.396-0.473-0.905-0.838-1.208-1.4
			c-0.173-0.324-0.41-0.611-0.47-0.99c-0.009-0.059-0.054-0.113-0.089-0.166c-0.354-0.516-0.482-1.09-0.438-1.711
			c0.014-0.201-0.038-0.398-0.096-0.592c-0.08-0.27-0.111-0.547-0.021-0.812c0.091-0.27,0.092-0.537,0.073-0.812
			c-0.019-0.26,0.029-0.502,0.13-0.742c0.157-0.373,0.196-0.777,0.229-1.17c0.024-0.303,0.059-0.588,0.197-0.854
			c0.184-0.348,0.318-0.711,0.388-1.1c0.009-0.051,0.019-0.107,0.047-0.15c0.259-0.385,0.407-0.816,0.587-1.238
			c0.158-0.373,0.346-0.744,0.535-1.109c0.152-0.287,0.298-0.578,0.451-0.867c0.102-0.191,0.254-0.336,0.444-0.432
			c0.157-0.082,0.262-0.203,0.332-0.365c0.269-0.611,0.731-1.076,1.171-1.551c0.422-0.455,0.928-0.812,1.461-1.121
			c0.063-0.039,0.113-0.096,0.167-0.145c0.069-0.062,0.127-0.156,0.208-0.189c0.555-0.233,1.015-0.667,1.629-0.769
			c0.096-0.015,0.18-0.053,0.256-0.109c0.2-0.143,0.418-0.236,0.665-0.26c0.06-0.005,0.122-0.027,0.177-0.055
			c0.791-0.395,1.603-0.361,2.432-0.157c0.496,0.123,0.947,0.322,1.338,0.655c0.078,0.067,0.166,0.073,0.26,0.087
			c0.326,0.045,0.627,0.155,0.881,0.376c0.068,0.062,0.152,0.115,0.238,0.151c0.508,0.209,0.943,0.549,1.346,0.906
			c0.344,0.307,0.711,0.611,1.004,0.961c0.322,0.385,0.59,0.834,0.834,1.281c0.254,0.469,0.48,0.959,0.66,1.467
			c0.01,0.029,0.021,0.059,0.029,0.09c0.154,0.639,0.496,1.195,0.785,1.773c0.078,0.162,0.148,0.332,0.154,0.512
			c0.02,0.537,0.227,1.02,0.379,1.521c0.131,0.428,0.318,0.852,0.311,1.316c-0.002,0.082,0.035,0.164,0.061,0.244
			C84.158,64.498,84.205,64.736,84.172,65.014z"/>
	</g>
	<g>
		<path fill="#280D09" d="M73.821,69.463c0.146,0,0.291,0,0.438,0c0.422,0.035,0.843,0.08,1.263,0.141
			c0.664,0.098,0.99,0.51,0.924,1.184c-0.033,0.338-0.264,0.65-0.598,0.68c-0.783,0.076-1.575,0.121-2.357,0
			c-0.322-0.049-0.555-0.275-0.618-0.633c-0.038-0.209-0.034-0.422-0.015-0.631c0.038-0.395,0.266-0.611,0.659-0.688
			C73.619,69.496,73.727,69.523,73.821,69.463z"/>
	</g>
	<g>
		<path fill-rule="evenodd" clip-rule="evenodd" fill="#280D09" d="M66.989,64.848c0.024-0.211,0.04-0.422,0.073-0.631
			c0.041-0.258,0.154-0.488,0.344-0.662c0.21-0.188,0.431-0.371,0.668-0.521c0.477-0.301,1.051-0.053,1.286,0.477
			c0.235,0.525,0.286,1.072,0.315,1.631c0.015,0.314,0.039,0.336,0.341,0.359c0.084,0.008,0.167,0.018,0.249,0.035
			c0.705,0.158,1.292-0.113,1.712-0.707c0.278-0.396,0.538-0.795,0.721-1.248c0.077-0.189,0.131-0.375,0.08-0.582
			c-0.088-0.373,0.044-0.734,0.075-1.1c0.021-0.242,0.06-0.477,0.057-0.721c-0.004-0.346-0.053-0.701,0.086-1.037
			c0.015-0.037,0.015-0.086,0.005-0.125c-0.156-0.607-0.08-1.238-0.17-1.854c-0.021-0.148-0.051-0.279-0.135-0.41
			c-0.396-0.613-0.186-1.354,0.45-1.701c0.616-0.34,1.26-0.35,1.903-0.152c0.873,0.27,1.115,1.42,0.428,2.045
			c-0.195,0.176-0.203,0.338-0.209,0.568c-0.01,0.43,0.086,0.865-0.027,1.293c-0.023,0.09-0.043,0.195-0.018,0.281
			c0.146,0.49,0.062,0.984,0.059,1.479c-0.002,0.357,0.021,0.715-0.01,1.072c0,0.012,0.004,0.023,0,0.033
			c-0.186,0.639,0.178,1.182,0.305,1.766c0.02,0.088,0.076,0.146,0.143,0.203c0.088,0.074,0.197,0.145,0.244,0.242
			c0.166,0.35,0.525,0.439,0.809,0.613c0.199,0.123,0.486,0.074,0.719,0.18c0.016,0.008,0.045,0.004,0.059-0.006
			c0.352-0.266,0.787-0.426,0.965-0.9c0.209-0.564,0.623-0.93,1.223-1.01c0.736-0.098,1.348,0.434,1.465,1.24
			c0.064,0.453-0.031,0.865-0.342,1.207c-0.168,0.189-0.293,0.408-0.457,0.602c-0.322,0.375-0.73,0.625-1.129,0.891
			c-0.344,0.229-0.719,0.334-1.131,0.23c-0.107-0.029-0.199-0.016-0.301,0.035c-0.264,0.137-0.557,0.172-0.848,0.205
			c-0.287,0.031-0.557-0.055-0.799-0.213c-0.205-0.135-0.41-0.248-0.652-0.291c-0.133-0.025-0.264-0.088-0.361-0.186
			c-0.314-0.307-0.657-0.574-1.006-0.838c-0.245-0.186-0.279-0.213-0.438,0.043c-0.173,0.277-0.397,0.488-0.676,0.641
			c-0.538,0.293-1.052,0.598-1.71,0.615c-0.356,0.01-0.738,0.088-1.105,0.152c-0.231,0.039-0.474,0.068-0.676-0.047
			c-0.544-0.303-1.139-0.51-1.626-0.918c-0.03-0.025-0.069-0.051-0.09-0.086C67.437,66.363,66.946,65.715,66.989,64.848z"/>
		<path fill-rule="evenodd" clip-rule="evenodd" fill="#280D09" d="M78.389,50.628c0.203,0.074,0.428,0.011,0.652-0.028
			c0.041-0.008,0.086-0.017,0.125-0.005c0.691,0.215,1.396-0.089,2.096,0.059c0.611,0.128,1.24,0.043,1.857,0.111
			c0.125,0.013,0.248,0.033,0.369,0.059c0.273,0.06,0.543,0.127,0.832,0.053c0.203-0.054,0.418,0.002,0.6,0.118
			c0.186,0.117,0.383,0.157,0.594,0.172c0.383,0.025,0.729,0.161,1.033,0.4c0.359,0.283,0.48,0.729,0.307,1.131
			s-0.582,0.614-1.029,0.534c-0.133-0.024-0.27-0.044-0.395-0.094c-0.332-0.13-0.654-0.253-1.025-0.164
			c-0.127,0.03-0.275-0.014-0.391-0.088c-0.188-0.123-0.389-0.132-0.598-0.132c-0.541-0.002-1.074-0.059-1.609-0.135
			c-0.383-0.054-0.768,0.031-1.152,0.029c-0.02-0.001-0.043,0.01-0.061,0.004c-0.572-0.149-1.119,0.118-1.684,0.104
			c-0.09-0.002-0.182,0.039-0.271,0.062c-0.395,0.103-0.768,0.037-1.109-0.174c-0.533-0.327-0.643-1.028-0.24-1.51
			C77.568,50.8,77.939,50.657,78.389,50.628z"/>
		<path fill-rule="evenodd" clip-rule="evenodd" fill="#280D09" d="M69.101,52.96c-0.405-0.052-0.805-0.107-1.204-0.186
			c-0.373-0.074-0.775-0.003-1.149-0.145c-0.517,0.146-1.045,0.105-1.57,0.078c-0.062-0.003-0.124,0.006-0.186,0.016
			c-0.53,0.081-1.056,0.225-1.6,0.108c-0.028-0.006-0.065-0.004-0.092,0.009c-0.424,0.191-0.845,0.056-1.259-0.029
			c-0.493-0.101-0.798-0.472-0.797-0.92c0.002-0.438,0.293-0.794,0.774-0.903c0.383-0.087,0.759-0.255,1.165-0.13
			c0.073,0.023,0.141-0.023,0.211-0.044c0.089-0.027,0.187-0.077,0.272-0.062c0.391,0.064,0.786-0.074,1.178,0.027
			c0.077,0.021,0.171,0.03,0.246,0.008c0.391-0.119,0.789-0.041,1.177-0.033c0.387,0.009,0.773,0.007,1.153,0.025
			c0.398,0.019,0.799,0,1.197,0.026c0.271,0.018,0.535,0.089,0.795,0.16c0.397,0.108,0.746,0.567,0.78,0.983
			c0.038,0.472-0.328,0.885-0.879,0.988C69.244,52.951,69.17,52.954,69.101,52.96z"/>
		<path fill-rule="evenodd" clip-rule="evenodd" fill="#280D09" d="M65.451,59.561c-0.135,0-0.27,0-0.406,0
			c-0.611-0.004-1.181-0.426-1.368-1.016c-0.111-0.352-0.239-0.697-0.258-1.072c-0.014-0.342,0.075-0.645,0.285-0.914
			c0.457-0.586,1.039-0.939,1.765-1.098c0.774-0.168,2.074,0.258,2.271,1.467c0.077,0.477,0.132,0.994-0.133,1.422
			c-0.306,0.49-0.725,0.891-1.262,1.135C66.06,59.611,65.751,59.566,65.451,59.561z"/>
		<path fill-rule="evenodd" clip-rule="evenodd" fill="#280D09" d="M81.973,60.064c-0.041,0-0.104-0.002-0.166,0.002
			c-0.592,0.023-1.043-0.236-1.301-0.762C80.32,58.934,80.07,58.586,80,58.156c-0.098-0.594,0.17-1.242,0.67-1.562
			c0.141-0.092,0.283-0.178,0.416-0.281c0.193-0.152,0.424-0.217,0.666-0.242c0.654-0.068,1.236,0.137,1.764,0.508
			c0.4,0.281,0.893,1.482,0.832,1.975c-0.018,0.139-0.039,0.281-0.115,0.395c-0.344,0.5-0.734,0.943-1.371,1.062
			C82.574,60.062,82.287,60.104,81.973,60.064z"/>
	</g>
	<g>
		<g>
			<path fill-rule="evenodd" clip-rule="evenodd" fill="#FFFFFF" d="M103.66,17.638c0.52,0.139,0.932,0.463,1.338,0.786
				c0.314,0.252,0.637,0.512,0.84,0.883c0.121,0.215,0.223,0.43,0.229,0.681c0.002,0.032-0.008,0.069,0.006,0.095
				c0.271,0.5,0.01,0.97-0.105,1.435c-0.133,0.521-0.332,1.016-0.74,1.406c-0.357,0.345-0.766,0.574-1.24,0.694
				c-0.049,0.013-0.113-0.002-0.152,0.027c-0.438,0.328-0.928,0.19-1.406,0.168c-0.129-0.006-0.26-0.008-0.361-0.082
				c-0.215-0.159-0.455-0.181-0.707-0.2c-0.43-0.035-0.785-0.207-0.98-0.626c-0.053-0.11-0.137-0.185-0.236-0.246
				c-0.264-0.166-0.395-0.42-0.486-0.712c-0.18-0.57-0.178-1.137-0.031-1.712c0.078-0.314,0.682-1.283,0.943-1.494
				c0.1-0.081,0.193-0.162,0.25-0.279c0.098-0.196,0.27-0.311,0.434-0.442c0.42-0.335,0.891-0.434,1.408-0.396
				C102.799,17.634,103.52,17.601,103.66,17.638z"/>
			<path fill-rule="evenodd" clip-rule="evenodd" fill="#FFFFFF" d="M93.4,27.164c0.656,0.045,1.215,0.002,1.756,0.119
				c0.463,0.1,0.904,0.27,1.381,0.323c0.225,0.026,0.484,0.111,0.666,0.246c0.459,0.337,0.949,0.624,1.416,0.944
				c0.219,0.147,0.406,0.362,0.529,0.617c0.07,0.143,0.188,0.201,0.357,0.197c0.271-0.008,0.541,0.009,0.773-0.175
				c0.057-0.044,0.129-0.074,0.199-0.089c0.564-0.118,1.047-0.442,1.574-0.654c0.219-0.088,0.451-0.14,0.672-0.113
				c0.535,0.061,1.088-0.024,1.598,0.236c0.156,0.08,0.354,0.016,0.52,0.091c0.738,0.335,1.506,0.631,2.068,1.25
				c0.48,0.528,1.004,1.016,1.412,1.607c0.047,0.068,0.105,0.138,0.131,0.215c0.188,0.57,0.395,1.131,0.633,1.681
				c0.041,0.093,0.014,0.187,0.01,0.281c-0.016,0.389-0.062,0.782,0.061,1.164c0.012,0.042,0.033,0.089,0.021,0.123
				c-0.117,0.331-0.045,0.704-0.201,1.02c-0.201,0.404-0.215,0.83-0.219,1.265c-0.002,0.148,0.045,0.229,0.188,0.278
				c0.252,0.085,0.467,0.232,0.617,0.464c0.051,0.078,0.121,0.143,0.217,0.174c0.367,0.115,0.621,0.386,0.844,0.682
				c0.396,0.527,0.746,1.084,1.064,1.667c0.316,0.58,0.291,1.183,0.311,1.785c0.006,0.251-0.1,0.527-0.209,0.755
				c-0.219,0.453-0.291,0.982-0.607,1.378c-0.402,0.503-0.723,1.094-1.318,1.412c-0.027,0.015-0.053,0.032-0.082,0.043
				c-0.436,0.18-0.914,0.254-1.291,0.579c-0.123,0.107-0.316,0.093-0.484,0.098c-0.205,0.004-0.352,0.097-0.434,0.301
				c-0.16,0.412-0.389,0.793-0.605,1.177c-0.123,0.222-0.289,0.399-0.525,0.477c-0.273,0.091-0.432,0.278-0.549,0.524
				c-0.135,0.281-0.359,0.466-0.633,0.587c-0.305,0.136-0.615,0.259-0.926,0.385c-0.066,0.027-0.135,0.061-0.207,0.066
				c-0.754,0.056-1.498,0.269-2.266,0.182c-0.305-0.034-0.525-0.252-0.793-0.343c-0.264-0.089-0.592,0-0.84-0.186
				c-0.246-0.184-0.539-0.271-0.791-0.441c-0.391-0.266-0.637-0.665-0.943-1.007c-0.211-0.236-0.451-0.438-0.672-0.661
				c-0.152-0.155-0.766-0.1-0.924,0.093c-0.256,0.311-0.549,0.533-0.947,0.624c-0.158,0.035-0.273,0.187-0.426,0.262
				c-0.334,0.165-0.691,0.229-1.053,0.283c-0.559,0.083-1.117,0.139-1.682,0.108c-0.062-0.003-0.133,0.005-0.186-0.021
				c-0.535-0.249-1.129-0.252-1.68-0.43c-0.287-0.092-0.516-0.278-0.742-0.463c-0.291-0.237-0.596-0.456-0.889-0.695
				c-0.391-0.321-0.604-0.745-0.77-1.206c-0.055-0.153-0.133-0.279-0.242-0.397c-0.348-0.381-0.471-0.84-0.381-1.347
				c0.053-0.284,0.055-0.565,0.062-0.851c0.006-0.201-0.061-0.307-0.268-0.285c-0.395,0.039-0.736-0.118-1.072-0.292
				c-0.133-0.068-0.262-0.118-0.412-0.114c-0.506,0.008-0.893-0.255-1.246-0.578c-0.078-0.07-0.133-0.171-0.232-0.209
				c-0.336-0.132-0.525-0.403-0.676-0.715c-0.096-0.199-0.193-0.396-0.334-0.57c-0.094-0.114-0.152-0.256-0.17-0.404
				c-0.035-0.263-0.08-0.517-0.189-0.761c-0.072-0.159,0.023-0.324,0.02-0.492c-0.023-0.718,0.205-1.381,0.416-2.056
				c0.137-0.444,0.354-0.85,0.471-1.302c0.113-0.44,0.334-0.846,0.775-1.062c0.109-0.053,0.178-0.142,0.242-0.24
				c0.143-0.219,0.34-0.372,0.586-0.453c0.203-0.065,0.35-0.229,0.543-0.31c0.072-0.029,0.096-0.103,0.09-0.185
				c-0.012-0.211,0.021-0.424-0.02-0.634c-0.062-0.321-0.027-0.638,0.109-0.928c0.082-0.176,0.113-0.356,0.158-0.541
				c0.125-0.511,0.229-1.072,0.602-1.437c0.41-0.399,0.75-0.866,1.191-1.23c0.494-0.409,1.049-0.711,1.615-1.007
				c0.475-0.248,0.99-0.381,1.48-0.579C92.23,27.228,92.863,27.112,93.4,27.164z"/>
		</g>
		<g>
			<path fill-rule="evenodd" clip-rule="evenodd" fill="#280D09" d="M112.191,40.762c-0.289-0.679-0.658-1.314-1.127-1.888
				c-0.279-0.344-0.551-0.693-0.992-0.84c-0.074-0.024-0.119-0.078-0.162-0.141c-0.156-0.221-0.359-0.389-0.613-0.47
				c-0.15-0.049-0.156-0.116-0.127-0.253c0.111-0.49,0.301-0.959,0.365-1.465c0.041-0.307,0.1-0.605,0.002-0.907
				c-0.072-0.217-0.082-0.434-0.049-0.657c0.074-0.499-0.008-0.968-0.281-1.396c-0.051-0.078-0.09-0.165-0.107-0.26
				c-0.107-0.54-0.34-1.012-0.699-1.43c-0.402-0.471-0.84-0.907-1.262-1.359c-0.23-0.246-0.529-0.403-0.799-0.598
				c-0.383-0.277-0.844-0.349-1.236-0.588c-0.082-0.049-0.201-0.041-0.305-0.051c-0.096-0.01-0.186-0.017-0.271-0.062
				c-0.268-0.136-0.561-0.17-0.854-0.172c-0.25,0-0.498-0.033-0.746-0.043c-0.398-0.018-0.797-0.022-1.174,0.125
				c-0.549,0.215-1.055,0.534-1.631,0.679c-0.09,0.023-0.186,0.061-0.256,0.116c-0.189,0.151-0.275,0.083-0.408-0.103
				c-0.287-0.4-0.594-0.797-1.109-0.924c-0.158-0.038-0.27-0.153-0.369-0.278c-0.143-0.176-0.316-0.314-0.535-0.369
				c-0.408-0.103-0.779-0.382-1.232-0.279c-0.035,0.008-0.084-0.019-0.117-0.04c-0.256-0.157-0.545-0.194-0.832-0.257
				c-0.258-0.058-0.518-0.004-0.771-0.039c-0.396-0.054-0.791-0.02-1.184-0.041c-0.236-0.013-0.479-0.072-0.715,0.003
				c-0.543,0.171-1.107,0.226-1.648,0.45c-0.682,0.283-1.373,0.534-2.002,0.935c-0.512,0.326-1.027,0.648-1.328,1.213
				c-0.045,0.083-0.125,0.11-0.189,0.157c-0.355,0.259-0.635,0.562-0.766,1.009c-0.113,0.383-0.322,0.735-0.324,1.151
				c0,0.038-0.035,0.075-0.051,0.112c-0.23,0.515-0.297,1.053-0.189,1.606c0.027,0.149,0,0.213-0.133,0.295
				c-0.404,0.246-0.893,0.379-1.133,0.853c-0.018,0.033-0.066,0.048-0.105,0.066c-0.443,0.224-0.697,0.629-0.812,1.077
				c-0.115,0.453-0.316,0.869-0.477,1.299c-0.195,0.528-0.246,1.089-0.453,1.608c-0.062,0.157-0.049,0.335-0.014,0.502
				c0.029,0.126,0.031,0.25,0.008,0.379c-0.113,0.618,0.172,1.174,0.283,1.757c0.01,0.05,0.041,0.1,0.074,0.139
				c0.164,0.194,0.268,0.426,0.381,0.652c0.154,0.31,0.359,0.569,0.688,0.706c0.092,0.037,0.141,0.122,0.211,0.185
				c0.379,0.345,0.785,0.635,1.326,0.61c0.121-0.005,0.221,0.037,0.326,0.091c0.27,0.138,0.541,0.264,0.846,0.317
				c0.154,0.028,0.383-0.093,0.451,0.079c0.053,0.13-0.061,0.322-0.072,0.487c-0.053,0.708-0.061,1.405,0.506,1.946
				c0.074,0.07,0.098,0.159,0.131,0.248c0.18,0.476,0.387,0.924,0.795,1.266c0.449,0.376,0.912,0.731,1.387,1.073
				c0.09,0.066,0.203,0.104,0.312,0.142c0.547,0.188,1.143,0.188,1.678,0.434c0.09,0.04,0.207,0.019,0.311,0.021
				c0.166,0.004,0.332,0.004,0.5,0.009c0.742,0.022,1.477-0.07,2.205-0.212c0.508-0.099,0.9-0.477,1.393-0.618
				c0.162-0.047,0.277-0.188,0.385-0.317c0.053-0.064,0.107-0.131,0.166-0.188c0.102-0.096,0.186-0.12,0.314,0
				c0.314,0.294,0.643,0.589,0.877,0.939c0.4,0.598,1.016,0.855,1.588,1.188c0.145,0.084,0.318,0.108,0.486,0.095
				c0.152-0.014,0.279,0.019,0.404,0.12c0.227,0.183,0.494,0.258,0.787,0.258c0.09,0,0.207-0.067,0.273,0.064
				c0.123,0,0.25,0,0.375,0c0.076-0.115,0.188-0.058,0.283-0.054c0.324,0.013,0.645-0.015,0.959-0.107
				c0.111-0.033,0.225-0.048,0.338-0.044c0.299,0.013,0.578-0.049,0.85-0.174c0.199-0.093,0.4-0.18,0.605-0.254
				c0.398-0.147,0.717-0.382,0.902-0.781c0.088-0.188,0.217-0.318,0.426-0.388c0.275-0.092,0.477-0.298,0.617-0.556
				c0.211-0.377,0.439-0.744,0.594-1.149c0.07-0.188,0.197-0.263,0.381-0.26c0.17,0.002,0.361,0.006,0.482-0.099
				c0.379-0.323,0.857-0.394,1.289-0.584c0.697-0.311,1.078-0.961,1.477-1.549c0.426-0.633,0.705-1.381,0.809-2.135
				C112.471,42.161,112.475,41.425,112.191,40.762z M109.953,42.772c-0.016,0.23-0.086,0.444-0.238,0.639
				c-0.248,0.311-0.438,0.668-0.803,0.867c-0.09,0.049-0.166,0.134-0.225,0.221c-0.295,0.44-0.697,0.429-1.125,0.271
				c-0.342-0.126-0.682-0.177-1.039-0.068c-0.641,0.194-1.072,0.809-0.969,1.479c0.062,0.394-0.055,0.709-0.266,1.003
				c-0.139,0.192-0.16,0.463-0.32,0.604c-0.15,0.135-0.393,0.172-0.59,0.269c-0.482,0.238-0.961,0.501-1.549,0.468
				c-0.281,0.05-0.578,0-0.873-0.072c-0.109-0.027-0.227-0.028-0.34-0.037c-0.061-0.007-0.139,0.019-0.184-0.013
				c-0.484-0.34-0.998-0.644-1.455-1.025c-0.156-0.131-0.271-0.291-0.334-0.488c-0.002-0.011-0.008-0.021-0.014-0.029
				c-0.359-0.448-0.504-1.027-0.863-1.476c-0.281-0.352-0.584-0.435-1-0.284c-0.029,0.01-0.057,0.035-0.088,0.036
				c-0.709,0.024-1.084,0.551-1.492,1.027c-0.096,0.114-0.217,0.196-0.332,0.285c-0.541,0.413-1.109,0.777-1.766,0.972
				c-0.395,0.117-0.799,0.12-1.199-0.004c-0.08-0.025-0.164-0.063-0.242-0.054c-0.268,0.03-0.488-0.083-0.699-0.217
				c-0.311-0.198-0.639-0.35-0.979-0.486c-0.24-0.095-0.383-0.318-0.576-0.476c-0.34-0.279-0.494-0.617-0.447-1.061
				c0.014-0.145-0.023-0.294-0.031-0.442c-0.012-0.205,0.029-0.396,0.158-0.563c0.158-0.199,0.27-0.43,0.365-0.664
				c0.311-0.756-0.146-1.592-0.939-1.744c-0.475-0.091-0.945-0.163-1.42-0.002c-0.174,0.06-0.348-0.019-0.518-0.029
				c-0.49-0.03-0.896-0.217-1.307-0.485c-0.406-0.267-0.77-0.55-0.904-1.029c-0.094-0.337-0.205-0.687-0.119-1.054
				c0.023-0.091,0.029-0.189,0.023-0.283c-0.045-0.621,0.18-1.178,0.406-1.729c0.047-0.109,0.17-0.182,0.248-0.281
				c0.154-0.198,0.309-0.396,0.426-0.625c0.166-0.334,0.621-0.522,0.98-0.423c0.557,0.15,1.076-0.024,1.389-0.469
				c0.307-0.436,0.312-0.991-0.012-1.453c-0.133-0.186-0.154-0.393-0.188-0.596c-0.045-0.28-0.053-0.567-0.1-0.849
				c-0.057-0.334,0.076-0.595,0.268-0.843c0.064-0.084,0.152-0.162,0.178-0.258c0.115-0.447,0.48-0.664,0.801-0.928
				c0.553-0.457,1.186-0.773,1.826-1.08c0.207-0.099,0.432-0.067,0.637-0.142c0.514-0.182,1.053-0.24,1.578-0.368
				c0.283-0.069,0.578-0.048,0.861,0.028c0.15,0.041,0.305,0.067,0.461,0.081c0.547,0.049,0.982,0.353,1.438,0.62
				c0.035,0.021,0.07,0.058,0.107,0.06c0.506,0.048,0.777,0.482,1.16,0.729c0.254,0.162,0.402,0.389,0.449,0.688
				c0.062,0.385,0.248,0.692,0.553,0.926c0.422,0.321,0.877,0.302,1.334,0.104c0.211-0.092,0.334-0.285,0.396-0.507
				c0.037-0.136,0.104-0.216,0.242-0.252c0.193-0.052,0.371-0.15,0.514-0.292c0.283-0.276,0.635-0.334,1.002-0.357
				c0.125-0.008,0.248-0.021,0.369-0.06c0.471-0.151,0.959-0.13,1.418,0.002c0.445,0.128,0.863,0.357,1.25,0.627
				c0.119,0.082,0.234,0.175,0.361,0.248c0.492,0.281,0.771,0.733,1.047,1.22c0.256,0.452,0.451,0.899,0.539,1.418
				c0.049,0.285,0.129,0.538-0.01,0.812c-0.109,0.22-0.07,0.474-0.133,0.712c-0.1,0.369-0.305,0.692-0.408,1.054
				c-0.045,0.157-0.162,0.209-0.268,0.29c-0.486,0.378-0.686,0.879-0.555,1.482c0.123,0.577,0.494,0.939,1.061,1.089
				c0.205,0.055,0.412,0.049,0.619,0.005c0.082-0.017,0.172-0.053,0.246-0.013c0.35,0.195,0.738,0.32,1.045,0.596
				c0.133,0.117,0.262,0.243,0.4,0.354c0.381,0.304,0.598,0.682,0.719,1.173C110.012,42.015,109.979,42.387,109.953,42.772z"/>
			<path fill-rule="evenodd" clip-rule="evenodd" fill="#280D09" d="M106.484,19.886c-0.037-0.07-0.035-0.164-0.043-0.248
				c-0.014-0.238-0.104-0.448-0.229-0.649c-0.195-0.317-0.457-0.566-0.74-0.806c-0.557-0.471-1.125-0.902-1.871-1.004
				c-0.062-0.008-0.17,0.002-0.174-0.118c-0.188,0-0.377,0-0.564,0c-0.137,0.168-0.318,0.199-0.516,0.174
				c-0.635-0.076-1.188,0.149-1.629,0.575c-0.295,0.285-0.609,0.583-0.828,0.931c-0.229,0.357-0.512,0.702-0.619,1.122
				c-0.211,0.808-0.238,1.623,0.018,2.434c0.094,0.294,0.246,0.536,0.492,0.714c0.086,0.06,0.174,0.111,0.223,0.214
				c0.232,0.479,0.635,0.679,1.141,0.697c0.201,0.008,0.385,0.05,0.561,0.166c0.178,0.117,0.389,0.152,0.6,0.125
				c0.107-0.014,0.207-0.001,0.309,0.023c0.471,0.11,0.93,0.12,1.361-0.146c0.053-0.032,0.115-0.051,0.176-0.063
				c1.064-0.219,1.756-0.854,2.102-1.897c0.117-0.352,0.195-0.712,0.289-1.068C106.646,20.666,106.684,20.27,106.484,19.886z
				 M104.312,21.302c-0.197,0.266-0.457,0.459-0.717,0.651c-0.07,0.054-0.146,0.076-0.232,0.07c-0.18-0.013-0.359,0.017-0.523,0.072
				c-0.264,0.09-0.516-0.027-0.771-0.004c-0.08,0.008-0.129-0.061-0.18-0.112c-0.094-0.099-0.199-0.184-0.318-0.252
				c-0.303-0.178-0.455-0.49-0.336-0.823c0.109-0.302,0.172-0.62,0.332-0.909c0.156-0.279,0.385-0.43,0.639-0.573
				c0.117-0.067,0.252-0.116,0.348-0.206c0.227-0.215,0.496-0.181,0.688-0.038c0.391,0.288,0.795,0.573,1.016,1.045
				c0.121,0.258,0.068,0.543,0.166,0.735C104.443,21.136,104.375,21.217,104.312,21.302z"/>
		</g>
	</g>
</g>
</svg>
