<?xml version="1.0" encoding="utf-8"?>
<!-- Generator: Adobe Illustrator 16.0.0, SVG Export Plug-In . SVG Version: 6.00 Build 0)  -->
<!DOCTYPE svg PUBLIC "-//W3C//DTD SVG 1.1//EN" "http://www.w3.org/Graphics/SVG/1.1/DTD/svg11.dtd">
<svg version="1.1" id="Layer_1" xmlns="http://www.w3.org/2000/svg" xmlns:xlink="http://www.w3.org/1999/xlink" x="0px" y="0px"
	 width="150px" height="150px" viewBox="0 0 150 150" enable-background="new 0 0 150 150" xml:space="preserve">
<g>
	<path fill="#FAA7BD" d="M98.441,92.018c-0.021-0.061-0.029-0.137-0.02-0.199c0.068-0.396-0.029-0.764-0.143-1.137
		c-0.092-0.307-0.141-0.629-0.123-0.951c0.012-0.258-0.049-0.5-0.098-0.748c-0.184-0.953-0.346-1.912-0.467-2.877
		c-0.07-0.562-0.041-1.131-0.25-1.686c-0.188-0.504,0.006-0.992,0.418-1.311c0.498-0.389,1.025-0.732,1.625-0.971
		c0.816-0.324,1.621-0.688,2.398-1.099c1.25-0.66,2.396-1.488,3.428-2.465c0.992-0.943,2.039-1.818,2.971-2.836
		c0.633-0.689,1.252-1.379,1.834-2.114c0.91-1.15,1.645-2.398,2.266-3.723c0.164-0.348,0.316-0.703,0.465-1.058
		c0.221-0.524,0.369-1.081,0.711-1.546c0.072-0.099,0.115-0.198,0.129-0.32c0.125-1.149,0.914-1.834,1.74-2.469
		c0.283-0.219,0.623-0.379,0.91-0.605c0.24-0.188,0.496-0.346,0.777-0.452c0.42-0.16,0.738-0.459,1.002-0.805
		c0.383-0.5,0.295-1.139-0.156-1.572c-0.457-0.442-1.014-0.624-1.627-0.674c-1.121-0.091-2.18,0.144-3.141,0.725
		c-0.717,0.435-1.312,1.031-1.758,1.751c-0.365,0.588-0.326,1.294-0.479,1.946c-0.139,0.605-0.129,1.236-0.359,1.825
		c-0.516,1.313-1.096,2.593-1.832,3.794c-0.432,0.702-0.904,1.386-1.502,1.947c-0.438,0.41-0.939,0.739-1.24,1.288
		c-0.113,0.205-0.328,0.33-0.518,0.47c-0.496,0.364-0.992,0.729-1.486,1.096c-0.752,0.555-1.561,1.016-2.395,1.428
		c-0.209,0.104-0.412,0.195-0.594,0.35c-1.234,1.047-2.645,1.08-4.105,0.672c-0.469-0.131-0.732-0.51-0.766-1.018
		c-0.033-0.516,0.195-0.953,0.668-1.136c0.961-0.373,1.801-1.021,2.814-1.266c0.137-0.034,0.229-0.131,0.324-0.227
		c0.154-0.155,0.322-0.29,0.506-0.411c0.777-0.516,1.549-1.039,2.309-1.58c0.373-0.264,0.621-0.675,1.023-0.877
		c0.465-0.232,0.816-0.553,1.041-1.022c0.043-0.09,0.123-0.159,0.184-0.242c0.725-0.983,1.412-1.987,1.879-3.133
		c0.305-0.745,0.459-1.54,0.773-2.281c0.225-0.531,0.234-1.11,0.309-1.678c0.049-0.374,0.109-0.746,0.127-1.125
		c0.014-0.344-0.045-0.677-0.064-1.02c-0.047-0.839-0.037-1.687-0.154-2.517c-0.193-1.366-0.629-2.674-1.111-3.962
		c-0.107-0.286-0.066-0.634-0.262-0.863c-0.594-0.698-0.775-1.613-1.293-2.37c-0.656-0.96-1.197-2.01-1.887-2.959
		c-0.166-0.229-0.254-0.527-0.445-0.724c-0.398-0.408-0.723-0.877-1.084-1.312c-0.85-1.023-1.777-1.956-2.791-2.8
		c-0.379-0.313-0.629-0.821-1.023-1.012c-0.617-0.299-1.031-0.828-1.617-1.155c-0.975-0.542-1.986-0.992-3.014-1.414
		c-0.664-0.272-1.305-0.6-1.867-1.046c-0.373-0.298-0.654-0.726-0.863-1.155c-0.379-0.776-0.143-1.509,0.334-2.177
		c0.156-0.219,0.383-0.387,0.484-0.64c0.303-0.735,0.791-1.356,1.215-2.013c0.953-1.476,2.039-2.867,2.834-4.444
		c0.322-0.638,0.742-1.216,0.912-1.951c0.221-0.954,0.369-1.854-0.014-2.807c-0.338-0.837-0.975-1.276-1.76-1.485
		c-0.717-0.191-1.473-0.267-2.191,0.083c-0.621,0.303-1.322,0.438-1.873,0.899c-0.471,0.396-0.996,0.721-1.438,1.158
		c-0.598,0.588-1.195,1.171-1.633,1.901c-0.439,0.728-0.869,1.462-1.264,2.216c-0.555,1.069-1.117,2.133-1.551,3.265
		c-0.209,0.547-0.418,1.098-0.691,1.623c-0.395,0.753-0.461,1.648-0.947,2.368c-0.033,0.049-0.014,0.132-0.025,0.198
		c-0.135,0.801-0.729,1.217-1.521,1.065c-0.129-0.025-0.25-0.06-0.393-0.042c-1.318,0.168-2.621-0.054-3.922-0.221
		c-0.773-0.099-1.562-0.254-2.32-0.248c-0.928,0.007-1.857-0.139-2.789-0.004c-0.41,0.059-0.83,0.025-1.238-0.084
		c-0.529-0.14-0.896-0.447-1.029-0.991c-0.127-0.526,0.04-0.966,0.44-1.314c0.101-0.089,0.194-0.161,0.204-0.321
		c0.053-0.839,0.393-1.598,0.707-2.353c0.607-1.46,1.463-2.797,2.123-4.234c0.232-0.502,0.457-1.008,0.74-1.489
		c0.199-0.343,0.471-0.688,0.504-1.087c0.051-0.624,0.215-1.228,0.244-1.854c0.07-1.503-1.037-3.009-2.947-2.533
		c-0.39,0.098-0.746,0.285-1.125,0.369c-0.832,0.184-1.419,0.772-2.091,1.214c-0.587,0.385-1.021,0.939-1.48,1.479
		c-0.535,0.627-1.012,1.274-1.409,1.995c-0.396,0.718-0.652,1.509-1.059,2.218c-0.365,0.636-0.5,1.35-0.788,2.01
		c-0.279,0.636-0.47,1.314-0.671,1.985c-0.105,0.352-0.24,0.693-0.277,1.065c-0.062,0.603-0.076,1.222-0.234,1.799
		c-0.211,0.774-0.24,1.578-0.518,2.35c-0.257,0.72-0.605,1.173-1.34,1.312c-0.098,0.019-0.195,0.043-0.29,0.077
		c-1.259,0.463-2.478,1.022-3.703,1.565c-0.799,0.356-1.634,0.617-2.396,1.073c-0.252,0.151-0.541,0.243-0.771,0.445
		c-0.204,0.178-0.442,0.3-0.692,0.396c-0.221,0.086-0.396,0.24-0.596,0.356c-0.785,0.465-1.414,1.175-2.295,1.492
		c-0.186,0.066-0.35,0.21-0.463,0.376c-0.338,0.5-0.822,0.83-1.285,1.186c-0.463,0.354-0.904,0.748-1.311,1.152
		c-0.518,0.515-1.004,1.072-1.51,1.604c-0.632,0.668-1.141,1.439-1.749,2.132c-0.513,0.582-0.879,1.333-1.175,2.088
		c-0.104,0.264-0.161,0.548-0.328,0.789c-0.715,1.024-1.033,2.239-1.564,3.353c-0.254,0.531-0.392,1.099-0.572,1.655
		c-0.156,0.477-0.378,0.921-0.319,1.44c0.005,0.032-0.009,0.067-0.018,0.1c-0.186,0.723-0.232,1.453-0.165,2.2
		c0.055,0.586,0.033,1.179,0.084,1.767c0.059,0.685,0.248,1.332,0.481,1.989c0.403,1.13,0.597,2.328,1.214,3.391
		c0.324,0.561,0.568,1.174,0.887,1.745c0.211,0.379,0.404,0.818,0.727,1.075c0.539,0.431,0.936,1.005,1.502,1.402
		c0.898,0.632,1.731,1.354,2.774,1.761c0.696,0.271,1.371,0.606,2.011,1.003c0.542,0.337,0.744,0.76,0.633,1.305
		c-0.1,0.479-0.493,0.801-1.087,0.898c-0.572,0.094-1.139,0.006-1.686-0.117c-1.509-0.342-2.865-1.027-4.11-1.957
		c-0.631-0.472-1.227-0.999-1.73-1.594c-0.492-0.58-0.948-1.205-1.395-1.832c-0.02-0.026-0.039-0.054-0.057-0.082
		c-0.28-0.437-0.547-0.883-0.813-1.328c-0.347-0.579-0.652-1.169-0.792-1.835c-0.035-0.167-0.105-0.311-0.173-0.465
		c-0.477-1.091-0.97-2.181-0.955-3.412c0.003-0.168-0.026-0.329-0.075-0.495c-0.213-0.693-0.301-1.413-0.408-2.127
		c-0.11-0.708-0.016-1.407,0.065-2.113c0.097-0.846-0.012-1.724,0.415-2.516c0.029-0.055,0.045-0.134,0.032-0.196
		c-0.104-0.54,0.083-1.019,0.257-1.517c0.27-0.777,0.6-1.529,0.945-2.269c0.273-0.587,0.592-1.162,0.889-1.742
		c0.225-0.434,0.304-0.919,0.589-1.331c0.625-0.904,1.165-1.869,1.745-2.801c0.639-1.029,1.484-1.852,2.199-2.798
		c0.396-0.526,0.975-0.912,1.439-1.376c0.594-0.588,1.23-1.127,1.822-1.713c0.24-0.237,0.514-0.418,0.828-0.555
		c0.311-0.137,0.562-0.379,0.645-0.729c0.073-0.314,0.203-0.601,0.343-0.891c0.114-0.238,0.228-0.498,0.259-0.759
		c0.117-1.009,0.024-2.004-0.244-2.984c-0.092-0.333-0.32-0.588-0.45-0.898c-0.046-0.115-0.173-0.209-0.271-0.194
		c-0.355,0.057-0.735-0.051-1.072,0.147c-0.174,0.102-0.347,0.207-0.389,0.432c-0.086,0.479-0.24,0.94-0.293,1.43
		c-0.057,0.514,0.005,1.07-0.291,1.522c-0.415,0.629-0.811,1.293-1.407,1.764c-0.979,0.773-1.829,1.7-2.833,2.441
		c-0.135,0.102-0.252,0.22-0.344,0.363c-0.158,0.243-0.375,0.428-0.598,0.606c-0.939,0.757-1.807,1.596-2.561,2.537
		c-0.822,1.028-1.552,2.129-2.292,3.224c-0.748,1.104-1.278,2.311-1.913,3.466c-0.071,0.129-0.096,0.289-0.111,0.438
		c-0.033,0.29-0.121,0.556-0.225,0.825c-0.141,0.359-0.295,0.722-0.365,1.099c-0.169,0.923-0.471,1.812-0.641,2.738
		c-0.215,1.169-0.451,2.318-0.422,3.522c0.018,0.718,0.186,1.442,0.023,2.166c-0.018,0.074,0.043,0.163,0.043,0.244
		c0.002,0.565,0.3,1.069,0.344,1.617c0.082,1.059,0.43,2.062,0.574,3.111c0.103,0.739,0.516,1.416,0.812,2.105
		c0.345,0.803,0.85,1.542,1.331,2.276c0.451,0.688,0.918,1.357,1.133,2.171c0.022,0.091,0.103,0.171,0.171,0.243
		c0.646,0.676,1.304,1.342,1.801,2.147c0.032,0.055,0.088,0.107,0.145,0.135c0.526,0.252,0.888,0.697,1.302,1.084
		c0.56,0.521,1.187,0.971,1.746,1.486c0.529,0.486,1.155,0.773,1.744,1.139c0.602,0.371,1.295,0.503,1.945,0.747
		c0.33,0.123,0.659,0.238,1.002,0.277c0.688,0.078,1.276,0.365,1.809,0.789c0.21,0.17,0.428,0.303,0.682,0.402
		c0.633,0.246,1.012,0.744,1.048,1.418c0.03,0.6,0.278,1.193,0.083,1.807c-0.018,0.055,0.008,0.133,0.029,0.193
		c0.33,1.01,0.236,2.068,0.345,3.102c0.098,0.939,0.122,1.885,0.216,2.822c0.089,0.904,0.358,1.77,0.606,2.64h14.222
		c-0.015-0.082-0.036-0.163-0.046-0.247c-0.117-1.023-0.198-2.043-0.103-3.072c0.034-0.367,0.057-0.738,0.066-1.107
		c0.017-0.676,0.322-1.266,0.513-1.889c0.11-0.354,0.205-0.707,0.259-1.076c0.1-0.678,0.592-1.154,0.887-1.732
		c0.423-0.82,1.072-1.453,1.676-2.113c0.412-0.449,0.924-0.828,1.443-1.148c0.623-0.383,1.241-0.781,1.91-1.082
		c0.277-0.123,0.561-0.215,0.865-0.225c0.217-0.008,0.422-0.064,0.621-0.165c0.498-0.256,1.027-0.268,1.559-0.141
		c0.547,0.129,1.078,0.28,1.599,0.528c0.416,0.197,0.881,0.371,1.359,0.441c0.334,0.051,0.645,0.174,0.918,0.379
		c0.91,0.674,1.838,1.324,2.641,2.137c0.334,0.338,0.516,0.785,0.814,1.148c0.514,0.623,0.781,1.396,1.236,2.061
		c0.537,0.781,0.74,1.721,0.951,2.639c0.064,0.283,0.166,0.543,0.285,0.805c0.307,0.676,0.434,1.41,0.543,2.139
		c0.008,0.049,0.012,0.1,0.012,0.146c-0.002,0.127-0.021,0.248-0.02,0.377c0.002,0.162,0.025,0.324,0.055,0.486
		c0.044,0.238,0.03,0.479-0.018,0.712h13.295c-0.009-0.21-0.014-0.421-0.037-0.626C98.658,93.947,98.795,92.951,98.441,92.018z
		 M61.733,59.011c-0.418,0.673-0.982,1.172-1.642,1.574c-0.401,0.244-0.724,0.587-1.097,0.868c-0.885,0.67-1.91,0.901-2.938,1.161
		c-0.434,0.11-0.856,0.295-1.159,0.212c-0.495-0.042-0.82,0.048-1.147,0.07c-1.016,0.07-2.02-0.066-2.988-0.391
		c-0.3-0.1-0.604-0.184-0.91-0.252c-1.17-0.267-2.098-0.955-2.99-1.715c-0.748-0.632-1.328-1.392-1.757-2.273
		c-0.029-0.061-0.05-0.128-0.089-0.181c-0.766-1.029-0.988-2.204-0.966-3.466c0.017-0.958-0.057-1.92,0.197-2.861
		c0.177-0.66,0.315-1.305,0.751-1.892c0.427-0.571,0.752-1.225,1.252-1.75c0.105-0.108,0.184-0.258,0.307-0.329
		c0.898-0.519,1.638-1.323,2.713-1.532c0.252-0.048,0.425-0.351,0.695-0.377c0.727-0.066,1.405-0.391,2.141-0.398
		c0.35-0.003,0.691-0.026,1.041-0.083c0.578-0.095,1.155,0.067,1.732,0.118c0.641,0.055,1.281,0.155,1.912,0.279
		c1.04,0.205,1.956,0.669,2.826,1.299c1.627,1.177,2.54,2.812,3.07,4.689c0.221,0.782,0.357,1.625,0.332,2.434
		C62.969,55.902,62.643,57.541,61.733,59.011z M83.986,57.711c-0.064,0.231-0.068,0.467-0.084,0.702
		c-0.051,0.854-0.338,1.639-0.713,2.396c-0.15,0.3-0.285,0.608-0.41,0.92c-0.375,0.938-1.02,1.667-1.656,2.433
		c-0.533,0.636-1.217,0.983-1.861,1.393c-0.52,0.329-1.158,0.511-1.787,0.588c-0.529,0.063-1.062,0.071-1.432,0.095
		c-0.613,0.004-1.064,0.002-1.496-0.147c-0.098-0.034-0.197-0.046-0.295-0.017c-0.383,0.118-0.762,0.062-1.137-0.025
		c-0.615-0.145-1.246-0.229-1.848-0.405c-1.024-0.301-1.994-0.741-2.725-1.585c-0.143-0.164-0.309-0.309-0.479-0.444
		c-0.943-0.747-1.459-1.726-1.762-2.902c-0.217-0.835-0.318-1.682-0.492-2.518c-0.077-0.366,0.028-0.749-0.008-1.099
		c-0.096-0.946,0.252-1.811,0.346-2.717c0.031-0.302,0.062-0.608,0.161-0.892c0.354-1.014,0.651-2.056,1.275-2.95
		c0.077-0.11,0.128-0.243,0.22-0.336c0.353-0.363,0.635-0.785,0.919-1.205c-0.36,0.052-0.723,0.084-1.082,0.135
		c-0.582,0.085-1.05-0.22-1.251-0.71c-0.195-0.479-0.059-1.044,0.345-1.431c0.204-0.197,0.46-0.324,0.722-0.428
		c0.127-0.05,0.258-0.095,0.387-0.142c0.131-0.049,0.264-0.055,0.402-0.077c0.178-0.028,0.362-0.041,0.543-0.053
		c0.12-0.007,0.238,0.002,0.356,0.009c0.078,0.006,0.154,0.004,0.231,0.017c0.079,0.015,0.187,0.046,0.258,0.086
		c0.098,0.053,0.174,0.154,0.268,0.215c0.222,0.148,0.405,0.322,0.521,0.53c0.621-0.502,1.263-0.974,1.996-1.332
		c0.775-0.379,1.596-0.583,2.412-0.754c1.253-0.263,2.488-0.135,3.548,0.725c0.234,0.188,0.469,0.381,0.719,0.545
		c0.508,0.334,0.912,0.73,1.234,1.278c0.057,0.096,0.133,0.182,0.199,0.273c0.257-0.138,0.558-0.215,0.885-0.188
		c1.01,0.083,1.697,0.688,2.285,1.441c0.209,0.269,0.256,0.615,0.186,0.96c-0.115,0.556-0.486,0.857-1.061,0.867
		c-0.116,0.001-0.226-0.021-0.334-0.046c0.215,0.399,0.415,0.808,0.568,1.246c0.236,0.673,0.557,1.323,0.783,2.008
		C84.102,54.941,84.201,56.926,83.986,57.711z M95.588,66.182c-0.162-0.055-0.33-0.103-0.502-0.124
		c-0.236-0.029-0.479-0.025-0.711-0.09c-0.592-0.166-1.203-0.263-1.74-0.588c-0.176-0.109-0.377-0.126-0.564-0.187
		c-0.598-0.188-1.09-0.561-1.611-0.891c-0.625-0.396-1.164-0.891-1.66-1.421c-0.506-0.541-1.037-1.08-1.256-1.843
		c-0.092-0.315-0.363-0.555-0.492-0.868c-0.443-1.087-0.613-2.197-0.535-3.386c0.053-0.775,0.293-1.473,0.492-2.198
		c0.131-0.485,0.461-0.857,0.654-1.304c0.514-1.19,1.365-2.078,2.406-2.816c0.635-0.449,1.301-0.759,2.047-0.99
		c0.896-0.277,1.793-0.427,2.723-0.444c0.271-0.007,0.539,0.048,0.785,0.112c0.672,0.172,1.361,0.225,2.037,0.387
		c0.686,0.164,1.299,0.477,1.955,0.659c0.814,0.227,1.561,0.553,2.283,0.977c0.918,0.536,1.561,1.353,2.178,2.188
		c0.248,0.332,0.471,0.693,0.658,1.073c0.596,1.199,0.836,2.503,1.109,3.798c0.018,0.081,0.021,0.173,0.002,0.251
		c-0.256,0.96-0.201,1.965-0.432,2.934c-0.287,1.193-0.979,2.055-1.953,2.696c-0.354,0.234-0.648,0.525-0.973,0.784
		c-0.572,0.462-1.252,0.58-1.924,0.766c-0.291,0.081-0.592,0.128-0.887,0.195c-0.236,0.054-0.465,0.171-0.703,0.205
		c-0.268,0.037-0.537,0.061-0.805,0.087c-0.338,0.035-0.676,0.058-1.016,0.084c-0.357,0.027-0.713,0.006-1.072-0.006
		c-0.143-0.006-0.279,0.01-0.416-0.019C95.641,66.198,95.613,66.192,95.588,66.182z"/>
	<path fill="#280D09" d="M101.596,91.531c0-0.016-0.002-0.033-0.01-0.049c-0.305-0.623-0.203-1.32-0.338-1.975
		c-0.068-0.344-0.184-0.67-0.223-1.029c-0.098-0.898-0.234-1.795-0.41-2.68c-0.121-0.611-0.174-0.627,0.396-0.857
		c1.039-0.418,2.008-0.973,2.941-1.58c1.184-0.77,2.264-1.687,3.371-2.569c0.246-0.195,0.543-0.34,0.76-0.566
		c1.033-1.072,2.145-2.072,2.988-3.318c0.113-0.168,0.262-0.301,0.422-0.426c0.58-0.465,1.092-1.015,1.484-1.634
		c0.795-1.254,1.664-2.475,2.193-3.882c0.322-0.86,0.768-1.68,0.879-2.611c0.014-0.107,0.055-0.19,0.131-0.261
		c0.289-0.271,0.461-0.617,0.598-0.981c0.094-0.252,0.242-0.359,0.51-0.388c0.396-0.042,0.779-0.156,1.121-0.387
		c0.195-0.131,0.357-0.302,0.572-0.405c1.02-0.489,1.611-1.334,2.053-2.366c0.404-0.947,0.23-1.958,0.221-2.025
		c-0.121-0.759-0.631-1.366-0.803-2.108c-0.045-0.196-0.197-0.351-0.34-0.495c-0.541-0.547-1.164-0.927-1.914-1.131
		c-0.562-0.153-1.131-0.258-1.705-0.324c-1.018-0.119-2.031-0.034-2.994,0.3c-0.619,0.215-1.229,0.495-1.789,0.859
		c-0.43,0.279-0.488,0.26-0.586-0.275c-0.18-0.974-0.314-1.954-0.529-2.924c-0.164-0.744-0.434-1.441-0.658-2.159
		c-0.08-0.254-0.207-0.495-0.326-0.736c-0.436-0.879-0.748-1.822-1.346-2.616c-0.057-0.076-0.062-0.19-0.104-0.283
		c-0.066-0.153-0.125-0.315-0.217-0.453c-0.701-1.042-1.416-2.072-2.111-3.116c-0.18-0.269-0.449-0.44-0.629-0.711
		c-0.416-0.626-0.877-1.219-1.359-1.796c-0.461-0.556-0.973-1.06-1.492-1.556c-0.785-0.75-1.498-1.586-2.486-2.083
		c-0.127-0.064-0.205-0.165-0.283-0.275c-0.242-0.339-0.555-0.577-0.949-0.706c-0.125-0.042-0.238-0.104-0.344-0.193
		c-0.852-0.726-1.859-1.182-2.891-1.543c-0.576-0.204-1.082-0.533-1.746-0.725c0.689-0.535,1.037-1.241,1.471-1.866
		c1.064-1.54,2.051-3.138,3.018-4.745c0.629-1.044,1.133-2.149,1.35-3.379c0.154-0.88,0.305-1.748,0.168-2.646
		c-0.043-0.285-0.184-0.551-0.197-0.831c-0.047-0.939-0.66-1.602-1.117-2.323c-0.305-0.486-0.811-0.845-1.309-1.155
		c-0.943-0.587-1.99-0.818-3.08-0.805c-0.531,0.005-1.057,0.132-1.586,0.185c-0.803,0.08-1.561,0.328-2.248,0.73
		c-0.486,0.286-0.971,0.583-1.441,0.9c-0.193,0.13-0.406,0.244-0.57,0.405c-0.631,0.618-1.281,1.213-1.887,1.865
		c-1.049,1.129-1.758,2.473-2.514,3.788c-0.658,1.146-1.215,2.348-1.76,3.553c-0.256,0.564-0.557,1.127-0.65,1.744
		c-0.109,0.708-0.525,1.293-0.604,2.032c-0.471-0.224-0.898-0.34-1.344-0.415c-0.951-0.158-1.912-0.209-2.869-0.296
		c-0.297-0.027-0.613-0.15-0.888-0.075c-0.736,0.205-1.426-0.234-2.229-0.003c0.945-1.554,1.633-3.108,2.436-4.6
		c0.261-0.488,0.501-0.989,0.716-1.5c0.342-0.816,0.494-1.694,0.852-2.518c0.559-1.284,0.543-2.649,0.17-4.011
		c-0.137-0.502-0.457-0.884-0.693-1.322c-0.588-1.089-1.607-1.621-2.601-2.194c-0.127-0.073-0.285-0.085-0.428-0.133
		c-0.973-0.332-1.936-0.018-2.9,0.052c-0.312,0.022-0.561,0.287-0.881,0.335c-0.441,0.066-0.806,0.306-1.152,0.572
		c-0.105,0.083-0.195,0.218-0.312,0.244c-0.646,0.153-1.093,0.619-1.605,0.989c-1.43,1.03-2.535,2.373-3.444,3.855
		c-0.669,1.091-1.251,2.255-1.653,3.493c-0.042,0.126-0.091,0.254-0.152,0.373c-0.417,0.786-0.754,1.599-0.865,2.496
		c-0.011,0.097-0.055,0.192-0.097,0.282c-0.158,0.34-0.233,0.697-0.272,1.07c-0.035,0.35-0.135,0.691-0.233,1.031
		c-0.235,0.819-0.536,1.62-0.513,2.506c0.012,0.461-0.104,0.949-0.742,0.98c-0.123,0.006-0.244,0.099-0.361,0.157
		c-0.344,0.168-0.67,0.422-1.031,0.495c-0.812,0.164-1.482,0.67-2.27,0.887c-0.201,0.054-0.378,0.203-0.566,0.31
		c-0.809,0.453-1.71,0.71-2.488,1.225c-0.053,0.034-0.123,0.041-0.188,0.061c-0.105-0.246-0.187-0.496-0.161-0.746
		c0.073-0.719-0.084-1.414-0.226-2.103c-0.146-0.708-0.399-1.4-0.899-1.943c-0.57-0.619-1.174-1.208-2.078-1.292
		c-0.093-0.009-0.186-0.07-0.271-0.121c-0.364-0.215-0.753-0.227-1.161-0.178c-0.934,0.112-1.762,0.445-2.467,1.092
		c-0.586,0.536-1.021,1.156-1.168,1.95c-0.139,0.744-0.244,1.494-0.479,2.217c-0.055,0.169-0.122,0.3-0.249,0.42
		c-0.758,0.719-1.38,1.569-2.286,2.156c-0.525,0.343-0.987,0.833-1.482,1.254c-0.861,0.733-1.696,1.519-2.439,2.374
		c-0.908,1.044-1.82,2.099-2.514,3.314c-0.3,0.527-0.756,0.932-1.033,1.481c-0.603,1.192-1.266,2.354-1.599,3.667
		c-0.021,0.079-0.057,0.161-0.104,0.227c-0.26,0.359-0.398,0.766-0.528,1.188c-0.237,0.768-0.452,1.546-0.784,2.282
		c-0.11,0.244-0.184,0.508-0.195,0.779c-0.021,0.559-0.16,1.104-0.276,1.639c-0.263,1.211-0.198,2.442-0.345,3.657
		c-0.117,0.963,0.15,2.042,0.13,2.211c-0.065,0.56,0.171,1.101,0.066,1.661c-0.032,0.175,0.021,0.37,0.058,0.552
		c0.237,1.199,0.54,2.381,0.852,3.564c0.28,1.068,0.7,2.046,1.176,3.02c0.143,0.292,0.43,0.487,0.525,0.793
		c0.265,0.848,0.781,1.552,1.222,2.298c0.151,0.259,0.28,0.554,0.53,0.73c0.291,0.205,0.452,0.49,0.547,0.811
		c0.141,0.467,0.408,0.842,0.719,1.201c0.371,0.43,0.661,0.936,1.206,1.182c0.071,0.033,0.146,0.104,0.175,0.176
		c0.263,0.617,0.78,0.994,1.262,1.408c0.631,0.544,1.194,1.196,1.894,1.616c0.713,0.426,1.323,0.986,2.063,1.385
		c0.789,0.424,1.615,0.748,2.443,0.965c0.898,0.236,1.771,0.578,2.687,0.742c0.096,0.018,0.242,0.016,0.233,0.137
		c-0.03,0.414,0.229,0.785,0.172,1.188c-0.08,0.561-0.041,1.111,0.01,1.666c0.092,1.057,0.172,2.113,0.267,3.17
		c0.104,1.166,0.234,2.323,0.525,3.458h1.875c-0.052-0.214-0.104-0.428-0.159-0.64c-0.112-0.438-0.231-0.885-0.249-1.33
		c-0.031-0.859-0.115-1.715-0.15-2.572c-0.023-0.584-0.029-1.176-0.131-1.758c-0.18-1.023-0.264-2.061-0.329-3.1
		c-0.049-0.803-0.391-1.314-1.144-1.594c-0.159-0.057-0.296-0.135-0.43-0.242c-0.604-0.49-1.252-0.881-2.061-0.926
		c-0.24-0.016-0.486-0.098-0.719-0.197c-0.26-0.109-0.526-0.219-0.8-0.279c-0.657-0.15-1.228-0.486-1.805-0.812
		c-0.54-0.301-1.021-0.673-1.501-1.065c-0.543-0.441-1.09-0.879-1.587-1.369c-0.683-0.674-1.483-1.217-2.044-2.029
		c-0.328-0.479-0.723-0.926-1.166-1.312c-0.073-0.066-0.121-0.154-0.151-0.256c-0.226-0.749-0.636-1.395-1.074-2.036
		c-0.29-0.424-0.599-0.853-0.823-1.307c-0.308-0.626-0.616-1.259-0.9-1.899c-0.453-1.015-0.562-2.094-0.812-3.146
		c-0.129-0.538-0.168-1.102-0.322-1.628c-0.174-0.587-0.268-1.178-0.277-1.784c-0.011-0.658,0-1.317-0.006-1.976
		c-0.002-0.162,0.057-0.342-0.091-0.478c0-0.812,0-1.622,0-2.433c0.096-0.067,0.077-0.175,0.103-0.271
		c0.111-0.425,0.044-0.877,0.172-1.294c0.251-0.815,0.342-1.663,0.576-2.486c0.242-0.854,0.4-1.733,0.742-2.559
		c0.045-0.11,0.096-0.228,0.094-0.341c-0.008-0.414,0.197-0.74,0.393-1.075c0.066-0.115,0.154-0.228,0.188-0.354
		c0.157-0.575,0.489-1.056,0.767-1.57c0.259-0.475,0.646-0.865,0.875-1.351c0.183-0.387,0.41-0.729,0.701-1.032
		c0.119-0.124,0.192-0.274,0.285-0.414c0.464-0.695,0.924-1.395,1.512-1.995c0.535-0.546,1.037-1.127,1.649-1.599
		c0.37-0.284,0.739-0.591,1.024-0.954c0.266-0.338,0.575-0.605,0.916-0.843c0.166-0.117,0.326-0.242,0.448-0.399
		c0.366-0.469,0.853-0.794,1.31-1.153c0.771-0.606,1.395-1.341,1.93-2.161c0.209-0.318,0.277-0.671,0.324-1.045
		c0.074-0.598,0.121-1.201,0.283-1.789c0.16-0.581,0.422-0.837,1.01-0.85c0.767-0.017,1.533-0.008,2.301-0.011
		c0.21-0.001,0.406,0.04,0.514,0.243c0.146,0.282,0.354,0.53,0.432,0.852c0.172,0.719,0.342,1.441,0.35,2.184
		c0.007,0.773,0.005,1.545-0.071,2.321c-0.052,0.55-0.132,1.059-0.396,1.543c-0.144,0.264-0.256,0.548-0.229,0.863
		c0,0-0.001,0-0.002,0.001c-0.002,0.003-0.004,0.008-0.004,0.008c0.003-0.001,0.003-0.002,0.007-0.005c0,0,0-0.002,0-0.004
		c0.638-0.333,1.147-0.853,1.763-1.218c0.641-0.382,1.262-0.801,1.922-1.143c0.34-0.176,0.701-0.308,1.012-0.539
		c0.148-0.111,0.302-0.202,0.487-0.242c0.476-0.1,0.914-0.299,1.352-0.512c0.61-0.298,1.229-0.614,1.854-0.85
		c0.709-0.27,1.416-0.579,2.16-0.762c0.408-0.102,0.76-0.34,0.889-0.745c0.165-0.508,0.396-0.997,0.473-1.536
		c0.143-0.997,0.356-1.983,0.444-2.983c0.058-0.643,0.384-1.181,0.483-1.795c0.098-0.601,0.389-1.137,0.6-1.696
		c0.254-0.669,0.513-1.341,0.825-1.995c0.555-1.165,1.024-2.377,1.868-3.364c0.408-0.479,0.752-1.011,1.23-1.441
		c0.553-0.496,1.188-0.86,1.766-1.31c0.549-0.429,1.203-0.528,1.81-0.761c0.89-0.341,1.841-0.248,2.767-0.202
		c0.672,0.031,1.346,0.129,1.859,0.698c0.508,0.56,0.688,1.229,0.721,1.939c0.037,0.857,0.061,1.723-0.094,2.572
		c-0.096,0.527-0.072,1.087-0.297,1.577c-0.516,1.132-1.074,2.244-1.631,3.352c-0.521,1.035-1.113,2.039-1.584,3.1
		c-0.369,0.825-0.679,1.68-0.811,2.592c-0.037,0.258,0.037,0.32,0.234,0.396c0.242,0.093,0.49,0.083,0.738,0.083
		c1.678,0.004,3.355-0.05,5.021,0.21c1.166,0.182,2.332,0.336,3.518,0.3c0.527-0.017,0.836-0.217,1.01-0.718
		c0.07-0.205,0.068-0.45,0.18-0.627c0.52-0.834,0.65-1.825,1.088-2.699c0.523-1.045,0.887-2.169,1.416-3.221
		c0.518-1.03,1.035-2.063,1.648-3.037c1.127-1.792,2.588-3.215,4.562-4.06c0.826-0.352,1.645-0.583,2.545-0.545
		c0.68,0.03,1.35,0.068,2.027,0.176c1.395,0.222,2.166,1.294,2.234,2.453c0.053,0.875,0.035,1.756,0.01,2.633
		c-0.021,0.692-0.127,1.412-0.459,1.996c-0.537,0.945-0.936,1.975-1.613,2.838c-0.197,0.251-0.389,0.51-0.537,0.791
		c-0.555,1.039-1.344,1.914-1.932,2.936c-0.367,0.64-0.658,1.362-1.215,1.89c-0.082,0.077-0.182,0.196-0.072,0.308
		c0.369,0.378,0.59,0.862,1.08,1.162c0.889,0.545,1.857,0.902,2.799,1.308c1.471,0.636,2.76,1.505,3.902,2.614
		c0.793,0.767,1.67,1.432,2.395,2.28c0.836,0.979,1.721,1.911,2.395,3.025c0.266,0.442,0.621,0.832,0.902,1.267
		c0.465,0.716,0.783,1.521,1.324,2.192c0.145,0.178,0.256,0.409,0.303,0.634c0.076,0.361,0.25,0.66,0.451,0.949
		c0.146,0.211,0.234,0.432,0.305,0.681c0.207,0.728,0.447,1.444,0.691,2.158c0.316,0.923,0.574,1.86,0.584,2.844
		c0.008,0.775,0.047,1.557,0.139,2.316c0.184,1.544,0.012,3.061-0.182,4.575c-0.123,0.968-0.553,1.865-0.867,2.784
		c-0.436,1.278-1.182,2.396-2.004,3.459c-0.209,0.27,0.59,0.699,1.703-1.498c0.318-0.628,0.674-1.235,1.002-1.858
		c0.617-1.172,1.064-2.389,1.199-3.708c0.123-1.208,0.426-2.289,1.398-3.122c0.938-0.803,1.988-1.276,3.195-1.351
		c0.896-0.055,1.799-0.022,2.699-0.002c0.723,0.018,1.357,0.271,1.877,0.809c0.162,0.17,0.246,0.34,0.242,0.578
		c-0.012,0.659-0.025,1.318,0.004,1.976c0.025,0.602-0.232,1.019-0.676,1.387c-0.393,0.327-0.904,0.423-1.289,0.753
		c-0.305,0.262-0.689,0.422-0.992,0.67c-0.758,0.62-1.561,1.231-1.676,2.337c-0.01,0.114-0.039,0.244-0.104,0.334
		c-0.41,0.563-0.568,1.243-0.863,1.857c-0.664,1.387-1.305,2.777-2.234,4.034c-0.84,1.139-1.754,2.195-2.736,3.189
		c-1.068,1.076-2.213,2.076-3.371,3.057c-1.205,1.021-2.58,1.698-3.967,2.386c-0.803,0.398-1.682,0.633-2.395,1.232
		c-0.33,0.275-0.457,0.539-0.385,0.947c0.094,0.527,0.209,1.059,0.258,1.584c0.084,0.953,0.291,1.889,0.428,2.83
		c0.115,0.789,0.293,1.596,0.354,2.377c0.084,1.088,0.266,2.17,0.24,3.27c-0.005,0.185,0.002,0.369,0,0.554h2.132
		c0.002-0.039-0.001-0.079,0.003-0.118C102.111,94.098,101.645,92.836,101.596,91.531z"/>
	<path fill="#280D09" d="M50.651,92.895c-0.094-0.938-0.118-1.883-0.216-2.822c-0.108-1.033-0.015-2.092-0.345-3.102
		c-0.021-0.061-0.047-0.139-0.029-0.193c0.195-0.613-0.053-1.207-0.083-1.807c-0.036-0.674-0.415-1.172-1.048-1.418
		c-0.254-0.1-0.472-0.232-0.682-0.402c-0.532-0.424-1.121-0.711-1.809-0.789c-0.343-0.039-0.672-0.154-1.002-0.277
		c-0.65-0.244-1.344-0.376-1.945-0.747c-0.589-0.365-1.215-0.652-1.744-1.139c-0.56-0.516-1.187-0.965-1.746-1.486
		c-0.414-0.387-0.775-0.832-1.302-1.084c-0.057-0.027-0.112-0.08-0.145-0.135c-0.497-0.805-1.155-1.471-1.801-2.147
		c-0.068-0.072-0.148-0.152-0.171-0.243c-0.215-0.813-0.682-1.483-1.133-2.171c-0.481-0.734-0.986-1.474-1.331-2.276
		c-0.296-0.689-0.709-1.366-0.812-2.105c-0.145-1.049-0.492-2.053-0.574-3.111c-0.044-0.548-0.342-1.051-0.344-1.617
		c0-0.082-0.061-0.17-0.043-0.244c0.162-0.724-0.006-1.448-0.023-2.166c-0.029-1.205,0.207-2.353,0.422-3.522
		c0.17-0.926,0.472-1.815,0.641-2.738c0.07-0.377,0.225-0.739,0.365-1.099c0.104-0.27,0.191-0.536,0.225-0.825
		c0.016-0.149,0.04-0.309,0.111-0.438c0.635-1.155,1.165-2.361,1.913-3.466c0.74-1.095,1.47-2.196,2.292-3.224
		c0.754-0.94,1.621-1.78,2.561-2.537c0.223-0.178,0.439-0.363,0.598-0.606c0.092-0.143,0.209-0.262,0.344-0.363
		c1.004-0.741,1.854-1.667,2.833-2.441c0.597-0.471,0.992-1.135,1.407-1.764c0.296-0.452,0.234-1.009,0.291-1.522
		c0.053-0.49,0.207-0.952,0.293-1.43c0.042-0.226,0.215-0.33,0.389-0.432c0.337-0.198,0.717-0.09,1.072-0.147
		c0.098-0.015,0.225,0.079,0.271,0.194c0.13,0.31,0.358,0.565,0.45,0.898c0.269,0.98,0.361,1.976,0.244,2.984
		c-0.031,0.261-0.145,0.521-0.259,0.759c-0.14,0.291-0.27,0.577-0.343,0.891c-0.083,0.35-0.334,0.593-0.645,0.729
		c-0.314,0.137-0.588,0.318-0.828,0.555c-0.592,0.585-1.229,1.125-1.822,1.713c-0.465,0.464-1.043,0.85-1.439,1.376
		c-0.715,0.946-1.561,1.769-2.199,2.798c-0.58,0.932-1.12,1.896-1.745,2.801c-0.285,0.412-0.364,0.897-0.589,1.331
		c-0.297,0.581-0.615,1.155-0.889,1.742c-0.346,0.739-0.676,1.492-0.945,2.269c-0.174,0.498-0.361,0.977-0.257,1.517
		c0.013,0.062-0.003,0.141-0.032,0.196c-0.427,0.792-0.318,1.67-0.415,2.516c-0.081,0.707-0.176,1.405-0.065,2.113
		c0.107,0.715,0.195,1.435,0.408,2.127c0.049,0.166,0.078,0.327,0.075,0.495c-0.015,1.231,0.479,2.321,0.955,3.412
		c0.067,0.154,0.138,0.298,0.173,0.465c0.14,0.666,0.445,1.256,0.792,1.835c0.267,0.445,0.533,0.892,0.813,1.328
		c0.018,0.028,0.037,0.056,0.057,0.082c0.446,0.627,0.902,1.252,1.395,1.832c0.504,0.595,1.1,1.122,1.73,1.594
		c1.245,0.929,2.602,1.615,4.11,1.957c0.547,0.123,1.113,0.211,1.686,0.117c0.594-0.098,0.987-0.42,1.087-0.898
		c0.111-0.545-0.091-0.968-0.633-1.305c-0.64-0.396-1.314-0.731-2.011-1.003c-1.043-0.407-1.876-1.129-2.774-1.761
		c-0.566-0.397-0.963-0.972-1.502-1.402c-0.322-0.257-0.516-0.696-0.727-1.075c-0.318-0.571-0.562-1.185-0.887-1.745
		c-0.617-1.063-0.811-2.261-1.214-3.391c-0.233-0.657-0.423-1.304-0.481-1.989c-0.051-0.587-0.029-1.18-0.084-1.767
		c-0.067-0.747-0.021-1.478,0.165-2.2c0.009-0.033,0.022-0.068,0.018-0.1c-0.059-0.519,0.163-0.963,0.319-1.44
		c0.181-0.556,0.318-1.124,0.572-1.655c0.531-1.114,0.85-2.329,1.564-3.353c0.167-0.241,0.225-0.524,0.328-0.789
		c0.296-0.754,0.662-1.506,1.175-2.088c0.608-0.693,1.117-1.464,1.749-2.132c0.506-0.532,0.992-1.09,1.51-1.604
		c0.406-0.404,0.848-0.798,1.311-1.152c0.463-0.356,0.947-0.687,1.285-1.186c0.113-0.166,0.277-0.31,0.463-0.376
		c0.881-0.317,1.51-1.026,2.295-1.492c0.199-0.117,0.375-0.271,0.596-0.356c0.25-0.096,0.488-0.218,0.692-0.396
		c0.229-0.202,0.519-0.294,0.771-0.445c0.762-0.456,1.597-0.716,2.396-1.073c1.226-0.543,2.444-1.102,3.703-1.565
		c0.095-0.034,0.192-0.059,0.29-0.077c0.734-0.14,1.083-0.593,1.34-1.312c0.277-0.772,0.307-1.575,0.518-2.35
		c0.158-0.577,0.172-1.197,0.234-1.799c0.037-0.372,0.172-0.713,0.277-1.065c0.201-0.671,0.392-1.35,0.671-1.985
		c0.288-0.66,0.423-1.374,0.788-2.01c0.406-0.708,0.662-1.5,1.059-2.218c0.397-0.721,0.874-1.368,1.409-1.995
		c0.459-0.539,0.894-1.094,1.48-1.479c0.672-0.442,1.259-1.031,2.091-1.214c0.379-0.083,0.735-0.271,1.125-0.369
		c1.91-0.476,3.018,1.03,2.947,2.533c-0.029,0.626-0.193,1.23-0.244,1.854c-0.033,0.398-0.305,0.744-0.504,1.087
		c-0.283,0.481-0.508,0.987-0.74,1.489c-0.66,1.437-1.516,2.773-2.123,4.234c-0.314,0.755-0.654,1.514-0.707,2.353
		c-0.01,0.161-0.104,0.232-0.204,0.321c-0.4,0.349-0.567,0.789-0.44,1.314c0.133,0.544,0.5,0.852,1.029,0.991
		c0.408,0.11,0.828,0.143,1.238,0.084c0.932-0.134,1.861,0.011,2.789,0.004c0.758-0.006,1.546,0.148,2.32,0.248
		c1.301,0.167,2.604,0.39,3.922,0.221c0.143-0.018,0.264,0.017,0.393,0.042c0.793,0.152,1.387-0.264,1.521-1.065
		c0.012-0.066-0.008-0.149,0.025-0.198c0.486-0.72,0.553-1.615,0.947-2.368c0.273-0.524,0.482-1.076,0.691-1.623
		c0.434-1.132,0.996-2.195,1.551-3.265c0.395-0.754,0.824-1.488,1.264-2.216c0.438-0.729,1.035-1.312,1.633-1.901
		c0.441-0.437,0.967-0.762,1.438-1.158c0.551-0.461,1.252-0.596,1.873-0.899c0.719-0.35,1.475-0.274,2.191-0.083
		c0.785,0.209,1.422,0.648,1.76,1.485c0.383,0.953,0.234,1.854,0.014,2.807c-0.17,0.735-0.59,1.312-0.912,1.951
		c-0.795,1.577-1.881,2.968-2.834,4.444c-0.424,0.657-0.912,1.278-1.215,2.013c-0.102,0.253-0.328,0.421-0.484,0.64
		c-0.477,0.667-0.713,1.4-0.334,2.177c0.209,0.429,0.49,0.857,0.863,1.155c0.562,0.447,1.203,0.774,1.867,1.046
		c1.027,0.421,2.039,0.871,3.014,1.414c0.586,0.327,1,0.855,1.617,1.155c0.395,0.191,0.645,0.699,1.023,1.012
		c1.014,0.845,1.941,1.777,2.791,2.8c0.361,0.435,0.686,0.903,1.084,1.312c0.191,0.197,0.279,0.495,0.445,0.724
		c0.689,0.949,1.23,1.999,1.887,2.959c0.518,0.757,0.699,1.672,1.293,2.37c0.195,0.229,0.154,0.577,0.262,0.863
		c0.482,1.288,0.918,2.596,1.111,3.962c0.117,0.83,0.107,1.677,0.154,2.517c0.02,0.342,0.078,0.675,0.064,1.02
		c-0.018,0.378-0.078,0.75-0.127,1.125c-0.074,0.568-0.084,1.147-0.309,1.678c-0.314,0.742-0.469,1.536-0.773,2.281
		c-0.467,1.146-1.154,2.149-1.879,3.133c-0.061,0.083-0.141,0.152-0.184,0.242c-0.225,0.47-0.576,0.79-1.041,1.022
		c-0.402,0.202-0.65,0.613-1.023,0.877c-0.76,0.541-1.531,1.064-2.309,1.58c-0.184,0.121-0.352,0.256-0.506,0.411
		c-0.096,0.096-0.188,0.192-0.324,0.227c-1.014,0.245-1.854,0.893-2.814,1.266c-0.473,0.184-0.701,0.621-0.668,1.136
		c0.033,0.508,0.297,0.887,0.766,1.018c1.461,0.408,2.871,0.375,4.105-0.672c0.182-0.154,0.385-0.246,0.594-0.35
		c0.834-0.412,1.643-0.873,2.395-1.428c0.494-0.366,0.99-0.731,1.486-1.096c0.189-0.14,0.404-0.265,0.518-0.47
		c0.301-0.549,0.803-0.878,1.24-1.288c0.598-0.562,1.07-1.245,1.502-1.947c0.736-1.201,1.316-2.48,1.832-3.794
		c0.23-0.589,0.221-1.22,0.359-1.825c0.152-0.651,0.113-1.357,0.479-1.946c0.445-0.721,1.041-1.317,1.758-1.751
		c0.961-0.581,2.02-0.816,3.141-0.725c0.613,0.05,1.17,0.232,1.627,0.674c0.451,0.433,0.539,1.072,0.156,1.572
		c-0.264,0.346-0.582,0.646-1.002,0.805c-0.281,0.106-0.537,0.264-0.777,0.452c-0.287,0.226-0.627,0.386-0.91,0.605
		c-0.826,0.635-1.615,1.32-1.74,2.469c-0.014,0.122-0.057,0.222-0.129,0.32c-0.342,0.465-0.49,1.021-0.711,1.546
		c-0.148,0.354-0.301,0.71-0.465,1.058c-0.621,1.324-1.355,2.572-2.266,3.723c-0.582,0.734-1.201,1.425-1.834,2.114
		c-0.932,1.018-1.979,1.893-2.971,2.836c-1.031,0.977-2.178,1.805-3.428,2.465c-0.777,0.41-1.582,0.774-2.398,1.099
		c-0.6,0.238-1.127,0.582-1.625,0.971c-0.412,0.318-0.605,0.807-0.418,1.311c0.209,0.555,0.18,1.123,0.25,1.686
		c0.121,0.965,0.283,1.924,0.467,2.877c0.049,0.248,0.109,0.49,0.098,0.748c-0.018,0.322,0.031,0.645,0.123,0.951
		c0.113,0.373,0.211,0.74,0.143,1.137c-0.01,0.062-0.002,0.139,0.02,0.199c0.354,0.934,0.217,1.93,0.322,2.891
		c0.023,0.205,0.028,0.416,0.037,0.626h1.053c0.002-0.185-0.005-0.369,0-0.554c0.025-1.1-0.156-2.182-0.24-3.27
		c-0.061-0.781-0.238-1.588-0.354-2.377c-0.137-0.941-0.344-1.877-0.428-2.83c-0.049-0.525-0.164-1.057-0.258-1.584
		c-0.072-0.408,0.055-0.672,0.385-0.947c0.713-0.6,1.592-0.834,2.395-1.232c1.387-0.688,2.762-1.364,3.967-2.386
		c1.158-0.98,2.303-1.98,3.371-3.057c0.982-0.994,1.896-2.05,2.736-3.189c0.93-1.257,1.57-2.647,2.234-4.034
		c0.295-0.614,0.453-1.294,0.863-1.857c0.064-0.09,0.094-0.22,0.104-0.334c0.115-1.106,0.918-1.718,1.676-2.337
		c0.303-0.248,0.688-0.408,0.992-0.67c0.385-0.33,0.896-0.427,1.289-0.753c0.443-0.369,0.701-0.786,0.676-1.387
		c-0.029-0.658-0.016-1.317-0.004-1.976c0.004-0.238-0.08-0.407-0.242-0.578c-0.52-0.538-1.154-0.791-1.877-0.809
		c-0.9-0.02-1.803-0.053-2.699,0.002c-1.207,0.075-2.258,0.548-3.195,1.351c-0.973,0.833-1.275,1.914-1.398,3.122
		c-0.135,1.32-0.582,2.537-1.199,3.708c-0.328,0.623-0.684,1.23-1.002,1.858c-1.113,2.197-1.912,1.768-1.703,1.498
		c0.822-1.063,1.568-2.181,2.004-3.459c0.314-0.919,0.744-1.816,0.867-2.784c0.193-1.515,0.365-3.031,0.182-4.575
		c-0.092-0.76-0.131-1.541-0.139-2.316c-0.01-0.983-0.268-1.921-0.584-2.844c-0.244-0.714-0.484-1.431-0.691-2.158
		c-0.07-0.249-0.158-0.47-0.305-0.681c-0.201-0.29-0.375-0.588-0.451-0.949c-0.047-0.225-0.158-0.456-0.303-0.634
		c-0.541-0.671-0.859-1.476-1.324-2.192c-0.281-0.436-0.637-0.825-0.902-1.267c-0.674-1.114-1.559-2.046-2.395-3.025
		c-0.725-0.848-1.602-1.514-2.395-2.28c-1.143-1.109-2.432-1.978-3.902-2.614c-0.941-0.406-1.91-0.762-2.799-1.308
		c-0.49-0.299-0.711-0.783-1.08-1.162c-0.109-0.112-0.01-0.231,0.072-0.308c0.557-0.528,0.848-1.25,1.215-1.89
		c0.588-1.022,1.377-1.897,1.932-2.936c0.148-0.281,0.34-0.54,0.537-0.791c0.678-0.863,1.076-1.893,1.613-2.838
		c0.332-0.584,0.438-1.304,0.459-1.996c0.025-0.877,0.043-1.758-0.01-2.633c-0.068-1.159-0.84-2.231-2.234-2.453
		c-0.678-0.107-1.348-0.146-2.027-0.176c-0.9-0.038-1.719,0.193-2.545,0.545c-1.975,0.845-3.436,2.269-4.562,4.06
		c-0.613,0.974-1.131,2.007-1.648,3.037c-0.529,1.052-0.893,2.176-1.416,3.221c-0.438,0.875-0.568,1.865-1.088,2.699
		c-0.111,0.177-0.109,0.422-0.18,0.627c-0.174,0.501-0.482,0.702-1.01,0.718c-1.186,0.036-2.352-0.119-3.518-0.3
		c-1.666-0.26-3.343-0.206-5.021-0.21c-0.248-0.001-0.496,0.01-0.738-0.083c-0.197-0.076-0.271-0.138-0.234-0.396
		c0.132-0.912,0.441-1.767,0.811-2.592c0.471-1.061,1.062-2.064,1.584-3.1c0.557-1.108,1.115-2.22,1.631-3.352
		c0.225-0.49,0.201-1.05,0.297-1.577c0.154-0.849,0.131-1.715,0.094-2.572c-0.033-0.711-0.213-1.379-0.721-1.939
		c-0.514-0.569-1.188-0.667-1.859-0.698c-0.926-0.045-1.877-0.139-2.767,0.202c-0.606,0.233-1.261,0.332-1.81,0.761
		c-0.577,0.45-1.213,0.814-1.766,1.31c-0.479,0.43-0.822,0.962-1.23,1.441c-0.844,0.987-1.313,2.199-1.868,3.364
		c-0.312,0.654-0.571,1.326-0.825,1.995c-0.211,0.559-0.502,1.095-0.6,1.696c-0.1,0.614-0.426,1.153-0.483,1.795
		c-0.088,1-0.302,1.987-0.444,2.983c-0.076,0.539-0.308,1.027-0.473,1.536c-0.129,0.405-0.48,0.643-0.889,0.745
		c-0.744,0.184-1.451,0.493-2.16,0.762c-0.626,0.236-1.244,0.552-1.854,0.85c-0.438,0.212-0.876,0.412-1.352,0.512
		c-0.186,0.04-0.339,0.131-0.487,0.242c-0.311,0.231-0.672,0.363-1.012,0.539c-0.66,0.342-1.281,0.761-1.922,1.143
		c-0.615,0.365-1.125,0.885-1.763,1.218c0,0.002,0,0.004,0,0.004c-0.004,0.003-0.004,0.004-0.007,0.005
		c-0.008,0.014-0.017,0.033-0.02,0.032c0.003,0.001,0.012-0.018,0.02-0.032c0,0,0.002-0.004,0.004-0.008
		c0.001-0.001,0.002-0.001,0.002-0.001c-0.027-0.315,0.085-0.6,0.229-0.863c0.264-0.484,0.344-0.994,0.396-1.543
		c0.076-0.775,0.078-1.548,0.071-2.321c-0.008-0.743-0.178-1.464-0.35-2.184c-0.078-0.321-0.285-0.57-0.432-0.852
		c-0.107-0.204-0.304-0.244-0.514-0.243c-0.768,0.003-1.534-0.005-2.301,0.011c-0.588,0.013-0.85,0.27-1.01,0.85
		c-0.162,0.587-0.209,1.19-0.283,1.789c-0.047,0.374-0.115,0.727-0.324,1.045c-0.535,0.82-1.158,1.555-1.93,2.161
		c-0.457,0.358-0.943,0.684-1.31,1.153c-0.122,0.157-0.282,0.283-0.448,0.399c-0.341,0.238-0.65,0.505-0.916,0.843
		c-0.285,0.363-0.654,0.67-1.024,0.954c-0.612,0.472-1.114,1.053-1.649,1.599c-0.588,0.6-1.048,1.299-1.512,1.995
		c-0.093,0.14-0.166,0.29-0.285,0.414c-0.291,0.302-0.519,0.645-0.701,1.032c-0.229,0.486-0.616,0.875-0.875,1.351
		c-0.277,0.514-0.609,0.995-0.767,1.57c-0.034,0.126-0.122,0.239-0.188,0.354c-0.195,0.334-0.4,0.661-0.393,1.075
		c0.002,0.113-0.049,0.231-0.094,0.341c-0.342,0.826-0.5,1.705-0.742,2.559c-0.234,0.823-0.325,1.671-0.576,2.486
		c-0.128,0.417-0.061,0.869-0.172,1.294c-0.025,0.096-0.007,0.204-0.103,0.271c0,0.812,0,1.621,0,2.433
		c0.147,0.135,0.089,0.315,0.091,0.478c0.006,0.659-0.005,1.317,0.006,1.976c0.01,0.606,0.104,1.197,0.277,1.784
		c0.154,0.526,0.193,1.09,0.322,1.628c0.25,1.052,0.359,2.131,0.812,3.146c0.284,0.641,0.593,1.273,0.9,1.899
		c0.225,0.454,0.533,0.883,0.823,1.307c0.438,0.641,0.849,1.287,1.074,2.036c0.03,0.102,0.078,0.189,0.151,0.256
		c0.443,0.387,0.838,0.834,1.166,1.312c0.561,0.812,1.361,1.355,2.044,2.029c0.497,0.49,1.044,0.928,1.587,1.369
		c0.479,0.393,0.961,0.765,1.501,1.065c0.577,0.326,1.147,0.662,1.805,0.812c0.273,0.061,0.54,0.17,0.8,0.279
		c0.232,0.1,0.479,0.182,0.719,0.197c0.809,0.045,1.457,0.436,2.061,0.926c0.134,0.107,0.271,0.186,0.43,0.242
		c0.753,0.279,1.095,0.791,1.144,1.594c0.065,1.039,0.149,2.076,0.329,3.1c0.102,0.582,0.107,1.174,0.131,1.758
		c0.035,0.857,0.119,1.713,0.15,2.572c0.018,0.445,0.137,0.893,0.249,1.33c0.055,0.212,0.106,0.426,0.159,0.64h1.277
		C51.009,94.664,50.74,93.799,50.651,92.895z"/>
	<path fill="#280D09" d="M30.379,43.043c0.537-0.881,1.008-1.804,1.736-2.575c0.678-0.717,1.393-1.39,2.142-2.019
		c0.854-0.72,0.931-1.812,0.079-2.349c-0.336-0.211-0.7-0.423-1.086-0.047c-0.387,0.376-0.719,0.597-1.131,0.809
		c-0.412,0.209-0.758,0.487-1.043,0.844c-0.522,0.653-1.125,1.234-1.586,1.94c-0.329,0.505-0.737,0.959-1.049,1.474
		c-0.756,1.245-1.146,2.662-1.789,3.962c-0.037,0.075-0.059,0.16-0.074,0.241c-0.182,0.888-0.445,1.755-0.658,2.635
		c-0.182,0.757-0.141,1.505-0.125,2.258c0.007,0.287,0.154,0.548,0.296,0.795c0.28,0.49,0.741,0.716,1.258,0.63
		c0.5-0.083,0.864-0.463,0.967-1.026c0.088-0.482,0.086-0.975,0.112-1.459c0.072-1.324,0.529-2.555,0.865-3.807
		C29.512,44.539,29.941,43.767,30.379,43.043z"/>
	<path fill="#280D09" d="M25.45,37.314c-0.595-0.114-1.176-0.06-1.607,0.444c-0.292,0.344-0.57,0.701-0.785,1.106
		c-0.492,0.932-0.848,1.919-1.204,2.911c-0.186,0.521-0.35,1.046-0.501,1.58c-0.098,0.341-0.615,1.684-0.252,3.012
		c0.135,0.495,0.621,0.792,1.115,0.807c0.49,0.014,1.002-0.267,1.129-0.755c0.127-0.485,0.365-0.94,0.406-1.444
		c0.081-0.994,0.334-1.961,0.639-2.89c0.307-0.929,0.767-1.823,1.374-2.611c0.269-0.347,0.386-0.747,0.397-1.177
		C26.172,37.827,25.885,37.4,25.45,37.314z"/>
	<path fill="#280D09" d="M120.021,70.88c-0.475,0.9-0.715,1.887-0.932,2.861c-0.135,0.612-0.445,1.129-0.729,1.622
		c-0.297,0.516-0.752,0.977-1.164,1.436c-0.535,0.598-1.113,1.158-1.654,1.752c-0.336,0.367-0.389,0.814-0.203,1.271
		c0.188,0.461,0.557,0.742,1.047,0.723c0.508-0.021,1.031-0.09,1.477-0.387c1.211-0.807,2.088-1.904,2.697-3.229
		c0.076-0.166,0.121-0.344,0.273-0.469c0.297-0.25,0.428-0.596,0.498-0.969c0.025-0.131,0.049-0.251,0.135-0.368
		c0.625-0.86,0.758-1.875,0.893-2.821c-0.043-0.39-0.072-0.706-0.111-1.023c-0.064-0.534-0.447-0.961-0.936-1.051
		C120.787,70.129,120.281,70.389,120.021,70.88z"/>
	<path fill="#280D09" d="M126.531,74.72c-0.096-0.634-0.539-1.077-1.107-1.132c-0.559-0.054-1.047,0.259-1.268,0.859
		c-0.16,0.439-0.318,0.878-0.422,1.34c-0.125,0.555-0.229,1.166-0.539,1.611c-0.6,0.863-1.098,1.799-1.771,2.607
		c-0.213,0.258-0.451,0.496-0.662,0.754c-0.234,0.283-0.271,0.615-0.131,0.951c0.143,0.339,0.414,0.552,0.777,0.538
		c0.428-0.018,0.855-0.061,1.254-0.268c0.416-0.219,0.732-0.587,1.117-0.813c0.721-0.424,1.143-1.047,1.518-1.754
		c0.197-0.373,0.262-0.793,0.484-1.156c0.537-0.881,0.699-1.871,0.781-2.882C126.553,75.158,126.562,74.935,126.531,74.72z"/>
	<path fill="#FFFFFF" d="M85.523,94.822c-0.029-0.162-0.053-0.324-0.055-0.486c-0.002-0.129,0.018-0.25,0.02-0.377
		c0-0.047-0.004-0.098-0.012-0.146c-0.109-0.729-0.236-1.463-0.543-2.139c-0.119-0.262-0.221-0.521-0.285-0.805
		c-0.211-0.918-0.414-1.857-0.951-2.639c-0.455-0.664-0.723-1.438-1.236-2.061c-0.299-0.363-0.48-0.811-0.814-1.148
		c-0.803-0.812-1.73-1.463-2.641-2.137c-0.273-0.205-0.584-0.328-0.918-0.379c-0.479-0.07-0.943-0.244-1.359-0.441
		c-0.521-0.248-1.052-0.399-1.599-0.528c-0.531-0.127-1.061-0.115-1.559,0.141c-0.199,0.101-0.404,0.157-0.621,0.165
		c-0.305,0.01-0.588,0.102-0.865,0.225c-0.669,0.301-1.287,0.699-1.91,1.082c-0.52,0.32-1.031,0.699-1.443,1.148
		c-0.604,0.66-1.253,1.293-1.676,2.113c-0.295,0.578-0.787,1.055-0.887,1.732c-0.054,0.369-0.148,0.723-0.259,1.076
		c-0.19,0.623-0.496,1.213-0.513,1.889c-0.01,0.369-0.032,0.74-0.066,1.107c-0.096,1.029-0.015,2.049,0.103,3.072
		c0.01,0.084,0.031,0.165,0.046,0.247h20.027C85.554,95.301,85.567,95.061,85.523,94.822z"/>
	<path fill="#FFFFFF" d="M83.062,52.161c-0.153-0.438-0.354-0.847-0.568-1.246c-0.421-0.096-0.799-0.337-1.223-0.426
		c-0.174-0.037-0.336-0.135-0.506-0.207c-0.711-0.297-1.057-0.917-0.889-1.596c0.09-0.36,0.336-0.633,0.656-0.806
		c-0.066-0.091-0.143-0.178-0.199-0.273c-0.322-0.548-0.727-0.944-1.234-1.278c-0.25-0.164-0.484-0.356-0.719-0.545
		c-1.061-0.86-2.295-0.988-3.548-0.725c-0.816,0.171-1.637,0.375-2.412,0.754c-0.733,0.358-1.375,0.83-1.996,1.332
		c0.116,0.208,0.166,0.449,0.121,0.736c-0.082,0.547-0.488,0.759-0.949,0.917c-0.285,0.098-0.578,0.153-0.872,0.196
		c-0.284,0.419-0.566,0.841-0.919,1.205c-0.092,0.094-0.143,0.227-0.22,0.336c-0.624,0.895-0.921,1.936-1.275,2.95
		c-0.099,0.284-0.13,0.59-0.161,0.892c-0.094,0.907-0.441,1.771-0.346,2.717c0.036,0.35-0.069,0.732,0.008,1.099
		c0.174,0.836,0.275,1.683,0.492,2.518c0.303,1.176,0.818,2.155,1.762,2.902c0.17,0.135,0.336,0.28,0.479,0.444
		c0.73,0.844,1.7,1.284,2.725,1.585c0.602,0.176,1.232,0.26,1.848,0.405c0.375,0.087,0.754,0.144,1.137,0.025
		c0.098-0.029,0.197-0.018,0.295,0.017c0.432,0.149,0.883,0.151,1.496,0.147c0.369-0.023,0.902-0.031,1.432-0.095
		c0.629-0.077,1.268-0.26,1.787-0.588c0.645-0.409,1.328-0.757,1.861-1.393c0.637-0.766,1.281-1.495,1.656-2.433
		c0.125-0.312,0.26-0.62,0.41-0.92c0.375-0.757,0.662-1.541,0.713-2.396c0.016-0.235,0.02-0.471,0.084-0.702
		c0.215-0.785,0.115-2.771-0.141-3.542C83.619,53.484,83.299,52.834,83.062,52.161z M75.85,64.419
		c-0.213,0.03-0.434,0.004-0.711,0.004c-0.307,0.02-0.666-0.014-1.008-0.176c-0.482-0.229-0.732-0.636-0.68-1.124
		c0.051-0.481,0.385-0.811,0.918-0.924c0.514-0.109,1.027-0.033,1.533,0.023c0.535,0.061,0.908,0.581,0.896,1.117
		C76.783,63.881,76.389,64.344,75.85,64.419z M80.988,56.042c-0.318,0.276-0.664,0.505-1.07,0.63
		c-0.254,0.077-0.379,0.215-0.432,0.524c-0.074,0.439-0.207,0.866-0.354,1.285c-0.139,0.406-0.262,0.83-0.455,1.209
		c-0.029,0.06-0.07,0.112-0.113,0.165c-0.143,0.178-0.285,0.32-0.467,0.465c-0.195,0.156-0.395,0.304-0.602,0.441
		c-0.354,0.231-0.732,0.442-1.139,0.562c-0.146,0.045-0.312,0.088-0.466,0.083c-2.531-0.085-3.781-1.479-4.281-3.164
		c-0.102-0.345-0.002-0.701-0.072-1.055c-0.049-0.25-0.134-0.343-0.363-0.433c-1.143-0.449-2.089-1.117-2.346-2.439
		c-0.127-0.653-0.111-1.303,0.199-1.917c0.106-0.209,0.178-0.436,0.281-0.646c0.322-0.653,0.976-0.937,1.576-0.694
		c0.616,0.25,0.891,0.885,0.695,1.591c-0.072,0.259-0.128,0.521-0.199,0.78c-0.088,0.32,0.053,0.582,0.271,0.759
		c0.246,0.199,0.543,0.191,0.842,0.025c0.531-0.295,0.852-0.796,1.039-1.317c0.287-0.795,0.445-1.642,0.623-2.475
		c0.07-0.338-0.016-0.625-0.363-0.854c-0.451-0.296-0.574-0.901-0.398-1.408c0.17-0.485,0.613-0.823,1.141-0.84
		c0.35-0.012,0.697-0.032,1.047-0.048c1.105-0.055,1.896,1.111,1.369,2.077c-0.309,0.568-0.277,1.24-0.324,1.873
		c-0.051,0.664,0.127,1.29,0.383,1.906c0.375,0.904,1.521,1.281,2.311,0.723c0.691-0.488,1.467-0.426,1.922,0.156
		C81.725,54.624,81.619,55.495,80.988,56.042z"/>
	<path fill="#F98EA8" d="M97.154,66.227c0.34-0.026,0.678-0.049,1.016-0.084c0.268-0.026,0.537-0.05,0.805-0.087
		c0.238-0.033,0.467-0.15,0.703-0.205c0.295-0.067,0.596-0.114,0.887-0.195c0.672-0.186,1.352-0.303,1.924-0.766
		c0.324-0.259,0.619-0.55,0.973-0.784c0.975-0.641,1.666-1.502,1.953-2.696c0.23-0.969,0.176-1.974,0.432-2.934
		c0.02-0.078,0.016-0.17-0.002-0.251c-0.273-1.295-0.514-2.6-1.109-3.798c-0.188-0.38-0.41-0.741-0.658-1.073
		c-0.617-0.835-1.26-1.652-2.178-2.188c-0.723-0.423-1.469-0.75-2.283-0.977c-0.656-0.183-1.27-0.495-1.955-0.659
		c-0.676-0.163-1.365-0.215-2.037-0.387c-0.246-0.063-0.514-0.119-0.785-0.112c-0.93,0.018-1.826,0.167-2.723,0.444
		c-0.746,0.231-1.412,0.541-2.047,0.99c-1.041,0.738-1.893,1.626-2.406,2.816c-0.193,0.447-0.523,0.819-0.654,1.304
		c-0.199,0.725-0.439,1.422-0.492,2.198c-0.078,1.189,0.092,2.299,0.535,3.386c0.129,0.313,0.4,0.553,0.492,0.868
		c0.219,0.763,0.75,1.302,1.256,1.843c0.496,0.53,1.035,1.025,1.66,1.421c0.521,0.33,1.014,0.703,1.611,0.891
		c0.188,0.061,0.389,0.078,0.564,0.187c0.537,0.326,1.148,0.422,1.74,0.588c0.232,0.064,0.475,0.061,0.711,0.09
		c0.172,0.021,0.34,0.069,0.502,0.124c0.025,0.01,0.053,0.016,0.078,0.021c0.137,0.028,0.273,0.013,0.416,0.019
		C96.441,66.233,96.797,66.254,97.154,66.227z"/>
	<path fill="#F98EA8" d="M59.618,47.091c-0.87-0.63-1.786-1.095-2.826-1.299c-0.631-0.124-1.271-0.224-1.912-0.279
		c-0.577-0.051-1.154-0.212-1.732-0.118c-0.35,0.057-0.691,0.08-1.041,0.083c-0.735,0.008-1.414,0.332-2.141,0.398
		c-0.271,0.026-0.443,0.329-0.695,0.377c-1.075,0.209-1.814,1.013-2.713,1.532c-0.123,0.071-0.201,0.221-0.307,0.329
		c-0.5,0.525-0.825,1.179-1.252,1.75c-0.436,0.587-0.574,1.232-0.751,1.892c-0.254,0.941-0.181,1.903-0.197,2.861
		c-0.022,1.262,0.2,2.437,0.966,3.466c0.039,0.053,0.06,0.12,0.089,0.181c0.429,0.882,1.009,1.641,1.757,2.273
		c0.893,0.76,1.82,1.448,2.99,1.715c0.307,0.068,0.61,0.152,0.91,0.252c0.969,0.325,1.973,0.461,2.988,0.391
		c0.327-0.022,0.652-0.112,1.147-0.07c0.303,0.083,0.726-0.103,1.159-0.212c1.027-0.26,2.053-0.491,2.938-1.161
		c0.373-0.28,0.695-0.624,1.097-0.868c0.659-0.402,1.224-0.901,1.642-1.574c0.91-1.47,1.236-3.108,1.287-4.797
		c0.025-0.809-0.111-1.651-0.332-2.434C62.158,49.904,61.245,48.268,59.618,47.091z"/>
	<path fill="#F98EA8" d="M74.073,56.558c-0.037,0.019-0.062,0.077-0.076,0.122c-0.109,0.347,0.318,1.495,0.623,1.737
		c0.328,0.264,0.705,0.264,1.088,0.246c0.447-0.022,1.041-0.626,1.05-1.084c0.004-0.286-0.021-0.572,0.043-0.854
		c0.027-0.116,0.01-0.197-0.102-0.243c-0.586-0.242-0.912-0.809-1.429-1.165C74.877,55.729,74.62,56.29,74.073,56.558z"/>
	<path fill="#280D09" d="M70.424,47.146c-0.116-0.208-0.299-0.381-0.521-0.53c-0.094-0.062-0.17-0.163-0.268-0.215
		c-0.071-0.04-0.179-0.071-0.258-0.086c-0.077-0.012-0.153-0.011-0.231-0.017c-0.118-0.006-0.236-0.016-0.356-0.009
		c-0.181,0.012-0.365,0.025-0.543,0.053c-0.139,0.022-0.271,0.027-0.402,0.077c-0.129,0.047-0.26,0.092-0.387,0.142
		c-0.262,0.104-0.518,0.231-0.722,0.428c-0.403,0.387-0.54,0.952-0.345,1.431c0.201,0.491,0.669,0.795,1.251,0.71
		c0.359-0.051,0.722-0.083,1.082-0.135c0.345-0.509,0.693-1.015,1.169-1.412C70.069,47.436,70.246,47.29,70.424,47.146z"/>
	<path fill="#280D09" d="M70.545,47.882c0.044-0.287-0.005-0.529-0.121-0.736c-0.178,0.145-0.355,0.29-0.531,0.438
		c-0.476,0.397-0.824,0.903-1.169,1.412c0.294-0.042,0.587-0.098,0.872-0.196C70.057,48.641,70.463,48.429,70.545,47.882z"/>
	<path fill="#280D09" d="M82.494,50.915c0.108,0.024,0.218,0.047,0.334,0.046c0.574-0.01,0.945-0.311,1.061-0.867
		c0.07-0.346,0.023-0.692-0.186-0.96c-0.588-0.752-1.275-1.357-2.285-1.441c-0.327-0.027-0.628,0.05-0.885,0.188
		c0.255,0.352,0.55,0.685,0.777,1.06C81.711,49.596,82.13,50.238,82.494,50.915z"/>
	<path fill="#280D09" d="M79.877,48.686c-0.168,0.679,0.178,1.299,0.889,1.596c0.17,0.072,0.332,0.17,0.506,0.207
		c0.424,0.089,0.802,0.33,1.223,0.426c-0.364-0.677-0.783-1.319-1.184-1.975c-0.228-0.375-0.522-0.708-0.777-1.06
		C80.213,48.053,79.967,48.326,79.877,48.686z"/>
	<path fill="#280D09" d="M75.903,62.224c-0.506-0.056-1.02-0.132-1.533-0.023c-0.533,0.113-0.867,0.442-0.918,0.924
		c-0.053,0.487,0.197,0.895,0.68,1.124c0.342,0.162,0.701,0.196,1.008,0.176c0.277,0,0.498,0.025,0.711-0.004
		c0.539-0.076,0.933-0.538,0.949-1.079C76.811,62.805,76.438,62.284,75.903,62.224z"/>
	<path fill="#280D09" d="M79.32,53.85c-0.789,0.559-1.936,0.182-2.311-0.723c-0.256-0.616-0.434-1.242-0.383-1.906
		c0.047-0.633,0.016-1.305,0.324-1.873c0.527-0.966-0.264-2.131-1.369-2.077c-0.35,0.017-0.697,0.037-1.047,0.048
		c-0.527,0.018-0.971,0.355-1.141,0.84c-0.176,0.507-0.053,1.112,0.398,1.408c0.348,0.229,0.434,0.516,0.363,0.854
		c-0.178,0.833-0.336,1.68-0.623,2.475c-0.188,0.521-0.508,1.022-1.039,1.317c-0.299,0.166-0.596,0.174-0.842-0.025
		c-0.219-0.177-0.359-0.439-0.271-0.759c0.071-0.26,0.127-0.521,0.199-0.78c0.195-0.706-0.079-1.342-0.695-1.591
		c-0.601-0.243-1.254,0.041-1.576,0.694c-0.104,0.21-0.175,0.437-0.281,0.646c-0.311,0.614-0.326,1.264-0.199,1.917
		c0.257,1.322,1.203,1.99,2.346,2.439c0.229,0.09,0.314,0.184,0.363,0.433c0.07,0.354-0.029,0.71,0.072,1.055
		c0.5,1.685,1.75,3.079,4.281,3.164c0.154,0.005,0.32-0.038,0.466-0.083c0.406-0.12,0.785-0.331,1.139-0.562
		c0.207-0.137,0.406-0.285,0.602-0.441c0.182-0.145,0.324-0.287,0.467-0.465c0.043-0.053,0.084-0.105,0.113-0.165
		c0.193-0.379,0.316-0.803,0.455-1.209c0.146-0.419,0.279-0.846,0.354-1.285c0.053-0.309,0.178-0.448,0.432-0.524
		c0.406-0.125,0.752-0.354,1.07-0.63c0.631-0.547,0.736-1.418,0.254-2.036C80.787,53.424,80.012,53.361,79.32,53.85z M77.457,57.339
		c-0.102,0.088-0.107,0.211-0.092,0.324c0.074,0.502-0.096,0.903-0.43,1.272c-0.18,0.197-0.344,0.338-0.625,0.332
		c-0.529-0.012-1.06,0.012-1.589,0c-0.551-0.013-0.912-0.31-1.096-0.846c-0.07-0.2-0.072-0.436-0.27-0.577c0-0.641,0-1.284,0-1.925
		c0.635-0.168,0.92-0.69,1.201-1.217c0.467,0,0.932,0,1.4,0c0.466,0.447,0.814,1.044,1.5,1.217
		C77.457,56.393,77.457,56.865,77.457,57.339z"/>
	<path fill="#280D09" d="M75.958,54.703c-0.469,0-0.934,0-1.4,0c-0.281,0.527-0.566,1.048-1.201,1.217c0,0.641,0,1.284,0,1.925
		c0.197,0.141,0.199,0.376,0.27,0.577c0.184,0.536,0.545,0.833,1.096,0.846c0.529,0.012,1.061-0.012,1.589,0
		c0.281,0.006,0.445-0.135,0.625-0.332c0.334-0.369,0.504-0.77,0.43-1.272c-0.016-0.113-0.01-0.236,0.092-0.324
		c0-0.474,0-0.946,0-1.419C76.771,55.747,76.424,55.15,75.958,54.703z M76.801,56.725c-0.064,0.281-0.039,0.567-0.043,0.854
		c-0.01,0.458-0.604,1.062-1.05,1.084c-0.383,0.018-0.76,0.018-1.088-0.246c-0.305-0.242-0.732-1.391-0.623-1.737
		c0.014-0.045,0.039-0.103,0.076-0.122c0.547-0.268,0.805-0.829,1.197-1.241c0.518,0.356,0.843,0.923,1.429,1.165
		C76.811,56.528,76.828,56.609,76.801,56.725z"/>
</g>
</svg>
