<?xml version="1.0" encoding="utf-8"?>
<!-- Generator: Adobe Illustrator 16.0.0, SVG Export Plug-In . SVG Version: 6.00 Build 0)  -->
<!DOCTYPE svg PUBLIC "-//W3C//DTD SVG 1.1//EN" "http://www.w3.org/Graphics/SVG/1.1/DTD/svg11.dtd">
<svg version="1.1" id="Layer_1" xmlns="http://www.w3.org/2000/svg" xmlns:xlink="http://www.w3.org/1999/xlink" x="0px" y="0px"
	 width="180px" height="180px" viewBox="0 0 180 180" enable-background="new 0 0 180 180" xml:space="preserve">
<g>
	<path fill-rule="evenodd" clip-rule="evenodd" fill="#FAA7BD" d="M171.715,96.588c-0.025,1.108,0.182,2.237-0.123,3.35
		c-0.148,0.536,0.193,1.049,0.184,1.605c-0.025,1.288-0.068,2.579,0.004,3.875c0.125,2.286-0.377,4.507-0.799,6.734
		c-0.205,1.057-0.301,2.144-0.416,3.2c-0.178,1.671-0.746,3.225-1.055,4.855c-0.279,1.484-0.523,2.976-1.156,4.371
		c-0.082,0.189-0.088,0.433-0.064,0.645c0.105,0.844-0.137,1.561-0.693,2.195c-0.234,0.273-0.34,0.622-0.412,0.986
		c-0.117,0.641-0.295,1.261-0.689,1.803c-0.084,0.111-0.178,0.256-0.189,0.386c-0.141,1.651-1.02,2.987-2.016,4.2
		c-1.279,1.544-1.889,3.7-3.99,4.553c-0.287,0.109-0.48,0.426-0.725,0.647c-1.129,1.029-2.48,1.704-3.838,2.357
		c-0.098,0.046-0.207,0.083-0.291,0.145c-1.859,1.34-4.123,1.646-6.193,2.442c-0.645,0.25-1.283,0.483-1.855,0.885
		c-0.566,0.398-1.193,0.651-1.928,0.592c-0.875-0.062-1.729,0.173-2.547,0.443c-1.609,0.537-3.24,1.042-4.904,1.301
		c-1.812,0.275-3.604,0.657-5.422,0.867c-0.217,0.029-0.475,0.006-0.637,0.12c-0.941,0.655-2.012,0.572-3.047,0.507
		c-1.293-0.083-2.461,0.568-3.73,0.574c-0.107,0-0.213,0.079-0.309,0.067c-2.074-0.164-4.09,0.445-6.145,0.476
		c-2.059,0.035-4.102,0.265-6.152,0.39c-1.795,0.11-3.609,0.091-5.422-0.091c-1.57-0.153-3.17-0.171-4.764,0.055
		c-1.174,0.165-2.385,0.262-3.543-0.166c-0.42-0.158-0.842-0.198-1.279-0.182c-1.879,0.067-3.754-0.094-5.643,0.17
		c-1.5,0.208-3.012-0.146-4.516-0.307c-1.364-0.148-2.731-0.235-4.102-0.291c-1.232-0.048-2.469-0.065-3.704,0
		c-1.919,0.099-3.821-0.258-5.741-0.229c-0.791,0.012-1.574,0.055-2.369,0.152c-1.093,0.139-2.238,0.243-3.272-0.416
		c-0.39-0.249-0.862-0.372-1.347-0.378c-1.622-0.029-3.24-0.04-4.867-0.202c-2.039-0.2-4.082-0.349-6.117-0.578
		c-2.57-0.291-5.122-0.779-7.738-0.797c-1.958-0.017-3.943-0.146-5.874-0.739c-1.361-0.425-2.818-0.538-4.241-0.74
		c-0.372-0.051-0.7-0.156-1.019-0.324c-0.718-0.376-1.469-0.615-2.292-0.555c-0.372,0.028-0.737-0.006-1.039-0.235
		c-1.482-1.099-3.399-1.23-4.93-2.229c-0.139-0.089-0.348-0.154-0.513-0.131c-0.721,0.091-1.22-0.245-1.714-0.73
		c-0.579-0.573-1.387-0.758-2.14-0.991c-0.677-0.214-1.223-0.538-1.684-1.106c-0.493-0.614-1.032-1.224-1.799-1.542
		c-0.281-0.111-0.47-0.325-0.641-0.566c-0.165-0.235-0.305-0.526-0.531-0.679c-1.474-1-2.242-2.609-3.418-3.87
		c-0.364-0.388-0.443-0.902-0.672-1.346c-0.81-1.565-1.525-3.185-2.364-4.738c-0.375-0.697-0.345-1.471-0.617-2.166
		c-0.396-1.005-0.753-2.028-1.087-3.056c-0.467-1.434-0.821-2.904-1.376-4.323c-0.411-1.045-0.423-2.243-0.626-3.373
		c-0.467-2.616-0.606-5.279-1.388-7.851c-0.462-1.518-0.603-3.123-0.222-4.7c0.147-0.608-0.173-1.121-0.163-1.713
		c0.048-2.306-0.121-4.626,0.034-6.924c0.209-3.183-0.003-6.384,0.254-9.551c0.154-1.937,0.357-3.945,1.095-5.806
		c0.112-0.277,0.142-0.555,0.139-0.85c-0.015-2.039,0.364-3.981,1.004-5.932c0.651-1.973,0.907-4.075,1.595-6.055
		c0.558-1.594,0.999-3.236,1.713-4.772c0.496-1.063,0.67-2.209,0.978-3.318c0.287-1.028,0.7-1.997,1.27-2.865
		c1.234-1.867,1.994-4.028,3.547-5.694c0.098-0.101,0.166-0.243,0.209-0.378c0.806-2.439,2.806-3.863,4.619-5.445
		c0.027-0.019,0.07-0.024,0.092-0.049c1.294-1.364,2.793-2.421,4.459-3.29c0.709-0.372,1.426-0.768,2.171-0.968
		c1.208-0.319,2.233-1.01,3.388-1.431c1.657-0.596,3.319-1.18,4.97-1.796c1.447-0.536,2.984-0.756,4.397-1.405
		c1.054-0.483,2.257-0.407,3.388-0.637c2.505-0.496,5.004-1.011,7.458-1.738c0.862-0.253,1.79-0.017,2.696-0.159
		c1.808-0.276,3.547-0.915,5.438-0.803c3.459,0.213,6.905-0.312,10.375-0.241c1.205,0.023,2.455-0.261,3.669-0.132
		c1.698,0.178,3.378,0.043,5.067-0.023c1.413-0.059,2.804,0.296,4.203,0.296c0.999,0.006,2.002-0.106,3.006-0.111
		c0.584-0.006,1.161,0.005,1.705,0.254c0.918,0.426,1.934,0.266,2.885,0.336c1.65,0.13,3.312,0.231,4.971,0.289
		c1.4,0.054,2.814-0.088,4.197,0.054c1.465,0.153,2.936,0.177,4.398,0.484c1.32,0.278,2.689,0.448,4.037,0.625
		c1.598,0.214,3.277-0.229,4.801,0.557c0.029,0.018,0.072,0.018,0.105,0.018c1.451-0.06,2.873,0.301,4.293,0.373
		c1.834,0.082,3.59,0.838,5.461,0.555c0.248-0.042,0.549,0.152,0.799,0.289c1.041,0.585,2.154,0.832,3.336,0.768
		c0.664-0.04,1.336-0.019,1.898,0.343c0.775,0.495,1.646,0.715,2.512,0.958c0.865,0.247,1.732,0.506,2.436,1.121
		c0.082,0.07,0.178,0.154,0.277,0.165c1.893,0.261,3.418,1.507,5.234,1.961c0.328,0.083,0.633,0.183,0.887,0.391
		c0.402,0.337,0.881,0.508,1.367,0.638c2.193,0.58,4.043,1.742,5.922,3.007c1.941,1.311,3.508,3.001,5.338,4.399
		c0.174,0.137,0.348,0.284,0.396,0.509c0.232,1.052,1.084,1.666,1.688,2.47c1,1.328,2.266,2.41,3.268,3.727
		c0.543,0.715,0.816,1.535,1.082,2.415c0.477,1.613,1.264,3.137,1.947,4.685c0.232,0.531,0.393,1.076,0.574,1.619
		c0.484,1.417,0.969,2.894,1.77,4.141c0.877,1.358,1.174,2.788,1.203,4.3c0.031,1.388,0.09,2.74,0.693,4.022
		c0.088,0.189,0.195,0.419,0.172,0.62c-0.113,1.229,0.34,2.339,0.672,3.485c0.617,2.149,0.492,4.43,1.086,6.593
		c0.123,0.447,0.111,0.985,0.385,1.334c0.57,0.738,0.537,1.554,0.502,2.38c-0.051,1.236,0.234,2.435,0.361,3.649
		C171.801,94.619,171.715,95.606,171.715,96.588"/>
	<path fill-rule="evenodd" clip-rule="evenodd" fill="#FAA7BD" d="M125.023,20.55c-0.195,3.131-0.332,5.723-0.523,8.316
		c-0.084,1.105-0.412,1.441-1.545,1.452c-1.164,0.013-2.408,0.338-3.455-0.501c-0.084-0.065-0.211-0.1-0.305-0.1
		c-1.354,0.04-2.633-0.438-3.943-0.579c-1.352-0.148-2.697-0.367-4.053-0.526c-0.502-0.06-0.715-0.289-0.797-0.709
		c-0.414-2.132-0.738-4.241-0.121-6.42c0.232-0.84,0.395-1.761,0.328-2.677c-0.018-0.248-0.006-0.514,0.055-0.749
		c0.672-2.498,1.711-4.804,3.426-6.775c0.533-0.62,1.18-0.935,1.977-0.962c0.434-0.019,0.881,0.047,1.307-0.019
		c2.699-0.414,4.467,1.176,5.982,2.982c0.693,0.821,1.297,1.932,1.164,3.178C124.348,18.033,125.264,19.505,125.023,20.55"/>
	<path fill-rule="evenodd" clip-rule="evenodd" fill="#FAA7BD" d="M70.577,26.438c-2.139,0-4.276-0.017-6.417,0.012
		c-0.671,0.012-0.986-0.095-1.105-0.891c-0.292-1.991-0.354-4.018-0.062-5.948c0.304-1.998,0.617-4.047,1.387-5.967
		c0.506-1.275,1.333-2.279,2.337-3.172c0.892-0.792,1.749-1.66,3.013-1.801c1.583-0.184,3.183-0.066,4.776-0.083
		c0.067,0,0.159,0.005,0.207,0.048c1.21,1.039,2.442,2.072,2.773,3.75c0.325,1.689,0.484,3.408,0.945,5.086
		c0.367,1.334,0.242,2.746,0.086,4.099c-0.157,1.323-0.44,2.634-0.358,3.97c0.042,0.744-0.256,0.921-0.945,0.909
		c-2.212-0.041-4.424-0.017-6.636-0.017V26.438z"/>
	<path fill-rule="evenodd" clip-rule="evenodd" fill="#FFFFFF" d="M155.889,82.984c0.277,3.875,0.23,7.75,0.189,11.622
		c-0.016,1.768-0.189,3.498-0.562,5.246c-0.408,1.926-0.908,3.842-1.176,5.795c-0.121,0.852-0.365,1.702-0.9,2.423
		c-0.064,0.083-0.143,0.188-0.146,0.283c-0.084,2.369-1.443,4.223-2.596,6.106c-1.738,2.835-3.809,5.388-6.375,7.597
		c-1.469,1.263-3.262,2.002-4.641,3.35c-0.479,0.471-1.213,0.744-1.9,0.721c-0.824-0.022-1.441,0.272-2.057,0.756
		c-1.045,0.827-2.379,0.999-3.566,1.494c-1.596,0.661-3.309,0.638-4.939,1.083c-2.809,0.76-5.635,1.48-8.617,1.334
		c-1.303-0.06-2.654,0.224-3.932,0.555c-1.049,0.267-2.098,0.359-3.115,0.207c-1.465-0.224-2.854-0.184-4.268,0.295
		c-1.15,0.383-2.373,0.308-3.531,0.022c-0.713-0.177-1.41-0.312-2.139-0.27c-2.059,0.093-4.115-0.06-6.182,0.164
		c-0.994,0.105-2.074-0.135-3.121-0.152c-0.512-0.012-1.014,0.021-1.487,0.228c-0.699,0.305-1.447,0.299-2.141,0.15
		c-0.724-0.162-1.435-0.126-2.156-0.166c-2.229-0.143-4.504-0.083-6.68-0.503c-1.902-0.366-3.825-0.312-5.667-0.673
		c-2.026-0.401-4.094-0.172-6.087-0.732c-0.783-0.22-1.648-0.178-2.473-0.235c-2.587-0.188-5.152-0.574-7.726-0.804
		c-1.911-0.172-3.756-0.663-5.663-0.792c-1.13-0.077-2.24-0.515-3.351-0.821c-2.014-0.55-4.105-0.75-6.113-1.316
		c-1.285-0.36-2.425-1.053-3.556-1.768c-1.214-0.766-2.227-1.843-3.624-2.327c-0.372-0.129-0.741-0.312-1.019-0.614
		c-1.223-1.34-2.731-2.375-3.952-3.721c-0.242-0.264-0.525-0.503-0.662-0.85c-0.552-1.413-1.456-2.658-1.899-4.123
		c-0.18-0.598-0.496-1.134-0.874-1.619c-0.435-0.561-0.667-1.193-0.804-1.872c-0.387-1.937-0.558-3.947-1.188-5.794
		c-0.977-2.89-0.481-5.813-0.597-8.713c-0.046-1.129-0.126-2.228-0.431-3.312c-0.36-1.282-0.375-2.547,0.056-3.841
		c0.301-0.904,0.207-1.885,0.077-2.806c-0.295-2.074-0.095-4.087,0.468-6.084c0.256-0.939,0.522-1.885,0.449-2.877
		c-0.04-0.52,0.044-1.027,0.244-1.482c0.697-1.589,0.756-3.373,1.563-4.914c0.124-0.236,0.159-0.479,0.165-0.732
		c0.032-1.689,0.765-3.066,1.907-4.247c0.686-0.703,1.326-1.43,1.797-2.298c0.117-0.224,0.286-0.419,0.458-0.602
		c1.415-1.495,2.832-2.978,4.249-4.466c0.302-0.313,0.615-0.633,1.043-0.764c1.306-0.383,2.33-1.315,3.554-1.837
		c1.866-0.796,3.367-2.279,5.342-2.822c1.801-0.502,3.544-1.176,5.345-1.666c0.441-0.118,0.938-0.071,1.407-0.053
		c1.311,0.047,2.564-0.165,3.844-0.497c1.236-0.318,2.51-0.597,3.828-0.619c1.728-0.03,3.453-0.225,5.177-0.319
		c0.39-0.023,0.779,0.095,1.175,0.112c1.447,0.053,2.894,0.047,4.289-0.443c0.555-0.195,1.128-0.201,1.708-0.212
		c3.473-0.048,6.926-0.686,10.397-0.401c3.146,0.247,6.33-0.143,9.425,0.288c2.688,0.379,5.352,0.024,7.986,0.366
		c2.717,0.354,5.465,0.237,8.17,0.774c1.174,0.23,2.432,0.325,3.662,0.289c0.363-0.018,0.803-0.095,1.068,0.065
		c1.416,0.867,2.959,0.544,4.459,0.584c0.406,0.013,0.797,0,1.156,0.213c0.328,0.189,0.684,0.26,1.047,0.225
		c1.418-0.13,2.809,0.261,4.223,0.226c0.631-0.019,1.209,0.229,1.725,0.578c0.564,0.385,1.176,0.52,1.844,0.501
		c2.004-0.046,3.938,0.35,5.879,0.78c0.732,0.166,1.469,0.325,2.207,0.503c1.631,0.396,2.979,1.275,4.223,2.332
		c0.396,0.338,0.783,0.621,1.291,0.763c1.035,0.289,1.898,0.85,2.645,1.63c0.693,0.727,1.598,1.253,2.045,2.21
		c0.064,0.141,0.268,0.241,0.426,0.312c0.551,0.243,1.049,0.604,1.334,1.088c0.873,1.482,2.119,2.734,2.74,4.37
		c0.234,0.616,0.561,1.194,0.973,1.685c1.406,1.683,2.062,3.716,2.814,5.711c0.059,0.165,0.107,0.354,0.092,0.531
		c-0.125,1.843,0.623,3.456,1.305,5.093c0.35,0.839,0.348,1.76,0.43,2.651C155.934,81.749,155.889,82.37,155.889,82.984"/>
	<path fill="#280D09" d="M177.504,95.861c-0.143-1.07-0.105-2.169-0.08-3.25c0.023-1.139-0.014-2.25-0.521-3.29
		c-0.119-0.241-0.168-0.483-0.133-0.738c0.355-2.433-0.254-4.725-1.033-6.993c-0.35-1.033-0.4-2.132-0.465-3.213
		c-0.047-0.732-0.107-1.441-0.449-2.108c-0.096-0.188-0.221-0.408-0.209-0.603c0.162-2.181-0.791-4.088-1.334-6.102
		c-0.285-1.063-0.621-2.15-0.662-3.278c-0.012-0.213-0.023-0.443-0.109-0.64c-0.674-1.582-1.029-3.301-1.992-4.76
		c-0.299-0.454-0.26-0.976-0.449-1.441c-0.494-1.204-1.092-2.368-1.377-3.649c-0.045-0.208-0.143-0.42-0.27-0.591
		c-0.67-0.862-1.168-1.819-1.566-2.83c-0.645-1.624-1.768-2.965-2.982-4.1c-1.215-1.134-2.068-2.729-3.756-3.343
		c-0.121-0.047-0.238-0.177-0.309-0.296c-1.135-1.878-2.719-3.354-4.213-4.932c-1.34-1.411-2.953-2.256-4.518-3.283
		c-1.502-0.987-3.258-1.377-4.729-2.369c-0.092-0.059-0.189-0.136-0.291-0.147c-1.695-0.154-3.158-1.224-4.912-1.205
		c-0.715,0.006-1.385-0.384-2.059-0.65c-0.473-0.183-0.951-0.432-1.459-0.367c-0.871,0.107-1.674-0.152-2.422-0.478
		c-1.389-0.613-2.822-0.786-4.312-0.915c-0.988-0.082-1.928-0.655-2.947-0.661c-1.375-0.018-2.646-0.408-3.963-0.709
		c-1.445-0.331-2.992-0.338-4.488-0.644c-0.834-0.166-1.721-0.066-2.529-0.474c-0.279-0.142-0.656-0.247-0.945-0.188
		c-1.076,0.242-2.066-0.29-3.07-0.312c-1.693-0.03-3.338-0.479-5.039-0.427c-1.139,0.043-2.307,0.172-3.447-0.188
		c-0.334-0.105-0.725-0.112-1.078-0.064c-0.488,0.077-0.914-0.006-1.354-0.225c-0.596-0.295-1.262-0.467-1.9-0.318
		c-0.82,0.183-1.578,0.047-2.357-0.148c-0.17-0.041-0.359-0.095-0.531-0.082c-2.17,0.177-4.32-0.461-6.461-0.284
		c-1.388,0.118-2.65-0.005-3.991-0.295c-0.989-0.219-2.082,0.023-3.125,0.077c-0.982,0.052-1.952,0.1-2.9-0.249
		c-1-0.366-2.017-0.006-3.021-0.006c-1.164,0.006-2.303,0.023-3.461-0.142c-0.608-0.088-1.223-0.088-1.837-0.07h-0.257
		c-0.641,0.029-1.275,0.082-1.911,0.123c-1.595,0.106-3.184,0.154-4.778,0.124c-0.916-0.018-1.802,0.071-2.679,0.332
		c-0.836,0.247-1.674,0.247-2.554,0.229c-1.675-0.029-3.382-0.207-5.032,0.438c-0.94,0.36-2.003,0.2-3.004,0.318
		c-2.753,0.319-5.396,1.022-8.016,1.867c-0.348,0.112-0.701,0.183-1.06,0.206c-0.325,0.018-0.679,0.006-0.965,0.131
		c-1.929,0.832-4.015,1.127-6.013,1.712c-1.847,0.539-3.547,1.441-5.399,1.92c-0.757,0.194-1.318,0.751-1.973,1.123
		c-1.622,0.914-3.47,1.494-4.71,3.006c-0.136,0.165-0.316,0.349-0.511,0.402c-2.384,0.632-3.606,2.688-5.206,4.265
		c-1.283,1.258-2.116,2.9-3.533,4.07c-0.957,0.79-1.182,2.137-1.897,3.142c-1.302,1.819-1.925,3.957-2.803,5.979
		C10,54.59,9.854,54.934,9.66,55.234c-1.509,2.345-2.217,4.991-2.994,7.631c-0.458,1.555-0.907,3.125-1.371,4.679
		c-0.407,1.364-0.841,2.746-0.941,4.211c-0.113,1.619-0.481,3.214-0.911,4.785c-0.085,0.312-0.238,0.62-0.256,0.939
		c-0.109,2.085-0.454,4.157-0.339,6.254c0.014,0.29,0.076,0.592-0.057,0.857c-0.989,1.984-0.605,4.123-0.68,6.201
		c-0.059,1.553,0.066,3.114,0.075,4.674c0.005,0.287,0.103,4.135-0.005,5.02c-0.012,0.102-0.015,0.206-0.024,0.307
		c0.006,0.491,0.018,0.98,0.024,1.471c0.073,0.468,0.206,0.927,0.457,1.384c0.455,0.827,0.224,1.783,0.221,2.67
		c-0.002,1.776,0.103,3.502,0.473,5.268c0.272,1.305,0.65,2.658,0.65,4.034c-0.003,0.037-0.006,0.077,0.009,0.112
		c0.771,1.773,0.672,3.745,1.24,5.57c0.452,1.447,0.83,2.918,1.199,4.389c0.168,0.681,0.384,1.334,0.856,1.854
		c0.564,0.621,0.635,1.453,0.927,2.18c0.849,2.092,2.006,3.975,3.149,5.906c0.921,1.56,2.374,2.743,2.995,4.472
		c0.039,0.101,0.115,0.184,0.171,0.276c0.417,0.626,3.996,3.842,4.708,4.088c1.271,0.438,2.212,1.334,3.216,2.151
		c0.28,0.229,0.546,0.586,0.865,0.644c1.923,0.354,3.482,1.639,5.357,2.09c0.529,0.133,1.041,0.291,1.554,0.476
		c1.723,0.604,3.518,0.908,5.236,1.633c1.915,0.812,4.084,1.016,6.143,1.486c0.75,0.17,1.512,0.038,2.272,0.093
		c1.476,0.094,2.894,0.555,4.399,0.549c1.084,0,2.184,0.366,3.293,0.501c1.696,0.214,3.391,0.02,5.093,0.239
		c0.995,0.121,2.068-0.012,3.107,0.104c0.756,0.089,1.517,0.291,2.235,0.305c1.506,0.038,2.974,0.393,4.474,0.393
		c1.146-0.006,2.316,0.204,3.419-0.341c0.284-0.143,0.538,0.15,0.789,0.275c0.807,0.401,1.642,0.55,2.531,0.358
		c0.177-0.04,0.378-0.121,0.532-0.071c2.35,0.771,4.813,0.168,7.217,0.609c1.619,0.305,3.332,0.471,5.057,0.311
		c1.563-0.148,3.161,0.121,4.75-0.055c0.272-0.028,0.483,0.116,0.723,0.203c0.373,0.139,0.775,0.275,1.166,0.222
		c1.777-0.222,3.531,0.096,5.305,0.173c0.793,0.035,1.584-0.096,2.371-0.154c0.553-0.042,1.115-0.024,1.668,0.053
		c0.469,0.065,0.895,0.229,1.371,0.283c0.461,0.054,0.916,0.04,1.377-0.006c0.52-0.06,1.035-0.113,1.553-0.113
		c0.402,0,0.781,0.082,1.184,0.082c0.293,0,0.596,0.02,0.883-0.065c0.316-0.085,0.598-0.028,0.918-0.034
		c1.807-0.021,3.611-0.045,5.416-0.021c1.17,0.018,2.305-0.214,3.457-0.32c0.217-0.019,0.441-0.092,0.648-0.063
		c2.221,0.312,4.357-0.38,6.539-0.551c1.188-0.093,2.387,0.231,3.562-0.152c2.135-0.692,4.387-0.681,6.566-1.118
		c1.1-0.22,2.092-0.748,3.225-0.914c2.072-0.297,4.141-0.657,6.156-1.271c0.342-0.104,0.742-0.139,1.021-0.348
		c0.717-0.525,1.547-0.608,2.365-0.657c2.332-0.133,4.426-1,6.473-2.025c0.553-0.275,1.098-0.517,1.719-0.625
		c1.318-0.226,2.402-1.05,3.455-1.744c1.047-0.688,2.139-1.326,3.18-2.027c1.018-0.692,1.84-1.554,2.561-2.491
		c0.557-0.719,1.17-1.356,1.826-1.972c0.752-0.705,1.404-1.477,1.623-2.519c0.076-0.346,0.305-0.577,0.498-0.835
		c0.324-0.438,0.713-0.9,0.742-1.431c0.061-1.104,0.701-1.865,1.328-2.664c0.412-0.52,0.697-1.097,0.793-1.76
		c0.061-0.408,0.205-0.769,0.443-1.099c0.158-0.236,0.383-0.515,0.383-0.767c-0.021-2.045,1.354-3.647,1.688-5.607
		c0.328-1.955,0.975-3.857,1.129-5.847c0.148-1.91,0.564-3.793,0.732-5.682c0.139-1.562,0.486-3.15,0.203-4.746
		c-0.094-0.513-0.012-0.987,0.25-1.463c0.523-0.944,0.615-1.974,0.518-3.054c-0.107-1.212,0.211-2.423,0.08-3.656
		C177.744,98.241,177.668,97.048,177.504,95.861 M170.088,103.91c-0.041,0.131-0.041,0.303,0.008,0.432
		c0.781,2.264-0.217,4.397-0.465,6.581c-0.133,1.139-0.213,2.286-0.428,3.419c-0.523,2.811-1.262,5.565-1.92,8.343
		c-0.4,1.7-0.947,3.335-1.529,4.977c-0.102,0.274-0.172,0.538-0.332,0.787c-0.158,0.237-0.377,0.495-0.395,0.761
		c-0.123,1.714-1.068,3.096-2.066,4.301c-1.256,1.522-1.859,3.656-3.912,4.501c-0.256,0.105-0.463,0.356-0.666,0.561
		c-1.141,1.153-2.611,1.773-4.02,2.486c-0.127,0.071-0.285,0.089-0.4,0.174c-1.848,1.38-4.145,1.613-6.213,2.433
		c-0.166,0.065-0.367,0.089-0.502,0.196c-1.498,1.203-3.373,1.12-5.104,1.542c-1.895,0.457-3.768,1.007-5.646,1.535
		c-0.428,0.117-0.848,0.181-1.428,0.117c-0.258,0.029-0.684,0-1.041,0.143c-1.43,0.552-3.041,0.299-4.424,1.033
		c-0.242,0.121-0.502-0.018-0.75-0.029c-1.096-0.06-2.154,0.059-3.221,0.388c-1.203,0.378-2.469,0.521-3.742,0.396
		c-0.584-0.053-1.168-0.091-1.719,0.096c-1.123,0.386-2.277,0.425-3.447,0.419c-1.809-0.012-3.611,0.125-5.408,0.362
		c-0.246,0.032-0.502-0.018-0.758-0.029c-2.414-0.083-4.828-0.354-7.246-0.154c-1.836,0.16-3.645-0.194-5.469-0.229
		c-1.662-0.032-3.348-0.202-4.98-0.115c-2.871,0.154-5.676-0.229-8.512-0.396c-1.176-0.069-2.379-0.092-3.561,0.012
		c-1.35,0.12-2.678,0.065-4.011-0.152c-0.032-0.006-0.068-0.022-0.104-0.022c-1.984,0.094-3.983-0.669-5.957,0.077
		c-0.237,0.086-0.408,0.022-0.614-0.066c-1.692-0.721-3.455-0.979-5.28-0.697c-0.277,0.048-0.5-0.018-0.733-0.108
		c-0.413-0.155-0.848-0.31-1.273-0.226c-1.231,0.263-2.448-0.098-3.672-0.026c-0.106,0.014-0.229,0.038-0.32,0.008
		c-1.507-0.623-3.14-0.396-4.696-0.734c-1.468-0.318-2.977-0.598-4.511-0.36c-0.248,0.036-0.522,0.06-0.755-0.006
		c-1.917-0.519-3.922-0.376-5.862-0.902c-1.214-0.324-2.493-0.764-3.813-0.675c-0.272,0.018-0.484-0.125-0.715-0.226
		c-0.366-0.158-0.729-0.416-1.104-0.434c-2.537-0.129-4.56-1.655-6.855-2.431c-1.287-0.432-2.563-0.802-3.654-1.651
		c-0.239-0.197-0.608-0.226-0.916-0.334c-0.866-0.293-1.55-0.771-2.206-1.465c-1.104-1.16-2.368-2.18-3.521-3.312
		c-0.622-0.615-1.128-1.269-1.662-1.945c-1.791-2.231-2.691-4.931-4.046-7.39c-0.107-0.188-0.218-0.382-0.269-0.59
		c-0.738-2.941-1.719-5.806-2.747-8.653c-0.059-0.163-0.114-0.341-0.132-0.519c-0.161-1.796-0.609-3.544-0.871-5.317
		c-0.187-1.239-0.21-2.516-0.53-3.743c-0.094-0.35-0.168-0.704-0.253-1.057c-0.29-1.178-0.768-2.322-0.213-3.575
		c0.204-0.455,0.177-1.017,0.021-1.5c-0.299-0.922-0.308-1.868-0.208-2.801c0.115-1.068-0.275-2.086-0.216-3.136
		c0.116-2.098,0.24-4.194,0.366-6.29c0.029-0.508,0.219-1.041,0.11-1.514c-0.393-1.665,0.127-3.265,0.224-4.901
		c0.056-0.922,0.479-1.742,0.627-2.635c0.283-1.748,0.227-3.533,0.617-5.275c0.08-0.354,0.129-0.707,0.28-1.033
		c0.635-1.364,0.779-2.854,1.125-4.288c0.287-1.198,0.644-2.38,1.061-3.52c0.505-1.389,0.851-2.836,1.541-4.166
		c0.296-0.566,0.437-1.228,0.577-1.859c0.392-1.79,1.122-3.433,2.134-4.95c0.381-0.578,0.712-1.176,0.99-1.813
		c0.348-0.797,0.808-1.536,1.388-2.191c0.313-0.354,0.653-0.697,0.815-1.146c0.892-2.516,2.87-4.088,4.894-5.611
		c0.378-0.283,0.814-0.538,1.036-0.952c0.424-0.803,1.11-1.18,1.92-1.464c1.096-0.384,1.943-1.223,3.054-1.619
		c3.121-1.115,6.137-2.504,9.294-3.555c1.423-0.473,2.903-0.744,4.314-1.312c1.347-0.536,2.89-0.644,4.362-0.809
		c0.871-0.101,1.71-0.349,2.531-0.578c1.042-0.296,2.162-0.268,3.154-0.763c0.124-0.064,0.284-0.1,0.422-0.089
		c1.994,0.207,3.857-0.448,5.747-0.909c0.222-0.055,0.422-0.06,0.636-0.018c1.511,0.295,3.036,0.236,4.548,0.023
		c2.079-0.302,4.17-0.154,6.258-0.148c0.392,0,0.803-0.012,1.189-0.088c1.554-0.324,3.101-0.119,4.649,0.029
		c0.508,0.047,1.016,0.146,1.512,0.012c1.671-0.46,3.317-0.041,4.953,0.178c0.812,0.106,1.599,0.188,2.348-0.131
		c0.554-0.235,1.022-0.207,1.55,0.055c1.052,0.518,2.215,0.312,3.32,0.359c1.932,0.076,3.855,0.515,5.811,0.301
		c0.262-0.029,0.496,0.071,0.732,0.172c0.373,0.148,0.783,0.312,1.162,0.225c1.396-0.337,2.785-0.012,4.176-0.03
		c0.975-0.012,1.916,0.283,2.869,0.455c0.178,0.029,0.35,0.171,0.516,0.153c1.855-0.17,3.615,0.745,5.471,0.479
		c0.076-0.012,0.166-0.053,0.211-0.029c1.547,0.81,3.262,0.249,4.873,0.608c1.514,0.332,3.1,0.302,4.596,0.816
		c0.312,0.105,0.715,0.006,1.076-0.055c0.49-0.088,0.908,0,1.352,0.237c1.146,0.613,2.41,0.82,3.68,0.786
		c0.619-0.019,1.164,0.058,1.658,0.359c0.693,0.43,1.441,0.638,2.223,0.826c0.791,0.195,1.607,0.378,2.258,0.976
		c0.434,0.401,1.02,0.52,1.59,0.667c0.91,0.23,1.84,0.431,2.578,1.081c0.055,0.048,0.119,0.088,0.189,0.101
		c1.643,0.319,2.979,1.44,4.637,1.736c1.039,0.183,2.062,0.685,2.844,1.258c2.113,1.56,4.473,2.829,6.238,4.839
		c0.285,0.33,0.586,0.648,0.961,0.879c0.389,0.236,0.637,0.538,0.758,0.998c0.104,0.379,0.258,0.827,0.537,1.052
		c1.203,0.957,1.924,2.327,3.021,3.384c1.039,1.012,1.936,2.133,2.326,3.687c0.41,1.66,1.238,3.225,1.957,4.803
		c0.211,0.466,0.33,0.95,0.518,1.405c0.633,1.56,1.025,3.249,1.986,4.649c0.809,1.18,1.133,2.468,1.002,3.791
		c-0.145,1.4,0.268,2.646,0.605,3.935c0.066,0.241,0.275,0.49,0.242,0.709c-0.182,1.281,0.305,2.438,0.715,3.586
		c0.58,1.594,0.312,3.302,0.762,4.907c0.371,1.317,0.297,2.754,1.135,3.934c0.059,0.084,0.131,0.22,0.1,0.295
		c-0.469,1.477,0.111,2.875,0.311,4.294c0.287,2.034-0.09,4.048-0.062,6.068C170.273,101.532,170.41,102.73,170.088,103.91"/>
	<path fill-rule="evenodd" clip-rule="evenodd" fill="#280D09" d="M35.919,136.309c0.041-0.861,0.381-2.001,0.974-3.048
		c0.485-0.854,1.246-1.457,2.186-1.688c2.774-0.68,6.344,0.756,7.027,4.16c0.59,2.953-2.085,5.709-5.11,5.374
		c-0.577-0.071-1.146-0.176-1.71-0.303C37.07,140.321,35.928,138.901,35.919,136.309"/>
	<path fill-rule="evenodd" clip-rule="evenodd" fill="#280D09" d="M137.816,141.798c-0.807,0.101-1.695,0.006-2.57-0.275
		c-2.221-0.713-3.461-3.181-2.717-5.396c0.975-2.895,3.168-4.134,6.078-3.444c0.07,0.023,0.143,0.035,0.209,0.055
		c2.33,0.672,4.285,4.759,3.314,6.987c-0.611,1.394-1.717,2.103-3.234,2.14C138.572,141.875,138.246,141.827,137.816,141.798"/>
	<path fill-rule="evenodd" clip-rule="evenodd" fill="#280D09" d="M60.864,136.629c1.694,0.011,3.12,1.507,3.111,3.261
		c0,1.646-1.352,2.979-2.985,2.947c-1.707-0.04-3.098-1.511-3.098-3.284C57.892,137.868,59.161,136.617,60.864,136.629"/>
	<path fill-rule="evenodd" clip-rule="evenodd" fill="#280D09" d="M97.506,139.283c1.564,0,2.814,1.32,2.814,2.976
		c0.006,1.74-1.287,3.107-2.949,3.113c-1.607,0.006-2.898-1.284-2.9-2.888C94.467,140.772,95.887,139.275,97.506,139.283"/>
	<path fill-rule="evenodd" clip-rule="evenodd" fill="#280D09" d="M81.633,140.883c-0.014,1.729-1.249,3.062-2.849,3.076
		c-1.596,0.012-2.83-1.299-2.794-2.961c0.041-1.687,1.347-3.047,2.918-3.03C80.467,137.985,81.648,139.252,81.633,140.883"/>
	<path fill-rule="evenodd" clip-rule="evenodd" fill="#280D09" d="M118.475,137.874c1.547,0.012,2.758,1.235,2.746,2.777
		c-0.016,1.596-1.473,2.971-3.148,2.965c-1.545-0.006-2.766-1.241-2.748-2.774C115.344,139.246,116.812,137.862,118.475,137.874"/>
	<path fill-rule="evenodd" clip-rule="evenodd" fill="#280D09" d="M157.414,94.053c0.377-1.251,0.197-2.522,0.09-3.78
		c-0.1-1.268-0.086-2.521,0-3.797c0.102-1.56,0.01-3.149-0.045-4.715c-0.029-1.051-0.234-2.15-0.389-3.219
		c-0.104-0.769-0.295-1.476-0.641-2.167c-0.408-0.81-0.826-1.685-0.803-2.576c0.074-2.646-1.025-4.944-2.424-6.964
		c-1.123-1.63-1.508-3.722-3.17-4.991c-0.096-0.07-0.102-0.266-0.148-0.401c-0.418-1.229-1.205-2.138-2.346-2.74
		c-0.303-0.16-0.486-0.396-0.691-0.656c-1.23-1.536-2.604-2.912-4.531-3.562c-0.461-0.16-0.826-0.401-1.191-0.715
		c-1.023-0.874-2.121-1.684-3.398-2.104c-2.621-0.851-5.359-1.198-8.066-1.659c-0.285-0.041-0.604-0.06-0.865,0.035
		c-0.619,0.213-1.174,0.048-1.648-0.283c-1.578-1.1-3.418-0.756-5.143-0.904c-0.873-0.07-1.719-0.064-2.523-0.437
		c-0.537-0.243-1.141-0.484-1.682-0.308c-1.289,0.426-2.459,0.272-3.639-0.319c-0.385-0.194-0.852-0.194-1.289-0.111
		c-0.402,0.077-0.791-0.035-1.182-0.03c-1.312,0.019-2.586-0.255-3.857-0.514c-0.949-0.188-1.912,0.165-2.811-0.064
		c-1.277-0.331-2.592-0.249-3.875-0.496c-0.738-0.143-1.523-0.172-2.275-0.106c-1.76,0.147-3.504,0.371-5.232-0.23
		c-0.447-0.159-0.928-0.095-1.398-0.023c-0.939,0.153-1.932,0.229-2.815-0.012c-1.87-0.508-3.801,0.296-5.653-0.42
		c-0.487-0.189-1.151,0.006-1.715,0.124c-0.472,0.101-0.927,0.059-1.394,0.059c-1.482-0.006-2.965,0.066-4.447,0.119
		c-1.513,0.059-3.007,0.39-4.525,0.342c-1.066-0.041-2.089,0.113-3.113,0.408c-0.402,0.118-0.807,0.365-1.258,0.254
		c-2.01-0.52-4.03,0.224-6.048-0.047c-0.136-0.018-0.292,0.012-0.428,0.054c-0.913,0.318-1.86,0.234-2.796,0.277
		c-0.438,0.018-0.865,0.088-1.296,0.135c-1.891,0.213-3.653,1.058-5.638,0.91c-2.517-0.188-4.694,1.288-7.083,1.795
		c-1.255,0.267-2.174,1.3-3.296,1.809c-1.878,0.855-3.521,2.144-5.478,2.835c-0.408,0.142-0.745,0.443-1.05,0.763
		c-1.296,1.358-2.596,2.704-3.887,4.062c-0.244,0.26-0.49,0.538-0.673,0.851c-0.488,0.815-1.081,1.53-1.748,2.209
		c-1.205,1.224-1.967,2.683-2.052,4.431c-0.012,0.26-0.006,0.507-0.13,0.744c-0.78,1.482-0.895,3.178-1.513,4.713
		c-0.235,0.597-0.479,1.236-0.413,1.903c0.113,1.115-0.212,2.149-0.499,3.194c-0.387,1.399-0.543,2.848-0.517,4.283
		c0.027,1.316-0.402,2.658,0.136,3.964c0.044,0.111-0.053,0.282-0.091,0.418c-0.594,2.079-0.458,4.153,0.052,6.22
		c0.225,0.903,0.484,1.788,0.272,2.764c-0.147,0.655-0.044,1.371-0.017,2.062c0.05,1.223,0.12,2.446,0.183,3.674
		c-0.072,0.798-0.085,1.607,0.263,2.352c0.496,1.068,0.655,2.219,0.824,3.353c0.31,2.151,0.693,4.25,1.863,6.17
		c0.783,1.28,1.291,2.735,1.918,4.109c0.268,0.602,0.549,1.199,1.024,1.654c1.3,1.251,2.62,2.48,3.942,3.704
		c0.237,0.226,0.517,0.419,0.813,0.542c1.562,0.64,2.784,1.802,4.193,2.67c1.22,0.757,2.466,1.536,3.925,1.778
		c1.428,0.243,2.859,0.498,4.247,0.856c2.417,0.626,4.864,1.075,7.295,1.613c0.502,0.111,1.004,0.148,1.512,0.137
		c0.656-0.02,1.293,0.093,1.941,0.158c1.083,0.111,2.12,0.604,3.21,0.515c1.278-0.101,2.551,0.083,3.774,0.266
		c2.989,0.443,6.045,0.324,8.983,1.14c0.438,0.123,0.957,0.117,1.401,0.02c1.042-0.239,2.038,0.017,2.998,0.275
		c1.066,0.289,2.135,0.395,3.219,0.455c0.723,0.036,1.485-0.101,2.164,0.084c1.961,0.514,3.958,0.189,5.924,0.37
		c0.78,0.071,1.589,0.326,2.376,0.071c1.198-0.396,2.384-0.515,3.579,0.006c0.189,0.083,0.449,0.118,0.645,0.061
		c1.537-0.445,3.113-0.427,4.691-0.473c0.691-0.023,1.355-0.119,2.025,0.106c0.34,0.111,0.711,0.141,1.066,0.2
		c3.094,0.481,6.156-0.572,9.256-0.249c0.137,0.012,0.283-0.075,0.428-0.087c1.328-0.084,2.645-0.268,3.961-0.432
		c1.26-0.154,2.553-0.58,3.857-0.165c0.188,0.058,0.426-0.049,0.641-0.083c1.996-0.332,3.996-0.633,5.951-1.213
		c2.033-0.6,4.195-0.69,6.213-1.38c1.363-0.469,2.832-0.709,3.941-1.726c0.408-0.374,0.824-0.521,1.359-0.526
		c1.174-0.017,2.191-0.454,3.016-1.299c0.178-0.183,0.318-0.408,0.568-0.497c1.783-0.604,3.02-2.001,4.355-3.177
		c2.258-1.985,4.025-4.436,5.557-7.029c0.457-0.773,0.916-1.541,1.295-2.375c0.479-1.062,1.096-2.032,1.055-3.26
		c-0.012-0.154,0.148-0.318,0.244-0.469c0.299-0.464,0.508-0.961,0.613-1.499c0.428-2.078,0.877-4.158,1.281-6.237
		c0.207-1.057,0.525-2.066,0.639-3.165c0.131-1.34,0.381-2.63,0.01-3.96C157.326,94.348,157.373,94.189,157.414,94.053
		 M150.473,92.646c0.023,1.047-0.018,2.022-0.293,3.05c-0.26,0.986-0.254,2.061-0.379,3.102c-0.225,1.835-0.73,3.589-1.271,5.343
		c-0.131,0.451-0.289,0.895-0.391,1.355c-0.6,2.563-1.889,4.836-3.186,7.064c-0.721,1.245-1.787,2.352-2.768,3.454
		c-1.131,1.275-2.459,2.429-3.922,3.213c-1.389,0.746-2.559,1.742-3.85,2.583c-0.822,0.536-1.854,0.607-2.803,0.768
		c-1.572,0.266-3.023,0.927-4.59,1.228c-2.139,0.408-4.305,0.58-6.449,0.875c-0.65,0.089-1.264,0.283-1.895,0.455
		c-1.104,0.312-2.266,0.312-3.414,0.329c-0.217,0.006-0.443-0.111-0.645-0.063c-1.518,0.336-3.111,0.058-4.602,0.592
		c-0.307,0.112-0.604,0.253-0.943,0.146c-1.506-0.474-3.037-0.169-4.543-0.083c-1.074,0.065-2.164,0.218-3.195,0.613
		c-0.309,0.117-0.613,0.141-0.951,0.042c-0.67-0.2-1.363-0.242-2.039-0.036c-0.492,0.154-0.957,0.03-1.381-0.135
		c-1.104-0.43-2.186-0.467-3.285-0.018c-0.377,0.152-0.816,0.2-1.17,0.042c-1.498-0.699-3.082-0.36-4.624-0.389
		c-2.088-0.043-4.193,0.052-6.255-0.291c-1.55-0.261-3.095-0.22-4.643-0.231c-0.558-0.006-1.062-0.081-1.588-0.241
		c-0.514-0.16-1.07-0.368-1.59-0.331c-3.042,0.194-6.013-0.556-9.029-0.732c-1.154-0.066-2.374-0.16-3.523-0.53
		c-0.513-0.172-1.066-0.172-1.611-0.201c-1.298-0.065-2.584-0.09-3.866-0.456c-1.346-0.384-2.785-0.318-4.162-0.648
		c-1.22-0.302-2.473-0.426-3.626-1.006c-0.668-0.337-1.429-0.547-2.167-0.667c-1.485-0.243-2.82-0.885-4.2-1.407
		c-1.039-0.389-1.899-1.008-2.488-1.995c-0.33-0.555-0.784-1.038-1.34-1.404c-1.565-1.029-2.439-2.606-3.428-4.125
		c-1.336-2.061-1.809-4.471-2.868-6.645c-0.425-0.873-0.584-1.854-0.455-2.853c0.064-0.507,0.056-1.011-0.094-1.512
		c-0.479-1.524-0.647-3.102-0.742-4.691c-0.026-0.43-0.08-0.879-0.221-1.286c-0.251-0.717-0.228-1.424-0.086-2.14
		c0.434-2.155,0.55-4.306-0.074-6.449c-0.082-0.29-0.017-0.562,0.081-0.844c0.212-0.627,0.212-1.27,0.174-1.931
		c-0.06-0.97,0.242-1.916,0.265-2.896c0.018-0.785,0.116-1.583,0.128-2.38c0.012-0.721,0.097-1.441,0.44-2.103
		c0.49-0.963,0.484-2.044,0.62-3.071c0.076-0.574,0.183-1.117,0.319-1.678c0.23-0.975,0.661-1.802,1.235-2.604
		c0.33-0.467,0.64-1.005,0.755-1.554c0.286-1.324,0.987-2.363,1.843-3.374c0.785-0.921,1.624-1.724,2.744-2.215
		c0.295-0.13,0.617-0.276,0.836-0.502c1.312-1.37,3.101-1.972,4.69-2.876c0.915-0.521,2.114-0.526,3.004-1.188
		c1.568-1.164,3.518-0.95,5.245-1.523c0.98-0.319,1.913-0.939,3.062-0.585c1.231-0.101,2.496-0.13,3.74-0.39
		c0.674-0.143,1.361-0.143,2.038-0.207c2.185-0.207,4.421,0.077,6.55-0.638c0.36-0.118,0.697-0.142,1.062-0.077
		c1.265,0.212,2.522,0.267,3.781-0.047c1.241-0.308,2.52-0.089,3.778-0.261c1.681-0.224,3.381-0.295,5.07-0.461
		c0.332-0.034,0.644-0.011,0.972,0.013c1.084,0.076,2.174,0.213,3.201-0.314c0.311-0.158,0.628-0.088,0.951,0.014
		c0.706,0.229,1.438,0.247,2.153,0.105c1.202-0.236,2.373-0.105,3.548,0.166c0.389,0.089,0.797,0.142,1.189,0.059
		c1.748-0.365,3.426,0.012,5.127,0.372c1.234,0.26,2.518,0.23,3.787,0.226c1.777-0.019,3.508,0.46,5.275,0.472
		c1.777,0.006,3.52,0.165,5.25,0.579c0.658,0.152,1.305-0.013,1.934-0.177c0.535-0.148,0.953-0.101,1.424,0.218
		c0.854,0.59,1.822,0.685,2.818,0.443c0.723-0.184,1.396-0.007,2.117,0.125c1.676,0.306,3.311,1.121,5.094,0.606
		c0.375-0.105,0.801-0.135,1.18,0.042c1.949,0.933,4.068,1.205,6.152,1.66c1.002,0.225,2.033,0.342,2.625,1.435
		c0.324,0.609,1.02,0.98,1.707,1.076c0.814,0.105,1.451,0.489,1.992,1.021c1.037,1.022,2.363,1.778,3.004,3.185
		c0.1,0.224,0.258,0.472,0.457,0.603c1.201,0.763,1.693,2.127,2.67,3.077c0.293,0.29,0.504,0.655,0.574,1.033
		c0.324,1.755,1.16,3.344,1.654,5.045c0.121,0.42,0.311,0.832,0.607,1.146c0.654,0.697,0.824,1.613,0.76,2.428
		c-0.088,1.164,0.359,2.221,0.359,3.338c-0.002,1.653,0.422,3.254,0.557,4.902C150.611,88.117,150.434,90.374,150.473,92.646"/>
	<path fill-rule="evenodd" clip-rule="evenodd" fill="#280D09" d="M135.352,152.057c0.207-0.231,0.193-0.538,0.279-0.812
		c0.549-1.768,2.109-2.899,3.928-2.828c1.742,0.066,3.207,1.302,3.668,3.042c0.201,0.744,0.076,1.53,0.283,2.259
		c0.615,2.171,0.566,4.447,1.105,6.627c0.154,0.643,0.068,1.312,0.051,1.943c-0.08,2.728,0.402,5.491-0.572,8.167
		c-0.402,1.106-0.971,2.033-2.035,2.577c-0.402,0.208-0.693,0.478-0.934,0.857c-0.621,0.97-1.537,1.469-2.668,1.7
		c-1.334,0.269-2.619,0.461-3.947-0.048c-0.604-0.231-1.309,0.097-1.932-0.172c-1.096-0.466-2.217-0.873-3.252-1.438
		c-1.129-0.621-1.766-1.708-2.131-2.915c-0.201-0.663-0.336-1.328-0.77-1.889c-0.109-0.143-0.213-0.324-0.227-0.497
		c-0.164-1.791-0.945-3.497-0.693-5.342c0.129-0.975,0.262-1.937-0.348-2.835c-0.172-0.253-0.232-0.627-0.236-0.938
		c-0.02-2.177,0.102-4.339,0.967-6.379c0.6-1.422,1.861-2.12,3.309-1.92c0.709,0.097,1.352,0.384,1.779,0.947
		c0.451,0.595,0.889,0.472,1.396,0.159C133.814,151.441,133.973,151.431,135.352,152.057"/>
	<path fill-rule="evenodd" clip-rule="evenodd" fill="#280D09" d="M58.069,153.408c-0.239,2.441-0.041,4.62-0.52,6.717
		c-0.364,1.601-0.352,3.226-0.636,4.819c-0.021,0.107-0.015,0.226-0.055,0.322c-0.948,2.141-0.898,4.529-1.599,6.73
		c-0.333,1.053-0.912,1.853-1.843,2.464c-0.966,0.632-1.828,1.41-2.814,2.025c-0.88,0.55-1.801,0.75-2.806,0.55
		c-1.207-0.245-2.413-0.508-3.603-0.813c-1.362-0.354-2.445-1.213-3.151-2.361c-0.576-0.939-1.128-1.91-1.444-2.969
		c-0.287-0.974-0.29-1.972-0.579-2.947c-0.154-0.521-0.133-1.06-0.133-1.604c0-0.592,0.044-1.207-0.044-1.793
		c-0.142-0.933-0.018-1.853-0.181-2.779c-0.162-0.944-0.088-1.881,0.337-2.76c0.094-0.203,0.201-0.396,0.177-0.619
		c-0.239-2.346,1.017-4.165,2.114-6.037c0.148-0.249,0.328-0.475,0.484-0.721c1.392-2.201,4.188-2.195,5.497,0.071
		c0.331,0.572,0.683,0.62,1.255,0.73c1.296,0.243,2.079-0.039,2.824-1.251c0.82-1.346,2.72-1.656,4.217-1.087
		C57.077,150.669,58.069,152.104,58.069,153.408"/>
	<path fill-rule="evenodd" clip-rule="evenodd" fill="#280D09" d="M105.24,26.054c0.113-0.695,0-1.563,0-2.273
		c-0.006-0.638,0-1.275,0-1.919c0-0.438,0.094-0.786,0.154-1.182c0.062-0.484,0.029-0.963,0.059-1.44
		c0.018-0.296,0.229-0.763,0.186-1.035c-0.221-1.364,0.451-2.533,0.742-3.792c0.391-1.707,1.432-2.94,2.432-4.275
		c0.676-0.904,1.52-1.66,2.396-2.351c0.637-0.509,1.309-0.804,1.898-1.413c1.578-1.629,3.785-2.262,5.994-1.849
		c0.33,0.06,0.658,0.154,0.988,0.243c0.449,0.112,0.986,0.212,1.406,0.401c1.664,0.755,3.027,2.002,4.535,3.013
		c0.32,0.218,0.572,0.549,0.822,0.862c0.438,0.543,0.762,1.169,1.246,1.678c0.379,0.39,0.654,0.879,0.908,1.363
		c0.244,0.462,0.502,1.093,0.652,1.583c0.176,0.609,0.566,1.069,0.725,1.689c0.195,0.774,0.457,1.482,0.496,2.292
		c0.096,1.867-0.131,3.716,0.041,5.605c0.268,2.795-0.07,5.611-0.713,8.376c-0.486,2.103-2.521,3.438-4.602,2.977
		c-2.125-0.479-3.428-2.623-2.902-4.749c0.518-2.078,0.689-4.199,0.684-6.337c0-0.106-0.018-0.22,0.006-0.325
		c0.477-2.145-0.154-4.241-0.35-6.345c-0.084-0.909-0.568-1.896-1.348-2.635c-0.875-0.825-1.789-1.576-2.809-2.209
		c-1.029-0.637-2.543-0.466-3.342,0.45c-1.176,1.341-2.182,2.841-2.797,4.488c-0.375,0.992-0.746,2.067-0.727,3.237
		c0.016,1.027-0.25,2.079-0.516,3.089c-0.215,0.81-0.178,1.59,0.029,2.346c0.242,0.886,0.354,1.778,0.434,2.676
		c0.15,1.754-0.988,3.26-2.672,3.562c-1.709,0.302-3.301-0.673-3.752-2.387C105.256,28.388,105.043,27.277,105.24,26.054"/>
	<path fill-rule="evenodd" clip-rule="evenodd" fill="#280D09" d="M57.664,24.235c0.159-0.638-0.287-1.299-0.18-1.978
		c0.191-1.242,0.106-2.523,0.324-3.729c0.308-1.719,0.485-3.521,1.421-5.091c1.102-1.855,2.012-3.804,3.562-5.388
		c0.726-0.737,1.302-1.617,2.176-2.238c1.465-1.039,2.897-2.127,4.679-2.593c1.376-0.35,3.037-0.414,4.465-0.236
		c1.021,0.13,1.967,0.727,2.918,1.087c1.045,0.396,1.978,0.933,2.693,1.807c1.223,1.501,2.427,2.966,3.146,4.873
		c0.646,1.725,1.009,3.456,1.314,5.233c0.17,1.011-0.036,2.021-0.009,3.036c0.027,1.258,0.423,2.464,0.337,3.763
		c-0.094,1.489-0.453,2.918-0.638,4.377c-0.259,1.949-2.331,3.165-4.256,2.799c-1.981-0.371-3.387-2.148-3.028-4.115
		c0.161-0.875,0.187-1.772,0.222-2.659c0.012-0.384,0.024-0.762,0.107-1.14c0.076-0.331,0.207-0.667,0.248-1.016
		c0.047-0.39-0.083-0.769-0.068-1.158c0.012-0.307,0.085-0.59,0.074-0.903c-0.018-0.35-0.15-0.715-0.218-1.058
		c-0.063-0.324-0.118-0.655-0.163-0.979c-0.044-0.343-0.109-0.751-0.214-1.081c-0.048-0.154-0.101-0.243-0.119-0.408
		c-0.018-0.177,0-0.354-0.03-0.532c-0.053-0.354-0.091-0.691-0.112-1.051c-0.029-0.556-0.461-0.986-0.704-1.453
		c-0.342-0.661-0.879-1.193-1.408-1.701c-0.243-0.236-0.458-0.585-0.777-0.721c-0.295-0.124-0.637-0.041-0.945-0.018
		c-0.378,0.036-0.755,0.048-1.135,0.082c-0.767,0.077-1.518,0.267-2.14,0.745c-2.059,1.571-3.542,3.425-4.07,6.031
		c-0.295,1.447-0.7,2.905-0.86,4.341c-0.17,1.542-0.012,3.153,0.367,4.726c0.528,2.186-1.273,4.082-3.494,3.798
		c-0.753-0.101-1.376-0.438-1.887-0.992C58.453,27.81,57.611,25.499,57.664,24.235"/>
</g>
</svg>
